<svg width="32" height="32" viewBox="0 0 32 32" fill="none" xmlns="http://www.w3.org/2000/svg">
<path d="M6.66693 18.666H24.1812C25.5317 18.666 26.2069 18.666 26.7444 18.4142C27.2179 18.1925 27.6158 17.8363 27.8885 17.3902C28.1981 16.8838 28.2727 16.2127 28.4218 14.8705L29.2018 7.85048C29.2474 7.44053 29.2701 7.23555 29.2042 7.0769C29.1463 6.93756 29.0429 6.82198 28.9108 6.74905C28.7604 6.66602 28.5541 6.66602 28.1417 6.66602H6.00027M2.66675 2.66602H4.33133C4.68416 2.66602 4.86058 2.66602 4.9986 2.73311C5.1201 2.79219 5.2208 2.88678 5.28733 3.00437C5.36291 3.13793 5.37391 3.314 5.39592 3.66615L6.60424 22.9992C6.62625 23.3514 6.63725 23.5274 6.71283 23.661C6.77937 23.7786 6.88006 23.8732 7.00156 23.9323C7.13958 23.9993 7.316 23.9993 7.66883 23.9993H25.3334M10.0001 28.666H10.0134M22.0001 28.666H22.0134M10.6667 28.666C10.6667 29.0342 10.3683 29.3327 10.0001 29.3327C9.63189 29.3327 9.33341 29.0342 9.33341 28.666C9.33341 28.2978 9.63189 27.9993 10.0001 27.9993C10.3683 27.9993 10.6667 28.2978 10.6667 28.666ZM22.6667 28.666C22.6667 29.0342 22.3683 29.3327 22.0001 29.3327C21.6319 29.3327 21.3334 29.0342 21.3334 28.666C21.3334 28.2978 21.6319 27.9993 22.0001 27.9993C22.3683 27.9993 22.6667 28.2978 22.6667 28.666Z" stroke="#1A56DB" stroke-width="2.5" stroke-linecap="round" stroke-linejoin="round"/>
</svg>
