<svg width="24" height="24" viewBox="0 0 24 24" fill="none" xmlns="http://www.w3.org/2000/svg">
<path d="M12 11.3684C15.4412 11.3684 18.2308 8.82351 18.2308 5.68421C18.2308 2.54491 15.4412 0 12 0C8.55884 0 5.76923 2.54491 5.76923 5.68421C5.76923 8.82351 8.55884 11.3684 12 11.3684Z" fill="#1C64F2"/>
<path d="M14.0769 12.6316H9.92308C8.08764 12.6336 6.328 13.2996 5.03015 14.4836C3.7323 15.6677 3.0022 17.2729 3 18.9474V22.7368C3 23.0719 3.14588 23.3931 3.40554 23.63C3.66521 23.8669 4.01739 24 4.38462 24H19.6154C19.9826 24 20.3348 23.8669 20.5945 23.63C20.8541 23.3931 21 23.0719 21 22.7368V18.9474C20.9978 17.2729 20.2677 15.6677 18.9699 14.4836C17.672 13.2996 15.9124 12.6336 14.0769 12.6316Z" fill="#1C64F2"/>
</svg>
