<svg width="32" height="32" viewBox="0 0 32 32" fill="none" xmlns="http://www.w3.org/2000/svg">
<path d="M24.6667 21.3333C27.2441 21.3333 29.3334 17.4531 29.3334 12.6667C29.3334 7.8802 27.2441 4 24.6667 4M24.6667 21.3333C22.0894 21.3333 20.0001 17.4531 20.0001 12.6667C20.0001 7.8802 22.0894 4 24.6667 4M24.6667 21.3333L7.25814 18.1681C6.02148 17.9433 5.40316 17.8309 4.90318 17.5853C3.88604 17.0856 3.12856 16.178 2.81894 15.0879C2.66675 14.5521 2.66675 13.9236 2.66675 12.6667C2.66675 11.4097 2.66675 10.7813 2.81894 10.2454C3.12856 9.15532 3.88604 8.2477 4.90318 7.74806C5.40316 7.50247 6.02148 7.39005 7.25814 7.1652L24.6667 4M6.66675 18.6667L7.19189 26.0187C7.24176 26.7169 7.2667 27.0659 7.41858 27.3305C7.55231 27.5634 7.75327 27.7506 7.99514 27.8674C8.26985 28 8.61983 28 9.3198 28H11.6963C12.4965 28 12.8966 28 13.1928 27.8404C13.453 27.7002 13.6592 27.4775 13.7791 27.2073C13.9155 26.8998 13.8848 26.5009 13.8234 25.703L13.3334 19.3333" stroke="#1A56DB" stroke-width="2.5" stroke-linecap="round" stroke-linejoin="round"/>
</svg>
