<svg width="36" height="36" viewBox="0 0 36 36" fill="none" xmlns="http://www.w3.org/2000/svg">
<path d="M15.3818 14.1465L22.0516 17.941L15.3818 21.7349V14.1465Z" fill="#374151"/>
<path d="M32.11 0H3.89005C1.74171 0 0 1.74171 0 3.89005V32.11C0 34.2583 1.74171 36 3.89005 36H32.11C34.2583 36 36 34.2583 36 32.11V3.89005C36 1.74171 34.2583 0 32.11 0ZM30.2172 24.122C29.9244 25.2274 29.0592 26.0975 27.9615 26.3925C25.9711 26.9298 17.9916 26.9298 17.9916 26.9298C17.9916 26.9298 10.012 26.9298 8.02169 26.3925C6.924 26.0975 6.05876 25.2274 5.7659 24.122C5.23215 22.119 5.23215 17.9403 5.23215 17.9403C5.23215 17.9403 5.23215 13.7609 5.7659 11.7579C6.05876 10.6532 6.924 9.78236 8.02169 9.4874C10.012 8.95084 17.9916 8.95084 17.9916 8.95084C17.9916 8.95084 25.9711 8.95084 27.9615 9.4874C29.0592 9.78236 29.9244 10.6532 30.2172 11.7579C30.751 13.7609 30.751 17.9403 30.751 17.9403C30.751 17.9403 30.751 22.119 30.2172 24.122Z" fill="#374151"/>
</svg>
