<svg width="112" height="112" viewBox="0 0 112 112" fill="none" xmlns="http://www.w3.org/2000/svg">
<g clip-path="url(#clip0_466_8781)">
<path d="M111.226 49.4305C108.632 38.6214 94.1723 34.8132 85.4829 35.2634C73.8872 35.8641 68.6334 32.2072 71.1744 20.3849C72.6263 13.6295 74.088 9.03353 63.6243 5.47053C54.5875 2.39381 25.4391 -0.945847 19.3687 9.45922C16.4064 14.5371 27.31 19.1687 22.1644 26.0295C18.5344 30.8696 7.77762 27.2908 1.965 34.7614C-2.15997 40.0628 0.439214 48.7482 11.2089 53.356C20.3848 57.2817 33.8828 59.5453 36.3545 70.8641C37.5935 76.5376 31.2705 84.4876 34.4417 92.8384C36.8924 99.292 44.2721 102.14 54.0172 92.6625C73.2458 73.9614 69.1792 100.663 72.0969 106.127C75.4394 112.388 87.0043 109.826 92.2016 104.588C106.412 90.2648 114.974 65.046 111.226 49.4305Z" fill="url(#paint0_linear_466_8781)" fill-opacity="0.45"/>
<g opacity="0.1">
<path d="M12.6785 26.1176V32.116C12.6785 32.8409 13.266 33.4285 13.991 33.4285H27.0895C27.5145 33.4285 27.9133 33.2226 28.1596 32.8759L30.2898 29.8766C30.6131 29.4214 30.6131 28.8118 30.2898 28.3565L28.1596 25.3573C27.9135 25.0108 27.5147 24.8047 27.0895 24.8047H13.991C13.266 24.8051 12.6785 25.3927 12.6785 26.1176Z" fill="#003DD0"/>
<path d="M44.2927 30.2109H46.8296C47.4335 30.2109 47.9233 29.7212 47.9233 29.1172C47.9233 28.5132 47.4335 28.0234 46.8296 28.0234H44.2927C43.6888 28.0234 43.199 28.5132 43.199 29.1172C43.199 29.7212 43.6888 30.2109 44.2927 30.2109Z" fill="#003DD0"/>
<path d="M52.5337 30.2109H55.0705C55.6745 30.2109 56.1643 29.7212 56.1643 29.1172C56.1643 28.5132 55.6745 28.0234 55.0705 28.0234H52.5337C51.9297 28.0234 51.4399 28.5132 51.4399 29.1172C51.4399 29.7212 51.9295 30.2109 52.5337 30.2109Z" fill="#003DD0"/>
<path d="M60.7744 30.2109H63.3113C63.9152 30.2109 64.405 29.7212 64.405 29.1172C64.405 28.5132 63.9152 28.0234 63.3113 28.0234H60.7744C60.1704 28.0234 59.6807 28.5132 59.6807 29.1172C59.6807 29.7212 60.1704 30.2109 60.7744 30.2109Z" fill="#003DD0"/>
<path d="M69.0151 30.2109H71.552C72.1559 30.2109 72.6457 29.7212 72.6457 29.1172C72.6457 28.5132 72.1559 28.0234 71.552 28.0234H69.0151C68.4112 28.0234 67.9214 28.5132 67.9214 29.1172C67.9214 29.7212 68.4112 30.2109 69.0151 30.2109Z" fill="#003DD0"/>
<path d="M77.2561 30.2109H79.7929C80.3969 30.2109 80.8867 29.7212 80.8867 29.1172C80.8867 28.5132 80.3969 28.0234 79.7929 28.0234H77.2561C76.6521 28.0234 76.1624 28.5132 76.1624 29.1172C76.1624 29.7212 76.6519 30.2109 77.2561 30.2109Z" fill="#003DD0"/>
<path d="M36.052 30.2109H38.5888C39.1928 30.2109 39.6826 29.7212 39.6826 29.1172C39.6826 28.5132 39.1928 28.0234 38.5888 28.0234H36.052C35.448 28.0234 34.9583 28.5132 34.9583 29.1172C34.9583 29.7212 35.448 30.2109 36.052 30.2109Z" fill="#003DD0"/>
<path d="M12.9832 16.3047H17.0482C17.6522 16.3047 18.1419 15.8149 18.1419 15.2109C18.1419 14.607 17.6522 14.1172 17.0482 14.1172H12.9832C12.3792 14.1172 11.8894 14.607 11.8894 15.2109C11.8894 15.8149 12.3792 16.3047 12.9832 16.3047Z" fill="#003DD0"/>
<path d="M12.9832 20.7617H25.7982C26.4022 20.7617 26.8919 20.2719 26.8919 19.668C26.8919 19.064 26.4022 18.5742 25.7982 18.5742H12.9832C12.3792 18.5742 11.8894 19.064 11.8894 19.668C11.8894 20.2719 12.3792 20.7617 12.9832 20.7617Z" fill="#003DD0"/>
<path d="M102.988 13.1406H92.4026C90.5905 13.1406 89.1214 14.6097 89.1214 16.4219C89.1214 18.234 90.5905 19.7031 92.4026 19.7031H95.0663L75.1327 39.6367H48.2617C47.3915 39.6367 46.557 39.9826 45.9417 40.5979L40.4773 46.0623C36.895 41.9482 31.6194 39.3475 25.7359 39.3475C14.9446 39.3475 6.19653 48.0956 6.19653 58.8869C6.19653 65.7852 9.77157 71.8483 15.1697 75.3253C15.0268 75.6143 14.9443 75.9385 14.9443 76.2828V103.842C14.9443 105.038 15.9141 106.008 17.1104 106.008H30.268C31.4643 106.008 32.4341 105.038 32.4341 103.842V77.2477C34.3549 76.5468 36.1347 75.5524 37.7197 74.3197V103.842C37.7197 105.038 38.6894 106.008 39.8858 106.008H53.0434C54.2397 106.008 55.2094 105.038 55.2094 103.842V52.6576C55.2094 51.4612 54.2397 50.4915 53.0434 50.4915H45.3287L49.621 46.1994H76.4918C77.362 46.1994 78.1966 45.8538 78.8119 45.2382L83.2702 40.7799V103.842C83.2702 105.038 84.24 106.008 85.4363 106.008H98.5939C99.7902 106.008 100.76 105.038 100.76 103.842V37.7826C100.76 36.5862 99.7902 35.6165 98.5939 35.6165H88.4336L99.7067 24.3435V27.0072C99.7067 28.8193 101.176 30.2884 102.988 30.2884C104.8 30.2884 106.269 28.8193 106.269 27.0072V16.4219C106.269 14.6097 104.8 13.1406 102.988 13.1406Z" fill="#003DD0"/>
<path d="M75.8185 59.2422H62.6609C61.4646 59.2422 60.4949 60.2119 60.4949 61.4082V103.843C60.4949 105.039 61.4646 106.009 62.6609 106.009H75.8185C77.0149 106.009 77.9846 105.039 77.9846 103.843V61.4082C77.9848 60.2121 77.0149 59.2422 75.8185 59.2422Z" fill="#003DD0"/>
</g>
<path d="M52.9714 101.179H39.8138C38.6174 101.179 37.6477 100.209 37.6477 99.0126V47.8282C37.6477 46.6318 38.6174 45.6621 39.8138 45.6621H52.9714C54.1677 45.6621 55.1374 46.6318 55.1374 47.8282V99.0126C55.1374 100.209 54.1677 101.179 52.9714 101.179Z" fill="#3E89F0"/>
<path d="M45.2043 60.0763C45.2043 66.3523 42.2468 71.9348 37.6487 75.5091V48.5985C37.6487 47.4566 38.5324 46.5204 39.6546 46.4395C43.089 49.9591 45.2043 54.7716 45.2043 60.0763Z" fill="#002790"/>
<path d="M44.2112 52.2227H48.5752V94.6142H44.2112V52.2227Z" fill="#BCD7FF"/>
<path d="M45.2043 59.3067C45.2043 61.4614 44.8565 63.5352 44.2112 65.4733V53.1445C44.8565 55.0827 45.2043 57.1542 45.2043 59.3067Z" fill="#002790"/>
<path d="M75.7465 101.179H62.5889C61.3926 101.179 60.4229 100.209 60.4229 99.0126V56.5782C60.4229 55.3818 61.3926 54.4121 62.5889 54.4121H75.7465C76.9429 54.4121 77.9126 55.3818 77.9126 56.5782V99.0126C77.9128 100.209 76.9429 101.179 75.7465 101.179Z" fill="#3E89F0"/>
<path d="M71.3501 60.9746V94.6162H66.9854V60.9746H71.3501Z" fill="#BCD7FF"/>
<path d="M100.689 32.9527V99.013C100.689 100.21 99.7173 101.179 98.5229 101.179H85.3651C84.1685 101.179 83.1995 100.21 83.1995 99.013V32.9527C83.1995 31.7584 84.1685 30.7871 85.3651 30.7871H98.5229C99.7173 30.7871 100.689 31.7584 100.689 32.9527Z" fill="#3E89F0"/>
<path d="M93.612 30.7871L83.1995 41.1996V32.9527C83.1995 31.7584 84.1685 30.7871 85.3651 30.7871H93.612Z" fill="#002790"/>
<path d="M94.1255 37.3496V94.6162H89.7608V37.3496H94.1255Z" fill="#BCD7FF"/>
<path d="M102.916 8.31055H92.3306C90.5185 8.31055 89.0494 9.77967 89.0494 11.5918C89.0494 13.4039 90.5185 14.873 92.3306 14.873H94.9943L75.0607 34.8066H48.1897C47.3195 34.8066 46.485 35.1525 45.8696 35.7678L29.8049 51.8324L24.1869 46.2145C23.5716 45.5991 22.737 45.2533 21.8668 45.2533C20.9964 45.2533 20.1621 45.5991 19.5468 46.2145L8.92844 56.8328C7.64722 58.1142 7.64722 60.1917 8.92844 61.4731C9.56916 62.1139 10.4089 62.4343 11.2485 62.4343C12.0881 62.4343 12.9281 62.1141 13.5686 61.4731L21.8666 53.1751L27.4846 58.793C28.7658 60.0745 30.8435 60.0745 32.1249 58.793L49.5488 41.3691H76.4196C77.2898 41.3691 78.1243 41.0235 78.7397 40.408L99.6344 19.5132V22.1769C99.6344 23.989 101.104 25.4581 102.916 25.4581C104.728 25.4581 106.197 23.989 106.197 22.1769V11.5916C106.197 9.77967 104.728 8.31055 102.916 8.31055Z" fill="#BCD7FF"/>
<path d="M25.6639 73.5964C36.4552 73.5964 45.2033 64.8483 45.2033 54.057C45.2033 43.2657 36.4552 34.5176 25.6639 34.5176C14.8726 34.5176 6.12451 43.2657 6.12451 54.057C6.12451 64.8483 14.8726 73.5964 25.6639 73.5964Z" fill="#26DD45"/>
<path d="M45.2034 54.0568C45.2034 54.0443 45.2034 54.0318 45.2034 54.0196C45.2017 53.0783 44.4262 52.3212 43.4849 52.3212H43.0282C41.148 52.3212 40.6335 49.7349 42.3706 49.0155L42.7926 48.8407C43.6621 48.4804 44.0889 47.4842 43.7303 46.614C43.7255 46.6024 43.7209 46.591 43.7161 46.5795C43.7113 46.5681 43.7065 46.5565 43.7019 46.5451C43.3401 45.6762 42.3338 45.2735 41.4643 45.6336L41.0423 45.8084C39.3052 46.5278 37.8403 44.3353 39.1698 43.006L39.4912 42.6846C40.1623 42.0135 40.1627 40.9252 39.4923 40.2534C39.4842 40.2453 39.4759 40.237 39.4678 40.2289C38.7962 39.5585 37.7077 39.5589 37.0366 40.23L36.7152 40.5514C35.3857 41.8809 33.1931 40.416 33.9128 38.6789L34.0867 38.2591C34.4499 37.3823 34.0338 36.3765 33.1575 36.0125C33.1468 36.0081 33.1361 36.0035 33.1253 35.9992C32.2484 35.6367 31.2428 36.0539 30.8797 36.9306L30.7057 37.3504C29.9863 39.0875 27.4 38.573 27.4 36.6928V36.2361C27.4 35.2948 26.6429 34.5193 25.7016 34.5176C25.6892 34.5176 25.6767 34.5176 25.6644 34.5176C25.652 34.5176 25.6395 34.5176 25.6272 34.5176C24.686 34.5193 23.9289 35.2948 23.9289 36.2361V36.6928C23.9289 38.573 21.3426 39.0875 20.6231 37.3504L20.4483 36.9284C20.0881 36.0589 19.0919 35.6321 18.2217 35.9906C18.2101 35.9955 18.1987 36 18.1871 36.0049C18.1757 36.0097 18.1642 36.0145 18.1528 36.0191C17.2839 36.3809 16.8812 37.3871 17.2412 38.2567L17.416 38.6786C18.1355 40.4157 15.943 41.8807 14.6136 40.5511L14.2923 40.2298C13.6212 39.5587 12.5329 39.5582 11.8611 40.2287C11.853 40.2368 11.8447 40.2451 11.8366 40.2532C11.1661 40.9248 11.1666 42.0133 11.8377 42.6844L12.159 43.0057C13.4886 44.3353 12.0236 46.5278 10.2865 45.8081L9.86674 45.6342C8.98999 45.2711 7.98418 45.6872 7.62018 46.5635C7.61581 46.5742 7.61121 46.5849 7.60684 46.5956C7.24437 47.4726 7.66153 48.4782 8.53828 48.8413L8.95806 49.0152C10.6952 49.7347 10.1807 52.321 8.30049 52.321H7.84374C6.90246 52.321 6.12699 53.0781 6.12524 54.0194V54.0565V54.0937C6.12721 55.035 6.90246 55.7921 7.84374 55.7921H8.30049C10.1807 55.7921 10.6952 58.3784 8.95806 59.0979L8.53609 59.2726C7.66656 59.6329 7.23978 60.6291 7.59831 61.4995C7.60312 61.5109 7.60771 61.5225 7.61253 61.5339C7.61734 61.5452 7.62215 61.5568 7.62674 61.5682C7.98856 62.4371 8.99481 62.8398 9.86434 62.4797L10.2863 62.305C12.0234 61.5855 13.4884 63.778 12.1588 65.1074L11.8375 65.4287C11.1663 66.0998 11.1659 67.1881 11.8364 67.8599L11.8609 67.8844C12.5324 68.5549 13.6209 68.5544 14.2921 67.8833L14.6134 67.562C15.943 66.2324 18.1355 67.6974 17.4158 69.4345L17.2419 69.8542C16.8788 70.731 17.2948 71.7368 18.1712 72.1008C18.1819 72.1052 18.1926 72.1098 18.2033 72.1141C19.0803 72.4766 20.0859 72.0595 20.449 71.1827L20.6229 70.7629C21.3424 69.0258 23.9286 69.5403 23.9286 71.4205V71.8772C23.9286 72.8185 24.6857 73.594 25.627 73.5957H25.6642H25.7014C26.6427 73.594 27.3998 72.8185 27.3998 71.8772V71.4209C27.3998 69.5408 29.9861 69.0263 30.7055 70.7634L30.8803 71.1853C31.2406 72.0549 32.2368 72.4816 33.1072 72.1231C33.1186 72.1183 33.1301 72.1137 33.1415 72.1089C33.1529 72.1041 33.1645 72.0993 33.1759 72.0947C34.0447 71.7329 34.4475 70.7266 34.0874 69.8571L33.9126 69.4351C33.1932 67.698 35.3857 66.233 36.715 67.5626L37.0364 67.884C37.7075 68.5551 38.7958 68.5555 39.4676 67.885C39.4757 67.877 39.484 67.8686 39.4921 67.8605C40.1625 67.189 40.1621 66.1005 39.491 65.4294L39.1696 65.108C37.8401 63.7785 39.305 61.5859 41.0421 62.3056L41.4619 62.4795C42.3387 62.8426 43.3445 62.4266 43.7085 61.5503C43.7128 61.5395 43.7174 61.5288 43.7218 61.5181C44.0843 60.6411 43.6671 59.6355 42.7904 59.2724L42.3706 59.0985C40.6335 58.3791 41.148 55.7928 43.0282 55.7928H43.4849C44.4262 55.7928 45.2017 55.0357 45.2034 54.0944C45.2034 54.0817 45.2034 54.0692 45.2034 54.0568Z" fill="#4AE767"/>
<path d="M25.664 68.7133C33.7586 68.7133 40.3205 62.1514 40.3205 54.0569C40.3205 45.9623 33.7586 39.4004 25.664 39.4004C17.5695 39.4004 11.0076 45.9623 11.0076 54.0569C11.0076 62.1514 17.5695 68.7133 25.664 68.7133Z" fill="#B6F6BE"/>
<path d="M28.385 52.7405H22.996C22.4463 52.7405 22.0006 52.2949 22.0006 51.7452V50.4364C22.0006 49.8867 22.4463 49.4411 22.996 49.4411H24.1812V50.9348C24.1812 51.223 24.4148 51.4567 24.7031 51.4567H26.6783C26.9666 51.4567 27.2002 51.223 27.2002 50.9348V49.4411H31.2038C31.4921 49.4411 31.7258 49.2074 31.7258 48.9191V46.9439C31.7258 46.6556 31.4921 46.422 31.2038 46.422H27.2002V44.9282C27.2002 44.6399 26.9666 44.4062 26.6783 44.4062H24.7029C24.4147 44.4062 24.181 44.6399 24.181 44.9282V46.422H22.9958C20.7788 46.422 18.9814 48.2192 18.9814 50.4364V51.7451C18.9814 53.9622 20.7788 55.7596 22.996 55.7596H28.3849C28.9345 55.7596 29.3802 56.2052 29.3802 56.7549V58.0636C29.3802 58.6135 28.9345 59.0591 28.3847 59.0591H27.1999V57.5652C27.1999 57.277 26.9663 57.0433 26.678 57.0433H24.7029C24.4147 57.0433 24.181 57.277 24.181 57.5652V59.0591H20.1774C19.8891 59.0591 19.6555 59.2927 19.6555 59.581V61.5562C19.6555 61.8445 19.8891 62.0781 20.1774 62.0781H24.181V63.5718C24.181 63.8601 24.4147 64.0938 24.7029 64.0938H26.6782C26.9664 64.0938 27.2001 63.8601 27.2001 63.5718V62.0781H28.385C30.602 62.0781 32.3994 60.2809 32.3994 58.0638V56.7549C32.3994 54.5378 30.602 52.7405 28.385 52.7405Z" fill="#00AC1F"/>
<path d="M38.2795 55.0144C37.8923 55.0144 37.5785 54.7005 37.5785 54.3134C37.5785 47.8843 32.348 42.6539 25.919 42.6539C25.5318 42.6539 25.218 42.34 25.218 41.9529C25.218 41.5658 25.5318 41.252 25.919 41.252C33.121 41.252 38.9804 47.1112 38.9804 54.3134C38.9804 54.7005 38.6667 55.0144 38.2795 55.0144Z" fill="#00D627"/>
<path d="M25.919 67.3759C18.7169 67.3759 12.8574 61.5164 12.8574 54.3142C12.8574 53.9272 13.1712 53.6133 13.5584 53.6133C13.9456 53.6133 14.2593 53.9272 14.2593 54.3142C14.2593 60.7433 19.4899 65.9738 25.919 65.9739C26.3062 65.9739 26.62 66.2878 26.62 66.6749C26.62 67.062 26.3061 67.3759 25.919 67.3759Z" fill="#00D627"/>
<path d="M30.196 101.179H17.0384C15.842 101.179 14.8723 100.209 14.8723 99.0126V71.4532C14.8723 70.2568 15.842 69.2871 17.0384 69.2871H30.196C31.3923 69.2871 32.362 70.2568 32.362 71.4532V99.0126C32.362 100.209 31.3923 101.179 30.196 101.179Z" fill="#3E89F0"/>
<path d="M25.7996 75.8496V94.6162H21.4348V75.8496H25.7996Z" fill="#BCD7FF"/>
<path d="M27.0173 19.9766H13.9189C13.194 19.9766 12.6064 20.5641 12.6064 21.2891V27.2874C12.6064 28.0123 13.194 28.5999 13.9189 28.5999H27.0175C27.4425 28.5999 27.8413 28.3941 28.0876 28.0473L30.2178 25.0481C30.5411 24.5928 30.5411 23.9832 30.2178 23.528L28.0876 20.5287C27.8413 20.1824 27.4425 19.9766 27.0173 19.9766Z" fill="#4AE767"/>
<path d="M75.7465 53.3184H62.5892C60.7917 53.3184 59.3293 54.7807 59.3293 56.5782V99.0126C59.3293 100.81 60.7917 102.272 62.5892 102.272H75.7465C77.544 102.272 79.0063 100.81 79.0063 99.0126V56.5782C79.0066 54.7807 77.5442 53.3184 75.7465 53.3184ZM76.8191 99.0126C76.8191 99.6039 76.338 100.085 75.7467 100.085H62.5894C61.9981 100.085 61.5171 99.6039 61.5171 99.0126V56.5782C61.5171 55.9869 61.9981 55.5059 62.5894 55.5059H75.7467C76.338 55.5059 76.8191 55.9869 76.8191 56.5782V99.0126Z" fill="#003DD0"/>
<path d="M102.915 7.21875H92.33C89.9176 7.21875 87.955 9.18137 87.955 11.5937C87.955 14.0061 89.9176 15.9688 92.33 15.9688H92.3538L87.8531 20.4693C87.4258 20.8965 87.4258 21.5891 87.8531 22.0161C88.2803 22.4431 88.9726 22.4431 89.3998 22.0161L95.7677 15.6483C96.0805 15.3355 96.1739 14.8649 96.0048 14.4563C95.8355 14.0477 95.4367 13.7812 94.9942 13.7812H92.3298C91.1236 13.7812 90.1423 12.7999 90.1423 11.5937C90.1423 10.3876 91.1236 9.40625 92.3298 9.40625H102.915C104.121 9.40625 105.103 10.3876 105.103 11.5937V22.1791C105.103 23.3853 104.121 24.3666 102.915 24.3666C101.709 24.3666 100.728 23.3853 100.728 22.1791V19.5147C100.728 19.0724 100.461 18.6734 100.053 18.5043C99.6437 18.335 99.1734 18.4284 98.8606 18.7412L77.9656 39.6362C77.5528 40.049 77.0039 40.2762 76.4203 40.2762H49.5491C49.259 40.2762 48.9808 40.3915 48.7756 40.5965L44.2562 45.1157C43.6004 43.7577 42.8 42.4819 41.8753 41.3085L46.643 36.5409C47.0496 36.1342 47.6138 35.901 48.1906 35.901H75.0597C75.3498 35.901 75.628 35.7857 75.8332 35.5808L84.8982 26.5158C85.3254 26.0886 85.3254 25.396 84.8982 24.969C84.471 24.542 83.7786 24.542 83.3514 24.969L74.6067 33.7138H48.1906C47.0378 33.7138 45.9102 34.1806 45.0962 34.9943L40.4287 39.6618C36.6791 35.8168 31.4458 33.425 25.6638 33.425C14.287 33.425 5.03125 42.6807 5.03125 54.0575C5.03125 60.8298 8.30266 67.0836 13.8215 70.9516C13.7959 71.1156 13.7788 71.2823 13.7788 71.4534V99.0128C13.7788 100.81 15.2412 102.273 17.0387 102.273H30.196C31.9935 102.273 33.4558 100.81 33.4558 99.0128V73.166C41.1672 70.0179 46.2962 62.4356 46.2962 54.0573C46.2962 51.6935 45.8955 49.422 45.1605 47.3053L45.7308 46.7351C45.7984 46.7482 45.8677 46.7561 45.9388 46.7561H52.9712C53.5625 46.7561 54.0435 47.2371 54.0435 47.8284V99.0128C54.0435 99.6041 53.5625 100.085 52.9712 100.085H39.8138C39.2225 100.085 38.7415 99.6041 38.7415 99.0128V76.2169C38.7415 75.6129 38.2517 75.1231 37.6478 75.1231C37.0438 75.1231 36.554 75.6129 36.554 76.2169V99.0128C36.554 100.81 38.0163 102.273 39.8138 102.273H52.9712C54.7687 102.273 56.231 100.81 56.231 99.0128V47.8284C56.231 46.0309 54.7687 44.5686 52.9712 44.5686H47.8971L50.0019 42.4637H76.4203C77.5884 42.4637 78.6866 42.009 79.5126 41.1832L82.1056 38.5901V99.0128C82.1056 100.81 83.5677 102.272 85.365 102.272H98.5228C100.32 102.272 101.782 100.81 101.782 99.0128V32.9525C101.782 31.1553 100.32 29.6931 98.5228 29.6931H91.0026L98.5403 22.1554V22.1793C98.5403 24.5917 100.503 26.5543 102.915 26.5543C105.328 26.5543 107.29 24.5917 107.29 22.1793V11.5937C107.29 9.18137 105.328 7.21875 102.915 7.21875ZM31.2683 99.0128C31.2683 99.6041 30.7873 100.085 30.196 100.085H17.0384C16.4472 100.085 15.9661 99.6041 15.9661 99.0128V71.4534C15.9661 70.8621 16.4472 70.3811 17.0384 70.3811H30.1958C30.7871 70.3811 31.2681 70.8621 31.2681 71.4534V99.0128H31.2683ZM33.3913 70.8085C33.0912 69.319 31.7728 68.1936 30.196 68.1936H17.0384C16.2094 68.1936 15.454 68.5072 14.8781 69.0189C10.0649 65.5506 7.21875 60.0294 7.21875 54.0575C7.21875 43.8869 15.4932 35.6125 25.6638 35.6125C35.8343 35.6125 44.1087 43.8869 44.1087 54.0575C44.1087 61.2682 39.8591 67.8188 33.3913 70.8085ZM98.5228 31.8806C99.1139 31.8806 99.5947 32.3614 99.5947 32.9525V99.0128C99.5947 99.6039 99.1139 100.085 98.5228 100.085H85.365C84.7739 100.085 84.2931 99.6039 84.2931 99.0128V36.4024L88.8149 31.8806H98.5228Z" fill="#003DD0"/>
<path d="M13.9189 29.6937H27.0173C27.7951 29.6937 28.5286 29.315 28.979 28.6808L31.1094 25.6816C31.7013 24.8481 31.7013 23.7283 31.1094 22.8949L28.979 19.8956C28.5286 19.2615 27.7951 18.8828 27.0173 18.8828H13.9189C12.5922 18.8828 11.5127 19.9623 11.5127 21.2891V27.2874C11.5127 28.6143 12.592 29.6937 13.9189 29.6937ZM13.7002 21.2891C13.7002 21.1685 13.7984 21.0703 13.9189 21.0703H27.0173C27.0881 21.0703 27.1546 21.1047 27.1958 21.1624L29.3259 24.1615C29.3798 24.2374 29.3798 24.3391 29.3259 24.4148L27.1958 27.4138C27.1546 27.4716 27.0879 27.5059 27.0173 27.5059H13.9189C13.7984 27.5059 13.7002 27.4077 13.7002 27.2872V21.2891Z" fill="#003DD0"/>
<path d="M44.2207 25.3809H46.7575C47.3615 25.3809 47.8513 24.8911 47.8513 24.2871C47.8513 23.6831 47.3615 23.1934 46.7575 23.1934H44.2207C43.6167 23.1934 43.127 23.6831 43.127 24.2871C43.127 24.8911 43.6167 25.3809 44.2207 25.3809Z" fill="#003DD0"/>
<path d="M52.4617 25.3809H54.9985C55.6025 25.3809 56.0923 24.8911 56.0923 24.2871C56.0923 23.6831 55.6025 23.1934 54.9985 23.1934H52.4617C51.8577 23.1934 51.3679 23.6831 51.3679 24.2871C51.3679 24.8911 51.8575 25.3809 52.4617 25.3809Z" fill="#003DD0"/>
<path d="M60.7024 25.3809H63.2392C63.8432 25.3809 64.333 24.8911 64.333 24.2871C64.333 23.6831 63.8432 23.1934 63.2392 23.1934H60.7024C60.0984 23.1934 59.6086 23.6831 59.6086 24.2871C59.6086 24.8911 60.0984 25.3809 60.7024 25.3809Z" fill="#003DD0"/>
<path d="M68.9431 25.3809H71.48C72.0839 25.3809 72.5737 24.8911 72.5737 24.2871C72.5737 23.6831 72.0839 23.1934 71.48 23.1934H68.9431C68.3391 23.1934 67.8494 23.6831 67.8494 24.2871C67.8494 24.8911 68.3391 25.3809 68.9431 25.3809Z" fill="#003DD0"/>
<path d="M77.1841 25.3809H79.7209C80.3249 25.3809 80.8147 24.8911 80.8147 24.2871C80.8147 23.6831 80.3249 23.1934 79.7209 23.1934H77.1841C76.5801 23.1934 76.0903 23.6831 76.0903 24.2871C76.0903 24.8911 76.5799 25.3809 77.1841 25.3809Z" fill="#003DD0"/>
<path d="M35.98 25.3809H38.5168C39.1208 25.3809 39.6106 24.8911 39.6106 24.2871C39.6106 23.6831 39.1208 23.1934 38.5168 23.1934H35.98C35.376 23.1934 34.8862 23.6831 34.8862 24.2871C34.8862 24.8911 35.376 25.3809 35.98 25.3809Z" fill="#003DD0"/>
<path d="M12.9114 11.4746H16.9764C17.5804 11.4746 18.0702 10.9848 18.0702 10.3809C18.0702 9.77689 17.5804 9.28711 16.9764 9.28711H12.9114C12.3074 9.28711 11.8176 9.77689 11.8176 10.3809C11.8176 10.9848 12.3074 11.4746 12.9114 11.4746Z" fill="#003DD0"/>
<path d="M12.9114 15.9336H25.7264C26.3304 15.9336 26.8202 15.4438 26.8202 14.8398C26.8202 14.2359 26.3304 13.7461 25.7264 13.7461H12.9114C12.3074 13.7461 11.8176 14.2359 11.8176 14.8398C11.8176 15.4438 12.3074 15.9336 12.9114 15.9336Z" fill="#003DD0"/>
<path d="M66.1207 18.6222C65.5167 18.6222 65.0269 18.1327 65.0269 17.5285C65.0269 16.7646 64.4055 16.1432 63.6416 16.1432C63.0376 16.1432 62.5479 15.6536 62.5479 15.0494C62.5479 14.4452 63.0376 13.9557 63.6416 13.9557C64.4055 13.9557 65.0269 13.3342 65.0269 12.5703C65.0269 11.9661 65.5167 11.4766 66.1207 11.4766C66.7247 11.4766 67.2144 11.9661 67.2144 12.5703C67.2144 13.3342 67.8359 13.9557 68.5998 13.9557C69.2038 13.9557 69.6935 14.4452 69.6935 15.0494C69.6935 15.6536 69.2038 16.1432 68.5998 16.1432C67.8359 16.1432 67.2144 16.7646 67.2144 17.5285C67.2144 18.1327 66.7249 18.6222 66.1207 18.6222Z" fill="#00D627"/>
<path d="M103.308 109.622C102.704 109.622 102.214 109.133 102.214 108.528C102.214 107.765 101.593 107.143 100.829 107.143C100.225 107.143 99.7354 106.654 99.7354 106.049C99.7354 105.445 100.225 104.956 100.829 104.956C101.593 104.956 102.214 104.334 102.214 103.57C102.214 102.966 102.704 102.477 103.308 102.477C103.912 102.477 104.402 102.966 104.402 103.57C104.402 104.334 105.023 104.956 105.787 104.956C106.391 104.956 106.881 105.445 106.881 106.049C106.881 106.654 106.391 107.143 105.787 107.143C105.023 107.143 104.402 107.765 104.402 108.528C104.402 109.133 103.912 109.622 103.308 109.622Z" fill="#00D627"/>
<path d="M66.9957 51.6535C66.3917 51.6535 65.9019 51.1639 65.9019 50.5597C65.9019 49.7959 65.2805 49.1744 64.5166 49.1744C63.9126 49.1744 63.4229 48.6848 63.4229 48.0807C63.4229 47.4765 63.9126 46.9869 64.5166 46.9869C65.2805 46.9869 65.9019 46.3654 65.9019 45.6016C65.9019 44.9974 66.3917 44.5078 66.9957 44.5078C67.5997 44.5078 68.0894 44.9974 68.0894 45.6016C68.0894 46.3654 68.7109 46.9869 69.4748 46.9869C70.0788 46.9869 70.5685 47.4765 70.5685 48.0807C70.5685 48.6848 70.0788 49.1744 69.4748 49.1744C68.7109 49.1744 68.0894 49.7959 68.0894 50.5597C68.0894 51.1639 67.5999 51.6535 66.9957 51.6535Z" fill="#00D627"/>
<path d="M75.2708 11.595C75.0847 11.595 74.8963 11.5475 74.7237 11.4475L74.7021 11.4351C74.1793 11.1323 74.001 10.4632 74.3037 9.94035C74.6065 9.41754 75.2754 9.23926 75.7984 9.54201L75.8201 9.55448C76.3429 9.85723 76.5212 10.5264 76.2184 11.0492C76.0157 11.3992 75.6484 11.595 75.2708 11.595Z" fill="#003DD0"/>
<path d="M80.718 14.7394C80.5334 14.7394 80.3462 14.6926 80.1744 14.5939L80.1528 14.5815C79.6289 14.2807 79.4482 13.6122 79.749 13.0883C80.0497 12.5646 80.7185 12.3837 81.2422 12.6845L81.2638 12.6969C81.7877 12.9977 81.9684 13.6662 81.6676 14.1901C81.4653 14.5423 81.0969 14.7394 80.718 14.7394Z" fill="#003DD0"/>
<path d="M75.2708 11.595C75.0847 11.595 74.8963 11.5475 74.7237 11.4475L74.7021 11.4351C74.1793 11.1323 74.001 10.4632 74.3037 9.94035C74.6065 9.41754 75.2754 9.23926 75.7984 9.54201L75.8201 9.55448C76.3429 9.85723 76.5212 10.5264 76.2184 11.0492C76.0157 11.3992 75.6484 11.595 75.2708 11.595Z" fill="#003DD0"/>
<path d="M80.718 14.7394C80.5334 14.7394 80.3462 14.6926 80.1744 14.5939L80.1528 14.5815C79.6289 14.2807 79.4482 13.6122 79.749 13.0883C80.0497 12.5646 80.7185 12.3837 81.2422 12.6845L81.2638 12.6969C81.7877 12.9977 81.9684 13.6662 81.6676 14.1901C81.4653 14.5423 81.0969 14.7394 80.718 14.7394Z" fill="#003DD0"/>
<path d="M80.6986 11.5949C80.3211 11.5949 79.954 11.3991 79.751 11.0491C79.4482 10.5266 79.6265 9.8574 80.1493 9.55443L80.171 9.54196C80.694 9.23921 81.3627 9.41771 81.6657 9.9403C81.9685 10.4629 81.7902 11.1321 81.2674 11.435L81.2457 11.4475C81.0731 11.5472 80.8846 11.5949 80.6986 11.5949Z" fill="#003DD0"/>
<path d="M75.2515 14.7395C74.8727 14.7395 74.5041 14.5424 74.3019 14.1902C74.0012 13.6663 74.1819 12.9978 74.7058 12.697L74.7274 12.6845C75.2513 12.3837 75.9198 12.5644 76.2206 13.0883C76.5214 13.6122 76.3407 14.2807 75.8168 14.5815L75.7951 14.594C75.6234 14.6926 75.4362 14.7395 75.2515 14.7395Z" fill="#003DD0"/>
<path d="M80.6986 11.5949C80.3211 11.5949 79.954 11.3991 79.751 11.0491C79.4482 10.5266 79.6265 9.8574 80.1493 9.55443L80.171 9.54196C80.694 9.23921 81.3627 9.41771 81.6657 9.9403C81.9685 10.4629 81.7902 11.1321 81.2674 11.435L81.2457 11.4475C81.0731 11.5472 80.8846 11.5949 80.6986 11.5949Z" fill="#003DD0"/>
<path d="M75.2515 14.7395C74.8727 14.7395 74.5041 14.5424 74.3019 14.1902C74.0012 13.6663 74.1819 12.9978 74.7058 12.697L74.7274 12.6845C75.2513 12.3837 75.9198 12.5644 76.2206 13.0883C76.5214 13.6122 76.3407 14.2807 75.8168 14.5815L75.7951 14.594C75.6234 14.6926 75.4362 14.7395 75.2515 14.7395Z" fill="#003DD0"/>
<path d="M77.9849 10.0288C77.3809 10.0288 76.8911 9.53906 76.8911 8.93509V8.91016C76.8911 8.30619 77.3809 7.81641 77.9849 7.81641C78.5888 7.81641 79.0786 8.30619 79.0786 8.91016V8.93509C79.0786 9.53906 78.5888 10.0288 77.9849 10.0288Z" fill="#003DD0"/>
<path d="M77.9849 16.3179C77.3809 16.3179 76.8911 15.8281 76.8911 15.2242V15.1992C76.8911 14.5953 77.3809 14.1055 77.9849 14.1055C78.5888 14.1055 79.0786 14.5953 79.0786 15.1992V15.2242C79.0786 15.8281 78.5888 16.3179 77.9849 16.3179Z" fill="#003DD0"/>
<path d="M2.86457 36.7512C2.67841 36.7512 2.49007 36.7038 2.31748 36.6038L2.29582 36.5913C1.77301 36.2886 1.59472 35.6194 1.89747 35.0966C2.20022 34.5738 2.86916 34.3955 3.39219 34.6983L3.41385 34.7107C3.93666 35.0135 4.11494 35.6826 3.81219 36.2054C3.60941 36.5554 3.24213 36.7512 2.86457 36.7512Z" fill="#003DD0"/>
<path d="M8.31178 39.8957C8.12715 39.8957 7.93991 39.8488 7.76819 39.7502L7.74653 39.7377C7.22263 39.4369 7.04194 38.7684 7.34272 38.2445C7.6435 37.7208 8.31221 37.5399 8.8359 37.8407L8.85756 37.8532C9.38146 38.154 9.56215 38.8225 9.26137 39.3464C9.05903 39.6986 8.69065 39.8957 8.31178 39.8957Z" fill="#003DD0"/>
<path d="M2.86457 36.7512C2.67841 36.7512 2.49007 36.7038 2.31748 36.6038L2.29582 36.5913C1.77301 36.2886 1.59472 35.6194 1.89747 35.0966C2.20022 34.5738 2.86916 34.3955 3.39219 34.6983L3.41385 34.7107C3.93666 35.0135 4.11494 35.6826 3.81219 36.2054C3.60941 36.5554 3.24213 36.7512 2.86457 36.7512Z" fill="#003DD0"/>
<path d="M8.31178 39.8957C8.12715 39.8957 7.93991 39.8488 7.76819 39.7502L7.74653 39.7377C7.22263 39.4369 7.04194 38.7684 7.34272 38.2445C7.6435 37.7208 8.31221 37.5399 8.8359 37.8407L8.85756 37.8532C9.38146 38.154 9.56215 38.8225 9.26137 39.3464C9.05903 39.6986 8.69065 39.8957 8.31178 39.8957Z" fill="#003DD0"/>
<path d="M8.29237 36.7512C7.9148 36.7512 7.54774 36.5554 7.34474 36.2054C7.04199 35.6828 7.22027 35.0136 7.74308 34.7107L7.76474 34.6982C8.28777 34.3955 8.95649 34.574 9.25946 35.0966C9.56221 35.6191 9.38393 36.2883 8.86112 36.5913L8.83946 36.6037C8.66687 36.7035 8.4783 36.7512 8.29237 36.7512Z" fill="#003DD0"/>
<path d="M2.84529 39.8957C2.46642 39.8957 2.09782 39.6986 1.8957 39.3464C1.59491 38.8225 1.7756 38.154 2.29951 37.8532L2.32117 37.8408C2.84507 37.54 3.51357 37.7207 3.81435 38.2446C4.11513 38.7685 3.93444 39.437 3.41054 39.7378L3.38888 39.7502C3.21716 39.8489 3.02992 39.8957 2.84529 39.8957Z" fill="#003DD0"/>
<path d="M8.29237 36.7512C7.9148 36.7512 7.54774 36.5554 7.34474 36.2054C7.04199 35.6828 7.22027 35.0136 7.74308 34.7107L7.76474 34.6982C8.28777 34.3955 8.95649 34.574 9.25946 35.0966C9.56221 35.6191 9.38393 36.2883 8.86112 36.5913L8.83946 36.6037C8.66687 36.7035 8.4783 36.7512 8.29237 36.7512Z" fill="#003DD0"/>
<path d="M2.84529 39.8957C2.46642 39.8957 2.09782 39.6986 1.8957 39.3464C1.59491 38.8225 1.7756 38.154 2.29951 37.8532L2.32117 37.8408C2.84507 37.54 3.51357 37.7207 3.81435 38.2446C4.11513 38.7685 3.93444 39.437 3.41054 39.7378L3.38888 39.7502C3.21716 39.8489 3.02992 39.8957 2.84529 39.8957Z" fill="#003DD0"/>
<path d="M5.57861 35.1851C4.97464 35.1851 4.48486 34.6953 4.48486 34.0913V34.0664C4.48486 33.4624 4.97464 32.9727 5.57861 32.9727C6.18258 32.9727 6.67236 33.4624 6.67236 34.0664V34.0913C6.67236 34.6953 6.18258 35.1851 5.57861 35.1851Z" fill="#003DD0"/>
<path d="M5.57861 41.4742C4.97464 41.4742 4.48486 40.9844 4.48486 40.3804V40.3555C4.48486 39.7515 4.97464 39.2617 5.57861 39.2617C6.18258 39.2617 6.67236 39.7515 6.67236 40.3555V40.3804C6.67236 40.9844 6.18258 41.4742 5.57861 41.4742Z" fill="#003DD0"/>
<path d="M104.583 52.72C104.397 52.72 104.209 52.6725 104.036 52.5725L104.015 52.5601C103.492 52.2573 103.313 51.5882 103.616 51.0654C103.919 50.5425 104.588 50.3643 105.111 50.667L105.133 50.6795C105.655 50.9822 105.834 51.6514 105.531 52.1742C105.328 52.5242 104.961 52.72 104.583 52.72Z" fill="#003DD0"/>
<path d="M110.031 55.8644C109.846 55.8644 109.659 55.8176 109.487 55.7189L109.465 55.7065C108.941 55.4057 108.761 54.7372 109.061 54.2133C109.362 53.6896 110.031 53.5087 110.555 53.8095L110.576 53.8219C111.1 54.1227 111.281 54.7912 110.98 55.3151C110.778 55.6673 110.409 55.8644 110.031 55.8644Z" fill="#003DD0"/>
<path d="M104.583 52.72C104.397 52.72 104.209 52.6725 104.036 52.5725L104.015 52.5601C103.492 52.2573 103.313 51.5882 103.616 51.0654C103.919 50.5425 104.588 50.3643 105.111 50.667L105.133 50.6795C105.655 50.9822 105.834 51.6514 105.531 52.1742C105.328 52.5242 104.961 52.72 104.583 52.72Z" fill="#003DD0"/>
<path d="M110.031 55.8644C109.846 55.8644 109.659 55.8176 109.487 55.7189L109.465 55.7065C108.941 55.4057 108.761 54.7372 109.061 54.2133C109.362 53.6896 110.031 53.5087 110.555 53.8095L110.576 53.8219C111.1 54.1227 111.281 54.7912 110.98 55.3151C110.778 55.6673 110.409 55.8644 110.031 55.8644Z" fill="#003DD0"/>
<path d="M110.011 52.7199C109.634 52.7199 109.266 52.5241 109.063 52.1741C108.761 51.6516 108.939 50.9824 109.462 50.6794L109.483 50.667C110.007 50.3642 110.675 50.5427 110.978 51.0653C111.281 51.5879 111.103 52.2571 110.58 52.56L110.558 52.5725C110.386 52.6722 110.197 52.7199 110.011 52.7199Z" fill="#003DD0"/>
<path d="M104.564 55.8645C104.185 55.8645 103.817 55.6674 103.614 55.3152C103.314 54.7913 103.494 54.1228 104.018 53.822L104.04 53.8095C104.564 53.5087 105.232 53.6894 105.533 54.2133C105.834 54.7372 105.653 55.4057 105.129 55.7065L105.108 55.719C104.936 55.8176 104.749 55.8645 104.564 55.8645Z" fill="#003DD0"/>
<path d="M110.011 52.7199C109.634 52.7199 109.266 52.5241 109.063 52.1741C108.761 51.6516 108.939 50.9824 109.462 50.6794L109.483 50.667C110.007 50.3642 110.675 50.5427 110.978 51.0653C111.281 51.5879 111.103 52.2571 110.58 52.56L110.558 52.5725C110.386 52.6722 110.197 52.7199 110.011 52.7199Z" fill="#003DD0"/>
<path d="M104.564 55.8645C104.185 55.8645 103.817 55.6674 103.614 55.3152C103.314 54.7913 103.494 54.1228 104.018 53.822L104.04 53.8095C104.564 53.5087 105.232 53.6894 105.533 54.2133C105.834 54.7372 105.653 55.4057 105.129 55.7065L105.108 55.719C104.936 55.8176 104.749 55.8645 104.564 55.8645Z" fill="#003DD0"/>
<path d="M107.297 51.1538C106.693 51.1538 106.204 50.6641 106.204 50.0601V50.0352C106.204 49.4312 106.693 48.9414 107.297 48.9414C107.901 48.9414 108.391 49.4312 108.391 50.0352V50.0601C108.391 50.6641 107.901 51.1538 107.297 51.1538Z" fill="#003DD0"/>
<path d="M107.297 57.4429C106.693 57.4429 106.204 56.9531 106.204 56.3492V56.3242C106.204 55.7203 106.693 55.2305 107.297 55.2305C107.901 55.2305 108.391 55.7203 108.391 56.3242V56.3492C108.391 56.9531 107.901 57.4429 107.297 57.4429Z" fill="#003DD0"/>
<path d="M7.71445 85.1222C7.11048 85.1222 6.6207 84.6327 6.6207 84.0285C6.6207 83.2646 5.99923 82.6432 5.23535 82.6432C4.63138 82.6432 4.1416 82.1536 4.1416 81.5494C4.1416 80.9452 4.63138 80.4557 5.23535 80.4557C5.99923 80.4557 6.6207 79.8342 6.6207 79.0703C6.6207 78.4661 7.11048 77.9766 7.71445 77.9766C8.31841 77.9766 8.8082 78.4661 8.8082 79.0703C8.8082 79.8342 9.42966 80.4557 10.1935 80.4557C10.7975 80.4557 11.2873 80.9452 11.2873 81.5494C11.2873 82.1536 10.7975 82.6432 10.1935 82.6432C9.42966 82.6432 8.8082 83.2646 8.8082 84.0285C8.8082 84.6327 8.31863 85.1222 7.71445 85.1222Z" fill="#00D627"/>
</g>
<defs>
<linearGradient id="paint0_linear_466_8781" x1="26.4385" y1="86.1724" x2="88.6744" y2="23.9368" gradientUnits="userSpaceOnUse">
<stop stop-color="#7FB3FF" stop-opacity="0"/>
<stop offset="1" stop-color="#0032B0" stop-opacity="0.85"/>
</linearGradient>
<clipPath id="clip0_466_8781">
<rect width="112" height="112" fill="white"/>
</clipPath>
</defs>
</svg>
