<svg width="124" height="124" viewBox="0 0 124 124" fill="none" xmlns="http://www.w3.org/2000/svg">
<g clip-path="url(#clip0_466_8969)">
<path d="M118.09 30.966C117.079 13.7862 101.43 4.04587 85.3108 0.985107C23.9647 -10.6644 -27.6042 84.5805 32.7835 98.2529C56.2636 103.569 64.8012 111.097 76.1368 121.604C80.7861 125.914 87.9594 124.105 90.9836 118.609C95.2042 110.938 91.5581 101.852 92.5324 93.6507C95.2328 70.9199 119.505 54.9837 118.09 30.966Z" fill="url(#paint0_linear_466_8969)" fill-opacity="0.45"/>
<path opacity="0.1" d="M96.9382 34.8888H87.8046V29.5801C87.8046 25.5673 84.5515 22.3145 80.539 22.3145H43.461C39.4482 22.3145 36.1954 25.5673 36.1954 29.5801V34.8888H27.0618C26.3931 34.8888 25.8508 35.4311 25.8508 36.0998V53.1113C25.8508 53.7799 26.3931 54.3222 27.0618 54.3222H36.1954V106.045C36.1954 110.057 39.4482 113.31 43.461 113.31H80.5392C84.5518 113.31 87.8048 110.057 87.8048 106.045V54.3222H96.9384C97.6071 54.3222 98.1494 53.7799 98.1494 53.1113V36.0998C98.1491 35.4308 97.6071 34.8888 96.9382 34.8888Z" fill="#0000CA"/>
<path d="M80.5389 107.498H43.4609C39.4481 107.498 36.1953 104.245 36.1953 100.232V23.7676C36.1953 19.7548 39.4481 16.502 43.4609 16.502H80.5391C84.5519 16.502 87.8047 19.7548 87.8047 23.7676V100.232C87.8045 104.245 84.5517 107.498 80.5389 107.498Z" fill="#6C6CFF"/>
<path d="M87.805 34.8887V54.3218H82.0991L79.372 56.2617C78.5704 56.8333 77.4612 56.2593 77.4612 55.276V36.0996C77.4612 35.4312 78.0013 34.8887 78.6721 34.8887H87.805Z" fill="#4D4DFF"/>
<path d="M46.5387 36.0996V55.276C46.5387 56.2593 45.4294 56.8333 44.6278 56.2617L41.9008 54.3218H36.1948V34.8887H45.3277C45.9986 34.8887 46.5387 35.4312 46.5387 36.0996Z" fill="#4D4DFF"/>
<path d="M84.1717 23.7676V100.231C84.1717 102.237 82.5452 103.864 80.5389 103.864H43.46C41.4537 103.864 39.8271 102.237 39.8271 100.231V23.7676C39.8271 21.7613 41.4537 20.1348 43.46 20.1348H53.1281C54.0738 20.1348 54.8404 20.9013 54.8404 21.847C54.8404 23.1846 55.9246 24.2689 57.2622 24.2689H66.7366C68.0742 24.2689 69.1585 23.1846 69.1585 21.847C69.1585 20.9013 69.925 20.1348 70.8707 20.1348H80.5389C82.5454 20.1348 84.1717 21.7613 84.1717 23.7676Z" fill="#7AEE90"/>
<path d="M84.1722 34.8887V54.3218H82.0991L79.372 56.2617C78.5704 56.8333 77.4612 56.2593 77.4612 55.276V36.0996C77.4612 35.4312 78.0013 34.8887 78.6721 34.8887H84.1722Z" fill="#4AE767"/>
<path d="M46.5387 36.0996V55.276C46.5387 56.2593 45.4294 56.8333 44.6278 56.2617L41.9008 54.3218H39.8276V34.8887H45.3277C45.9986 34.8887 46.5387 35.4312 46.5387 36.0996Z" fill="#4AE767"/>
<path d="M42.9009 55.0356V91.8578C42.9009 93.1954 43.9852 94.2796 45.3228 94.2796H78.8536C80.1912 94.2796 81.2755 93.1954 81.2755 91.8578V54.9096L78.8536 48.4883H45.3228L42.9009 55.0356Z" fill="white"/>
<path d="M81.2754 50.9102V54.9087L79.3718 56.2625C78.5702 56.8341 77.4609 56.2601 77.4609 55.2768V48.4883H78.8535C80.1904 48.4883 81.2754 49.5709 81.2754 50.9102Z" fill="#D8D8FF"/>
<path d="M46.5385 48.4883V55.2768C46.5385 56.2601 45.4293 56.8341 44.6277 56.2625L42.9009 55.0346V50.9102C42.9009 49.5709 43.9859 48.4883 45.3228 48.4883H46.5385Z" fill="#D8D8FF"/>
<path d="M71.5369 99.4043H52.4631C51.7942 99.4043 51.2522 98.8623 51.2522 98.1934C51.2522 97.5244 51.7942 96.9824 52.4631 96.9824H71.5369C72.2058 96.9824 72.7478 97.5244 72.7478 98.1934C72.7478 98.8623 72.2058 99.4043 71.5369 99.4043Z" fill="#FFF2ED"/>
<path d="M98.1491 30.2871V47.2986C98.1491 47.9673 97.6068 48.5095 96.9381 48.5095H82.1L79.373 50.4499C78.5714 51.0205 77.46 50.4473 77.46 49.4633V30.2871C77.46 29.6184 78.0022 29.0762 78.6709 29.0762H96.9381C97.6071 29.0762 98.1491 29.6182 98.1491 30.2871Z" fill="#7FB3FF"/>
<path d="M86.7549 42.8285C86.4452 42.8285 86.1352 42.7103 85.8988 42.4739L83.2452 39.8205C82.7722 39.3475 82.7722 38.5808 83.2449 38.108C83.7179 37.635 84.4844 37.6353 84.9574 38.1078L86.7549 39.905L91.2059 35.4544C91.6784 34.9814 92.4456 34.9814 92.9181 35.4544C93.3911 35.9271 93.3911 36.6939 92.9181 37.1666L87.6111 42.4737C87.3747 42.7103 87.0647 42.8285 86.7549 42.8285Z" fill="white"/>
<path d="M25.8508 30.2871V47.2986C25.8508 47.9673 26.3931 48.5095 27.0618 48.5095H41.8999L44.6269 50.4499C45.4285 51.0205 46.5399 50.4473 46.5399 49.4633V30.2871C46.5399 29.6184 45.9977 29.0762 45.329 29.0762H27.0618C26.3928 29.0762 25.8508 29.6182 25.8508 30.2871Z" fill="#FF7EB7"/>
<path d="M87.8047 54.0293C87.1358 54.0293 86.5938 54.5713 86.5938 55.2402V100.232C86.5938 103.571 83.8776 106.287 80.5391 106.287H57.2603C56.5913 106.287 56.0493 106.829 56.0493 107.498C56.0493 108.167 56.5913 108.709 57.2603 108.709H80.5391C85.2131 108.709 89.0156 104.906 89.0156 100.232V55.2402C89.0156 54.5713 88.4736 54.0293 87.8047 54.0293Z" fill="#0000CA"/>
<path d="M96.9382 27.8649H89.016V23.7676C89.016 19.0936 85.2134 15.291 80.5394 15.291H43.4605C38.7865 15.291 34.984 19.0936 34.984 23.7676V27.8649H27.0618C25.7263 27.8649 24.6399 28.9514 24.6399 30.2868V47.2983C24.6399 48.6337 25.7263 49.7201 27.0618 49.7201H34.984V100.231C34.984 104.905 38.7865 108.708 43.4605 108.708H50.5566C51.2255 108.708 51.7676 108.166 51.7676 107.497C51.7676 106.828 51.2255 106.286 50.5566 106.286H43.4605C40.122 106.286 37.4058 103.57 37.4058 100.231V49.7201H41.5129L43.9248 51.4363C44.344 51.7347 44.8345 51.8863 45.3278 51.8863C45.7066 51.8863 46.0878 51.7967 46.4392 51.6153C47.2483 51.198 47.7509 50.3733 47.7509 49.4629V30.2865C47.7509 28.9511 46.6644 27.8647 45.329 27.8647H37.4058V23.7676C37.4058 20.429 40.122 17.7129 43.4605 17.7129H80.5394C83.878 17.7129 86.5941 20.429 86.5941 23.7676V27.8649H78.671C77.3355 27.8649 76.2491 28.9514 76.2491 30.2868V49.4632C76.2491 50.3736 76.7516 51.1982 77.5608 51.6155C77.9124 51.7969 78.2929 51.8865 78.6722 51.8865C79.1655 51.8865 79.6559 51.7349 80.0752 51.4365L82.4871 49.7204H96.9382C98.2736 49.7204 99.3601 48.6339 99.3601 47.2985V30.287C99.3601 28.9514 98.2734 27.8649 96.9382 27.8649ZM45.3288 49.4627L42.6017 47.5223C42.3966 47.3763 42.1515 47.298 41.8999 47.298H27.0618V30.2865H45.329L45.3288 49.4627ZM96.9382 47.2983H82.1001C81.8485 47.2983 81.6031 47.3765 81.3982 47.5225L78.671 49.4632V30.2868L96.9382 30.2853V47.2983Z" fill="#0000CA"/>
<path d="M37.9078 38.9628L39.9579 36.9127C40.4309 36.44 40.4309 35.6732 39.9579 35.2004C39.4854 34.7275 38.7181 34.7275 38.2456 35.2004L36.1955 37.2506L34.1454 35.2004C33.6729 34.7275 32.9056 34.7275 32.4331 35.2004C31.9601 35.6732 31.9601 36.44 32.4331 36.9127L34.4832 38.9628L32.4331 41.0129C31.9601 41.4857 31.9601 42.2525 32.4331 42.7252C32.6695 42.9618 32.9795 43.08 33.2892 43.08C33.599 43.08 33.9092 42.9618 34.1454 42.7252L36.1955 40.6751L38.2456 42.7252C38.482 42.9618 38.792 43.08 39.1017 43.08C39.4115 43.08 39.7217 42.9618 39.9579 42.7252C40.4309 42.2525 40.4309 41.4857 39.9579 41.0129L37.9078 38.9628Z" fill="white"/>
<path d="M56.4623 34.4862C54.6035 34.4862 53.0913 32.9739 53.0913 31.1151C53.0913 29.2564 54.6035 27.7441 56.4623 27.7441C58.3213 27.7441 59.8336 29.2564 59.8336 31.1151C59.8336 32.9739 58.3213 34.4862 56.4623 34.4862ZM56.4623 30.1663C55.9389 30.1663 55.5132 30.592 55.5132 31.1154C55.5132 31.6388 55.9389 32.0645 56.4623 32.0645C56.9857 32.0645 57.4117 31.6388 57.4117 31.1154C57.4117 30.592 56.9857 30.1663 56.4623 30.1663Z" fill="#0000CA"/>
<path d="M67.5375 44.8768C65.6785 44.8768 64.1663 43.3646 64.1663 41.5058C64.1663 39.647 65.6785 38.1348 67.5375 38.1348C69.3963 38.1348 70.9085 39.647 70.9085 41.5058C70.9085 43.3646 69.3963 44.8768 67.5375 44.8768ZM67.5375 40.5566C67.0141 40.5566 66.5881 40.9824 66.5881 41.5058C66.5881 42.0291 67.0141 42.4549 67.5375 42.4549C68.0609 42.4549 68.4866 42.0291 68.4866 41.5058C68.4866 40.9824 68.0609 40.5566 67.5375 40.5566Z" fill="#0000CA"/>
<path d="M56.9789 44.396C56.1938 44.396 55.4088 44.0974 54.8111 43.4995C54.2318 42.9202 53.9128 42.1505 53.9128 41.3314C53.9128 40.5123 54.2318 39.7424 54.8111 39.1633L64.8532 29.1213C66.0489 27.9258 67.9941 27.9256 69.1891 29.1213C69.7684 29.7003 70.0873 30.47 70.0873 31.2891C70.0873 32.1084 69.7684 32.8783 69.1891 33.4574L59.147 43.4995C58.5493 44.0972 57.7639 44.396 56.9789 44.396ZM67.021 30.6454C66.8558 30.6454 66.6909 30.7083 66.5652 30.8338L56.5231 40.8758C56.4013 40.9977 56.3345 41.1594 56.3345 41.3314C56.3345 41.5036 56.4016 41.6654 56.5231 41.7872C56.7745 42.0381 57.1836 42.0379 57.4345 41.787L67.4766 31.7449C67.5984 31.6231 67.6652 31.4613 67.6652 31.2891C67.6652 31.1171 67.5984 30.9554 67.4766 30.8338C67.3511 30.7083 67.1859 30.6454 67.021 30.6454Z" fill="#0000CA"/>
<path d="M60.4172 54.8195V57.6301C60.4172 57.9675 60.1438 58.2407 59.8067 58.2407H57.8326V64.8069C57.8326 65.1442 57.5592 65.4174 57.2221 65.4174H50.5033C50.1659 65.4174 49.8927 65.144 49.8927 64.8069V58.2407H47.9187C47.5813 58.2407 47.3081 57.9673 47.3081 57.6301V54.8195C47.3081 54.4822 47.5815 54.209 47.9187 54.209H51.428C51.6452 54.209 51.8479 54.3235 51.9547 54.5127C52.3301 55.1782 53.0436 55.6272 53.8617 55.6272C54.6803 55.6272 55.3938 55.178 55.7701 54.5122C55.8769 54.3233 56.0797 54.209 56.2967 54.209H59.8067C60.1438 54.209 60.4172 54.4822 60.4172 54.8195Z" fill="#BCD7FF"/>
<path d="M76.6919 54.8195V57.6301C76.6919 57.9675 76.4185 58.2407 76.0813 58.2407H74.1073V64.8069C74.1073 65.1442 73.8338 65.4174 73.4967 65.4174H66.7779C66.4406 65.4174 66.1674 65.144 66.1674 64.8069V58.2407H64.1933C63.856 58.2407 63.5828 57.9673 63.5828 57.6301V54.8195C63.5828 54.4822 63.8562 54.209 64.1933 54.209H67.7029C67.9201 54.209 68.1228 54.3235 68.2296 54.5127C68.605 55.1782 69.3185 55.6272 70.1366 55.6272C70.9552 55.6272 71.6687 55.178 72.045 54.5122C72.1518 54.3233 72.3545 54.209 72.5715 54.209H76.0816C76.4185 54.209 76.6919 54.4822 76.6919 54.8195Z" fill="#BCD7FF"/>
<path d="M60.4172 69.4484V72.259C60.4172 72.5964 60.1438 72.8696 59.8067 72.8696H57.8326V79.4358C57.8326 79.7731 57.5592 80.0463 57.2221 80.0463H50.5033C50.1659 80.0463 49.8927 79.7729 49.8927 79.4358V72.8696H47.9187C47.5813 72.8696 47.3081 72.5962 47.3081 72.259V69.4484C47.3081 69.1111 47.5815 68.8379 47.9187 68.8379H51.428C51.6452 68.8379 51.8479 68.9524 51.9547 69.1416C52.3301 69.8071 53.0436 70.2561 53.8617 70.2561C54.6803 70.2561 55.3938 69.8069 55.7701 69.1411C55.8769 68.9522 56.0797 68.8379 56.2967 68.8379H59.8067C60.1438 68.8376 60.4172 69.1111 60.4172 69.4484Z" fill="#BCD7FF"/>
<path d="M76.6919 69.4484V72.259C76.6919 72.5964 76.4185 72.8696 76.0813 72.8696H74.1073V79.4358C74.1073 79.7731 73.8338 80.0463 73.4967 80.0463H66.7779C66.4406 80.0463 66.1674 79.7729 66.1674 79.4358V72.8696H64.1933C63.856 72.8696 63.5828 72.5962 63.5828 72.259V69.4484C63.5828 69.1111 63.8562 68.8379 64.1933 68.8379H67.7029C67.9201 68.8379 68.1228 68.9524 68.2296 69.1416C68.605 69.8071 69.3185 70.2561 70.1366 70.2561C70.9552 70.2561 71.6687 69.8069 72.045 69.1411C72.1518 68.9522 72.3546 68.8379 72.5716 68.8379H76.0816C76.4185 68.8376 76.6919 69.1111 76.6919 69.4484Z" fill="#D8D8FF"/>
<path d="M64.3021 90.1615H72.7769C73.1732 90.1615 73.4945 89.8401 73.4945 89.4439V86.7781C73.4945 86.3819 73.1734 86.0605 72.7769 86.0605H64.3021C63.9059 86.0605 63.5845 86.3819 63.5845 86.7781V89.4439C63.5845 89.8401 63.9056 90.1615 64.3021 90.1615Z" fill="#00D627"/>
<path d="M51.2232 90.1615H59.6981C60.0943 90.1615 60.4157 89.8401 60.4157 89.4439V86.7781C60.4157 86.3819 60.0943 86.0605 59.6981 86.0605H51.2232C50.827 86.0605 50.5056 86.3819 50.5056 86.7781V89.4439C50.5056 89.8401 50.827 90.1615 51.2232 90.1615Z" fill="#3E89F0"/>
<path d="M54.5624 60.2637H53.1628C52.4939 60.2637 51.9519 59.7217 51.9519 59.0527C51.9519 58.3838 52.4939 57.8418 53.1628 57.8418H54.5624C55.2314 57.8418 55.7734 58.3838 55.7734 59.0527C55.7734 59.7217 55.2314 60.2637 54.5624 60.2637Z" fill="#3E89F0"/>
<path d="M70.8371 60.2637H69.4375C68.7686 60.2637 68.2266 59.7217 68.2266 59.0527C68.2266 58.3838 68.7686 57.8418 69.4375 57.8418H70.8371C71.506 57.8418 72.048 58.3838 72.048 59.0527C72.048 59.7217 71.506 60.2637 70.8371 60.2637Z" fill="#3E89F0"/>
<path d="M54.5624 74.8926H53.1628C52.4939 74.8926 51.9519 74.3506 51.9519 73.6816C51.9519 73.0127 52.4939 72.4707 53.1628 72.4707H54.5624C55.2314 72.4707 55.7734 73.0127 55.7734 73.6816C55.7734 74.3506 55.2314 74.8926 54.5624 74.8926Z" fill="#3E89F0"/>
<path d="M70.8371 74.8926H69.4375C68.7686 74.8926 68.2266 74.3506 68.2266 73.6816C68.2266 73.0127 68.7686 72.4707 69.4375 72.4707H70.8371C71.506 72.4707 72.048 73.0127 72.048 73.6816C72.048 74.3506 71.506 74.8926 70.8371 74.8926Z" fill="#FFB2B2"/>
<path d="M15.9248 35.923C15.6751 35.923 15.4254 35.846 15.2132 35.6917C14.7887 35.3836 14.6111 34.837 14.7734 34.3379L15.1304 33.2391L14.1958 32.5597C13.7712 32.2514 13.5937 31.7048 13.756 31.2059C13.918 30.7068 14.383 30.3692 14.9076 30.3692H16.0631L16.4203 29.2704C16.5823 28.7712 17.0473 28.4336 17.5719 28.4336C18.0965 28.4336 18.5615 28.7714 18.7235 29.2704L19.0807 30.3692H20.2362C20.7608 30.3692 21.2258 30.707 21.3878 31.2059C21.5501 31.7048 21.3725 32.2512 20.9482 32.5597L20.0136 33.2391L20.3706 34.3379C20.5329 34.8368 20.3553 35.3832 19.9308 35.6917C19.5065 36 18.9318 36 18.5075 35.6917L17.5726 35.0126L16.6383 35.6917C16.4242 35.846 16.1745 35.923 15.9248 35.923Z" fill="#00AC1F"/>
<path d="M101.332 63.5126C101.082 63.5126 100.833 63.4356 100.621 63.2813L99.6857 62.6022L98.7513 63.2813C98.3265 63.5896 97.752 63.5896 97.3277 63.2813C96.9032 62.9733 96.7256 62.4266 96.8879 61.9275L97.2449 60.8287L96.3103 60.1493C95.8857 59.841 95.7082 59.2944 95.8705 58.7955C96.0325 58.2964 96.4975 57.9588 97.0221 57.9588H98.1776L98.5348 56.8602C98.6968 56.361 99.1618 56.0234 99.6864 56.0234C100.211 56.0234 100.676 56.3613 100.838 56.8602L101.195 57.9588H102.351C102.875 57.9588 103.34 58.2966 103.502 58.7955C103.665 59.2944 103.487 59.8408 103.063 60.1493L102.128 60.8287L102.485 61.9275C102.647 62.4264 102.47 62.9728 102.045 63.2813C101.832 63.4356 101.582 63.5126 101.332 63.5126Z" fill="#00AC1F"/>
<path d="M29.2559 113.585C29.0062 113.585 28.7565 113.508 28.5441 113.354L27.6097 112.675L26.6749 113.354C26.2506 113.662 25.6759 113.662 25.2516 113.354C24.827 113.046 24.6495 112.499 24.8117 112L25.1687 110.901L24.2341 110.222C23.8098 109.914 23.6323 109.367 23.7946 108.868C23.9566 108.369 24.4216 108.031 24.9462 108.031H26.1016L26.4589 106.932C26.6209 106.433 27.0859 106.096 27.6105 106.096C28.135 106.096 28.6 106.434 28.7621 106.932L29.1193 108.031H30.2748C30.7993 108.031 31.2643 108.369 31.4264 108.868C31.5886 109.367 31.4111 109.913 30.9866 110.222L30.052 110.901L30.4089 112C30.5712 112.499 30.3937 113.046 29.9691 113.354C29.7553 113.508 29.5056 113.585 29.2559 113.585Z" fill="#00AC1F"/>
<path d="M23.5422 19.9707C21.5391 19.9707 19.9094 18.341 19.9094 16.3379C19.9094 14.3348 21.5391 12.7051 23.5422 12.7051C25.5454 12.7051 27.175 14.3348 27.175 16.3379C27.175 18.341 25.5456 19.9707 23.5422 19.9707ZM23.5422 15.127C22.8745 15.127 22.3313 15.6702 22.3313 16.3379C22.3313 17.0056 22.8745 17.5488 23.5422 17.5488C24.2099 17.5488 24.7532 17.0056 24.7532 16.3379C24.7532 15.6702 24.2099 15.127 23.5422 15.127Z" fill="#0000CA"/>
<path d="M107.677 79.8496C105.674 79.8496 104.045 78.2199 104.045 76.2168C104.045 74.2137 105.674 72.584 107.677 72.584C109.681 72.584 111.31 74.2137 111.31 76.2168C111.31 78.2199 109.681 79.8496 107.677 79.8496ZM107.677 75.0059C107.01 75.0059 106.467 75.5491 106.467 76.2168C106.467 76.8845 107.01 77.4277 107.677 77.4277C108.345 77.4277 108.888 76.8845 108.888 76.2168C108.888 75.5491 108.345 75.0059 107.677 75.0059Z" fill="#0000CA"/>
</g>
<defs>
<linearGradient id="paint0_linear_466_8969" x1="27.4862" y1="102.009" x2="113.209" y2="16.2865" gradientUnits="userSpaceOnUse">
<stop stop-color="#7FB3FF" stop-opacity="0"/>
<stop offset="0.9981" stop-color="#0032B0" stop-opacity="0.85"/>
</linearGradient>
<clipPath id="clip0_466_8969">
<rect width="124" height="124" fill="white"/>
</clipPath>
</defs>
</svg>
