<svg width="112" height="112" viewBox="0 0 112 112" fill="none" xmlns="http://www.w3.org/2000/svg">
<path d="M36.4419 80.3936C54.2744 90.1631 47.0585 111.335 65.5094 111.976C98.951 113.136 94.2752 71.8697 92.2465 41.7306C91.7021 33.6432 99.8951 26.2682 104.981 20.6501C111.702 13.2264 108.039 -1.27501 94.8155 0.0899913C80.0226 1.61687 68.9693 14.3142 54.8877 19.1002C43.1656 23.0843 29.7017 21.0672 18.7384 26.8197C11.437 30.6507 5.57668 37.7821 4.31734 45.9308C-0.89066 79.6268 29.957 76.8406 36.4419 80.3936Z" fill="url(#paint0_linear_466_7917)" fill-opacity="0.5"/>
<path opacity="0.1" d="M101.192 62.767H88.6457V46.1624C88.6457 41.5034 84.8683 37.7263 80.2096 37.7263H52.0718V13.6465C52.0718 12.439 51.0918 11.459 49.8843 11.459H35.3856C34.1781 11.459 33.1981 12.439 33.1981 13.6465V37.726H25.208V24.0172C25.208 22.27 23.7916 20.8536 22.0444 20.8536H17.0569C12.3978 20.8536 8.62085 24.6306 8.62085 29.2897V81.3557C8.62085 86.0147 12.3982 89.7918 17.0569 89.7918H63.3086V103.501C63.3086 105.248 64.725 106.664 66.4721 106.664H80.2094C84.8686 106.664 88.6455 102.887 88.6455 98.2281V81.6405H101.192C102.399 81.6405 103.379 80.6605 103.379 79.453V64.9543C103.379 63.747 102.399 62.767 101.192 62.767Z" fill="#2626BB"/>
<path d="M66.4724 101.414H80.2097C84.8688 101.414 88.6458 97.6369 88.6458 92.9778L87.552 83.4473L63.3088 84.541V98.2503C63.3088 99.9975 64.725 101.414 66.4724 101.414Z" fill="#7FB3FF"/>
<path d="M88.645 46.1621V92.9768C88.645 93.8934 88.4984 94.7749 88.2293 95.6018C87.1246 92.2287 83.9528 89.7918 80.21 89.7918H63.3093V52.5102C63.3093 50.7646 64.7246 49.3471 66.4724 49.3471H80.21C83.9528 49.3471 87.1246 46.9102 88.2293 43.5371C88.4984 44.364 88.645 45.2455 88.645 46.1621Z" fill="#003DD0"/>
<path d="M88.6443 40.9116V92.9784C88.6443 88.3191 84.8687 84.5413 80.2093 84.5413H37.0303L35.9365 82.28V34.6474L37.0303 32.4766H80.2093C84.8687 32.4766 88.6443 36.2544 88.6443 40.9116Z" fill="#3E89F0"/>
<path d="M88.6453 62.7669V81.6406H35.3862C34.1787 81.6406 33.1987 80.6606 33.1987 79.4531V32.4766H52.0725V62.7669H88.6453Z" fill="#7FB3FF"/>
<path d="M37.0311 32.4766V84.5413H17.0571C12.3977 84.5413 8.62207 80.7656 8.62207 76.1063L9.93457 64.5062L25.3696 32.4766H37.0311Z" fill="#B6F6BE"/>
<path d="M37.0312 32.4766V81.6406H35.3862C34.1787 81.6406 33.1987 80.6606 33.1987 79.4531V32.4766H37.0312Z" fill="#7AEE90"/>
<path d="M25.2075 32.476V69.7576C25.2075 71.5032 23.7921 72.9207 22.0443 72.9207H17.0568C13.314 72.9207 10.1421 75.3576 9.03745 78.7307C8.76839 77.9038 8.62183 77.0223 8.62183 76.1057V24.041C8.62183 28.6982 12.3975 32.476 17.0568 32.476H25.2075Z" fill="#7AEE90"/>
<path d="M22.0442 15.6035H17.0569C12.3978 15.6035 8.62085 19.3805 8.62085 24.0396V76.1056C8.62085 71.4467 12.3982 67.6695 17.0569 67.6695H22.0442C23.7914 67.6695 25.2078 66.2531 25.2078 64.506V18.7671C25.2078 17.0199 23.7914 15.6035 22.0442 15.6035Z" fill="#7FB3FF"/>
<path d="M103.379 59.7043V74.203C103.379 75.4105 102.399 76.3905 101.192 76.3905H35.3853C34.1778 76.3905 33.1978 75.4105 33.1978 74.203V8.39648C33.1978 7.18898 34.1778 6.20898 35.3853 6.20898H49.884C51.0915 6.20898 52.0715 7.18898 52.0715 8.39648V57.5168H101.192C102.399 57.5168 103.379 58.4968 103.379 59.7043Z" fill="#00D627"/>
<path d="M53.6179 57.5175L34.8185 76.3169C34.066 76.1156 33.471 75.5206 33.272 74.7681L52.0713 55.9688V57.5175H53.6179Z" fill="#00AC1F"/>
<path d="M103.379 59.7043V63.7665H45.8328V6.20898H49.884C51.0915 6.20898 52.0715 7.18898 52.0715 8.39648V57.5168H101.192C102.399 57.5168 103.379 58.4968 103.379 59.7043Z" fill="#7AEE90"/>
<path d="M53.6181 57.5175L47.3684 63.7672H45.8328V62.2075L52.0715 55.9688V57.5175H53.6181Z" fill="#00D627"/>
<path d="M101.192 56.4233H89.7402V40.9121C89.7402 35.658 85.4645 31.3834 80.2092 31.3834H53.1652V27.7209C53.1652 27.1169 52.6756 26.6271 52.0714 26.6271C51.4672 26.6271 50.9777 27.1169 50.9777 27.7209V57.517C50.9777 58.121 51.4672 58.6108 52.0714 58.6108H101.192C101.795 58.6108 102.285 59.1014 102.285 59.7045V74.203C102.285 74.8061 101.795 75.2968 101.192 75.2968H35.3856C34.7825 75.2968 34.2918 74.8061 34.2918 74.203V8.3967C34.2918 7.79361 34.7823 7.30295 35.3854 7.30295L49.8839 7.30274C50.1762 7.30274 50.4507 7.41649 50.6572 7.62299C50.8637 7.82949 50.9777 8.10423 50.9777 8.39649V21.1284C50.9777 21.7324 51.4672 22.2221 52.0714 22.2221C52.6756 22.2221 53.1652 21.7324 53.1652 21.1284V8.39649C53.1652 7.51995 52.8237 6.69614 52.204 6.0762C51.5842 5.45627 50.76 5.11502 49.8839 5.11523L35.3854 5.11545C33.5761 5.11545 32.1043 6.58742 32.1043 8.3967V31.3834H26.3016V18.7674C26.3016 16.42 24.3919 14.5101 22.0443 14.5101H17.0572C11.8024 14.5101 7.52734 18.7851 7.52734 24.04C7.52734 24.04 7.52756 76.1077 7.52756 76.1086C7.52866 81.3619 11.8028 85.6354 17.0561 85.6354H45.9661C46.5703 85.6354 47.0598 85.1456 47.0598 84.5416C47.0598 83.9376 46.5703 83.4479 45.9661 83.4479H17.0561C13.0081 83.4479 9.71484 80.1546 9.71484 76.1066C9.71484 76.106 9.71463 76.1055 9.71463 76.1049C9.71528 72.0567 13.0088 68.7636 17.057 68.7636H22.044C24.3914 68.7636 26.3013 66.8537 26.3013 64.5063V33.5709H32.1041V74.203C32.1041 76.0123 33.5761 77.4843 35.3854 77.4843H87.5527V86.9098C85.8031 84.7967 83.1606 83.4481 80.2092 83.4481H52.557C51.9528 83.4481 51.4633 83.9379 51.4633 84.5418C51.4633 85.1458 51.9528 85.6356 52.557 85.6356H62.2148V98.2511C62.2148 100.599 64.1247 102.508 66.4724 102.508H80.2094C85.4603 102.508 89.7325 98.2397 89.7391 92.9906C89.7391 92.9867 89.7402 77.4845 89.7402 77.4845H101.192C103.001 77.4845 104.473 76.0125 104.473 74.2033V59.7047C104.473 57.8952 103.001 56.4233 101.192 56.4233ZM53.1652 33.5709H80.2092C84.2585 33.5709 87.5527 36.8642 87.5527 40.9121V56.4235H53.1652V33.5709ZM24.1138 64.5063C24.1138 65.6477 23.1855 66.5761 22.044 66.5761H17.0572C14.1062 66.5761 11.4642 67.9243 9.71484 70.0372V24.0402C9.71484 19.9915 13.0088 16.6978 17.0572 16.6978H22.0443C23.1857 16.6978 24.1141 17.6264 24.1141 18.7676L24.1138 64.5063ZM80.2094 100.321H66.4724C65.3309 100.321 64.4023 99.3923 64.4023 98.2511V85.6356H80.2092C84.2561 85.6356 87.5487 88.926 87.5524 92.9718C87.5524 92.974 87.5518 92.9762 87.5518 92.9786C87.5518 97.027 84.2581 100.321 80.2094 100.321Z" fill="#2626BB"/>
<path d="M45.8004 13.6465H41.7292C41.1253 13.6465 40.6355 13.1567 40.6355 12.5527C40.6355 11.9488 41.1253 11.459 41.7292 11.459H45.8004C46.4044 11.459 46.8942 11.9488 46.8942 12.5527C46.8942 13.1567 46.4044 13.6465 45.8004 13.6465Z" fill="white"/>
<path d="M45.8004 19.0137H44.7917C44.1878 19.0137 43.698 18.5239 43.698 17.9199C43.698 17.316 44.1878 16.8262 44.7917 16.8262H45.8004C46.4044 16.8262 46.8942 17.316 46.8942 17.9199C46.8942 18.5239 46.4044 19.0137 45.8004 19.0137Z" fill="white"/>
<path d="M45.8004 24.3789H44.7917C44.1878 24.3789 43.698 23.8891 43.698 23.2852C43.698 22.6812 44.1878 22.1914 44.7917 22.1914H45.8004C46.4044 22.1914 46.8942 22.6812 46.8942 23.2852C46.8942 23.8891 46.4044 24.3789 45.8004 24.3789Z" fill="white"/>
<path d="M45.8004 29.7461H44.7917C44.1878 29.7461 43.698 29.2563 43.698 28.6523C43.698 28.0484 44.1878 27.5586 44.7917 27.5586H45.8004C46.4044 27.5586 46.8942 28.0484 46.8942 28.6523C46.8942 29.2563 46.4044 29.7461 45.8004 29.7461Z" fill="white"/>
<path d="M45.8004 35.1113H41.7292C41.1253 35.1113 40.6355 34.6215 40.6355 34.0176C40.6355 33.4136 41.1253 32.9238 41.7292 32.9238H45.8004C46.4044 32.9238 46.8942 33.4136 46.8942 34.0176C46.8942 34.6215 46.4044 35.1113 45.8004 35.1113Z" fill="white"/>
<path d="M45.8004 40.4785H44.7917C44.1878 40.4785 43.698 39.9887 43.698 39.3848C43.698 38.7808 44.1878 38.291 44.7917 38.291H45.8004C46.4044 38.291 46.8942 38.7808 46.8942 39.3848C46.8942 39.9887 46.4044 40.4785 45.8004 40.4785Z" fill="white"/>
<path d="M45.8004 45.8438H44.7917C44.1878 45.8438 43.698 45.354 43.698 44.75C43.698 44.146 44.1878 43.6562 44.7917 43.6562H45.8004C46.4044 43.6562 46.8942 44.146 46.8942 44.75C46.8942 45.354 46.4044 45.8438 45.8004 45.8438Z" fill="white"/>
<path d="M45.8004 51.2109H44.7917C44.1878 51.2109 43.698 50.7212 43.698 50.1172C43.698 49.5132 44.1878 49.0234 44.7917 49.0234H45.8004C46.4044 49.0234 46.8942 49.5132 46.8942 50.1172C46.8942 50.7212 46.4044 51.2109 45.8004 51.2109Z" fill="white"/>
<path d="M45.8004 56.5762H41.7292C41.1253 56.5762 40.6355 56.0864 40.6355 55.4824C40.6355 54.8785 41.1253 54.3887 41.7292 54.3887H45.8004C46.4044 54.3887 46.8942 54.8785 46.8942 55.4824C46.8942 56.0864 46.4044 56.5762 45.8004 56.5762Z" fill="white"/>
<path d="M55.1992 63.7891V67.8602C55.1992 68.4642 54.7094 68.954 54.1055 68.954C53.5015 68.954 53.0117 68.4642 53.0117 67.8602V63.7891C53.0117 63.1851 53.5015 62.6953 54.1055 62.6953C54.7094 62.6953 55.1992 63.1851 55.1992 63.7891Z" fill="white"/>
<path d="M60.5657 63.7891V64.7977C60.5657 65.4017 60.0759 65.8915 59.4719 65.8915C58.868 65.8915 58.3782 65.4017 58.3782 64.7977V63.7891C58.3782 63.1851 58.868 62.6953 59.4719 62.6953C60.0759 62.6953 60.5657 63.1851 60.5657 63.7891Z" fill="white"/>
<path d="M65.9316 63.7891V64.7977C65.9316 65.4017 65.4419 65.8915 64.8379 65.8915C64.2339 65.8915 63.7441 65.4017 63.7441 64.7977V63.7891C63.7441 63.1851 64.2339 62.6953 64.8379 62.6953C65.4419 62.6953 65.9316 63.1851 65.9316 63.7891Z" fill="white"/>
<path d="M71.2981 63.7891V64.7977C71.2981 65.4017 70.8083 65.8915 70.2043 65.8915C69.6004 65.8915 69.1106 65.4017 69.1106 64.7977V63.7891C69.1106 63.1851 69.6004 62.6953 70.2043 62.6953C70.8083 62.6953 71.2981 63.1851 71.2981 63.7891Z" fill="white"/>
<path d="M76.6643 63.7891V67.8602C76.6643 68.4642 76.1745 68.954 75.5706 68.954C74.9666 68.954 74.4768 68.4642 74.4768 67.8602V63.7891C74.4768 63.1851 74.9666 62.6953 75.5706 62.6953C76.1745 62.6953 76.6643 63.1851 76.6643 63.7891Z" fill="white"/>
<path d="M82.0308 63.7891V64.7977C82.0308 65.4017 81.541 65.8915 80.937 65.8915C80.333 65.8915 79.8433 65.4017 79.8433 64.7977V63.7891C79.8433 63.1851 80.333 62.6953 80.937 62.6953C81.541 62.6953 82.0308 63.1851 82.0308 63.7891Z" fill="white"/>
<path d="M87.3967 63.7891V64.7977C87.3967 65.4017 86.9069 65.8915 86.303 65.8915C85.699 65.8915 85.2092 65.4017 85.2092 64.7977V63.7891C85.2092 63.1851 85.699 62.6953 86.303 62.6953C86.9069 62.6953 87.3967 63.1851 87.3967 63.7891Z" fill="white"/>
<path d="M92.7632 63.7891V64.7977C92.7632 65.4017 92.2734 65.8915 91.6694 65.8915C91.0655 65.8915 90.5757 65.4017 90.5757 64.7977V63.7891C90.5757 63.1851 91.0655 62.6953 91.6694 62.6953C92.2734 62.6953 92.7632 63.1851 92.7632 63.7891Z" fill="white"/>
<path d="M98.1294 63.7891V67.8602C98.1294 68.4642 97.6396 68.954 97.0356 68.954C96.4317 68.954 95.9419 68.4642 95.9419 67.8602V63.7891C95.9419 63.1851 96.4317 62.6953 97.0356 62.6953C97.6396 62.6953 98.1294 63.1851 98.1294 63.7891Z" fill="white"/>
<path d="M70.9747 51.4668C71.5786 51.4668 72.0684 50.977 72.0684 50.373C72.0684 49.7691 71.5786 49.2793 70.9747 49.2793H61.4407C60.8367 49.2793 60.3469 49.7691 60.3469 50.373C60.3469 50.977 60.8367 51.4668 61.4407 51.4668H70.9747Z" fill="white"/>
<path d="M75.1052 51.4668C75.7093 51.4668 76.199 50.9771 76.199 50.373C76.199 49.769 75.7093 49.2793 75.1052 49.2793C74.5012 49.2793 74.0115 49.769 74.0115 50.373C74.0115 50.9771 74.5012 51.4668 75.1052 51.4668Z" fill="white"/>
<path d="M70.9747 44.998H64.5032C63.8992 44.998 63.4094 45.4878 63.4094 46.0918C63.4094 46.6958 63.8992 47.1855 64.5032 47.1855H70.9747C71.5786 47.1855 72.0684 46.6958 72.0684 46.0918C72.0684 45.4878 71.5786 44.998 70.9747 44.998Z" fill="white"/>
<path d="M75.1052 47.1855C75.7093 47.1855 76.199 46.6959 76.199 46.0918C76.199 45.4877 75.7093 44.998 75.1052 44.998C74.5012 44.998 74.0115 45.4877 74.0115 46.0918C74.0115 46.6959 74.5012 47.1855 75.1052 47.1855Z" fill="white"/>
<path d="M58.562 40.9381C57.9578 40.9381 57.4683 40.4483 57.4683 39.8444V38.7285C57.4683 38.1245 57.9578 37.6348 58.562 37.6348C59.1662 37.6348 59.6558 38.1245 59.6558 38.7285V39.8444C59.6558 40.4483 59.1662 40.9381 58.562 40.9381Z" fill="#003DD0"/>
<path d="M64.0586 40.9381C63.4544 40.9381 62.9648 40.4483 62.9648 39.8444V38.7285C62.9648 38.1245 63.4544 37.6348 64.0586 37.6348C64.6628 37.6348 65.1523 38.1245 65.1523 38.7285V39.8444C65.1523 40.4483 64.6628 40.9381 64.0586 40.9381Z" fill="#003DD0"/>
<path d="M69.5552 40.9381C68.951 40.9381 68.4614 40.4483 68.4614 39.8444V38.7285C68.4614 38.1245 68.951 37.6348 69.5552 37.6348C70.1594 37.6348 70.6489 38.1245 70.6489 38.7285V39.8444C70.6489 40.4483 70.1594 40.9381 69.5552 40.9381Z" fill="#003DD0"/>
<path d="M75.0518 40.9381C74.4476 40.9381 73.958 40.4483 73.958 39.8444V38.7285C73.958 38.1245 74.4476 37.6348 75.0518 37.6348C75.6559 37.6348 76.1455 38.1245 76.1455 38.7285V39.8444C76.1455 40.4483 75.6557 40.9381 75.0518 40.9381Z" fill="#003DD0"/>
<path d="M34.9924 100.533C34.3882 100.533 33.8987 100.043 33.8987 99.4395C33.8987 98.776 33.3588 98.2363 32.6956 98.2363C32.0914 98.2363 31.6018 97.7465 31.6018 97.1426C31.6018 96.5386 32.0914 96.0488 32.6956 96.0488C33.3588 96.0488 33.8987 95.5092 33.8987 94.8457C33.8987 94.2417 34.3882 93.752 34.9924 93.752C35.5966 93.752 36.0862 94.2417 36.0862 94.8457C36.0862 95.5092 36.6261 96.0488 37.2893 96.0488C37.8935 96.0488 38.3831 96.5386 38.3831 97.1426C38.3831 97.7465 37.8935 98.2363 37.2893 98.2363C36.6261 98.2363 36.0862 98.776 36.0862 99.4395C36.0862 100.043 35.5966 100.533 34.9924 100.533Z" fill="#00D627"/>
<path d="M99.2473 37.3196C99.0625 37.3196 98.8755 37.2728 98.7037 37.1742L98.6821 37.1617C98.1582 36.8609 97.9775 36.1924 98.2783 35.6685C98.579 35.1446 99.2478 34.9637 99.7714 35.2647L99.7931 35.2772C100.317 35.5779 100.498 36.2464 100.197 36.7703C99.9946 37.1223 99.6264 37.3196 99.2473 37.3196Z" fill="#00D627"/>
<path d="M104.695 40.4642C104.51 40.4642 104.323 40.4173 104.151 40.3187L104.129 40.3062C103.605 40.0054 103.425 39.3369 103.726 38.813C104.027 38.2891 104.695 38.1082 105.219 38.4092L105.24 38.4217C105.764 38.7225 105.945 39.391 105.644 39.9149C105.442 40.2668 105.073 40.4642 104.695 40.4642Z" fill="#00D627"/>
<path d="M104.675 37.3196C104.296 37.3196 103.928 37.1225 103.726 36.7703C103.425 36.2464 103.605 35.5779 104.129 35.2772L104.151 35.2647C104.675 34.9637 105.343 35.1446 105.644 35.6685C105.945 36.1924 105.764 36.8609 105.24 37.1617L105.219 37.1742C105.047 37.2726 104.86 37.3196 104.675 37.3196Z" fill="#00D627"/>
<path d="M99.2279 40.464C98.849 40.464 98.4806 40.2669 98.2783 39.9147C97.9775 39.3908 98.1582 38.7223 98.6821 38.4215L98.7037 38.4091C99.2281 38.1083 99.8961 38.2892 100.197 38.8129C100.498 39.3366 100.317 40.0053 99.7931 40.3061L99.7714 40.3185C99.5997 40.417 99.4125 40.464 99.2279 40.464Z" fill="#00D627"/>
<path d="M104.675 37.3196C104.296 37.3196 103.928 37.1225 103.726 36.7703C103.425 36.2464 103.605 35.5779 104.129 35.2772L104.151 35.2647C104.675 34.9637 105.343 35.1446 105.644 35.6685C105.945 36.1924 105.764 36.8609 105.24 37.1617L105.219 37.1742C105.047 37.2726 104.86 37.3196 104.675 37.3196Z" fill="#003DD0"/>
<path d="M99.2279 40.464C98.849 40.464 98.4806 40.2669 98.2783 39.9147C97.9775 39.3908 98.1582 38.7223 98.6821 38.4215L98.7037 38.4091C99.2281 38.1083 99.8961 38.2892 100.197 38.8129C100.498 39.3366 100.317 40.0053 99.7931 40.3061L99.7714 40.3185C99.5997 40.417 99.4125 40.464 99.2279 40.464Z" fill="#003DD0"/>
<path d="M101.961 35.7535C101.357 35.7535 100.867 35.2637 100.867 34.6597V34.6348C100.867 34.0308 101.357 33.541 101.961 33.541C102.565 33.541 103.055 34.0308 103.055 34.6348V34.6597C103.055 35.2637 102.565 35.7535 101.961 35.7535Z" fill="#00D627"/>
<path d="M101.961 42.0425C101.357 42.0425 100.867 41.5527 100.867 40.9488V40.9238C100.867 40.3199 101.357 39.8301 101.961 39.8301C102.565 39.8301 103.055 40.3199 103.055 40.9238V40.9488C103.055 41.5527 102.565 42.0425 101.961 42.0425Z" fill="#00D627"/>
<path d="M98.0659 51.875C97.4617 51.875 96.9722 51.3852 96.9722 50.7812C96.9722 50.1178 96.4323 49.5781 95.769 49.5781C95.1649 49.5781 94.6753 49.0883 94.6753 48.4844C94.6753 47.8804 95.1649 47.3906 95.769 47.3906C96.4323 47.3906 96.9722 46.851 96.9722 46.1875C96.9722 45.5835 97.4617 45.0938 98.0659 45.0938C98.6701 45.0938 99.1597 45.5835 99.1597 46.1875C99.1597 46.851 99.6995 47.3906 100.363 47.3906C100.967 47.3906 101.457 47.8804 101.457 48.4844C101.457 49.0883 100.967 49.5781 100.363 49.5781C99.6995 49.5781 99.1597 50.1178 99.1597 50.7812C99.1597 51.3852 98.6699 51.875 98.0659 51.875Z" fill="#00D627"/>
<path d="M21.3826 92.9036C21.1964 92.9036 21.0081 92.8561 20.8355 92.7561L20.8138 92.7437C20.291 92.4409 20.1127 91.7718 20.4157 91.2489C20.7184 90.7261 21.3874 90.5478 21.9102 90.8506L21.9319 90.8631C22.4547 91.1658 22.6329 91.835 22.33 92.3578C22.1272 92.7078 21.7601 92.9036 21.3826 92.9036Z" fill="#003DD0"/>
<path d="M26.8296 96.048C26.6448 96.048 26.4577 96.0012 26.286 95.9026L26.2644 95.8901C25.7404 95.5893 25.5598 94.9208 25.8605 94.3969C26.1615 93.873 26.8298 93.6923 27.3537 93.9931L27.3754 94.0056C27.8993 94.3064 28.08 94.9749 27.7792 95.4988C27.5769 95.851 27.2087 96.048 26.8296 96.048Z" fill="#003DD0"/>
<path d="M26.8103 92.9035C26.4328 92.9035 26.0657 92.7077 25.8629 92.3577C25.5599 91.8351 25.7384 91.1659 26.261 90.863L26.2827 90.8505C26.8057 90.548 27.4744 90.726 27.7772 91.2488C28.0802 91.7714 27.9017 92.4406 27.3791 92.7436L27.3574 92.756C27.1846 92.8558 26.9963 92.9035 26.8103 92.9035Z" fill="#003DD0"/>
<path d="M21.3631 96.048C20.9842 96.048 20.6159 95.8509 20.4135 95.4987C20.1127 94.9748 20.2934 94.3063 20.8173 94.0055L20.839 93.9931C21.3633 93.6923 22.0314 93.8732 22.3322 94.3969C22.633 94.9206 22.4523 95.5893 21.9284 95.8901L21.9067 95.9025C21.735 96.0012 21.5477 96.048 21.3631 96.048Z" fill="#003DD0"/>
<path d="M26.8103 92.9035C26.4328 92.9035 26.0657 92.7077 25.8629 92.3577C25.5599 91.8351 25.7384 91.1659 26.261 90.863L26.2827 90.8505C26.8057 90.548 27.4744 90.726 27.7772 91.2488C28.0802 91.7714 27.9017 92.4406 27.3791 92.7436L27.3574 92.756C27.1846 92.8558 26.9963 92.9035 26.8103 92.9035Z" fill="#003DD0"/>
<path d="M21.3631 96.048C20.9842 96.048 20.6159 95.8509 20.4135 95.4987C20.1127 94.9748 20.2934 94.3063 20.8173 94.0055L20.839 93.9931C21.3633 93.6923 22.0314 93.8732 22.3322 94.3969C22.633 94.9206 22.4523 95.5893 21.9284 95.8901L21.9067 95.9025C21.735 96.0012 21.5477 96.048 21.3631 96.048Z" fill="#003DD0"/>
<path d="M24.0964 91.3374C23.4922 91.3374 23.0027 90.8477 23.0027 90.2437V90.2188C23.0027 89.6148 23.4922 89.125 24.0964 89.125C24.7006 89.125 25.1902 89.6148 25.1902 90.2188V90.2437C25.1902 90.8479 24.7006 91.3374 24.0964 91.3374Z" fill="#003DD0"/>
<path d="M24.0964 97.6265C23.4922 97.6265 23.0027 97.1367 23.0027 96.5328V96.5078C23.0027 95.9038 23.4922 95.4141 24.0964 95.4141C24.7006 95.4141 25.1902 95.9038 25.1902 96.5078V96.5328C25.1902 97.1369 24.7006 97.6265 24.0964 97.6265Z" fill="#003DD0"/>
<path d="M60.4282 21.8801C60.2434 21.8801 60.0564 21.8333 59.8846 21.7346L59.863 21.7221C59.3391 21.4214 59.1584 20.7529 59.4592 20.229C59.7602 19.705 60.4285 19.5244 60.9524 19.8251L60.974 19.8376C61.4979 20.1384 61.6786 20.8069 61.3778 21.3308C61.1755 21.683 60.8073 21.8801 60.4282 21.8801Z" fill="#003DD0"/>
<path d="M65.8755 25.0247C65.6893 25.0247 65.501 24.9772 65.3284 24.8772L65.3067 24.8648C64.7839 24.562 64.6056 23.8928 64.9086 23.37C65.2114 22.8472 65.8801 22.6689 66.4031 22.9717L66.4248 22.9842C66.9476 23.2869 67.1259 23.9561 66.8229 24.4789C66.6201 24.8289 66.2528 25.0247 65.8755 25.0247Z" fill="#003DD0"/>
<path d="M65.856 21.88C65.4772 21.88 65.1088 21.6829 64.9064 21.3307C64.6057 20.8068 64.7863 20.1383 65.3103 19.8376L65.3319 19.8251C65.8563 19.5243 66.5243 19.7052 66.8251 20.2289C67.1259 20.7526 66.9452 21.4213 66.4213 21.7221L66.3996 21.7346C66.2279 21.8332 66.0404 21.88 65.856 21.88Z" fill="#003DD0"/>
<path d="M60.4087 25.0246C60.0311 25.0246 59.6641 24.8288 59.4613 24.4788C59.1583 23.9562 59.3368 23.2871 59.8594 22.9841L59.8811 22.9716C60.4041 22.6689 61.0731 22.8474 61.3756 23.37C61.6786 23.8926 61.5001 24.5617 60.9775 24.8647L60.9558 24.8772C60.7832 24.9771 60.5949 25.0246 60.4087 25.0246Z" fill="#003DD0"/>
<path d="M65.856 21.88C65.4772 21.88 65.1088 21.6829 64.9064 21.3307C64.6057 20.8068 64.7863 20.1383 65.3103 19.8376L65.3319 19.8251C65.8563 19.5243 66.5243 19.7052 66.8251 20.2289C67.1259 20.7526 66.9452 21.4213 66.4213 21.7221L66.3996 21.7346C66.2279 21.8332 66.0404 21.88 65.856 21.88Z" fill="#003DD0"/>
<path d="M60.4087 25.0246C60.0311 25.0246 59.6641 24.8288 59.4613 24.4788C59.1583 23.9562 59.3368 23.2871 59.8594 22.9841L59.8811 22.9716C60.4041 22.6689 61.0731 22.8474 61.3756 23.37C61.6786 23.8926 61.5001 24.5617 60.9775 24.8647L60.9558 24.8772C60.7832 24.9771 60.5949 25.0246 60.4087 25.0246Z" fill="#003DD0"/>
<path d="M63.1421 20.314C62.5379 20.314 62.0483 19.8242 62.0483 19.2202V19.1953C62.0483 18.5913 62.5379 18.1016 63.1421 18.1016C63.7463 18.1016 64.2358 18.5913 64.2358 19.1953V19.2202C64.2358 19.8242 63.7463 20.314 63.1421 20.314Z" fill="#003DD0"/>
<path d="M63.1421 26.6031C62.5379 26.6031 62.0483 26.1133 62.0483 25.5093V25.4844C62.0483 24.8804 62.5379 24.3906 63.1421 24.3906C63.7463 24.3906 64.2358 24.8804 64.2358 25.4844V25.5093C64.2358 26.1133 63.7463 26.6031 63.1421 26.6031Z" fill="#003DD0"/>
<defs>
<linearGradient id="paint0_linear_466_7917" x1="28.2536" y1="88.4976" x2="109.205" y2="7.54631" gradientUnits="userSpaceOnUse">
<stop stop-color="#7FB3FF" stop-opacity="0"/>
<stop offset="1" stop-color="#003DD0"/>
</linearGradient>
</defs>
</svg>
