<svg width="136" height="136" viewBox="0 0 136 136" fill="none" xmlns="http://www.w3.org/2000/svg">
<path d="M134.58 33.886C132.65 18.9654 124.533 0 90.118 0C66.3506 0 66.0295 11.3847 40.7141 5.74016C22.2656 1.62695 3.92212 15.1961 1.37212 34.1517C-1.3787 54.6005 13.4132 63.9747 18.2151 81.1317C23.3951 99.6383 27.1154 136 50.1637 136C75.5782 136 76.8904 116.334 93.3519 94.7561C109.191 73.9933 138.674 65.5416 134.58 33.886Z" fill="url(#paint0_linear_466_7585)" fill-opacity="0.25"/>
<path opacity="0.1" d="M125.304 61.0871H119.388V55.6657C123.691 53.3127 126.61 48.7453 126.61 43.4953C126.61 35.8391 120.403 29.6328 112.747 29.6328C105.091 29.6328 98.8846 35.8391 98.8846 43.4953C98.8846 45.0183 99.1338 46.4825 99.5877 47.8534H46.8455C45.3766 47.8534 44.1893 49.0434 44.1893 50.5096V61.0868H10.6958C9.96241 61.0868 9.36768 61.6815 9.36768 62.4149V78.3126C9.36768 79.046 9.96241 79.6407 10.6958 79.6407H37.2267C34.0788 82.4274 32.0922 86.4962 32.0922 91.0307C32.0922 93.8827 32.8787 96.5501 34.2443 98.8313L20.5627 112.513C20.0439 113.032 20.0439 113.872 20.5627 114.391L23.9425 117.771C24.4613 118.29 25.302 118.29 25.8208 117.771L39.5023 104.09C41.7835 105.455 44.4509 106.242 47.3029 106.242C55.0791 106.242 61.4881 100.405 62.3984 92.8744H116.731C118.198 92.8744 119.388 91.6844 119.388 90.2182V79.641H125.304C126.037 79.641 126.632 79.0462 126.632 78.3128V62.4152C126.632 61.6818 126.037 61.0871 125.304 61.0871Z" fill="#0000CB"/>
<path d="M125.304 54.7109H28.6406V73.2648H125.304C126.037 73.2648 126.632 72.6701 126.632 71.9367V56.0391C126.632 55.3057 126.037 54.7109 125.304 54.7109Z" fill="#BCD7FF"/>
<path d="M28.6405 73.2654H10.6968C9.96339 73.2654 9.36865 72.6706 9.36865 71.9373V56.0391C9.36865 55.3057 9.96339 54.7109 10.6968 54.7109H28.6405C29.3739 54.7109 29.9687 55.3057 29.9687 56.0391V71.9373C29.9687 72.6709 29.3739 73.2654 28.6405 73.2654Z" fill="#00AC1F"/>
<path d="M25.2419 67.1781L23.128 65.0642C24.0099 63.381 23.7445 61.2488 22.3317 59.8359C20.5918 58.0964 17.7613 58.0964 16.0215 59.8359C14.2819 61.5755 14.2819 64.4065 16.0215 66.1461C16.8914 67.0158 18.0339 67.4509 19.1766 67.4509C19.8898 67.4509 20.6027 67.2814 21.2498 66.9425L23.3636 69.0563C23.6231 69.3156 23.9629 69.4452 24.3029 69.4452C24.6429 69.4452 24.9826 69.3156 25.2421 69.0563C25.7606 68.5378 25.7606 67.6968 25.2419 67.1781ZM17.9 64.2682C17.1961 63.5642 17.1961 62.4186 17.9 61.7147C18.2519 61.3627 18.7144 61.1866 19.1768 61.1866C19.6393 61.1866 20.1015 61.3627 20.4537 61.7147C21.1576 62.4186 21.1576 63.5642 20.4537 64.2682C19.7498 64.9721 18.6039 64.9721 17.9 64.2682Z" fill="white"/>
<path d="M37.5241 69.373H34.4971C34.0569 69.373 33.7002 69.0163 33.7002 68.5761V59.4004C33.7002 58.9603 34.0569 58.6035 34.4971 58.6035H37.5241C37.9643 58.6035 38.321 58.9603 38.321 59.4004V68.5761C38.321 69.0163 37.9643 69.373 37.5241 69.373Z" fill="#00AC1F"/>
<path d="M119.388 44.1348V83.8431C119.388 85.3093 118.198 86.4993 116.731 86.4993H46.8455C45.3766 86.4993 44.1892 85.3093 44.1892 83.8431V44.1348C44.1892 42.6685 45.3766 41.4785 46.8455 41.4785H116.731C118.198 41.4785 119.388 42.6685 119.388 44.1348Z" fill="#3E89F0"/>
<path d="M119.388 44.1348V55.6655C117.414 56.744 115.154 57.3576 112.747 57.3576C105.092 57.3576 98.884 51.1526 98.884 43.4946C98.884 42.8093 98.9345 42.1373 99.0301 41.4785H116.731C118.198 41.4785 119.388 42.6685 119.388 44.1348Z" fill="#BCD7FF"/>
<path d="M50.8298 48.1191H112.747V79.8587H50.8298V48.1191Z" fill="#F3F4F6"/>
<path d="M112.747 48.1191V57.3576C106.712 57.3576 101.577 53.5034 99.6755 48.1191H112.747Z" fill="#BCD7FF"/>
<path d="M66.6356 70.8167C66.0858 70.8167 65.5907 70.477 65.3944 69.9606L63.1517 64.061L60.909 69.9606C60.7082 70.4889 60.195 70.8332 59.6301 70.8162C59.0651 70.8002 58.5721 70.4283 58.4015 69.8897L54.9173 58.8896C54.6958 58.1905 55.0833 57.4441 55.7825 57.2225C56.4808 57.0013 57.228 57.3883 57.4495 58.0877L59.7817 65.4508L61.9102 59.8514C62.1062 59.3361 62.6003 58.9953 63.1517 58.9953C63.7031 58.9953 64.1972 59.3361 64.3932 59.8514L66.5217 65.4508L68.8539 58.0877C69.0754 57.3883 69.8221 57.001 70.5209 57.2225C71.2201 57.4441 71.6076 58.1905 71.3861 58.8896L67.9019 69.8897C67.7311 70.4283 67.2381 70.8002 66.6734 70.8162C66.6606 70.8164 66.6481 70.8167 66.6356 70.8167Z" fill="#00AC1F"/>
<path d="M85.2716 70.8167C84.7218 70.8167 84.2267 70.477 84.0304 69.9606L81.7877 64.061L79.545 69.9606C79.3442 70.4889 78.8297 70.8332 78.266 70.8162C77.701 70.8002 77.208 70.4283 77.0375 69.8897L73.5533 58.8896C73.3318 58.1905 73.7193 57.4441 74.4185 57.2225C75.1165 57.0013 75.864 57.3883 76.0855 58.0877L78.4177 65.4508L80.5462 59.8514C80.7422 59.3361 81.2363 58.9953 81.7877 58.9953C82.3391 58.9953 82.8332 59.3361 83.0292 59.8514L85.1577 65.4508L87.4899 58.0877C87.7111 57.3883 88.4578 57.001 89.1569 57.2225C89.856 57.4441 90.2436 58.1905 90.0221 58.8896L86.5379 69.8897C86.3671 70.4283 85.8741 70.8002 85.3093 70.8162C85.2969 70.8164 85.2844 70.8167 85.2716 70.8167Z" fill="#00AC1F"/>
<path d="M96.94 70.8167C96.9275 70.8167 96.9148 70.8167 96.9023 70.8162C96.3373 70.8002 95.8443 70.4283 95.6738 69.8897L92.1895 58.8896C91.968 58.1905 92.3556 57.4441 93.0547 57.2225C93.753 57.0013 94.5002 57.3883 94.7218 58.0877L97.0539 65.4508L99.1827 59.8514C99.3787 59.3361 99.8728 58.9953 100.424 58.9953C100.976 58.9953 101.47 59.3361 101.666 59.8514L103.794 65.4508L106.126 58.0877C106.348 57.3883 107.094 57.001 107.793 57.2225C108.493 57.4441 108.88 58.1905 108.659 58.8896L105.174 69.8897C105.004 70.4283 104.511 70.8002 103.946 70.8162C103.384 70.8316 102.868 70.4889 102.667 69.9606L100.424 64.061L98.1815 69.9606C97.985 70.477 97.4898 70.8167 96.94 70.8167Z" fill="#00AC1F"/>
<path d="M112.747 50.9827C120.403 50.9827 126.609 44.7763 126.609 37.1202C126.609 29.4642 120.403 23.2578 112.747 23.2578C105.091 23.2578 98.8845 29.4642 98.8845 37.1202C98.8845 44.7763 105.091 50.9827 112.747 50.9827Z" fill="#3E89F0"/>
<path d="M112.747 27.9727C107.703 27.9727 103.6 32.076 103.6 37.12C103.6 42.1639 107.703 46.2673 112.747 46.2673C117.791 46.2673 121.894 42.1639 121.894 37.12C121.894 32.076 117.791 27.9727 112.747 27.9727ZM119.101 35.7919H117.165C117.071 34.3655 116.825 32.9794 116.431 31.7799C117.777 32.7109 118.755 34.1362 119.101 35.7919ZM112.755 43.6108C112.754 43.6108 112.753 43.6108 112.752 43.6108C112.652 43.5882 112.162 43.2333 111.693 41.973C111.328 40.9901 111.087 39.7696 110.99 38.4478H114.505C114.407 39.7696 114.166 40.9901 113.8 41.973C113.332 43.2325 112.843 43.5877 112.755 43.6108ZM110.989 35.7919C111.087 34.4701 111.328 33.2498 111.693 32.2668C112.161 31.0074 112.651 30.6523 112.738 30.6292H112.742C112.842 30.6517 113.332 31.0064 113.8 32.2668C114.166 33.2498 114.407 34.4701 114.505 35.7919H110.989ZM109.063 31.7799C108.669 32.9794 108.423 34.3655 108.329 35.7919H106.393C106.739 34.1362 107.717 32.7109 109.063 31.7799ZM106.393 38.4481H108.329C108.423 39.8748 108.669 41.2605 109.063 42.4604C107.717 41.5291 106.739 40.1037 106.393 38.4481ZM116.431 42.4601C116.825 41.2605 117.071 39.8745 117.165 38.4478H119.101C118.755 40.1038 117.777 41.5291 116.431 42.4601Z" fill="white"/>
<path d="M25.2126 101.488L37.7488 88.9512L43.0069 94.2092L30.4707 106.745L28.8382 106.707L25.4799 103.349L25.2126 101.488Z" fill="#7FB3FF"/>
<path d="M25.2127 101.488L20.5629 106.138C20.0441 106.657 20.0441 107.498 20.5629 108.016L23.9427 111.396C24.4615 111.915 25.3022 111.915 25.8209 111.396L30.4707 106.746L25.2127 101.488Z" fill="#003DD0"/>
<path d="M47.3028 99.8668C55.7035 99.8668 62.5135 93.0567 62.5135 84.6561C62.5135 76.2554 55.7035 69.4453 47.3028 69.4453C38.9021 69.4453 32.092 76.2554 32.092 84.6561C32.092 93.0567 38.9021 99.8668 47.3028 99.8668Z" fill="#3E89F0"/>
<path d="M58.3667 86.4397C59.3587 80.3201 55.2022 74.5551 49.0828 73.563C42.9634 72.571 37.1984 76.7277 36.2064 82.8473C35.2144 88.9669 39.3709 94.7319 45.4903 95.7239C51.6097 96.7159 57.3747 92.5592 58.3667 86.4397Z" fill="#E5F0FF"/>
<path d="M42.5652 85.9844C43.2987 85.9844 43.8933 85.3898 43.8933 84.6562C43.8933 83.9227 43.2987 83.3281 42.5652 83.3281C41.8317 83.3281 41.2371 83.9227 41.2371 84.6562C41.2371 85.3898 41.8317 85.9844 42.5652 85.9844Z" fill="#00AC1F"/>
<path d="M47.303 85.9844C48.0365 85.9844 48.6311 85.3898 48.6311 84.6562C48.6311 83.9227 48.0365 83.3281 47.303 83.3281C46.5695 83.3281 45.9749 83.9227 45.9749 84.6562C45.9749 85.3898 46.5695 85.9844 47.303 85.9844Z" fill="#00AC1F"/>
<path d="M52.0405 85.9844C52.774 85.9844 53.3687 85.3898 53.3687 84.6562C53.3687 83.9227 52.774 83.3281 52.0405 83.3281C51.307 83.3281 50.7124 83.9227 50.7124 84.6562C50.7124 85.3898 51.307 85.9844 52.0405 85.9844Z" fill="#00AC1F"/>
<path d="M125.303 53.3837H120.716V50.0458C125.046 47.3665 127.938 42.5757 127.938 37.1202C127.938 28.7443 121.123 21.9297 112.747 21.9297C104.371 21.9297 97.5564 28.744 97.5564 37.1202C97.5564 38.1575 97.6616 39.1709 97.8606 40.1502H46.8454C44.6485 40.1502 42.8611 41.9376 42.8611 44.1346V53.3837H10.6965C9.23188 53.3837 8.04028 54.5753 8.04028 56.0399V71.9379C8.04028 73.4025 9.23188 74.5941 10.6965 74.5941H34.1897C32.044 77.384 30.764 80.8724 30.764 84.656C30.764 87.3808 31.4304 89.9512 32.6026 92.2199L19.6237 105.199C18.588 106.234 18.588 107.92 19.6237 108.955L23.0035 112.335C23.5214 112.853 24.2014 113.112 24.8817 113.112C25.562 113.112 26.2422 112.853 26.7599 112.335L34.8315 104.264C35.3503 103.745 35.3503 102.904 34.8315 102.385C34.3127 101.867 33.472 101.867 32.9533 102.385L24.8817 110.457L21.5022 107.077L34.0458 94.5332C37.0641 98.5737 41.883 101.195 47.3028 101.195C55.3377 101.195 62.0493 95.4345 63.5333 87.8273H116.731C118.928 87.8273 120.716 86.0399 120.716 83.8429V74.5938H125.303C126.768 74.5938 127.959 73.4022 127.959 71.9376V56.0399C127.959 54.5753 126.768 53.3837 125.303 53.3837ZM112.747 24.5859C119.659 24.5859 125.281 30.2087 125.281 37.1202C125.281 44.0318 119.659 49.6546 112.747 49.6546C105.835 49.6546 100.213 44.0318 100.213 37.1202C100.213 30.209 105.835 24.5859 112.747 24.5859ZM47.3028 98.5383C39.6481 98.5383 33.4202 92.3108 33.4202 84.6557C33.4202 77.0009 39.6478 70.7733 47.3028 70.7733C54.9579 70.7733 61.1855 77.0009 61.1855 84.6557C61.1855 92.3108 54.9576 98.5383 47.3028 98.5383ZM118.06 83.8429C118.06 84.5752 117.464 85.171 116.731 85.171H63.8287C63.834 84.9994 63.8417 84.8286 63.8417 84.6557C63.8417 75.5363 56.4225 68.1171 47.3028 68.1171C43.2916 68.1171 39.6101 69.5536 36.7435 71.9376H10.6965V56.0399H42.8611V61.7721C42.8611 62.5055 43.4558 63.1002 44.1892 63.1002C44.9226 63.1002 45.5173 62.5055 45.5173 61.7721V44.1346C45.5173 43.4023 46.1131 42.8065 46.8454 42.8065H98.6649C100.921 48.3729 106.381 52.3108 112.747 52.3108C114.615 52.3108 116.405 51.9697 118.06 51.35V83.8429ZM125.303 71.9376H120.716V56.0399H125.303V71.9376Z" fill="#0000CB"/>
<path d="M28.2874 47.584C27.554 47.584 26.9592 46.9893 26.9592 46.2559C26.9592 45.4502 26.3039 44.7949 25.4983 44.7949C24.7649 44.7949 24.1702 44.2002 24.1702 43.4668C24.1702 42.7334 24.7649 42.1387 25.4983 42.1387C26.3039 42.1387 26.9592 41.4834 26.9592 40.6777C26.9592 39.9443 27.554 39.3496 28.2874 39.3496C29.0207 39.3496 29.6155 39.9443 29.6155 40.6777C29.6155 41.4834 30.2708 42.1387 31.0764 42.1387C31.8098 42.1387 32.4045 42.7334 32.4045 43.4668C32.4045 44.2002 31.8098 44.7949 31.0764 44.7949C30.2708 44.7949 29.6155 45.4502 29.6155 46.2559C29.6155 46.9893 29.0207 47.584 28.2874 47.584Z" fill="#00D627"/>
<path d="M80.4167 16.8984C79.6834 16.8984 79.0886 16.3037 79.0886 15.5703C79.0886 14.7647 78.4333 14.1094 77.6277 14.1094C76.8943 14.1094 76.2996 13.5146 76.2996 12.7812C76.2996 12.0479 76.8943 11.4531 77.6277 11.4531C78.4333 11.4531 79.0886 10.7978 79.0886 9.99219C79.0886 9.2588 79.6834 8.66406 80.4167 8.66406C81.1501 8.66406 81.7449 9.2588 81.7449 9.99219C81.7449 10.7978 82.4002 11.4531 83.2058 11.4531C83.9392 11.4531 84.5339 12.0479 84.5339 12.7812C84.5339 13.5146 83.9392 14.1094 83.2058 14.1094C82.4002 14.1094 81.7449 14.7647 81.7449 15.5703C81.7449 16.3037 81.1501 16.8984 80.4167 16.8984Z" fill="#26DD45"/>
<path d="M63.3269 22.1814C62.9869 22.1814 62.6471 22.0518 62.3876 21.7925L59.5985 19.0034C59.0798 18.4847 59.0798 17.6437 59.5985 17.1252L62.3876 14.3361C62.9064 13.8176 63.7471 13.8176 64.2658 14.3361L67.0549 17.1252C67.5737 17.644 67.5737 18.4849 67.0549 19.0034L64.2658 21.7925C64.0066 22.0518 63.6669 22.1814 63.3269 22.1814ZM62.416 18.0642L63.3269 18.975L64.2377 18.0642L63.3269 17.1534L62.416 18.0642Z" fill="#003DD0"/>
<path d="M93.57 111.676C93.23 111.676 92.8903 111.546 92.6308 111.287L89.8417 108.498C89.3229 107.979 89.3229 107.138 89.8417 106.619L92.6308 103.83C93.1495 103.312 93.9902 103.312 94.509 103.83L97.2981 106.619C97.8168 107.138 97.8168 107.979 97.2981 108.498L94.509 111.287C94.2498 111.546 93.9098 111.676 93.57 111.676ZM92.6592 107.558L93.57 108.469L94.4809 107.558L93.57 106.648L92.6592 107.558Z" fill="#003DD0"/>
<defs>
<linearGradient id="paint0_linear_466_7585" x1="9.34724" y1="103.2" x2="112.866" y2="-0.317952" gradientUnits="userSpaceOnUse">
<stop stop-color="#D1E4FF" stop-opacity="0"/>
<stop offset="0.903846" stop-color="#0000CB"/>
</linearGradient>
</defs>
</svg>
