<svg width="36" height="36" viewBox="0 0 36 36" fill="none" xmlns="http://www.w3.org/2000/svg">
<path d="M19.2037 17.4035L27.305 28.6694H23.9802L17.3694 19.4764V19.4758L16.3988 18.1263L8.67627 7.38672H12.0011L18.2331 16.054L19.2037 17.4035Z" fill="#374151"/>
<path d="M32.1101 0H3.88988C1.74161 0 0 1.74161 0 3.88988V32.1101C0 34.2584 1.74161 36 3.88988 36H32.1101C34.2584 36 36 34.2584 36 32.1101V3.88988C36 1.74161 34.2584 0 32.1101 0ZM22.962 30.5287L16.2722 20.7926L7.89653 30.5287H5.73183L15.311 19.3942L5.73183 5.45281H13.038L19.3728 14.6723L27.304 5.45281H29.4687L20.3343 16.0709H20.3337L30.2682 30.5287H22.962Z" fill="#374151"/>
</svg>
