<svg width="32" height="32" viewBox="0 0 32 32" fill="none" xmlns="http://www.w3.org/2000/svg">
<path d="M16.0001 7.99935V29.3327M16.0001 7.99935H11.2858C10.5912 7.99935 9.92502 7.7184 9.43385 7.2183C8.94268 6.7182 8.66675 6.03993 8.66675 5.33268C8.66675 4.62544 8.94268 3.94716 9.43385 3.44706C9.92502 2.94697 10.5912 2.66602 11.2858 2.66602C14.9525 2.66602 16.0001 7.99935 16.0001 7.99935ZM16.0001 7.99935H20.7144C21.409 7.99935 22.0751 7.7184 22.5663 7.2183C23.0575 6.7182 23.3334 6.03993 23.3334 5.33268C23.3334 4.62544 23.0575 3.94716 22.5663 3.44706C22.0751 2.94697 21.409 2.66602 20.7144 2.66602C17.0477 2.66602 16.0001 7.99935 16.0001 7.99935ZM26.6667 14.666V25.066C26.6667 26.5595 26.6667 27.3062 26.3761 27.8767C26.1204 28.3784 25.7125 28.7864 25.2107 29.042C24.6403 29.3327 23.8936 29.3327 22.4001 29.3327L9.60008 29.3327C8.10661 29.3327 7.35987 29.3327 6.78944 29.042C6.28767 28.7864 5.87973 28.3784 5.62406 27.8767C5.33341 27.3062 5.33341 26.5595 5.33341 25.066V14.666M2.66675 10.1327L2.66675 12.5327C2.66675 13.2794 2.66675 13.6528 2.81207 13.938C2.9399 14.1889 3.14388 14.3929 3.39476 14.5207C3.67998 14.666 4.05335 14.666 4.80008 14.666L27.2001 14.666C27.9468 14.666 28.3202 14.666 28.6054 14.5207C28.8563 14.3929 29.0603 14.1889 29.1881 13.938C29.3334 13.6528 29.3334 13.2794 29.3334 12.5327V10.1327C29.3334 9.38595 29.3334 9.01258 29.1881 8.72736C29.0603 8.47648 28.8563 8.27251 28.6054 8.14467C28.3202 7.99935 27.9468 7.99935 27.2001 7.99935L4.80008 7.99935C4.05335 7.99935 3.67998 7.99935 3.39476 8.14467C3.14388 8.2725 2.9399 8.47648 2.81207 8.72736C2.66675 9.01258 2.66675 9.38595 2.66675 10.1327Z" stroke="#1A56DB" stroke-width="2.5" stroke-linecap="round" stroke-linejoin="round"/>
</svg>
