<svg width="24" height="24" viewBox="0 0 24 24" fill="none" xmlns="http://www.w3.org/2000/svg">
<path d="M20.2067 0.0924848C19.7259 -0.095897 19.1743 0.00969278 18.8053 0.35286L17.1429 1.90431L15.4804 0.35286C14.9777 -0.116295 14.1651 -0.116295 13.6624 0.35286L12 1.90431L10.3376 0.35286C9.83486 -0.116295 9.02229 -0.116295 8.51957 0.35286L6.85714 1.90431L5.19471 0.35286C4.827 0.00969278 4.27543 -0.0946971 3.79329 0.0924848C3.31243 0.277267 3 0.716425 3 1.20118V22.7991C3 23.2838 3.31243 23.723 3.79329 23.9078C4.27414 24.095 4.827 23.9918 5.19471 23.6474L6.85714 22.096L8.51957 23.6474C9.02229 24.1166 9.83486 24.1166 10.3376 23.6474L12 22.096L13.6624 23.6474C14.1651 24.1166 14.9777 24.1166 15.4804 23.6474L17.1429 22.096L18.8053 23.6474C19.0509 23.8766 19.38 23.999 19.7143 23.999C19.8801 23.999 20.0473 23.9702 20.2067 23.9078C20.6876 23.723 21 23.2838 21 22.7991V1.20118C21 0.716425 20.6876 0.277267 20.2067 0.0924848ZM15.8571 17.9996H8.14286C7.43186 17.9996 6.85714 17.4632 6.85714 16.7997C6.85714 16.1361 7.43186 15.5998 8.14286 15.5998H15.8571C16.5681 15.5998 17.1429 16.1361 17.1429 16.7997C17.1429 17.4632 16.5681 17.9996 15.8571 17.9996ZM15.8571 13.2H8.14286C7.43186 13.2 6.85714 12.6637 6.85714 12.0001C6.85714 11.3366 7.43186 10.8003 8.14286 10.8003H15.8571C16.5681 10.8003 17.1429 11.3366 17.1429 12.0001C17.1429 12.6637 16.5681 13.2 15.8571 13.2ZM15.8571 8.40048H8.14286C7.43186 8.40048 6.85714 7.86413 6.85714 7.2006C6.85714 6.53706 7.43186 6.00071 8.14286 6.00071H15.8571C16.5681 6.00071 17.1429 6.53706 17.1429 7.2006C17.1429 7.86413 16.5681 8.40048 15.8571 8.40048Z" fill="#1C64F2"/>
</svg>
