<svg width="103" height="100" viewBox="0 0 103 100" fill="none" xmlns="http://www.w3.org/2000/svg">
<path d="M85.6739 76.2385C84.9377 76.2385 84.3411 76.8353 84.3411 77.5712V95.6009C84.3411 96.3358 83.7433 96.9337 83.0084 96.9337H3.9983C3.26341 96.9337 2.66553 96.3358 2.66553 95.6009V3.9983C2.66553 3.26341 3.26341 2.66553 3.9983 2.66553H83.0084C83.7433 2.66553 84.3411 3.26341 84.3411 3.9983V30.6816C84.3411 31.4175 84.9377 32.0144 85.6739 32.0144C86.4101 32.0144 87.0067 31.4175 87.0067 30.6816V3.9983C87.0067 1.79364 85.213 0 83.0084 0H3.9983C1.79364 0 0 1.79364 0 3.9983V95.6009C0 97.8055 1.79364 99.5992 3.9983 99.5992H83.0084C85.213 99.5992 87.0067 97.8055 87.0067 95.6009V77.5712C87.0067 76.8353 86.4101 76.2385 85.6739 76.2385Z" fill="#003DD0"/>
<path d="M97.638 40.4358C94.1821 37.1356 89.6435 35.4403 84.8552 35.6608C80.5994 35.8572 76.5702 37.6301 73.5093 40.6528C70.4477 43.676 68.6256 47.6831 68.3785 51.9354C67.8843 60.4299 73.6735 68.0558 81.913 69.8803L83.5019 71.8579C84.0334 72.5195 84.8253 72.899 85.674 72.899C86.5227 72.899 87.3147 72.5195 87.8462 71.8579L89.4351 69.8803C97.3253 68.1349 103 61.1011 103 52.9678C103 48.1882 101.096 43.7376 97.638 40.4358ZM88.4459 67.3627C88.1351 67.4222 87.8555 67.5904 87.6574 67.8369L85.7684 70.1879C85.7593 70.1991 85.7319 70.2332 85.674 70.2332C85.6162 70.2332 85.5887 70.1991 85.5797 70.1879L83.6906 67.8369C83.4926 67.5904 83.2129 67.4222 82.9021 67.3627C75.7129 65.9873 70.613 59.4213 71.0392 52.0898C71.4681 44.711 77.5908 38.664 84.9781 38.3234C85.2129 38.3124 85.4469 38.3071 85.6802 38.3071C89.4729 38.3071 93.0426 39.7329 95.7972 42.3632C98.7234 45.1573 100.334 48.9234 100.334 52.9675C100.334 59.9907 95.3344 66.0446 88.4459 67.3627Z" fill="#003DD0"/>
</svg>
