<svg width="36" height="36" viewBox="0 0 36 36" fill="none" xmlns="http://www.w3.org/2000/svg">
<path d="M32.11 0H3.89005C1.74171 0 0 1.74171 0 3.89005V32.11C0 34.2583 1.74171 36 3.89005 36H32.11C34.2583 36 36 34.2583 36 32.11V3.89005C36 1.74171 34.2583 0 32.11 0ZM29.1048 15.6824C26.8258 15.6824 24.714 14.9534 22.9899 13.716V22.6471C22.9899 27.1082 19.3611 30.7369 14.9007 30.7369C13.1773 30.7369 11.5789 30.1934 10.2648 29.2705C8.17901 27.8062 6.81163 25.384 6.81163 22.6471C6.81163 18.1868 10.4404 14.558 14.9007 14.558C15.2709 14.558 15.6339 14.5882 15.9907 14.6367V19.1237C15.6459 19.0155 15.2807 18.953 14.9007 18.953C12.8634 18.953 11.2066 20.6105 11.2066 22.6471C11.2066 24.0658 12.0108 25.2983 13.1871 25.9171C13.6998 26.1874 14.282 26.3419 14.9007 26.3419C16.8911 26.3419 18.5141 24.759 18.5878 22.7862L18.5948 5.17316H22.9899C22.9899 5.5538 23.0271 5.92602 23.0938 6.28771C23.4042 7.9627 24.398 9.39891 25.7745 10.2972C26.7338 10.9222 27.8772 11.2874 29.1048 11.2874V15.6824Z" fill="#374151"/>
</svg>
