<svg width="85" height="97" viewBox="0 0 85 97" fill="none" xmlns="http://www.w3.org/2000/svg">
<path d="M84.3991 77.2161V94.3322C84.3991 95.8046 83.2042 96.9995 81.7318 96.9995H2.66731C1.19496 96.9995 0 95.8046 0 94.3322V2.66731C0 1.19496 1.19496 0 2.66731 0H81.7318C83.2042 0 84.3991 1.19496 84.3991 2.66731V69.3208C81.4624 71.3213 84.3991 77.2161 84.3991 77.2161Z" fill="#E5F0FF"/>
<path d="M83.6402 42.6177C75.518 42.9925 68.8939 49.5311 68.4221 57.6483C67.9441 65.8732 73.682 72.8469 81.3738 74.3187L83.2638 76.6713C83.5551 77.0338 83.9765 77.2149 84.398 77.2149V42.6025C84.1467 42.6025 83.8944 42.606 83.6402 42.6177Z" fill="#BCD7FF"/>
<path d="M77.4349 73.012V96.9991H6.96443V24.5922C6.96443 23.8561 7.56191 23.2586 8.29809 23.2586H76.1012C76.8374 23.2586 77.4349 23.8561 77.4349 24.5922V66.101C74.1194 68.2188 77.4349 73.012 77.4349 73.012Z" fill="white"/>
<path d="M77.4347 44.2029V73.0125C71.8174 70.2945 68.0298 64.3944 68.4219 57.6488C68.766 51.7407 72.3668 46.6701 77.4347 44.2029Z" fill="#E5F0FF"/>
<path d="M72.0814 68.8201V97.0002H29.7138V60.9995C34.5737 51.3118 29.7138 43.7687 29.7138 43.7687V40.0077C29.7138 39.2716 30.3113 38.6741 31.0475 38.6741H70.7478C71.484 38.6741 72.0814 39.2716 72.0814 40.0077V63.024C69.6408 64.7284 72.0814 68.8201 72.0814 68.8201Z" fill="#B6F6BE"/>
<path d="M72.0819 48.4078C69.9691 50.9511 68.6253 54.1529 68.4218 57.6485C68.1746 61.9044 69.592 65.8227 72.0819 68.8186V48.4078Z" fill="#7AEE90"/>
<path d="M72.1188 43.7675V57.7309C69.4381 58.5071 68.5766 60.9983 68.5766 60.9983H29.7138V43.7675H72.1188Z" fill="#7AEE90"/>
<path d="M68.576 60.9981H72.0819V48.4078C69.9691 50.9511 68.6253 54.1529 68.4218 57.6485C68.3554 58.7938 68.413 59.9133 68.576 60.9981Z" fill="#4AE767"/>
<path d="M84.3991 2.66731V18.8632H77.3628C67.6964 15.3691 55.2187 18.8632 55.2187 18.8632H52.2047C41.9168 15.241 30.0606 18.8632 30.0606 18.8632H27.0466C15.2357 15.6278 4.90252 18.8632 4.90252 18.8632H0V2.66731C0 1.19496 1.19496 0 2.66731 0H81.7318C83.2042 0 84.3991 1.19496 84.3991 2.66731Z" fill="#3E89F0"/>
<path d="M8.22504 8.65308C7.48859 8.65308 6.89138 8.05587 6.89138 7.31942C6.89138 6.58298 7.48859 5.98577 8.22504 5.98577C8.96148 5.98577 9.55869 6.58298 9.55869 7.31942C9.55869 8.05587 8.96148 8.65308 8.22504 8.65308Z" fill="#003DD0"/>
<path d="M12.4018 8.65308C13.1383 8.65308 13.7354 8.05598 13.7354 7.31942C13.7354 6.58286 13.1383 5.98577 12.4018 5.98577C11.6652 5.98577 11.0681 6.58286 11.0681 7.31942C11.0681 8.05598 11.6652 8.65308 12.4018 8.65308Z" fill="#003DD0"/>
<path d="M16.5785 8.65308C17.3151 8.65308 17.9122 8.05598 17.9122 7.31942C17.9122 6.58286 17.3151 5.98577 16.5785 5.98577C15.842 5.98577 15.2449 6.58286 15.2449 7.31942C15.2449 8.05598 15.842 8.65308 16.5785 8.65308Z" fill="#003DD0"/>
<path d="M74.9552 8.65308H24.5822C23.8455 8.65308 23.2485 8.05587 23.2485 7.31942C23.2485 6.58298 23.8455 5.98577 24.5822 5.98577H74.9552C75.6919 5.98577 76.2889 6.58298 76.2889 7.31942C76.2889 8.05587 75.6917 8.65308 74.9552 8.65308Z" fill="#E5F0FF"/>
<path d="M27.047 18.8652H4.90241V16.1176C4.90241 14.6445 6.09657 13.4503 7.56973 13.4503H22.1335C23.045 13.4503 23.8934 13.9158 24.3831 14.6845L27.047 18.8652Z" fill="#4369FC"/>
<path d="M52.2053 18.8652H30.061V16.1176C30.061 14.6445 31.2551 13.4503 32.7283 13.4503H47.2921C48.2035 13.4503 49.052 13.9158 49.5417 14.6845L52.2053 18.8652Z" fill="#7FB3FF"/>
<path d="M77.3633 18.8652H55.219V16.1176C55.219 14.6445 56.4132 13.4503 57.8863 13.4503H72.4501C73.3616 13.4503 74.21 13.9158 74.6998 14.6845L77.3633 18.8652Z" fill="#7FB3FF"/>
<path d="M67.9076 35.0767H33.8887C31.5833 35.0767 29.7143 33.2078 29.7143 30.9024C29.7143 28.597 31.5833 26.7281 33.8887 26.7281H67.9076C70.2129 26.7281 72.0819 28.597 72.0819 30.9024C72.0819 33.208 70.2132 35.0767 67.9076 35.0767Z" fill="#B6F6BE"/>
<path d="M23.3961 32.2353H13.9298C13.1931 32.2353 12.5962 31.6381 12.5962 30.9016C12.5962 30.1652 13.1931 29.568 13.9298 29.568H23.3961C24.1329 29.568 24.7298 30.1652 24.7298 30.9016C24.7298 31.6381 24.1329 32.2353 23.3961 32.2353Z" fill="#7AEE90"/>
<path d="M23.2675 52.4127H13.8009C13.0642 52.4127 12.4672 51.8155 12.4672 51.0791C12.4672 50.3426 13.0642 49.7454 13.8009 49.7454H23.2675C24.0042 49.7454 24.6011 50.3426 24.6011 51.0791C24.6011 51.8155 24.0042 52.4127 23.2675 52.4127Z" fill="#7FB3FF"/>
<path d="M23.2675 57.5708H13.8009C13.0642 57.5708 12.4672 56.9736 12.4672 56.2372C12.4672 55.5007 13.0642 54.9035 13.8009 54.9035H23.2675C24.0042 54.9035 24.6011 55.5007 24.6011 56.2372C24.6011 56.9736 24.0042 57.5708 23.2675 57.5708Z" fill="#7FB3FF"/>
<path d="M23.2675 62.7309H13.8009C13.0642 62.7309 12.4672 62.1337 12.4672 61.3972C12.4672 60.6608 13.0642 60.0636 13.8009 60.0636H23.2675C24.0042 60.0636 24.6011 60.6608 24.6011 61.3972C24.6011 62.1337 24.0042 62.7309 23.2675 62.7309Z" fill="#7FB3FF"/>
<path d="M23.2675 67.889H13.8009C13.0642 67.889 12.4672 67.2918 12.4672 66.5554C12.4672 65.8189 13.0642 65.2217 13.8009 65.2217H23.2675C24.0042 65.2217 24.6011 65.8189 24.6011 66.5554C24.6011 67.2918 24.0042 67.889 23.2675 67.889Z" fill="#7FB3FF"/>
<path d="M23.2675 80.0116H13.8009C13.0642 80.0116 12.4672 79.4144 12.4672 78.6779C12.4672 77.9415 13.0642 77.3443 13.8009 77.3443H23.2675C24.0042 77.3443 24.6011 77.9415 24.6011 78.6779C24.6011 79.4144 24.0042 80.0116 23.2675 80.0116Z" fill="#7FB3FF"/>
<path d="M23.2675 85.1697H13.8009C13.0642 85.1697 12.4672 84.5725 12.4672 83.836C12.4672 83.0996 13.0642 82.5024 13.8009 82.5024H23.2675C24.0042 82.5024 24.6011 83.0996 24.6011 83.836C24.6011 84.5725 24.0042 85.1697 23.2675 85.1697Z" fill="#7FB3FF"/>
<path d="M23.2686 44.9417H13.8002C13.0637 44.9417 12.4665 44.3445 12.4665 43.6081V40.0077C12.4665 39.2713 13.0637 38.6741 13.8002 38.6741H23.2686C24.005 38.6741 24.6023 39.2713 24.6023 40.0077V43.6081C24.6023 44.3445 24.005 44.9417 23.2686 44.9417Z" fill="#7AEE90"/>
<path d="M40.2634 50.9261H35.639C34.9023 50.9261 34.3054 50.3289 34.3054 49.5924C34.3054 48.856 34.9023 48.2588 35.639 48.2588H40.2634C41.0001 48.2588 41.597 48.856 41.597 49.5924C41.597 50.3289 41.0001 50.9261 40.2634 50.9261Z" fill="#7AEE90"/>
<path d="M40.2634 56.5784H35.639C34.9023 56.5784 34.3054 55.9812 34.3054 55.2448C34.3054 54.5083 34.9023 53.9111 35.639 53.9111H40.2634C41.0001 53.9111 41.597 54.5083 41.597 55.2448C41.597 55.9812 41.0001 56.5784 40.2634 56.5784Z" fill="#7AEE90"/>
<path d="M40.2634 67.8831H35.639C34.9023 67.8831 34.3054 67.2859 34.3054 66.5495C34.3054 65.813 34.9023 65.2158 35.639 65.2158H40.2634C41.0001 65.2158 41.597 65.813 41.597 66.5495C41.597 67.2859 41.0001 67.8831 40.2634 67.8831Z" fill="#00D627"/>
<path d="M40.2634 73.5355H35.639C34.9023 73.5355 34.3054 72.9383 34.3054 72.2018C34.3054 71.4654 34.9023 70.8682 35.639 70.8682H40.2634C41.0001 70.8682 41.597 71.4654 41.597 72.2018C41.597 72.9383 41.0001 73.5355 40.2634 73.5355Z" fill="#7FB3FF"/>
<path d="M40.2634 79.1878H35.639C34.9023 79.1878 34.3054 78.5906 34.3054 77.8542C34.3054 77.1177 34.9023 76.5205 35.639 76.5205H40.2634C41.0001 76.5205 41.597 77.1177 41.597 77.8542C41.597 78.5906 41.0001 79.1878 40.2634 79.1878Z" fill="#7FB3FF"/>
<path d="M40.2634 84.8382H35.639C34.9023 84.8382 34.3054 84.241 34.3054 83.5046C34.3054 82.7681 34.9023 82.1709 35.639 82.1709H40.2634C41.0001 82.1709 41.597 82.7681 41.597 83.5046C41.597 84.241 41.0001 84.8382 40.2634 84.8382Z" fill="#00D627"/>
<path d="M62.5119 50.9261H48.0523C47.3156 50.9261 46.7187 50.3289 46.7187 49.5924C46.7187 48.856 47.3156 48.2588 48.0523 48.2588H62.5119C63.2486 48.2588 63.8455 48.856 63.8455 49.5924C63.8455 50.3289 63.2486 50.9261 62.5119 50.9261Z" fill="#7AEE90"/>
<path d="M62.5119 56.5784H48.0523C47.3156 56.5784 46.7187 55.9812 46.7187 55.2448C46.7187 54.5083 47.3156 53.9111 48.0523 53.9111H62.5119C63.2486 53.9111 63.8455 54.5083 63.8455 55.2448C63.8455 55.9812 63.2486 56.5784 62.5119 56.5784Z" fill="#7AEE90"/>
<path d="M65.7574 67.8831H48.0523C47.3156 67.8831 46.7187 67.2859 46.7187 66.5495C46.7187 65.813 47.3156 65.2158 48.0523 65.2158H65.7574C66.4942 65.2158 67.0911 65.813 67.0911 66.5495C67.0911 67.2859 66.4942 67.8831 65.7574 67.8831Z" fill="#00D627"/>
<path d="M65.7574 73.5355H48.0523C47.3156 73.5355 46.7187 72.9383 46.7187 72.2018C46.7187 71.4654 47.3156 70.8682 48.0523 70.8682H65.7574C66.4942 70.8682 67.0911 71.4654 67.0911 72.2018C67.0911 72.9383 66.4942 73.5355 65.7574 73.5355Z" fill="#7FB3FF"/>
<path d="M61.2913 79.1878H48.0523C47.3156 79.1878 46.7187 78.5906 46.7187 77.8542C46.7187 77.1177 47.3156 76.5205 48.0523 76.5205H61.2913C62.028 76.5205 62.6249 77.1177 62.6249 77.8542C62.6249 78.5906 62.028 79.1878 61.2913 79.1878Z" fill="#7FB3FF"/>
<path d="M65.7574 84.8382H48.0523C47.3156 84.8382 46.7187 84.241 46.7187 83.5046C46.7187 82.7681 47.3156 82.1709 48.0523 82.1709H65.7574C66.4942 82.1709 67.0911 82.7681 67.0911 83.5046C67.0911 84.241 66.4942 84.8382 65.7574 84.8382Z" fill="#00D627"/>
<path d="M48.624 90.2635L50.29 92.2119C50.6096 92.5854 51.1871 92.5854 51.5063 92.2119L53.1723 90.2635C53.6164 89.7441 53.2473 88.9431 52.5642 88.9431H49.2319C48.5488 88.9434 48.1799 89.7444 48.624 90.2635Z" fill="#00D627"/>
<path d="M48.0524 32.2353H35.639C34.9023 32.2353 34.3054 31.6381 34.3054 30.9016C34.3054 30.1652 34.9023 29.568 35.639 29.568H48.0524C48.7892 29.568 49.3861 30.1652 49.3861 30.9016C49.3861 31.6381 48.7892 32.2353 48.0524 32.2353Z" fill="#00D627"/>
<path d="M65.7575 32.2353H63.6037C62.867 32.2353 62.27 31.6381 62.27 30.9016C62.27 30.1652 62.867 29.568 63.6037 29.568H65.7575C66.4942 29.568 67.0912 30.1652 67.0912 30.9016C67.0912 31.6381 66.4942 32.2353 65.7575 32.2353Z" fill="#00D627"/>
</svg>
