<svg width="20" height="20" viewBox="0 0 20 20" fill="none" xmlns="http://www.w3.org/2000/svg">
<path d="M19.5 15.5C19.5 15.8978 19.3419 16.2792 19.0605 16.5605C18.7792 16.8419 18.3978 17 18 17H2C1.65199 17 1.31669 16.8788 1.0498 16.6602L0.939453 16.5605C0.658149 16.2792 0.5 15.8978 0.5 15.5V6.07031L8.47363 12.8955L8.48633 12.9062L8.49902 12.916C8.87371 13.1975 9.31972 13.3655 9.78418 13.4023L9.98438 13.4102H9.98535C10.5524 13.407 11.1033 13.2185 11.5537 12.874L11.5645 12.8662L11.5752 12.8564L19.5 6.07031V15.5ZM17.998 3L18.1279 3.00684C18.2215 3.01555 18.3137 3.03264 18.4033 3.05859L10 10.2549L1.5957 3.05859C1.68557 3.0325 1.77817 3.01558 1.87207 3.00684L2.00195 3H17.998Z" fill="#6B7280" stroke="#6B7280"/>
</svg>
