<svg width="112" height="112" viewBox="0 0 112 112" fill="none" xmlns="http://www.w3.org/2000/svg">
<g clip-path="url(#clip0_466_8179)">
<path d="M39.5029 8.7598C17.751 21.3836 -5.99365 42.4025 2.90073 61.9058C9.67607 76.7622 40.9558 63.5628 40.9597 76.5036C40.9772 132.265 100.941 114.365 110.458 77.2786C114.994 59.6039 90.5156 53.8022 84.9263 40.2397C81.2677 31.3619 99.0414 26.7684 99.1 16.3436C99.2133 -3.86798 61.5585 -4.04035 39.5029 8.7598Z" fill="url(#paint0_linear_466_8179)" fill-opacity="0.4"/>
<path opacity="0.1" d="M101.356 43.7586C101.96 43.7586 102.449 43.2688 102.449 42.6648V40.3621C102.449 39.7581 101.96 39.2683 101.356 39.2683H94.4803C94.4302 35.6872 91.5132 32.7992 87.9202 32.7992H57.787V30.3416C57.787 24.4683 53.0257 19.707 47.1524 19.707C44.0057 19.707 41.1792 21.0749 39.2321 23.2471C38.3889 23.0738 37.5156 22.9824 36.6211 22.9824C29.4989 22.9824 23.7252 28.7561 23.7252 35.8781C23.7252 36.1159 23.7326 36.3517 23.7453 36.5862C19.7577 38.1201 16.9266 41.9848 16.9266 46.5127C16.9266 47.0313 16.9656 47.5408 17.0373 48.0395C14.0768 50.6733 12.21 54.5099 12.21 58.7843C12.21 63.7891 14.7682 68.1949 18.6471 70.7703C18.4831 71.5125 18.394 72.2827 18.394 73.0742C18.394 76.8493 20.363 80.1628 23.3281 82.0499C22.4722 83.5822 21.9826 85.3471 21.9826 87.2271C21.9826 92.8391 26.3307 97.4326 31.8412 97.8303C34.4603 101.371 38.6654 103.668 43.4076 103.668C50.9149 103.668 57.0752 97.9137 57.7266 90.5757H63.3491V97.4486C63.3491 98.0526 63.8389 98.5423 64.4429 98.5423H66.7456C67.3496 98.5423 67.8394 98.0526 67.8394 97.4486V90.5757H73.4361V97.4486C73.4361 98.0526 73.9259 98.5423 74.5299 98.5423H76.8326C77.4366 98.5423 77.9264 98.0526 77.9264 97.4486V90.5757H83.5231V97.4486C83.5231 98.0526 84.0129 98.5423 84.6169 98.5423H86.9196C87.5236 98.5423 88.0134 98.0526 88.0134 97.4486V90.5733C91.5633 90.5236 94.4304 87.6565 94.4803 84.1064H101.356C101.96 84.1064 102.449 83.6166 102.449 83.0126V80.7098C102.449 80.1059 101.96 79.6161 101.356 79.6161H94.4827V74.0194H101.356C101.96 74.0194 102.449 73.5296 102.449 72.9256V70.6228C102.449 70.0189 101.96 69.5291 101.356 69.5291H94.4827V63.9324H101.356C101.96 63.9324 102.449 63.4426 102.449 62.8386V60.5358C102.449 59.9319 101.96 59.4421 101.356 59.4421H94.4827V53.8454H101.356C101.96 53.8454 102.449 53.3556 102.449 52.7516V50.4488C102.449 49.8449 101.96 49.3551 101.356 49.3551H94.4827V43.7586H101.356Z" fill="#003DD0"/>
<path d="M91.0063 38.0704V33.5801H101.356C101.96 33.5801 102.45 34.0699 102.45 34.6738V36.9766C102.45 37.5806 101.96 38.0704 101.356 38.0704H91.0063Z" fill="#3E89F0"/>
<path d="M91.0063 48.1582V43.668H101.356C101.96 43.668 102.45 44.1578 102.45 44.7617V47.0645C102.45 47.6685 101.96 48.1582 101.356 48.1582H91.0063Z" fill="#3E89F0"/>
<path d="M91.0063 58.2442V53.7539H101.356C101.96 53.7539 102.45 54.2437 102.45 54.8477V57.1504C102.45 57.7544 101.96 58.2442 101.356 58.2442H91.0063Z" fill="#3E89F0"/>
<path d="M91.0063 68.3321V63.8418H101.356C101.96 63.8418 102.45 64.3316 102.45 64.9355V67.2383C102.45 67.8423 101.96 68.3321 101.356 68.3321H91.0063Z" fill="#3E89F0"/>
<path d="M91.0063 78.418V73.9277H101.356C101.96 73.9277 102.45 74.4175 102.45 75.0215V77.3243C102.45 77.9282 101.96 78.418 101.356 78.418H91.0063Z" fill="#3E89F0"/>
<path d="M67.8396 30.5878H63.3494V20.2383C63.3494 19.6343 63.8391 19.1445 64.4431 19.1445H66.7459C67.3499 19.1445 67.8396 19.6343 67.8396 20.2383V30.5878Z" fill="#3E89F0"/>
<path d="M77.9266 30.5878H73.4363V20.2383C73.4363 19.6343 73.9261 19.1445 74.53 19.1445H76.8328C77.4368 19.1445 77.9266 19.6343 77.9266 20.2383V30.5878Z" fill="#3E89F0"/>
<path d="M88.0137 30.5878H83.5234V20.2383C83.5234 19.6343 84.0132 19.1445 84.6172 19.1445H86.92C87.5239 19.1445 88.0137 19.6343 88.0137 20.2383V30.5878Z" fill="#3E89F0"/>
<path d="M67.8396 81.4121H63.3494V91.7616C63.3494 92.3656 63.8391 92.8554 64.4431 92.8554H66.7459C67.3499 92.8554 67.8396 92.3656 67.8396 91.7616V81.4121Z" fill="#3E89F0"/>
<path d="M77.9266 81.4121H73.4363V91.7616C73.4363 92.3656 73.9261 92.8554 74.53 92.8554H76.8328C77.4368 92.8554 77.9266 92.3656 77.9266 91.7616V81.4121Z" fill="#3E89F0"/>
<path d="M88.0137 81.4121H83.5234V91.7616C83.5234 92.3656 84.0132 92.8554 84.6172 92.8554H86.92C87.5239 92.8554 88.0137 92.3656 88.0137 91.7616V81.4121Z" fill="#3E89F0"/>
<path d="M87.9203 84.888H43.2688C39.6443 84.888 36.7063 81.95 36.7063 78.3255V33.6738C36.7063 30.0494 39.6443 27.1113 43.2688 27.1113H87.9203C91.5447 27.1113 94.4828 30.0494 94.4828 33.6738V78.3253C94.4828 81.9498 91.5447 84.888 87.9203 84.888Z" fill="#00D627"/>
<path d="M81.5905 36.1875H49.5985C47.4906 36.1875 45.7817 37.8964 45.7817 40.0043V71.9962C45.7817 74.1041 47.4906 75.813 49.5985 75.813H72.3281C73.4884 75.813 74.6012 75.3521 75.4217 74.5315L84.1256 65.8277C84.9461 65.0072 85.407 63.8944 85.407 62.7341V40.0043C85.407 37.8964 83.6983 36.1875 81.5905 36.1875Z" fill="#DBFCED"/>
<path d="M63.6743 49.3027H51.9003C51.1187 49.3027 50.3966 49.7197 50.0059 50.3965L44.1187 60.5931C43.728 61.2699 43.728 62.1038 44.1187 62.7806L50.0057 72.9772C50.3964 73.654 51.1187 74.0709 51.9001 74.0709H63.6741C64.4557 74.0709 65.1778 73.654 65.5684 72.9772L71.4557 62.7806C71.8464 62.1038 71.8464 61.2699 71.4557 60.5931L65.5687 50.3965C65.178 49.7197 64.4557 49.3027 63.6743 49.3027Z" fill="#B6F6BE"/>
<path d="M47.1527 14.0195C44.006 14.0195 41.1795 15.3874 39.2324 17.5596C38.3891 17.3861 37.5159 17.2949 36.6214 17.2949C29.4991 17.2949 23.7254 23.0686 23.7254 30.1906C23.7254 30.4284 23.7329 30.6642 23.7455 30.8987C19.758 32.4326 16.9269 36.2973 16.9269 40.8252C16.9269 41.3438 16.9658 41.8533 17.0376 42.352C14.077 44.9858 12.2102 48.8224 12.2102 53.0968C12.2102 58.1016 14.7685 62.5074 18.6474 65.0828C18.4833 65.825 18.3943 66.5952 18.3943 67.3867C18.3943 71.1618 20.3632 74.4753 23.3284 76.3624C22.4724 77.8947 21.9829 79.6596 21.9829 81.5396C21.9829 87.1516 26.331 91.7451 31.8415 92.1428C34.4606 95.6837 38.6656 97.9804 43.4079 97.9804C51.3494 97.9804 57.7872 91.5426 57.7872 83.6011V24.6538C57.787 18.7806 53.0259 14.0195 47.1527 14.0195Z" fill="#FFA7CE"/>
<path d="M57.7871 49.3027H51.9001C51.1185 49.3027 50.3964 49.7197 50.0057 50.3965L44.1187 60.5931C43.728 61.2699 43.728 62.1038 44.1187 62.7806L50.0057 72.9772C50.3964 73.654 51.1187 74.0709 51.9001 74.0709H57.7871V49.3027Z" fill="#FF7EB7"/>
<path d="M31.8416 93.2375C31.2374 93.2375 30.7478 92.7477 30.7478 92.1437C30.7478 91.5398 31.2374 91.05 31.8416 91.05C33.5174 91.05 35.2075 90.2404 36.0466 89.0355C36.7669 88.0015 36.8643 86.7531 36.3364 85.3249C36.1269 84.7583 36.4165 84.1292 36.9831 83.9198C37.5501 83.71 38.1787 84.0001 38.3881 84.5667C39.3731 87.2313 38.6346 89.1475 37.8416 90.2861C36.5926 92.0788 34.2375 93.2375 31.8416 93.2375Z" fill="#FF7EB7"/>
<path d="M27.0247 68.7947C27.0024 68.7947 26.98 68.7941 26.9575 68.7928C21.0314 68.4342 18.0712 66.0256 17.9481 65.9232C17.4834 65.5369 17.42 64.8474 17.8063 64.3828C18.1915 63.9199 18.8778 63.8551 19.3422 64.2375C19.3918 64.2773 21.9593 66.2988 27.0894 66.6092C27.6925 66.6457 28.1514 67.1639 28.1151 67.7668C28.0801 68.3476 27.5984 68.7947 27.0247 68.7947Z" fill="#FF7EB7"/>
<path d="M31.8136 32.8551C31.6631 32.8551 31.5102 32.8239 31.3641 32.758C29.0698 31.7222 27.2348 31.5468 26.1005 31.5814C24.8779 31.619 24.1812 31.9023 24.1742 31.9051C23.6199 32.135 22.9792 31.8773 22.744 31.3256C22.5091 30.7737 22.7572 30.1376 23.3067 29.897C23.4526 29.8333 26.9405 28.3609 32.264 30.7641C32.8146 31.0126 33.0594 31.6605 32.8107 32.2109C32.6285 32.6156 32.2303 32.8551 31.8136 32.8551Z" fill="#FF7EB7"/>
<path d="M52.7102 47.7802C44.1575 47.7802 37.1997 40.822 37.1997 32.2695C37.1997 31.6656 37.6893 31.1758 38.2935 31.1758C38.8976 31.1758 39.3872 31.6656 39.3872 32.2695C39.3872 39.616 45.3639 45.5927 52.7102 45.5927C53.3144 45.5927 53.8039 46.0825 53.8039 46.6865C53.8039 47.2904 53.3144 47.7802 52.7102 47.7802Z" fill="#FF7EB7"/>
<path d="M34.5246 37.7871C30.4786 37.7871 27.0873 40.6341 26.243 44.4295C24.8644 43.461 23.1872 42.8903 21.3782 42.8903C20.774 42.8903 20.2844 43.3801 20.2844 43.9841C20.2844 44.588 20.774 45.0778 21.3782 45.0778C24.8508 45.0778 27.6762 47.9032 27.6762 51.3759C27.6762 51.9798 28.1658 52.4696 28.77 52.4696C29.3741 52.4696 29.8637 51.9798 29.8637 51.3759C29.8637 49.501 29.2514 47.7669 28.2176 46.3608C28.22 46.3313 28.2266 46.3028 28.2266 46.2726C28.2266 42.8 31.052 39.9746 34.5246 39.9746C35.1288 39.9746 35.6184 39.4848 35.6184 38.8809C35.6184 38.2769 35.1288 37.7871 34.5246 37.7871Z" fill="#FF7EB7"/>
<path d="M51.2775 76.4802C50.7009 76.3027 50.088 76.6272 49.911 77.2049C48.9955 80.1886 45.823 81.8712 42.8401 80.9556C42.2624 80.7782 41.6506 81.1028 41.4736 81.6803C41.2966 82.2578 41.621 82.8696 42.1983 83.0468C42.9624 83.2811 43.7353 83.3927 44.4956 83.3927C45.3888 83.3927 46.264 83.2376 47.0883 82.9482C47.4413 84.0415 47.4538 85.2144 47.1097 86.3357C46.6663 87.781 45.6865 88.9671 44.351 89.6756C43.8175 89.9587 43.6143 90.6206 43.8974 91.1543C44.0936 91.5247 44.4727 91.7358 44.8644 91.7358C45.0373 91.7358 45.2129 91.6947 45.3761 91.608C47.228 90.6258 48.5863 88.9813 49.2009 86.9775C49.7146 85.3032 49.6557 83.5462 49.0502 81.9332C50.4111 80.9663 51.4762 79.5621 52.0025 77.8467C52.1795 77.269 51.855 76.6573 51.2775 76.4802Z" fill="#FF7EB7"/>
<path d="M53.7034 26.2125C50.8888 23.3978 46.4514 23.1749 43.3769 25.5387C42.0534 24.5211 40.3986 23.9141 38.6038 23.9141C37.9996 23.9141 37.51 24.4038 37.51 25.0078C37.51 25.6118 37.9996 26.1016 38.6038 26.1016C41.7247 26.1016 44.2637 28.6404 44.2637 31.7613C44.2637 32.3652 44.7533 32.855 45.3574 32.855C45.9616 32.855 46.4512 32.3652 46.4512 31.7613C46.4512 30.024 45.8829 28.4177 44.9234 27.1161C47.1291 25.5805 50.1916 25.794 52.1569 27.7593C52.3704 27.9728 52.6504 28.0795 52.9301 28.0795C53.2099 28.0795 53.4901 27.9728 53.7034 27.7593C54.1306 27.332 54.1306 26.6395 53.7034 26.2125Z" fill="#FF7EB7"/>
<path d="M52.2727 58.12C48.4105 58.12 45.005 60.1051 43.0176 63.1073C41.4092 60.8403 38.9032 59.439 36.2257 59.1726C38.507 56.4568 39.1661 52.5618 37.5911 49.13C37.3391 48.5807 36.6896 48.3403 36.1408 48.5921C35.5917 48.8441 35.3511 49.4933 35.6031 50.0424C37.2761 53.6879 35.6716 58.0148 32.0261 59.6878C31.0459 60.1377 30.0169 60.3506 29.003 60.3506C26.2463 60.3503 23.604 58.776 22.381 56.111C22.129 55.5617 21.4793 55.3211 20.9307 55.5731C20.3816 55.8251 20.141 56.4745 20.393 57.0234C21.9839 60.4901 25.4203 62.5378 29.0063 62.5378C29.9961 62.5378 30.9973 62.3817 31.9745 62.0564C32.0744 62.0415 32.174 62.0177 32.2704 61.9737C35.8698 60.3219 40.1323 61.8669 41.8495 65.4155C41.4164 66.6007 41.1797 67.8795 41.1797 69.2126C41.1797 71.418 41.8265 73.5495 43.0502 75.3769C43.2611 75.6919 43.6074 75.8621 43.96 75.8621C44.1691 75.8621 44.3807 75.8022 44.5675 75.6771C45.0693 75.3408 45.2038 74.6616 44.8676 74.1596C43.8861 72.6935 43.3672 70.9829 43.3672 69.2126C43.3672 64.3021 47.3622 60.3073 52.2725 60.3073C52.8767 60.3073 53.3663 59.8175 53.3663 59.2135C53.3663 58.6095 52.8769 58.12 52.2727 58.12Z" fill="#FF7EB7"/>
<path d="M29.4386 83.5453C29.0044 83.5453 28.5938 83.2852 28.4225 82.8574C27.1315 79.6286 28.0642 75.9692 30.7443 73.7512C32.1962 72.5497 34.033 71.8934 35.9147 71.9207C36.5187 71.9275 37.003 72.4228 36.996 73.0267C36.989 73.6307 36.4881 74.1242 35.8898 74.108C34.5272 74.0945 33.1926 74.5643 32.1389 75.4365C30.1938 77.0463 29.5167 79.7021 30.4536 82.0451C30.6778 82.606 30.4051 83.2426 29.8442 83.4668C29.7112 83.5202 29.5736 83.5453 29.4386 83.5453Z" fill="#FF7EB7"/>
<path d="M63.6743 43.6152H51.9003C51.1187 43.6152 50.3966 44.0322 50.0059 44.709L44.1187 54.9056C43.728 55.5824 43.728 56.4163 44.1187 57.0931L50.0057 67.2897C50.3964 67.9665 51.1187 68.3834 51.9001 68.3834H63.6741C64.4557 68.3834 65.1778 67.9665 65.5684 67.2897L71.4557 57.0931C71.8464 56.4163 71.8464 55.5824 71.4557 54.9056L65.5687 44.709C65.178 44.0322 64.4557 43.6152 63.6743 43.6152Z" fill="#00D627"/>
<path d="M55.4564 51.4291C55.2927 51.0091 54.888 50.7324 54.4372 50.7324C53.9864 50.7324 53.5817 51.0091 53.418 51.4291L50.1676 59.7738C49.9484 60.3366 50.2269 60.9708 50.79 61.19C51.3526 61.4092 51.9868 61.1307 52.2062 60.5679L52.5861 59.5922C52.6454 59.6021 52.7054 59.6104 52.7675 59.6104H56.1073C56.1695 59.6104 56.2294 59.6021 56.2887 59.5922L56.6687 60.5679C56.8373 61.0003 57.2503 61.265 57.688 61.265C57.8202 61.265 57.9545 61.241 58.0846 61.1902C58.6475 60.971 58.9262 60.3369 58.707 59.774L55.4564 51.4291ZM53.4307 57.4231L54.437 54.8397L55.4432 57.4231H53.4307Z" fill="white"/>
<path d="M63.5129 59.0781H63.4025V52.9805H63.5129C64.1171 52.9805 64.6067 52.4907 64.6067 51.8867C64.6067 51.2828 64.1171 50.793 63.5129 50.793H61.1045C60.5003 50.793 60.0107 51.2828 60.0107 51.8867C60.0107 52.4907 60.5003 52.9805 61.1045 52.9805H61.215V59.0781H61.1045C60.5003 59.0781 60.0107 59.5679 60.0107 60.1719C60.0107 60.7758 60.5003 61.2656 61.1045 61.2656H63.5129C64.1171 61.2656 64.6067 60.7758 64.6067 60.1719C64.6067 59.5679 64.1169 59.0781 63.5129 59.0781Z" fill="white"/>
<path d="M85.407 80.1577C87.8069 80.1577 89.7525 78.2122 89.7525 75.8123C89.7525 73.4123 87.8069 71.4668 85.407 71.4668C83.0071 71.4668 81.0615 73.4123 81.0615 75.8123C81.0615 78.2122 83.0071 80.1577 85.407 80.1577Z" fill="#3E89F0"/>
<path d="M80.9168 42.2266H75.333C74.7288 42.2266 74.2393 41.7368 74.2393 41.1328C74.2393 40.5288 74.7288 40.0391 75.333 40.0391H80.9168C81.521 40.0391 82.0106 40.5288 82.0106 41.1328C82.0106 41.7368 81.521 42.2266 80.9168 42.2266Z" fill="#7AEE90"/>
<path d="M80.9168 46.2617H75.333C74.7288 46.2617 74.2393 45.7719 74.2393 45.168C74.2393 44.564 74.7288 44.0742 75.333 44.0742H80.9168C81.521 44.0742 82.0106 44.564 82.0106 45.168C82.0106 45.7719 81.521 46.2617 80.9168 46.2617Z" fill="#7AEE90"/>
<path d="M80.9168 50.2949H75.333C74.7288 50.2949 74.2393 49.8051 74.2393 49.2012C74.2393 48.5972 74.7288 48.1074 75.333 48.1074H80.9168C81.521 48.1074 82.0106 48.5972 82.0106 49.2012C82.0106 49.8051 81.521 50.2949 80.9168 50.2949Z" fill="#7AEE90"/>
<path d="M20.4429 16.6367C18.6336 16.6367 17.1616 15.1648 17.1616 13.3555C17.1616 11.5462 18.6336 10.0742 20.4429 10.0742C22.2522 10.0742 23.7241 11.5462 23.7241 13.3555C23.7241 15.1648 22.2524 16.6367 20.4429 16.6367ZM20.4429 12.2617C19.8398 12.2617 19.3491 12.7524 19.3491 13.3555C19.3491 13.9586 19.8398 14.4492 20.4429 14.4492C21.046 14.4492 21.5366 13.9586 21.5366 13.3555C21.5366 12.7524 21.046 12.2617 20.4429 12.2617Z" fill="#2626BB"/>
<path d="M98.9155 97.6582C97.1062 97.6582 95.6343 96.1862 95.6343 94.377C95.6343 92.5677 97.1062 91.0957 98.9155 91.0957C100.725 91.0957 102.197 92.5677 102.197 94.377C102.197 96.1862 100.725 97.6582 98.9155 97.6582ZM98.9155 93.2832C98.3124 93.2832 97.8218 93.7739 97.8218 94.377C97.8218 94.98 98.3124 95.4707 98.9155 95.4707C99.5186 95.4707 100.009 94.98 100.009 94.377C100.009 93.7739 99.5184 93.2832 98.9155 93.2832Z" fill="#2626BB"/>
<path d="M59.5796 101.463C58.9754 101.463 58.4858 100.973 58.4858 100.369C58.4858 99.7057 57.946 99.166 57.2827 99.166C56.6785 99.166 56.189 98.6762 56.189 98.0723C56.189 97.4683 56.6785 96.9785 57.2827 96.9785C57.946 96.9785 58.4858 96.4389 58.4858 95.7754C58.4858 95.1714 58.9754 94.6816 59.5796 94.6816C60.1838 94.6816 60.6733 95.1714 60.6733 95.7754C60.6733 96.4389 61.2132 96.9785 61.8765 96.9785C62.4807 96.9785 62.9702 97.4683 62.9702 98.0723C62.9702 98.6762 62.4807 99.166 61.8765 99.166C61.2132 99.166 60.6733 99.7057 60.6733 100.369C60.6733 100.973 60.1838 101.463 59.5796 101.463Z" fill="#00D627"/>
<path d="M101.103 27.9141C100.499 27.9141 100.009 27.4243 100.009 26.8203C100.009 26.1568 99.4694 25.6172 98.8062 25.6172C98.202 25.6172 97.7124 25.1274 97.7124 24.5234C97.7124 23.9195 98.202 23.4297 98.8062 23.4297C99.4694 23.4297 100.009 22.89 100.009 22.2266C100.009 21.6226 100.499 21.1328 101.103 21.1328C101.707 21.1328 102.197 21.6226 102.197 22.2266C102.197 22.89 102.737 23.4297 103.4 23.4297C104.004 23.4297 104.494 23.9195 104.494 24.5234C104.494 25.1274 104.004 25.6172 103.4 25.6172C102.737 25.6172 102.197 26.1568 102.197 26.8203C102.197 27.4243 101.707 27.9141 101.103 27.9141Z" fill="#00D627"/>
<path d="M15.9585 26.8203C15.3543 26.8203 14.8647 26.3305 14.8647 25.7266C14.8647 25.0631 14.3249 24.5234 13.6616 24.5234C13.0574 24.5234 12.5679 24.0337 12.5679 23.4297C12.5679 22.8257 13.0574 22.3359 13.6616 22.3359C14.3249 22.3359 14.8647 21.7963 14.8647 21.1328C14.8647 20.5288 15.3543 20.0391 15.9585 20.0391C16.5627 20.0391 17.0522 20.5288 17.0522 21.1328C17.0522 21.7963 17.5921 22.3359 18.2554 22.3359C18.8596 22.3359 19.3491 22.8257 19.3491 23.4297C19.3491 24.0337 18.8596 24.5234 18.2554 24.5234C17.5921 24.5234 17.0522 25.0631 17.0522 25.7266C17.0522 26.3307 16.5627 26.8203 15.9585 26.8203Z" fill="#00D627"/>
<path d="M101.356 39.1651C102.562 39.1651 103.543 38.1837 103.543 36.9776V34.6748C103.543 33.4686 102.562 32.4873 101.356 32.4873H95.484C94.9723 29.2143 92.3801 26.6222 89.1072 26.1105V20.2388C89.1072 19.0326 88.1259 18.0513 86.9197 18.0513H84.6169C83.4107 18.0513 82.4294 19.0326 82.4294 20.2388V26.018H79.0202V20.2388C79.0202 19.0326 78.0389 18.0513 76.8327 18.0513H74.5301C73.3239 18.0513 72.3426 19.0326 72.3426 20.2388V26.018H68.9334V20.2388C68.9334 19.0326 67.9521 18.0513 66.7459 18.0513H64.4431C63.2369 18.0513 62.2556 19.0326 62.2556 20.2388V26.018H58.8807V24.6541C58.8807 18.1872 53.6196 12.9258 47.1527 12.9258C44.0331 12.9258 41.0399 14.1766 38.8452 16.3772C38.112 16.2602 37.3665 16.2009 36.6212 16.2009C28.9096 16.2009 22.6354 22.4731 22.6317 30.1838C18.5349 32.0883 15.8331 36.2697 15.8331 40.8252C15.8331 41.1887 15.8509 41.5575 15.8859 41.9272C12.8476 44.8403 11.1165 48.8784 11.1165 53.0968C11.1165 58.0487 13.4678 62.6601 17.442 65.5747C17.3478 66.1765 17.3003 66.7833 17.3003 67.3867C17.3003 71.084 19.0122 74.5039 21.926 76.7177C21.2452 78.2273 20.8889 79.8758 20.8889 81.5393C20.8889 87.4887 25.4063 92.5105 31.2631 93.1867C34.1863 96.8823 38.689 99.0739 43.4079 99.0739C51.1302 99.0739 57.5488 93.3873 58.6972 85.9817H62.2556V91.7609C62.2556 92.9671 63.2369 93.9484 64.4431 93.9484H66.7459C67.9521 93.9484 68.9334 92.9671 68.9334 91.7609V85.9817H72.3426V91.7609C72.3426 92.9671 73.3239 93.9484 74.5301 93.9484H76.8327C78.0389 93.9484 79.0202 92.9671 79.0202 91.7609V85.9817H82.4294V91.7609C82.4294 92.9671 83.4107 93.9484 84.6169 93.9484H86.9197C88.1259 93.9484 89.1072 92.9671 89.1072 91.7609V85.8892C92.3801 85.3775 94.9723 82.7853 95.484 79.5124H101.356C102.562 79.5124 103.543 78.5311 103.543 77.3249V75.0226C103.543 73.8164 102.562 72.8351 101.356 72.8351H95.5765V69.4261H101.356C102.562 69.4261 103.543 68.4448 103.543 67.2386V64.9358C103.543 63.7296 102.562 62.7483 101.356 62.7483H95.5765V59.3393H101.356C102.562 59.3393 103.543 58.358 103.543 57.1518V54.849C103.543 53.6428 102.562 52.6615 101.356 52.6615H95.5765V49.2525H101.356C102.562 49.2525 103.543 48.2712 103.543 47.065V44.7622C103.543 43.556 102.562 42.5747 101.356 42.5747H95.5765V39.1651H101.356ZM101.356 36.9776H95.5765V34.6748H101.356V36.9776ZM84.6169 20.2388H86.9197V26.018H84.6169V20.2388ZM74.5301 20.2388H76.8327V26.018H74.5301V20.2388ZM64.4431 20.2388H66.7459V26.018H64.4431V20.2388ZM66.7459 91.7613H64.4431V85.9822H66.7459V91.7613ZM76.8327 91.7613H74.5301V85.9822H76.8327V91.7613ZM84.6169 91.7613V85.9822H86.9197V91.7613H84.6169ZM93.389 78.3259C93.389 81.3414 90.9357 83.7947 87.9202 83.7947H58.8757C58.8766 83.7299 58.8805 83.6663 58.8805 83.6013V69.4781H63.674C64.8425 69.4781 65.9315 68.8494 66.5155 67.8375L67.5955 65.9672C67.8976 65.4442 67.7185 64.7752 67.1952 64.4731C66.6715 64.1708 66.003 64.3504 65.7011 64.8734L64.6212 66.7438C64.4263 67.0811 64.0634 67.2906 63.674 67.2906H51.8998C51.5104 67.2906 51.1475 67.0811 50.9526 66.7438L45.0658 56.5469C44.8709 56.2096 44.8709 55.7905 45.0658 55.4532L50.9528 45.2566C51.1477 44.9193 51.5106 44.7097 51.9 44.7097H63.6742C64.0636 44.7097 64.4265 44.9193 64.6214 45.2566L70.5084 55.4532C70.7033 55.7905 70.7033 56.2096 70.5084 56.5469L68.1916 60.5599C67.8895 61.0832 68.0687 61.7521 68.5919 62.054C69.1152 62.3561 69.7841 62.1767 70.086 61.6537L72.4028 57.6407C72.987 56.6287 72.987 55.3714 72.4028 54.3594L66.5158 44.1628C65.9317 43.1509 64.8428 42.5222 63.6742 42.5222H51.9C50.7316 42.5222 49.6429 43.1509 49.0584 44.1628L43.1712 54.3594C42.5869 55.3714 42.5869 56.6287 43.1712 57.6407L49.0582 67.8375C49.6427 68.8494 50.7314 69.4781 51.8998 69.4781H56.693V83.6013C56.693 90.927 50.7332 96.8866 43.4077 96.8866C39.2142 96.8866 35.219 94.87 32.7206 91.4922C32.531 91.2357 32.2385 91.0749 31.9202 91.0519C26.961 90.6938 23.0764 86.5157 23.0764 81.5396C23.0764 79.9154 23.4935 78.3095 24.2832 76.8957C24.5659 76.3898 24.4046 75.751 23.9155 75.4397C21.1429 73.6753 19.4878 70.6646 19.4878 67.3869C19.4878 66.6978 19.5644 66.002 19.7153 65.3188C19.8129 64.8774 19.6289 64.4215 19.2524 64.1715C15.5278 61.6985 13.3042 57.5587 13.3042 53.0968C13.3042 49.3096 14.9301 45.6912 17.7649 43.1693C18.0392 42.9252 18.1729 42.5596 18.1206 42.1963C18.0543 41.7362 18.0209 41.2751 18.0209 40.8252C18.0209 36.906 20.4794 33.3271 24.1386 31.9196C24.5814 31.7494 24.864 31.313 24.838 30.8392C24.8255 30.6095 24.8194 30.3973 24.8194 30.1908C24.8194 23.683 30.1138 18.3888 36.6214 18.3888C37.426 18.3888 38.2303 18.4704 39.0123 18.631C39.3925 18.7091 39.7874 18.5794 40.047 18.2898C41.8563 16.2711 44.4463 15.1135 47.1527 15.1135C52.4134 15.1135 56.6932 19.3933 56.6932 24.6543V38.3938C56.6932 38.9977 57.1828 39.4875 57.787 39.4875C58.3912 39.4875 58.8807 38.9977 58.8807 38.3938V28.2057H87.9202C90.9357 28.2057 93.389 30.659 93.389 33.6744V78.3259ZM101.356 75.0226V77.3253H95.5765V75.0226H101.356ZM101.356 64.9356V67.2383H95.5765V64.9356H101.356ZM101.356 54.8486V57.1513H95.5765V54.8486H101.356ZM101.356 44.7618V47.0646H95.5765V44.7618H101.356Z" fill="#003DD0"/>
</g>
<defs>
<linearGradient id="paint0_linear_466_8179" x1="29.5987" y1="89.5927" x2="103.846" y2="15.3457" gradientUnits="userSpaceOnUse">
<stop stop-color="#7FB3FF" stop-opacity="0"/>
<stop offset="1" stop-color="#0032B0" stop-opacity="0.85"/>
</linearGradient>
<clipPath id="clip0_466_8179">
<rect width="112" height="112" fill="white"/>
</clipPath>
</defs>
</svg>
