<svg width="24" height="24" viewBox="0 0 24 24" fill="none" xmlns="http://www.w3.org/2000/svg">
<path d="M21.6 3H2.4C1.76348 3 1.15303 3.27092 0.702944 3.75315C0.252856 4.23539 0 4.88944 0 5.57143V18.4286C0 19.1106 0.252856 19.7646 0.702944 20.2468C1.15303 20.7291 1.76348 21 2.4 21H21.6C22.2365 21 22.847 20.7291 23.2971 20.2468C23.7471 19.7646 24 19.1106 24 18.4286V5.57143C24 4.88944 23.7471 4.23539 23.2971 3.75315C22.847 3.27092 22.2365 3 21.6 3ZM2.4 18.4286V10.7143H21.6V18.4286H2.4Z" fill="#1C64F2"/>
<path d="M7.2 13.2857H4.8C4.48174 13.2857 4.17652 13.4212 3.95147 13.6623C3.72643 13.9034 3.6 14.2304 3.6 14.5714C3.6 14.9124 3.72643 15.2394 3.95147 15.4806C4.17652 15.7217 4.48174 15.8571 4.8 15.8571H7.2C7.51826 15.8571 7.82348 15.7217 8.04853 15.4806C8.27357 15.2394 8.4 14.9124 8.4 14.5714C8.4 14.2304 8.27357 13.9034 8.04853 13.6623C7.82348 13.4212 7.51826 13.2857 7.2 13.2857Z" fill="#1C64F2"/>
<path d="M16.8 13.2857H10.8C10.4817 13.2857 10.1765 13.4212 9.95147 13.6623C9.72643 13.9034 9.6 14.2304 9.6 14.5714C9.6 14.9124 9.72643 15.2394 9.95147 15.4806C10.1765 15.7217 10.4817 15.8571 10.8 15.8571H16.8C17.1183 15.8571 17.4235 15.7217 17.6485 15.4806C17.8736 15.2394 18 14.9124 18 14.5714C18 14.2304 17.8736 13.9034 17.6485 13.6623C17.4235 13.4212 17.1183 13.2857 16.8 13.2857Z" fill="#1C64F2"/>
</svg>
