<svg width="9" height="9" viewBox="0 0 9 9" fill="none" xmlns="http://www.w3.org/2000/svg">
<path d="M4.5 9C3.69813 9 3.04839 8.34997 3.04839 7.54839C3.04839 6.66784 2.33187 5.95161 1.45161 5.95161C0.649742 5.95161 0 5.30158 0 4.5C0 3.69842 0.649742 3.04839 1.45161 3.04839C2.33187 3.04839 3.04839 2.33216 3.04839 1.45161C3.04839 0.650032 3.69813 0 4.5 0C5.30187 0 5.95161 0.650032 5.95161 1.45161C5.95161 2.33216 6.66813 3.04839 7.54839 3.04839C8.35026 3.04839 9 3.69842 9 4.5C9 5.30158 8.35026 5.95161 7.54839 5.95161C6.66813 5.95161 5.95161 6.66784 5.95161 7.54839C5.95161 8.34997 5.30158 9 4.5 9Z" fill="#00D627"/>
</svg>
