<svg width="36" height="36" viewBox="0 0 36 36" fill="none" xmlns="http://www.w3.org/2000/svg">
<path d="M21.7539 17.9783C21.7539 20.1246 20.0142 21.8642 17.868 21.8642C15.7218 21.8642 13.9822 20.1246 13.9822 17.9783C13.9822 15.8321 15.7218 14.0918 17.868 14.0918C20.0142 14.0918 21.7539 15.8321 21.7539 17.9783Z" fill="#374151"/>
<path d="M32.1099 0H3.89005C1.74171 0 0 1.74171 0 3.89005V32.1099C0 34.2583 1.74171 36 3.89005 36H32.1099C34.2583 36 36 34.2583 36 32.1099V3.89005C36 1.74171 34.2583 0 32.1099 0ZM29.4559 22.7855C29.3998 24.0265 29.2024 24.8741 28.9145 25.6151C28.616 26.382 28.2178 27.0323 27.5696 27.6805C26.9213 28.3281 26.271 28.727 25.5048 29.0247C24.7632 29.3134 23.9155 29.51 22.6745 29.5669C21.4314 29.6238 21.0339 29.6371 17.868 29.6371C14.702 29.6371 14.3045 29.6238 13.0614 29.5669C11.8204 29.51 10.9728 29.3134 10.2311 29.0247C9.46492 28.727 8.81459 28.3281 8.16637 27.6805C7.51814 27.0323 7.11994 26.382 6.82146 25.6151C6.53351 24.8741 6.33687 24.0265 6.27998 22.7855C6.2231 21.5417 6.20975 21.1449 6.20975 17.9789C6.20975 14.8123 6.2231 14.4154 6.27998 13.1724C6.33687 11.9314 6.53351 11.0837 6.82146 10.3421C7.11994 9.57589 7.51814 8.92556 8.16637 8.27733C8.81459 7.62911 9.46492 7.2302 10.2311 6.93242C10.9728 6.64448 11.8204 6.44713 13.0614 6.39095C14.3045 6.33406 14.702 6.32072 17.868 6.32072C21.0339 6.32072 21.4314 6.33406 22.6745 6.39095C23.9155 6.44713 24.7632 6.64448 25.5048 6.93242C26.271 7.2302 26.9213 7.62911 27.5696 8.27733C28.2178 8.92556 28.616 9.57589 28.9145 10.3421C29.2024 11.0837 29.3998 11.9314 29.4559 13.1724C29.5128 14.4154 29.5262 14.8123 29.5262 17.9789C29.5262 21.1449 29.5128 21.5417 29.4559 22.7855ZM26.9565 11.1034C26.7451 10.5591 26.4922 10.1707 26.0842 9.7627C25.6762 9.35466 25.2878 9.10183 24.7435 8.89044C24.3327 8.73102 23.7153 8.54069 22.579 8.48943C21.3493 8.43324 20.9806 8.4213 17.868 8.4213C14.7554 8.4213 14.3867 8.43324 13.1569 8.48943C12.0206 8.54069 11.4033 8.73102 10.9924 8.89044C10.4481 9.10183 10.0598 9.35466 9.65174 9.7627C9.2437 10.1707 8.99087 10.5591 8.77948 11.1034C8.62005 11.5142 8.43043 12.1316 8.37846 13.2679C8.32228 14.4969 8.31034 14.8656 8.31034 17.9789C8.31034 21.0915 8.32228 21.4602 8.37846 22.69C8.43043 23.8263 8.62005 24.4436 8.77948 24.8545C8.99087 25.3987 9.2437 25.7871 9.65174 26.1952C10.0598 26.6032 10.4481 26.8553 10.9924 27.0667C11.4033 27.2268 12.0206 27.4165 13.1569 27.4684C14.386 27.5246 14.7547 27.5366 17.868 27.5366C20.9813 27.5366 21.35 27.5246 22.579 27.4684C23.7153 27.4165 24.3327 27.2268 24.7435 27.0667C25.2878 26.8553 25.6762 26.6032 26.0842 26.1952C26.4922 25.7871 26.7451 25.3987 26.9565 24.8545C27.1159 24.4436 27.3055 23.8263 27.3575 22.69C27.4137 21.4602 27.4256 21.0915 27.4256 17.9789C27.4256 14.8656 27.4137 14.4969 27.3575 13.2679C27.3055 12.1316 27.1159 11.5142 26.9565 11.1034ZM17.868 23.9654C14.5615 23.9654 11.8815 21.2854 11.8815 17.9789C11.8815 14.6725 14.5615 11.9918 17.868 11.9918C21.1744 11.9918 23.8544 14.6725 23.8544 17.9789C23.8544 21.2854 21.1744 23.9654 17.868 23.9654ZM24.0911 13.1548C23.3185 13.1548 22.6921 12.5284 22.6921 11.7558C22.6921 10.9833 23.3185 10.3568 24.0911 10.3568C24.8636 10.3568 25.49 10.9833 25.49 11.7558C25.49 12.5284 24.8636 13.1548 24.0911 13.1548Z" fill="#374151"/>
</svg>
