<svg width="136" height="136" viewBox="0 0 136 136" fill="none" xmlns="http://www.w3.org/2000/svg">
<g clip-path="url(#clip0_466_7722)">
<path d="M50.9564 6.56648C36.8398 17.685 42.3403 41.7233 28.3573 53.9936C21.6115 59.913 12.0694 62.3754 6.50698 69.2524C-14.6896 95.4595 20.7785 123.921 43.1717 130.907C84.5954 143.828 81.0472 124.971 90.1231 111.051C99.3201 96.9459 123.194 98.8736 132.3 82.6139C136.806 74.5678 137.11 64.8592 133.684 56.2968C125.527 35.9082 80.3967 -16.621 50.9564 6.56648Z" fill="url(#paint0_linear_466_7722)" fill-opacity="0.25"/>
<g opacity="0.1">
<path d="M116.907 107.56C117.04 107.053 117.205 106.52 117.391 105.967C124.213 99.133 131.169 90.5661 129.925 84.8475C126.157 68.451 118.862 61.0105 112.51 59.9223C110.161 59.5196 107.58 59.4752 104.968 59.6992C104.218 41.4744 88.7932 27.036 70.1954 27.894C65.3056 28.1195 60.698 29.39 56.5899 31.4879C55.8737 28.9565 54.5228 26.567 52.5301 24.5742C46.1314 18.1756 35.6456 18.3552 29.4762 25.1129C24.0083 31.1025 23.8776 40.1125 29.184 46.2455C32.0427 49.5494 35.9014 51.37 39.8648 51.7153C39.2018 53.9996 38.7739 56.3879 38.6126 58.8545C38.5144 60.3558 38.5183 61.8372 38.6137 63.2931C30.8065 62.7151 21.1481 64.7173 17.2338 76.6657C16.137 80.0139 15.8326 83.0431 16.106 85.7769C16.1017 85.7772 16.0975 85.7769 16.0932 85.7772C13.7908 85.928 12.047 87.917 12.1978 90.2192C12.2103 90.4081 12.2393 90.5916 12.2757 90.7722C11.1263 92.2842 10.0449 94.1868 9.23027 96.2781C7.58472 96.2555 6.29245 96.85 5.98008 100.624C5.70622 103.933 6.57747 104.954 7.89258 105.323C7.89444 105.338 7.8955 105.353 7.89763 105.369C8.92055 113.261 16.1267 118.492 19.0435 120.305L19.039 120.373C18.9689 121.41 19.5987 122.367 20.5791 122.712L25.2918 124.373L25.1842 125.363C25.1083 126.063 25.5914 126.702 26.286 126.817C27.7074 127.053 29.1306 127.279 30.5552 127.497V127.494C33.0653 127.88 35.5781 128.241 38.0936 128.589C40.6192 128.938 43.1463 129.274 45.674 129.607C46.6775 129.74 47.4558 128.746 47.0837 127.805C45.4528 123.68 43.6553 118.37 42.7891 113.236C46.2948 114.757 49.5875 115.391 50.8811 113.321C55.376 106.128 57.9228 103.296 57.9228 103.296L61.0773 101.989C62.1159 101.558 62.6783 100.428 62.3948 99.34L60.5822 92.3763C62.1664 92.9427 63.8053 93.3937 65.4899 93.7159L69.9205 99.2308C70.8699 100.413 72.669 100.413 73.6183 99.2308L78.0489 93.7159C79.6015 93.4189 81.1148 93.012 82.5823 92.5073C82.7075 93.2598 82.6522 94.0331 82.4264 94.7627L80.4002 101.369C80.1118 102.31 80.5601 103.317 81.4516 103.731L84.0231 104.929C84.3416 105.077 84.6136 105.306 84.8117 105.595C85.4168 106.473 86.9389 108.802 89.8328 113.908C90.9668 115.91 94.0953 115.447 97.4605 114.157L95.3076 125.501C95.1376 126.398 95.901 127.195 96.8039 127.063L116.235 124.234C116.986 124.124 117.492 123.411 117.348 122.666C116.702 119.335 115.648 112.386 116.907 107.56ZM26.1126 116.808L22.311 115.468C20.9393 114.985 19.4911 115.872 19.2619 117.272C16.3506 115.254 11.5725 111.156 10.6078 105.512C11.8815 105.31 12.8353 104.383 13.0978 101.213C13.3201 98.5266 12.7878 97.3478 11.8754 96.8017C12.4579 95.4209 13.1427 94.2004 13.7897 93.2285C14.5712 93.8423 15.5699 94.1847 16.6396 94.1143C17.3815 94.0657 18.0639 93.8243 18.6451 93.445C20.577 96.7228 23.3488 99.3564 26.1995 101.425C24.8315 102.885 24.0466 104.885 24.1879 107.039C24.3202 109.055 25.2395 110.831 26.6253 112.09L26.1126 116.808Z" fill="#003DD0"/>
</g>
<path d="M104.999 54.1808C104.999 35.3066 89.2631 20.1078 70.1952 20.9875C53.2712 21.7685 39.7177 35.042 38.6127 51.9477C37.4893 69.1331 49.4414 83.739 65.4897 86.8097L69.9203 92.3246C70.8696 93.5063 72.6687 93.5063 73.6183 92.3246L78.0489 86.8097C93.397 83.8732 104.999 70.3853 104.999 54.1808Z" fill="#B6F6BE"/>
<path d="M38.6421 51.5627C42.5978 52.217 46.7527 51.376 50.1965 49.0385L53.1843 49.3642C54.1049 49.4646 54.8819 48.6874 54.7815 47.767L54.4558 44.7792C58.2874 39.1344 58.0996 31.5787 53.8906 26.123C45.3372 31.5591 39.4682 40.8068 38.6421 51.5627Z" fill="#7AEE90"/>
<path d="M83.285 71.4883H60.2532C59.5195 71.4883 58.925 70.8938 58.925 70.1602C58.925 69.4265 59.5195 68.832 60.2532 68.832H83.285C84.0186 68.832 84.6131 69.4265 84.6131 70.1602C84.6131 70.8938 84.0186 71.4883 83.285 71.4883Z" fill="#3E89F0"/>
<path d="M83.285 76.7344H60.2532C59.5195 76.7344 58.925 76.1399 58.925 75.4062C58.925 74.6726 59.5195 74.0781 60.2532 74.0781H83.285C84.0186 74.0781 84.6131 74.6726 84.6131 75.4062C84.6131 76.1399 84.0186 76.7344 83.285 76.7344Z" fill="#3E89F0"/>
<path d="M83.0436 66.2441H69.8508C69.1172 66.2441 68.5227 65.6497 68.5227 64.916C68.5227 64.1824 69.1172 63.5879 69.8508 63.5879H83.0436C83.7773 63.5879 84.3718 64.1824 84.3718 64.916C84.3718 65.6497 83.777 66.2441 83.0436 66.2441Z" fill="#3E89F0"/>
<path d="M16.3665 87.2168C18.6738 87.2168 20.5442 85.3464 20.5442 83.0391C20.5442 80.7318 18.6738 78.8613 16.3665 78.8613C14.0592 78.8613 12.1887 80.7318 12.1887 83.0391C12.1887 85.3464 14.0592 87.2168 16.3665 87.2168Z" fill="#3E89F0"/>
<path d="M26.2649 117.809L20.5779 115.804C19.5977 115.459 18.9682 114.502 19.0386 113.466L19.2341 110.586C19.3377 109.059 20.8682 108.052 22.3116 108.561L27.304 110.32C27.7229 110.468 27.992 110.877 27.962 111.32L27.5803 116.943C27.5356 117.596 26.8814 118.026 26.2649 117.809Z" fill="#3E89F0"/>
<path d="M47.9399 122.998C44.6568 122.565 41.3737 122.135 38.0932 121.681C34.3293 118.305 30.5547 120.587 30.5547 120.587V120.589C28.7166 120.308 26.8812 120.013 25.0483 119.702L26.8068 103.51L42.3272 102.492C42.7921 109.595 45.7405 117.763 47.9399 122.998Z" fill="#00AC1F"/>
<path d="M42.327 102.492L26.8068 103.51L25.9509 111.395C27.4336 113.14 29.6941 114.185 32.1543 114.024C34.575 113.865 36.6503 112.573 37.8998 110.699C40.0455 111.964 42.4531 113.213 44.6376 113.956C43.496 110.225 42.5708 106.213 42.327 102.492Z" fill="#26DD45"/>
<path d="M38.0934 121.682C35.5779 121.334 33.0651 120.973 30.5549 120.588C30.9321 118.277 31.1579 116.069 31.2774 114.021C31.3385 113.833 32.502 110.515 37.4904 111.251V111.246C37.7879 114.986 37.9738 118.606 38.0934 121.682Z" fill="#4AE767"/>
<path d="M36.6363 102.865L31.0178 103.234C31.2898 105.668 31.544 109.462 31.2757 114.029C31.5653 114.044 31.8583 114.043 32.1544 114.024C34.3288 113.881 36.2222 112.822 37.4911 111.251C37.2712 108.465 36.992 105.612 36.6363 102.865Z" fill="#00AC1F"/>
<path d="M34.4993 118.678C35.2328 118.678 35.8274 118.083 35.8274 117.35C35.8274 116.616 35.2328 116.021 34.4993 116.021C33.7658 116.021 33.1711 116.616 33.1711 117.35C33.1711 118.083 33.7658 118.678 34.4993 118.678Z" fill="#008B1A"/>
<path d="M49.9099 58.9562C49.9099 58.9562 24.2755 48.264 17.234 69.7584C10.3015 90.9197 34.957 99.3782 37.8396 100.639L49.9099 58.9562Z" fill="#26DD45"/>
<path d="M25.939 89.7891C26.6725 89.7891 27.2671 89.1944 27.2671 88.4609C27.2671 87.7274 26.6725 87.1328 25.939 87.1328C25.2055 87.1328 24.6108 87.7274 24.6108 88.4609C24.6108 89.1944 25.2055 89.7891 25.939 89.7891Z" fill="#008B1A"/>
<path d="M37.9575 62.1641C38.691 62.1641 39.2856 61.5694 39.2856 60.8359C39.2856 60.1024 38.691 59.5078 37.9575 59.5078C37.224 59.5078 36.6294 60.1024 36.6294 60.8359C36.6294 61.5694 37.224 62.1641 37.9575 62.1641Z" fill="#008B1A"/>
<path d="M31.6641 107.133C35.8021 107.133 39.1566 103.779 39.1566 99.6409C39.1566 95.5029 35.8021 92.1484 31.6641 92.1484C27.5261 92.1484 24.1716 95.5029 24.1716 99.6409C24.1716 103.779 27.5261 107.133 31.6641 107.133Z" fill="#9EAFFD"/>
<path d="M39.1399 99.1497L31.6647 99.64L31.1743 92.1648C35.3027 91.8939 38.8692 95.0216 39.1399 99.1497Z" fill="#3E89F0"/>
<path d="M24.1885 100.131L31.6637 99.6406L32.154 107.116C28.026 107.387 24.4594 104.259 24.1885 100.131Z" fill="#3E89F0"/>
<path d="M31.6642 103.182C33.6206 103.182 35.2066 101.596 35.2066 99.64C35.2066 97.6836 33.6206 96.0977 31.6642 96.0977C29.7078 96.0977 28.1218 97.6836 28.1218 99.64C28.1218 101.596 29.7078 103.182 31.6642 103.182Z" fill="#D1DDFF"/>
<path d="M34.8407 97.1461C33.3062 98.534 33.4669 100.991 35.2014 102.119C40.124 105.32 48.6027 110.059 50.8804 106.414C55.3753 99.2207 57.9222 96.388 57.9222 96.388L61.0767 95.0809C62.1153 94.6506 62.6776 93.5204 62.3942 92.4326L60.576 85.4477C60.3646 84.6357 60.3582 83.7841 60.5463 82.9665C63.9078 68.3434 58.0977 61.8637 53.9335 59.1883C51.6218 57.7032 48.697 57.5608 46.2966 58.8975C42.4588 61.0344 37.2472 66.3382 37.4154 79.3671C37.4154 79.3673 44.5046 88.4047 34.8407 97.1461Z" fill="#B6F6BE"/>
<path d="M48.3623 66.1465C49.0958 66.1465 49.6904 65.5519 49.6904 64.8184C49.6904 64.0849 49.0958 63.4902 48.3623 63.4902C47.6288 63.4902 47.0342 64.0849 47.0342 64.8184C47.0342 65.5519 47.6288 66.1465 48.3623 66.1465Z" fill="#003DD0"/>
<path d="M51.8311 70.1621C52.5646 70.1621 53.1592 69.5675 53.1592 68.834C53.1592 68.1005 52.5646 67.5059 51.8311 67.5059C51.0976 67.5059 50.5029 68.1005 50.5029 68.834C50.5029 69.5675 51.0976 70.1621 51.8311 70.1621Z" fill="#003DD0"/>
<path d="M53.4827 75.0488C54.2162 75.0488 54.8108 74.4542 54.8108 73.7207C54.8108 72.9872 54.2162 72.3926 53.4827 72.3926C52.7492 72.3926 52.1545 72.9872 52.1545 73.7207C52.1545 74.4542 52.7492 75.0488 53.4827 75.0488Z" fill="#003DD0"/>
<path d="M37.6827 88.5695C44.113 88.5695 49.3258 83.3567 49.3258 76.9263C49.3258 70.496 44.113 65.2832 37.6827 65.2832C31.2524 65.2832 26.0396 70.496 26.0396 76.9263C26.0396 83.3567 31.2524 88.5695 37.6827 88.5695Z" fill="#008B1A"/>
<path d="M49.2998 76.1633L37.6832 76.9251L36.9214 65.3086C43.3365 64.8881 48.879 69.7485 49.2998 76.1633Z" fill="#7AEE90"/>
<path d="M26.0654 77.6895L37.682 76.9277L38.4438 88.5443C32.0287 88.9651 26.4862 84.1047 26.0654 77.6895Z" fill="#7AEE90"/>
<path d="M37.6827 83.3776C41.2458 83.3776 44.1342 80.4892 44.1342 76.9261C44.1342 73.363 41.2458 70.4746 37.6827 70.4746C34.1196 70.4746 31.2312 73.363 31.2312 76.9261C31.2312 80.4892 34.1196 83.3776 37.6827 83.3776Z" fill="#D1DDFF"/>
<path d="M37.6826 79.8878C39.3182 79.8878 40.6441 78.5619 40.6441 76.9263C40.6441 75.2907 39.3182 73.9648 37.6826 73.9648C36.0471 73.9648 34.7212 75.2907 34.7212 76.9263C34.7212 78.5619 36.0471 79.8878 37.6826 79.8878Z" fill="#00AC1F"/>
<path d="M44.3994 96.5956L42.3031 95.6138C41.6858 95.3248 41.4197 94.5901 41.7089 93.9728C41.9979 93.3555 42.7326 93.0893 43.35 93.3786L45.4463 94.3604C46.0636 94.6494 46.3297 95.3841 46.0405 96.0014C45.7515 96.6184 45.0165 96.8846 44.3994 96.5956Z" fill="#00AC1F"/>
<path d="M42.7031 100.217L40.6068 99.2349C39.9895 98.9459 39.7234 98.2112 40.0126 97.5939C40.3016 96.9766 41.0364 96.7104 41.6537 96.9997L43.75 97.9814C44.3673 98.2704 44.6334 99.0052 44.3442 99.6225C44.0552 100.24 43.3205 100.506 42.7031 100.217Z" fill="#00AC1F"/>
<path d="M13.1426 94.3502C13.3544 91.8065 11.9319 89.6116 9.96543 89.4479C7.99896 89.2842 6.23315 91.2136 6.02138 93.7574C5.80961 96.3012 7.23208 98.496 9.19856 98.6597C11.165 98.8234 12.9308 96.894 13.1426 94.3502Z" fill="#00AC1F"/>
<path d="M116.907 100.654C118.571 94.285 124.972 84.1328 123.161 73.8696C119.275 51.8495 92.3914 60.9286 92.3914 60.9286C92.3914 60.9286 78.7 64.7719 82.5675 85.5072C82.7139 86.2892 82.6616 87.0969 82.4262 87.8574L80.4 94.464C80.1116 95.4046 80.5599 96.4116 81.4511 96.8254L84.0226 98.0239C84.3411 98.1716 84.6131 98.4011 84.8113 98.6899C85.4164 99.5675 86.9384 101.897 89.8324 107.003C90.9663 109.005 94.0949 108.542 97.4601 107.251L94.9597 120.426L117.629 117.125C117.132 114.874 115.432 106.307 116.907 100.654Z" fill="#E5F0FF"/>
<path d="M80.0706 81.318C81.2186 81.1318 83.6438 80.7782 87.659 80.3737C88.0853 80.3307 88.4367 80.0167 88.5249 79.5973L89.3534 75.6615C89.4315 75.2904 89.9375 75.2336 90.0961 75.5781L91.8274 79.3388C92.0001 79.7139 92.3876 79.9415 92.7991 79.9081C94.6178 79.7606 96.6411 79.6111 98.8827 79.4663C111.011 78.683 107.311 99.4108 105.739 107.312C105.558 108.227 106.628 108.86 107.34 108.256C113.51 103.016 131.883 86.9461 129.925 77.9411C126.156 61.5446 118.861 54.1042 112.509 53.0159C104.208 51.5932 93.0065 54.6354 87.7936 58.2368C84.9174 60.225 74.9087 68.4025 78.9823 80.6614C79.1343 81.1172 79.5964 81.395 80.0706 81.318Z" fill="#3E89F0"/>
<path d="M118.661 90.9229C118.374 90.9229 118.085 90.8302 117.842 90.6394C117.265 90.1865 117.164 89.3517 117.617 88.7748C122.66 82.3506 123.038 80.0399 123.034 79.4848C123.029 78.7339 122.644 77.1664 121.978 75.1846C121.745 74.4892 122.119 73.7361 122.814 73.5026C123.509 73.2702 124.262 73.6434 124.496 74.3388C125.28 76.675 125.682 78.3997 125.69 79.4651C125.696 80.2801 125.715 82.7607 119.706 90.4147C119.444 90.7483 119.055 90.9229 118.661 90.9229Z" fill="#BCD7FF"/>
<path d="M83.0435 77.3303C82.3098 77.3303 81.7153 76.7358 81.7153 76.0022C81.7153 71.2145 82.7847 68.7984 83.9766 66.5483C84.3201 65.9002 85.1244 65.6537 85.772 65.9961C86.4201 66.3395 86.6674 67.143 86.3242 67.7914C85.4091 69.5196 84.3716 71.478 84.3716 76.0022C84.3716 76.7358 83.7768 77.3303 83.0435 77.3303Z" fill="#BCD7FF"/>
<path d="M101.212 81.6474C101.212 81.6474 103.155 76.3245 107.819 78.7258C112.943 81.3637 108.85 93.3737 103.624 94.519" fill="#E5F0FF"/>
<path d="M88.1744 89.2283C87.5329 89.2283 86.9685 88.7623 86.8643 88.1086C86.6877 87.0007 86.9533 85.8901 87.6118 84.982C88.2703 84.0735 89.2436 83.4761 90.3515 83.2998C91.4578 83.1223 92.5694 83.3882 93.4781 84.047C94.3863 84.7055 94.9837 85.6787 95.1604 86.7864C95.2759 87.5107 94.7824 88.1915 94.058 88.3071C93.3331 88.4234 92.6529 87.9288 92.5373 87.2047C92.4032 86.3637 91.6073 85.7905 90.7696 85.9228C90.3621 85.9876 90.0043 86.2073 89.7623 86.5412C89.5201 86.8751 89.4226 87.2833 89.4874 87.6908C89.6029 88.4152 89.1091 89.0957 88.3848 89.2113C88.3144 89.2227 88.2437 89.2283 88.1744 89.2283Z" fill="#4369FC"/>
<path d="M63.1509 38.5547C64.6179 38.5547 65.8071 37.3654 65.8071 35.8984C65.8071 34.4314 64.6179 33.2422 63.1509 33.2422C61.6839 33.2422 60.4946 34.4314 60.4946 35.8984C60.4946 37.3654 61.6839 38.5547 63.1509 38.5547Z" fill="#4AE767"/>
<path d="M71.769 38.5547C73.236 38.5547 74.4253 37.3654 74.4253 35.8984C74.4253 34.4314 73.236 33.2422 71.769 33.2422C70.302 33.2422 69.1128 34.4314 69.1128 35.8984C69.1128 37.3654 70.302 38.5547 71.769 38.5547Z" fill="#4AE767"/>
<path d="M80.3872 38.5547C81.8542 38.5547 83.0435 37.3654 83.0435 35.8984C83.0435 34.4314 81.8542 33.2422 80.3872 33.2422C78.9202 33.2422 77.731 34.4314 77.731 35.8984C77.731 37.3654 78.9202 38.5547 80.3872 38.5547Z" fill="#4AE767"/>
<path d="M83.285 51.4453H60.2532C59.5195 51.4453 58.925 50.8508 58.925 50.1172C58.925 49.3835 59.5195 48.7891 60.2532 48.7891H83.285C84.0186 48.7891 84.6131 49.3835 84.6131 50.1172C84.6131 50.8508 84.0186 51.4453 83.285 51.4453Z" fill="#3E89F0"/>
<path d="M83.285 56.6914H60.2532C59.5195 56.6914 58.925 56.0969 58.925 55.3633C58.925 54.6296 59.5195 54.0352 60.2532 54.0352H83.285C84.0186 54.0352 84.6131 54.6296 84.6131 55.3633C84.6131 56.0969 84.0186 56.6914 83.285 56.6914Z" fill="#3E89F0"/>
<path d="M71.7691 46.2012H60.2532C59.5195 46.2012 58.925 45.6067 58.925 44.873C58.925 44.1394 59.5195 43.5449 60.2532 43.5449H71.7691C72.5027 43.5449 73.0972 44.1394 73.0972 44.873C73.0972 45.6067 72.5027 46.2012 71.7691 46.2012Z" fill="#3E89F0"/>
<path d="M52.53 17.668C46.1289 11.267 35.6378 11.449 29.4695 18.2142C24.0138 24.1976 23.9538 33.4661 29.3374 39.5144C34.7926 45.6429 43.7439 46.5131 50.1965 42.1329L53.1842 42.4586C54.1049 42.559 54.8818 41.7818 54.7817 40.8611L54.456 37.8733C58.6651 31.6726 58.0255 23.1636 52.53 17.668Z" fill="#00AC1F"/>
<path d="M39.3909 23.5156C38.6572 23.5156 38.0628 24.1101 38.0628 24.8438V27.6092H35.3459V24.8438C35.3459 24.1101 34.7515 23.5156 34.0178 23.5156C33.2842 23.5156 32.6897 24.1101 32.6897 24.8438V33.0308C32.6897 33.7645 33.2842 34.359 34.0178 34.359C34.7515 34.359 35.3459 33.7645 35.3459 33.0308V30.2654H38.0628V33.0308C38.0628 33.7645 38.6572 34.359 39.3909 34.359C40.1245 34.359 40.719 33.7645 40.719 33.0308V24.8438C40.719 24.1104 40.1245 23.5156 39.3909 23.5156Z" fill="white"/>
<path d="M43.8123 34.3592C43.0786 34.3592 42.4841 33.7648 42.4841 33.0311V24.8438C42.4841 24.1101 43.0786 23.5156 43.8123 23.5156C44.5459 23.5156 45.1404 24.1101 45.1404 24.8438V33.0308C45.1404 33.7645 44.5459 34.3592 43.8123 34.3592Z" fill="white"/>
<path d="M48.5161 30.0558C47.7825 30.0558 47.188 29.4614 47.188 28.7277V24.8438C47.188 24.1101 47.7825 23.5156 48.5161 23.5156C49.2498 23.5156 49.8442 24.1101 49.8442 24.8438V28.7277C49.8442 29.4614 49.2498 30.0558 48.5161 30.0558Z" fill="white"/>
<path d="M48.5161 34.3598C47.7825 34.3598 47.188 33.7653 47.188 33.0317V32.625C47.188 31.8913 47.7825 31.2969 48.5161 31.2969C49.2498 31.2969 49.8442 31.8913 49.8442 32.625V33.0317C49.8442 33.7651 49.2498 34.3598 48.5161 34.3598Z" fill="white"/>
<path d="M16.01 49.5218C15.2764 49.5218 14.6819 48.9273 14.6819 48.1936C14.6819 47.388 14.0263 46.7327 13.2209 46.7327C12.4873 46.7327 11.8928 46.1382 11.8928 45.4046C11.8928 44.6709 12.4873 44.0764 13.2209 44.0764C14.0263 44.0764 14.6819 43.4209 14.6819 42.6152C14.6819 41.8816 15.2764 41.2871 16.01 41.2871C16.7437 41.2871 17.3381 41.8816 17.3381 42.6152C17.3381 43.4209 17.9937 44.0764 18.7991 44.0764C19.5327 44.0764 20.1272 44.6709 20.1272 45.4046C20.1272 46.1382 19.5327 46.7327 18.7991 46.7327C17.9937 46.7327 17.3381 47.388 17.3381 48.1936C17.3381 48.9273 16.7437 49.5218 16.01 49.5218Z" fill="#00AC1F"/>
<path d="M115.336 45.5918C113.139 45.5918 111.352 43.8044 111.352 41.6074C111.352 39.4104 113.139 37.623 115.336 37.623C117.533 37.623 119.321 39.4104 119.321 41.6074C119.321 43.8044 117.533 45.5918 115.336 45.5918ZM115.336 40.2793C114.604 40.2793 114.008 40.8751 114.008 41.6074C114.008 42.3397 114.604 42.9355 115.336 42.9355C116.069 42.9355 116.665 42.3397 116.665 41.6074C116.665 40.8751 116.069 40.2793 115.336 40.2793Z" fill="#003DD0"/>
<path d="M59.3687 13.7363C57.1717 13.7363 55.3843 11.9489 55.3843 9.75195C55.3843 7.55497 57.1717 5.76758 59.3687 5.76758C61.5656 5.76758 63.353 7.55497 63.353 9.75195C63.353 11.9489 61.5656 13.7363 59.3687 13.7363ZM59.3687 8.42383C58.6363 8.42383 58.0405 9.01962 58.0405 9.75195C58.0405 10.4843 58.6363 11.0801 59.3687 11.0801C60.101 11.0801 60.6968 10.4843 60.6968 9.75195C60.6968 9.01962 60.101 8.42383 59.3687 8.42383Z" fill="#003DD0"/>
<path d="M63.1509 121.256C60.9539 121.256 59.1665 119.468 59.1665 117.271C59.1665 115.075 60.9539 113.287 63.1509 113.287C65.3479 113.287 67.1353 115.075 67.1353 117.271C67.1353 119.468 65.3481 121.256 63.1509 121.256ZM63.1509 115.943C62.4186 115.943 61.8228 116.539 61.8228 117.271C61.8228 118.004 62.4186 118.6 63.1509 118.6C63.8832 118.6 64.479 118.004 64.479 117.271C64.479 116.539 63.8832 115.943 63.1509 115.943Z" fill="#003DD0"/>
<path d="M110.683 28.959C109.949 28.959 109.354 28.3645 109.354 27.6309C109.354 26.8255 108.699 26.1699 107.894 26.1699C107.16 26.1699 106.565 25.5755 106.565 24.8418C106.565 24.1081 107.16 23.5137 107.894 23.5137C108.699 23.5137 109.354 22.8581 109.354 22.0527C109.354 21.3191 109.949 20.7246 110.683 20.7246C111.416 20.7246 112.011 21.3191 112.011 22.0527C112.011 22.8581 112.666 23.5137 113.472 23.5137C114.205 23.5137 114.8 24.1081 114.8 24.8418C114.8 25.5755 114.205 26.1699 113.472 26.1699C112.666 26.1699 112.011 26.8255 112.011 27.6309C112.011 28.3645 111.416 28.959 110.683 28.959Z" fill="#00AC1F"/>
<path d="M118.557 99.7701C120.056 98.2613 121.433 96.799 122.676 95.3907C129.373 87.8071 132.168 82.0072 131.219 77.6448C127.808 62.8028 120.898 53.1066 112.734 51.7079C104.192 50.2421 92.5514 53.3369 87.0389 57.1452C85.6701 58.0914 82.2101 60.741 79.651 64.9028C76.5042 70.0195 75.8555 75.4627 77.7223 81.0812C78.0815 82.161 79.1591 82.8123 80.2837 82.6298C80.4272 82.6064 80.5961 82.5799 80.7876 82.5507C80.8679 83.2859 80.9664 84.002 81.078 84.6924C80.0011 85.0202 78.9025 85.2956 77.7991 85.5065C77.4896 85.566 77.211 85.7334 77.0136 85.9791L72.5827 91.494C72.3102 91.8332 71.9561 91.8839 71.7694 91.8839C71.5824 91.8839 71.2283 91.8335 70.9558 91.494L66.5249 85.9791C66.3275 85.7334 66.0489 85.5658 65.7392 85.5065C64.3957 85.2494 63.0617 84.8974 61.7593 84.4677C61.7269 84.0692 61.7498 83.6631 61.8409 83.2662C63.3889 76.5316 63.2041 70.7542 61.291 66.0946C59.5597 61.8778 56.7252 59.4049 54.6517 58.073C52.62 56.7678 50.2068 56.36 47.9545 56.8642C46.0635 56.2737 43.1834 55.5238 39.8856 55.1719C39.854 54.1314 39.87 53.0801 39.9382 52.0356C40.0679 50.0536 40.381 48.0877 40.8682 46.1778C41.0106 46.1813 41.1529 46.189 41.2953 46.189C44.4868 46.189 47.6961 45.3105 50.5276 43.5056L53.0407 43.7798C53.8796 43.8714 54.7064 43.5813 55.3046 42.9831C55.9028 42.385 56.194 41.5597 56.1023 40.7182L55.8282 38.2051C58.3306 34.2813 59.0632 29.6347 58.1327 25.3047C61.9341 23.5176 66.0091 22.5117 70.2569 22.3157C85.6422 21.6038 99.3479 31.9478 102.837 46.907C102.98 47.52 103.526 47.9336 104.129 47.9336C104.229 47.9336 104.33 47.9222 104.432 47.8985C105.146 47.732 105.59 47.018 105.423 46.3035C101.644 30.0971 86.7966 18.8957 70.1342 19.6618C65.6704 19.8679 61.3821 20.9015 57.3683 22.7322C56.5231 20.5331 55.2202 18.4803 53.4692 16.7296C50.1016 13.3614 45.6277 11.5616 40.8605 11.6771C36.1 11.7868 31.706 13.7907 28.4882 17.3198C25.6274 20.4571 24.0374 24.5453 24.0106 28.8322C23.9837 33.12 25.523 37.2273 28.3456 40.3981C30.9997 43.38 34.4996 45.2388 38.2 45.9061C37.7272 47.8531 37.4188 49.8498 37.2873 51.8622C37.2193 52.9024 37.1975 53.9495 37.2209 54.9873C35.5366 54.9365 33.7903 55.0128 32.0465 55.2818C24.145 56.5011 18.5862 61.3644 15.9712 69.3464C15.0149 72.2651 14.5989 75.0887 14.7094 77.7954C12.3488 78.5418 10.703 80.8222 10.872 83.4004C10.9147 84.0533 11.0754 84.6693 11.3235 85.2369C10.7585 86.1236 10.236 87.0843 9.78129 88.0674C7.3394 87.916 5.07256 88.5692 4.65553 93.6089C4.27701 98.1861 5.9972 99.4455 8.14079 99.8264C9.52842 105.985 14.5238 110.323 17.7686 112.564L17.7134 113.378C17.6032 115.004 18.5995 116.517 20.1364 117.059L23.8581 118.37L23.7287 119.561C23.6496 120.29 24.1766 120.946 24.9057 121.025C24.9546 121.03 25.0029 121.033 25.0507 121.033C25.7201 121.033 26.2957 120.528 26.3696 119.848L27.707 107.528C28.923 108.141 30.2663 108.464 31.6515 108.464C31.8473 108.464 32.0444 108.457 32.2415 108.444C34.5649 108.292 36.7029 107.24 38.2364 105.525C39.4301 106.2 40.5553 106.782 41.6072 107.264C42.7116 113.26 44.9801 119.384 46.7154 123.515C46.929 124.023 47.4214 124.328 47.9402 124.328C48.1118 124.328 48.2863 124.295 48.4542 124.224C49.1305 123.94 49.4484 123.162 49.1642 122.486C47.639 118.855 45.6895 113.647 44.5468 108.417C45.8845 108.841 47.0681 109.058 48.0876 109.058C48.5498 109.058 48.9793 109.015 49.3754 108.927C50.5157 108.675 51.426 108.049 52.0072 107.119C55.6938 101.22 58.0655 98.2783 58.7235 97.4955L61.5851 96.3095C63.2269 95.6298 64.1274 93.8201 63.6801 92.0996L62.4733 87.4644C63.2288 87.6748 63.9908 87.8608 64.7566 88.0188L68.885 93.1573C69.5908 94.036 70.6421 94.5396 71.7691 94.5396C72.8959 94.5396 73.9473 94.036 74.653 93.1573L78.7814 88.0188C79.5812 87.8536 80.3773 87.656 81.1646 87.4339C81.1614 87.4451 81.1598 87.4565 81.1563 87.4676L79.1301 94.074C78.6496 95.6396 79.4069 97.3401 80.8899 98.0289L83.4638 99.229C83.5658 99.2763 83.6529 99.3493 83.7175 99.4439C84.2299 100.187 85.7384 102.474 88.6764 107.657C89.8107 109.659 92.18 110.181 95.7344 109.219L93.6548 120.179C93.518 120.899 93.9913 121.594 94.7117 121.731C94.7954 121.747 94.8788 121.755 94.9609 121.755C95.5861 121.755 96.1432 121.311 96.264 120.674L98.6273 108.22L102.381 106.749C103.064 106.481 103.4 105.71 103.133 105.027C102.865 104.344 102.094 104.008 101.411 104.276L96.9825 106.012C93.7523 107.251 91.5675 107.373 90.9871 106.348C88.1043 101.262 86.565 98.8948 85.906 97.9394C85.5737 97.4546 85.1149 97.0673 84.5832 96.8205L82.0098 95.621C81.7224 95.4876 81.5757 95.1577 81.6693 94.8536L83.6944 88.2504C83.9951 87.2796 84.0564 86.2463 83.8723 85.264C83.6721 84.1898 83.523 83.1669 83.4155 82.1878C84.5805 82.0409 86.0311 81.8736 87.7908 81.6961C88.7981 81.5952 89.6152 80.8621 89.8239 79.8721L90.0707 78.7007L90.6203 79.8944C91.0243 80.7734 91.9439 81.3136 92.9057 81.2329C94.8732 81.0735 96.9127 80.9256 98.9678 80.7927C99.3737 80.767 99.7588 80.7704 100.126 80.7991C100.038 80.9954 99.9838 81.1367 99.9631 81.1938C99.7116 81.8829 100.066 82.6455 100.755 82.8968C101.444 83.1488 102.206 82.7942 102.458 82.1049C102.64 81.6058 103.437 80.0726 104.667 79.5921C105.404 79.3036 106.236 79.4075 107.21 79.9085C109.061 80.8615 108.908 83.6655 108.756 84.8268C108.239 88.7806 105.708 92.7044 103.338 93.2237C102.622 93.3807 102.168 94.0889 102.325 94.8053C102.461 95.426 103.011 95.8494 103.621 95.8494C103.715 95.8494 103.811 95.8393 103.907 95.8184C104.655 95.6545 105.398 95.3129 106.113 94.8177C105.928 98.2746 105.37 102.354 104.435 107.055C104.241 108.035 104.672 108.995 105.532 109.501C105.902 109.719 106.306 109.826 106.708 109.826C107.239 109.826 107.766 109.638 108.2 109.27C110.701 107.145 113.016 105.081 115.139 103.088C114.558 108.65 115.857 115.267 116.33 117.413C116.488 118.129 117.198 118.581 117.914 118.423C118.63 118.265 119.082 117.556 118.924 116.84C118.552 115.152 116.765 106.456 118.191 100.991C118.293 100.604 118.419 100.193 118.557 99.7701ZM30.3295 38.6322C25.4325 33.1306 25.4858 24.5551 30.4506 19.1098C33.1749 16.1221 36.8936 14.4255 40.9216 14.3328C41.0382 14.3302 41.1543 14.3286 41.2703 14.3286C45.1702 14.3286 48.8237 15.8403 51.5909 18.6075C56.5395 23.5564 57.2825 31.3453 53.3571 37.1282C53.1799 37.3891 53.1013 37.7046 53.1355 38.0183L53.4615 41.0058C53.4631 41.0202 53.4676 41.0635 53.4267 41.1046C53.3852 41.1455 53.3419 41.1408 53.3284 41.1392L50.3406 40.8133C50.0272 40.7793 49.7116 40.8576 49.4505 41.0348C43.4158 45.1315 35.1955 44.0988 30.3295 38.6322ZM18.4959 70.1736C20.8114 63.1058 25.5068 58.9785 32.4519 57.907C36.721 57.2483 41.0549 57.8592 44.2661 58.6109C42.3092 59.9879 40.6719 61.8154 39.3825 64.0674C38.5525 63.9582 37.7003 63.9269 36.8336 63.9843C35.2213 64.09 33.662 64.4897 32.1992 65.1729C31.5347 65.4832 31.2475 66.2734 31.5578 66.9383C31.868 67.6031 32.658 67.8905 33.3231 67.5798C34.486 67.0371 35.7257 66.7191 37.0076 66.6349C42.679 66.2622 47.6031 70.5771 47.9755 76.2527C48.1559 79.0022 47.2546 81.6571 45.438 83.7287C43.6214 85.8003 41.1067 87.0405 38.3575 87.2206C32.6885 87.5965 27.762 83.2785 27.3898 77.6028C27.2345 75.2375 27.8712 72.9603 29.2309 71.0183C29.6516 70.4174 29.5055 69.5892 28.9044 69.1687C28.3041 68.7482 27.4756 68.8938 27.0549 69.4952C25.369 71.9028 24.5469 74.8443 24.7392 77.7768C25.1883 84.6268 30.9046 89.9002 37.6735 89.8997C37.8398 89.8997 38.0082 89.8896 38.1758 89.8832C37.9041 90.8081 37.5006 91.7136 36.9648 92.5963C35.2895 91.3351 33.211 90.7021 31.0871 90.8421C29.1956 90.9662 27.4825 91.6828 26.113 92.7963C18.1572 86.6391 15.5937 79.0324 18.4959 70.1736ZM15.0112 80.5372C15.3422 82.3743 15.9308 84.15 16.7752 85.8561C16.7014 85.8667 16.6283 85.8787 16.5529 85.8837C15.7924 85.9344 15.0598 85.6845 14.4876 85.1827C13.9155 84.6807 13.5728 83.9861 13.5229 83.2267C13.448 82.0826 14.0642 81.052 15.0112 80.5372ZM7.30328 93.828C7.52693 91.1248 8.07333 90.6913 9.09173 90.6913C9.30901 90.6913 9.54834 90.7109 9.80998 90.7327C11.2985 90.8559 12.0457 90.9178 11.7743 94.198C11.5031 97.4785 10.7559 97.4166 9.26731 97.2931C7.77875 97.1701 7.03181 97.1082 7.30328 93.828ZM14.3354 105.998C12.6418 104.036 11.4909 101.988 10.8993 99.8983C12.6652 99.5945 14.0985 98.3224 14.4218 94.4172C14.7062 90.9795 13.8063 89.4139 12.4328 88.6855C12.6397 88.2664 12.8602 87.857 13.0902 87.4573C14.0108 88.1413 15.1453 88.5461 16.3624 88.5461C16.483 88.5461 16.6047 88.5421 16.7263 88.5341C17.2132 88.5022 17.694 88.4026 18.1541 88.2451C19.6995 90.5741 21.7562 92.7557 24.32 94.7665C23.2843 96.3222 22.7308 98.2156 22.8623 100.22C22.9977 102.285 23.8331 104.196 25.2348 105.682L24.9732 108.092L22.752 107.31C21.6693 106.928 20.4982 107.071 19.5393 107.702C18.8625 108.148 18.3721 108.789 18.1121 109.529C16.9202 108.614 15.5711 107.43 14.3354 105.998ZM21.0191 114.554C20.6034 114.407 20.3335 113.997 20.3633 113.558L20.5588 110.678C20.5797 110.368 20.741 110.092 21.0002 109.921C21.26 109.75 21.5769 109.712 21.8694 109.815L24.6789 110.805L24.1521 115.658L21.0191 114.554ZM32.0675 105.794C30.4243 105.903 28.8383 105.363 27.6002 104.278C26.3621 103.192 25.621 101.689 25.5135 100.046C25.2909 96.6545 27.8693 93.7143 31.2611 93.4917C32.7486 93.3951 34.2055 93.8394 35.3785 94.7253C34.9447 95.213 34.4701 95.6927 33.95 96.1629C32.9002 97.1125 32.3621 98.4624 32.4739 99.8662C32.5839 101.25 33.3143 102.477 34.4778 103.234C34.9586 103.546 35.4269 103.842 35.8893 104.129C34.8552 105.105 33.5133 105.699 32.0675 105.794ZM60.5683 93.8562L57.4137 95.1633C57.2307 95.239 57.0668 95.3551 56.9342 95.5023C56.8272 95.6213 54.2586 98.5041 49.7541 105.712C49.548 106.042 49.254 106.234 48.8008 106.334C47.7505 106.566 44.3912 106.513 35.9252 101.007C35.4585 100.703 35.1655 100.211 35.1211 99.6561C35.0754 99.0805 35.2978 98.5253 35.7315 98.1333C38.6252 95.5158 40.3975 92.6024 41.0092 89.4675C43.4843 88.8165 45.71 87.4466 47.4347 85.4794C49.7191 82.8744 50.8522 79.5358 50.6257 76.0784C50.2782 70.7837 46.7821 66.4317 42.0869 64.7288C43.372 62.71 44.9997 61.1418 46.9425 60.0599C48.8871 58.9764 51.2913 59.0713 53.2155 60.308C61.6887 65.7515 60.6344 76.6556 59.2516 82.6712C59.026 83.6527 59.0306 84.6759 59.2579 85.6409C59.2704 85.7347 59.2927 85.8253 59.3243 85.9135L61.1091 92.769C61.2246 93.2134 60.9922 93.6806 60.5683 93.8562ZM107.231 106.606C108.34 100.815 108.868 95.9525 108.822 91.9657C108.863 91.9049 108.905 91.8459 108.945 91.7838C110.204 89.8405 111.096 87.4299 111.391 85.1705C111.865 81.5397 110.785 78.7607 108.427 77.5468C106.759 76.6883 105.169 76.5433 103.701 77.1181C102.935 77.4172 102.305 77.8772 101.792 78.3814C101.09 78.2079 100.342 78.1176 99.5447 78.1176C99.3001 78.1176 99.0509 78.1259 98.7975 78.1423C96.812 78.2704 94.8408 78.413 92.9336 78.5663L91.3027 75.0244C90.9916 74.3481 90.2859 73.95 89.5464 74.0331C88.8069 74.1163 88.2071 74.6616 88.0541 75.3894L87.2774 79.0789C83.6543 79.4481 81.3444 79.7746 80.1517 79.9616C76.5042 68.3769 86.4943 60.7511 88.5489 59.331C93.5259 55.8928 104.499 52.9922 112.285 54.3261C120.613 55.7531 126.189 67.6148 128.627 78.2249C129.799 83.6102 122.009 93.9311 107.231 106.606Z" fill="#003DD0"/>
</g>
<defs>
<linearGradient id="paint0_linear_466_7722" x1="18.7236" y1="118.019" x2="111.481" y2="25.2617" gradientUnits="userSpaceOnUse">
<stop offset="0.274038" stop-color="#7FB3FF" stop-opacity="0"/>
<stop offset="0.942308" stop-color="#003DD0"/>
</linearGradient>
<clipPath id="clip0_466_7722">
<rect width="136" height="136" fill="white"/>
</clipPath>
</defs>
</svg>
