<svg width="8" height="8" viewBox="0 0 8 8" fill="none" xmlns="http://www.w3.org/2000/svg">
<path fill-rule="evenodd" clip-rule="evenodd" d="M6.68272 2.11711C6.75771 2.19213 6.79983 2.29385 6.79983 2.39991C6.79983 2.50598 6.75771 2.6077 6.68272 2.68271L3.48272 5.88271C3.40771 5.9577 3.30598 5.99983 3.19992 5.99983C3.09385 5.99983 2.99213 5.9577 2.91712 5.88271L1.31712 4.28271C1.24426 4.20727 1.20394 4.10623 1.20485 4.00135C1.20576 3.89648 1.24783 3.79615 1.32199 3.72199C1.39615 3.64782 1.49648 3.60576 1.60136 3.60485C1.70624 3.60393 1.80728 3.64425 1.88272 3.71711L3.19992 5.03431L6.11712 2.11711C6.19213 2.04213 6.29385 2 6.39992 2C6.50598 2 6.60771 2.04213 6.68272 2.11711Z" fill="#1C64F2"/>
</svg>
