<svg width="14" height="14" viewBox="0 0 14 14" fill="none" xmlns="http://www.w3.org/2000/svg">
<path d="M5.00878 12.8327C4.7803 12.8338 4.56052 12.7264 4.39647 12.5337L0.264208 7.67306C0.181845 7.57559 0.116126 7.45941 0.0708037 7.33115C0.0254817 7.20289 0.00144401 7.06506 6.31568e-05 6.92554C-0.00272561 6.64377 0.086941 6.3722 0.249337 6.17056C0.411734 5.96893 0.633557 5.85375 0.866009 5.85037C1.09846 5.84699 1.3225 5.95568 1.48884 6.15254L5.01228 10.2953L12.5105 1.46796C12.6771 1.2711 12.9014 1.16252 13.134 1.1661C13.3666 1.16968 13.5885 1.28513 13.7509 1.48704C13.9133 1.68896 14.0029 1.9608 13.9999 2.24278C13.997 2.52475 13.9017 2.79375 13.7352 2.9906L5.6211 12.5337C5.45705 12.7264 5.23727 12.8338 5.00878 12.8327Z" fill="#0E9F6E"/>
</svg>
