<svg width="42" height="42" viewBox="0 0 42 42" fill="none" xmlns="http://www.w3.org/2000/svg">
<path d="M24.5923 17.4894L30.513 18.8284C30.611 19.3359 30.9522 19.749 31.4019 19.9232L25.5904 26.9199L23.7273 18.1398C24.0896 18.0515 24.3983 17.813 24.5923 17.4894Z" fill="#3E89F0"/>
<path d="M22.5389 17.8488L17.2432 21.008C17.274 21.5226 17.0434 22.0241 16.645 22.3179L19.0426 24.582L23.0099 18.1143C22.8362 18.0581 22.6766 17.9673 22.5389 17.8488Z" fill="#3E89F0"/>
<path d="M19.0425 24.581L25.5904 26.9199L23.7274 18.1404C23.4918 18.198 23.2408 18.1884 23.0095 18.114L19.0425 24.581Z" fill="#1E63E0"/>
<path d="M25.5903 26.9199L34.4032 24.4249L32.3657 19.9201C32.0574 20.042 31.7106 20.0437 31.4015 19.9238L25.5903 26.9199Z" fill="#1E63E0"/>
<path d="M19.0784 24.5821L11.5164 26.4277L15.3509 22.4685C15.7852 22.6608 16.2935 22.6042 16.6812 22.3182L19.0784 24.5821Z" fill="#7FB3FF"/>
<path d="M1.58716 24.2415L7.31722 20.6618C7.51397 20.8259 7.75336 20.935 8.01497 20.9672L5.85164 27.4043L1.58716 24.2415Z" fill="#1E63E0"/>
<path d="M42.0001 19.3727L34.4036 24.4258L40.1145 13.302L42.0001 19.3727Z" fill="#3E89F0"/>
<path d="M5.85181 27.4043L11.4803 26.4279L8.73632 20.8533C8.51079 20.9583 8.25938 20.9973 8.01513 20.9672L5.85181 27.4043Z" fill="#3E89F0"/>
<path d="M40.1144 13.302L33.2551 18.2804C33.3658 18.9738 32.9924 19.6733 32.3657 19.9209L34.4033 24.4258L40.1144 13.302Z" fill="#7FB3FF"/>
<path d="M9.37226 20.2596L14.483 21.3917C14.5752 21.8799 14.8927 22.2813 15.3151 22.4682L11.4803 26.4277L8.73608 20.853C9.00146 20.7295 9.22372 20.5207 9.37226 20.2596Z" fill="#1E63E0"/>
<path d="M19.4363 3.93734L27.0906 4.64927L25.4969 12.1641L19.4363 3.93734Z" fill="#4AE767"/>
<path d="M24.7963 16.4889L30.6574 17.8145C30.7468 17.6426 30.8671 17.4914 31.0109 17.3698L25.4969 12.1648L23.7522 15.2565C24.2984 15.4007 24.7173 15.8866 24.7963 16.4889Z" fill="#00D627"/>
<path d="M25.4971 12.1641L31.8716 11.3227L31.7614 17.052C31.479 17.0772 31.2203 17.1917 31.0111 17.3691L25.4971 12.1641Z" fill="#2C9F41"/>
<path d="M25.4968 12.1641L18.6143 9.96369L19.4361 3.93734L25.4968 12.1641Z" fill="#26DD45"/>
<path d="M25.4971 12.1641L31.8716 11.3226L27.0908 4.64927L25.4971 12.1641Z" fill="#00D627"/>
<path d="M25.4968 12.1651L18.6143 9.96472L22.7097 15.416C23.0219 15.2209 23.4018 15.1633 23.7527 15.256L25.4968 12.1651Z" fill="#00AC1F"/>
<path d="M32.7214 17.3477L39.8291 12.1883L31.8715 11.322L31.7612 17.0523C32.1034 17.0215 32.4473 17.1267 32.7214 17.3477Z" fill="#008B1A"/>
<path d="M19.4361 3.93654L10.8777 6.02664L18.6143 9.96289L19.4361 3.93654Z" fill="#00D627"/>
<path d="M22.0301 16.8699L16.7865 19.998C16.576 19.7957 16.3072 19.6607 16.0103 19.6248L18.6145 9.96417L22.7101 15.4162C22.2335 15.7138 21.9661 16.2891 22.0301 16.8699Z" fill="#2DA041"/>
<path d="M31.8713 11.3233L36.7891 8.88753L39.829 12.1895L31.8713 11.3233Z" fill="#00AC1F"/>
<path d="M18.6143 9.96365L11.904 13.6367L10.8777 6.0274L18.6143 9.96365Z" fill="#00AC1F"/>
<path d="M31.8713 11.3223L36.7891 8.88647L27.0906 4.64894L31.8713 11.3223Z" fill="#26DD45"/>
<path d="M18.6145 9.9637L11.9041 13.6368L15.2642 19.752C15.496 19.6374 15.7566 19.5938 16.0103 19.6244L18.6145 9.9637Z" fill="#008B1A"/>
<path d="M14.633 20.375L9.55446 19.2497C9.4709 18.7129 9.11614 18.2733 8.64478 18.0955L11.904 13.6367L15.2643 19.7523C14.9975 19.8843 14.7761 20.1033 14.633 20.375Z" fill="#007717"/>
<path d="M11.904 13.6367L3.65381 12.1249L10.8777 6.0274L11.904 13.6367Z" fill="#00D627"/>
<path d="M11.904 13.6374L3.65381 12.1256L7.55902 18.1641C7.8946 17.9871 8.29272 17.9622 8.64518 18.0955L11.904 13.6374Z" fill="#008B1A"/>
<path d="M6.79653 19.6951L1.30225 23.127L3.65392 12.1243L7.5595 18.1633C7.02341 18.446 6.71613 19.0696 6.79653 19.6951Z" fill="#00AC1F"/>
<path d="M16.7429 30.623L22.2302 30.3634L19.0426 24.5813L16.7429 30.623Z" fill="#1E63E0"/>
<path d="M28.0115 32.5547L22.23 30.3636L25.5904 26.9205L28.0115 32.5547Z" fill="#1E63E0"/>
<path d="M28.0117 32.555L32.8292 31.8561L33.5542 36.75L28.0117 32.555Z" fill="#002790"/>
<path d="M25.5904 26.9202L19.0425 24.5813L22.23 30.3633L25.5904 26.9202Z" fill="#003DD0"/>
<path d="M19.0426 24.5813L11.4805 26.427L16.7429 30.623L19.0426 24.5813Z" fill="#3E89F0"/>
<path d="M25.5903 26.9205L34.4034 24.4255L28.0115 32.5547L25.5903 26.9205Z" fill="#003DD0"/>
<path d="M28.0115 32.5547L32.8289 31.8558L34.4033 24.4255L28.0115 32.5547Z" fill="#0032B0"/>
<path d="M34.4035 24.4251L38.2867 26.8857L32.8291 31.8555L34.4035 24.4251Z" fill="#003DD0"/>
<path d="M42.0001 19.3731L34.4036 24.4261L38.2868 26.8867L42.0001 19.3731Z" fill="#1E63E0"/>
<path d="M0 18.0349L1.30221 23.127L3.65389 12.1242L0 18.0349Z" fill="#00D627"/>
</svg>
