<svg width="24" height="24" viewBox="0 0 24 24" fill="none" xmlns="http://www.w3.org/2000/svg">
<path d="M10.2354 0.5H13.7646C14.1918 0.5 14.6056 0.65097 14.9355 0.926758L15.0713 1.05273C15.4199 1.40833 15.6172 1.89332 15.6172 2.40039V2.90039H19.6475C20.0744 2.90049 20.4875 3.05151 20.8174 3.32715L20.9541 3.45312C21.3025 3.80865 21.4999 4.29291 21.5 4.7998V21.5996C21.5 22.0433 21.3485 22.4698 21.0771 22.8076L20.9541 22.9473C20.6059 23.3024 20.1355 23.4999 19.6475 23.5H4.35254C3.92568 23.4999 3.51246 23.3488 3.18262 23.0732L3.0459 22.9473C2.69729 22.5917 2.5 22.1067 2.5 21.5996V4.7998L2.50879 4.61133C2.54526 4.2363 2.69005 3.88151 2.92285 3.5918L3.0459 3.45312C3.39409 3.09797 3.86448 2.9005 4.35254 2.90039H8.38281V2.40039C8.38281 1.95683 8.53347 1.5302 8.80469 1.19238L8.92871 1.05273C9.27698 0.697606 9.74725 0.5 10.2354 0.5ZM7.88281 15.0996C7.49094 15.0996 7.11443 15.2392 6.81641 15.4883L6.69336 15.6016C6.38019 15.921 6.20611 16.3522 6.20605 16.7998C6.20605 17.1917 6.33956 17.5712 6.58301 17.874L6.69336 17.999C7.00694 18.3188 7.43505 18.5 7.88281 18.5H16.1172C16.5089 18.5 16.8856 18.3612 17.1836 18.1123L17.3066 17.999C17.6199 17.6795 17.7939 17.2475 17.7939 16.7998C17.7939 16.4081 17.6602 16.0293 17.417 15.7266L17.3066 15.6016C16.993 15.2817 16.565 15.0996 16.1172 15.0996H7.88281ZM7.88281 10.2998C7.4909 10.2998 7.11445 10.4394 6.81641 10.6885L6.69336 10.8018C6.38021 11.1213 6.20605 11.5524 6.20605 12C6.20605 12.3917 6.3398 12.7705 6.58301 13.0732L6.69336 13.1982C7.00696 13.5181 7.43495 13.7002 7.88281 13.7002H16.1172C16.5091 13.7002 16.8855 13.5606 17.1836 13.3115L17.3066 13.1982C17.6198 12.8787 17.7939 12.4476 17.7939 12C17.7939 11.6083 17.6602 11.2295 17.417 10.9268L17.3066 10.8018C16.993 10.4819 16.565 10.2998 16.1172 10.2998H7.88281ZM9.73535 6.5H14.2646V1.90039H9.73535V6.5Z" fill="#1C64F2" stroke="#1C64F2"/>
</svg>
