<svg width="32" height="32" viewBox="0 0 32 32" fill="none" xmlns="http://www.w3.org/2000/svg">
<path d="M15.9999 19.9997L11.9999 15.9997M15.9999 19.9997C17.8624 19.2913 19.6491 18.398 21.3333 17.333M15.9999 19.9997V26.6663C15.9999 26.6663 20.0399 25.933 21.3333 23.9997C22.7733 21.8397 21.3333 17.333 21.3333 17.333M11.9999 15.9997C12.7094 14.1589 13.6029 12.3944 14.6666 10.733C16.2202 8.24899 18.3834 6.20374 20.9506 4.7918C23.5178 3.37986 26.4035 2.64817 29.3333 2.66635C29.3333 6.29301 28.2933 12.6663 21.3333 17.333M11.9999 15.9997H5.33325C5.33325 15.9997 6.06659 11.9597 7.99992 10.6663C10.1599 9.22635 14.6666 10.6663 14.6666 10.6663M5.99992 21.9997C3.99992 23.6797 3.33325 28.6663 3.33325 28.6663C3.33325 28.6663 8.31992 27.9997 9.99992 25.9997C10.9466 24.8797 10.9333 23.1597 9.87992 22.1197C9.36166 21.625 8.67898 21.3392 7.96289 21.317C7.2468 21.2949 6.54775 21.538 5.99992 21.9997Z" stroke="#1A56DB" stroke-width="2.5" stroke-linecap="round" stroke-linejoin="round"/>
</svg>
