<svg width="20" height="20" viewBox="0 0 20 20" fill="none" xmlns="http://www.w3.org/2000/svg">
<path fill-rule="evenodd" clip-rule="evenodd" d="M7.29303 14.7064C7.10556 14.5189 7.00024 14.2646 7.00024 13.9994C7.00024 13.7343 7.10556 13.48 7.29303 13.2924L10.586 9.99943L7.29303 6.70643C7.11087 6.51783 7.01008 6.26523 7.01236 6.00303C7.01463 5.74083 7.1198 5.49002 7.30521 5.30461C7.49062 5.1192 7.74143 5.01403 8.00363 5.01176C8.26583 5.00948 8.51843 5.11027 8.70703 5.29243L12.707 9.29243C12.8945 9.47996 12.9998 9.73427 12.9998 9.99943C12.9998 10.2646 12.8945 10.5189 12.707 10.7064L8.70703 14.7064C8.5195 14.8939 8.26519 14.9992 8.00003 14.9992C7.73487 14.9992 7.48056 14.8939 7.29303 14.7064Z" fill="#6B7280"/>
</svg>
