<svg width="512" height="512" viewBox="0 0 512 512" fill="none" xmlns="http://www.w3.org/2000/svg">
<g clip-path="url(#clip0_307_7561)">
<path d="M180.585 40.045C81.148 97.754 -27.399 193.84 13.261 282.998C44.234 350.913 187.227 290.573 187.245 349.731C187.325 604.642 461.443 522.811 504.952 353.274C525.688 272.475 413.786 245.953 388.235 183.953C371.51 143.369 452.761 122.37 453.029 74.714C453.547 -17.682 281.411 -18.47 180.585 40.045Z" fill="url(#paint0_linear_307_7561)"/>
<path opacity="0.1" d="M463.341 200.04C466.102 200.04 468.341 197.801 468.341 195.04V184.513C468.341 181.752 466.102 179.513 463.341 179.513H431.911C431.682 163.142 418.347 149.94 401.922 149.94H264.17V138.705C264.17 111.856 242.404 90.09 215.555 90.09C201.17 90.09 188.249 96.343 179.348 106.273C175.493 105.481 171.501 105.063 167.412 105.063C134.853 105.063 108.459 131.457 108.459 164.015C108.459 165.102 108.493 166.18 108.551 167.252C90.322 174.264 77.38 191.931 77.38 212.63C77.38 215.001 77.558 217.33 77.886 219.61C64.352 231.65 55.818 249.189 55.818 268.729C55.818 291.608 67.513 311.749 85.245 323.522C84.495 326.915 84.088 330.436 84.088 334.054C84.088 351.312 93.089 366.459 106.644 375.086C102.731 382.091 100.493 390.159 100.493 398.753C100.493 424.408 120.37 445.407 145.561 447.225C157.534 463.412 176.757 473.911 198.436 473.911C232.755 473.911 260.916 447.606 263.894 414.061H289.597V445.48C289.597 448.241 291.836 450.48 294.597 450.48H305.124C307.885 450.48 310.124 448.241 310.124 445.48V414.061H335.709V445.48C335.709 448.241 337.948 450.48 340.709 450.48H351.236C353.997 450.48 356.236 448.241 356.236 445.48V414.061H381.821V445.48C381.821 448.241 384.06 450.48 386.821 450.48H397.348C400.109 450.48 402.348 448.241 402.348 445.48V414.05C418.576 413.823 431.683 400.716 431.911 384.487H463.341C466.102 384.487 468.341 382.248 468.341 379.487V368.96C468.341 366.199 466.102 363.96 463.341 363.96H431.922V338.375H463.341C466.102 338.375 468.341 336.136 468.341 333.375V322.848C468.341 320.087 466.102 317.848 463.341 317.848H431.922V292.263H463.341C466.102 292.263 468.341 290.024 468.341 287.263V276.736C468.341 273.975 466.102 271.736 463.341 271.736H431.922V246.151H463.341C466.102 246.151 468.341 243.912 468.341 241.151V230.624C468.341 227.863 466.102 225.624 463.341 225.624H431.922V200.04H463.341Z" fill="#003DD0"/>
<path d="M416.03 174.04V153.513H463.342C466.103 153.513 468.342 155.752 468.342 158.513V169.04C468.342 171.801 466.103 174.04 463.342 174.04H416.03Z" fill="#3E89F0"/>
<path d="M416.03 220.152V199.625H463.342C466.103 199.625 468.342 201.864 468.342 204.625V215.152C468.342 217.913 466.103 220.152 463.342 220.152H416.03Z" fill="#3E89F0"/>
<path d="M416.03 266.263V245.736H463.342C466.103 245.736 468.342 247.975 468.342 250.736V261.263C468.342 264.024 466.103 266.263 463.342 266.263H416.03Z" fill="#3E89F0"/>
<path d="M416.03 312.375V291.848H463.342C466.103 291.848 468.342 294.087 468.342 296.848V307.375C468.342 310.136 466.103 312.375 463.342 312.375H416.03Z" fill="#3E89F0"/>
<path d="M416.03 358.487V337.96H463.342C466.103 337.96 468.342 340.199 468.342 342.96V353.487C468.342 356.248 466.103 358.487 463.342 358.487H416.03Z" fill="#3E89F0"/>
<path d="M310.125 139.832H289.598V92.52C289.598 89.759 291.837 87.52 294.598 87.52H305.125C307.886 87.52 310.125 89.759 310.125 92.52V139.832Z" fill="#3E89F0"/>
<path d="M356.237 139.832H335.71V92.52C335.71 89.759 337.949 87.52 340.71 87.52H351.237C353.998 87.52 356.237 89.759 356.237 92.52V139.832Z" fill="#3E89F0"/>
<path d="M402.349 139.832H381.822V92.52C381.822 89.759 384.061 87.52 386.822 87.52H397.349C400.11 87.52 402.349 89.759 402.349 92.52V139.832Z" fill="#3E89F0"/>
<path d="M310.125 372.168H289.598V419.48C289.598 422.241 291.837 424.48 294.598 424.48H305.125C307.886 424.48 310.125 422.241 310.125 419.48V372.168Z" fill="#3E89F0"/>
<path d="M356.237 372.168H335.71V419.48C335.71 422.241 337.949 424.48 340.71 424.48H351.237C353.998 424.48 356.237 422.241 356.237 419.48V372.168Z" fill="#3E89F0"/>
<path d="M402.349 372.168H381.822V419.48C381.822 422.241 384.061 424.48 386.822 424.48H397.349C400.11 424.48 402.349 422.241 402.349 419.48V372.168Z" fill="#3E89F0"/>
<path d="M401.922 388.061H197.801C181.232 388.061 167.801 374.63 167.801 358.061V153.939C167.801 137.37 181.232 123.939 197.801 123.939H401.922C418.491 123.939 431.922 137.37 431.922 153.939V358.06C431.922 374.629 418.491 388.061 401.922 388.061Z" fill="#00D627"/>
<path d="M372.986 165.428H226.737C217.101 165.428 209.289 173.24 209.289 182.876V329.125C209.289 338.761 217.101 346.573 226.737 346.573H330.644C335.948 346.573 341.035 344.466 344.786 340.715L384.575 300.926C388.326 297.175 390.433 292.088 390.433 286.784V182.876C390.433 173.24 382.622 165.428 372.986 165.428Z" fill="#DBFCED"/>
<path d="M291.083 225.387H237.259C233.686 225.387 230.385 227.293 228.599 230.387L201.686 277C199.9 280.094 199.9 283.906 201.686 287L228.598 333.613C230.384 336.707 233.686 338.613 237.258 338.613H291.082C294.655 338.613 297.956 336.707 299.742 333.613L326.655 287C328.441 283.906 328.441 280.094 326.655 277L299.743 230.387C297.957 227.293 294.655 225.387 291.083 225.387Z" fill="#B6F6BE"/>
<path d="M215.556 64.09C201.171 64.09 188.25 70.343 179.349 80.273C175.494 79.48 171.502 79.063 167.413 79.063C134.854 79.063 108.46 105.457 108.46 138.015C108.46 139.102 108.494 140.18 108.552 141.252C90.323 148.264 77.381 165.931 77.381 186.63C77.381 189.001 77.559 191.33 77.887 193.61C64.353 205.65 55.819 223.189 55.819 242.729C55.819 265.608 67.514 285.749 85.246 297.522C84.496 300.915 84.089 304.436 84.089 308.054C84.089 325.312 93.09 340.459 106.645 349.086C102.732 356.091 100.494 364.159 100.494 372.753C100.494 398.408 120.371 419.407 145.562 421.225C157.535 437.412 176.758 447.911 198.437 447.911C234.741 447.911 264.171 418.481 264.171 382.177V112.704C264.17 85.855 242.405 64.09 215.556 64.09Z" fill="#FFA7CE"/>
<path d="M264.17 225.387H237.258C233.685 225.387 230.384 227.293 228.598 230.387L201.686 277C199.9 280.094 199.9 283.906 201.686 287L228.598 333.613C230.384 336.707 233.686 338.613 237.258 338.613H264.17V225.387Z" fill="#FF7EB7"/>
<path d="M145.562 426.224C142.8 426.224 140.562 423.985 140.562 421.224C140.562 418.463 142.8 416.224 145.562 416.224C153.223 416.224 160.949 412.523 164.785 407.015C168.078 402.288 168.523 396.581 166.11 390.052C165.152 387.462 166.476 384.586 169.066 383.629C171.658 382.67 174.532 383.996 175.489 386.586C179.992 398.767 176.616 407.527 172.991 412.732C167.281 420.927 156.515 426.224 145.562 426.224Z" fill="#FF7EB7"/>
<path d="M123.542 314.493C123.44 314.493 123.338 314.49 123.235 314.484C96.144 312.845 82.612 301.834 82.049 301.366C79.925 299.6 79.635 296.448 81.401 294.324C83.162 292.208 86.299 291.912 88.422 293.66C88.649 293.842 100.386 303.083 123.838 304.502C126.595 304.669 128.693 307.038 128.527 309.794C128.367 312.449 126.165 314.493 123.542 314.493Z" fill="#FF7EB7"/>
<path d="M145.435 150.194C144.747 150.194 144.048 150.051 143.38 149.75C132.892 145.015 124.503 144.213 119.318 144.371C113.729 144.543 110.544 145.838 110.512 145.851C107.978 146.902 105.049 145.724 103.974 143.202C102.9 140.679 104.034 137.771 106.546 136.671C107.213 136.38 123.158 129.649 147.494 140.635C150.011 141.771 151.13 144.733 149.993 147.249C149.16 149.099 147.34 150.194 145.435 150.194Z" fill="#FF7EB7"/>
<path d="M240.962 218.422C201.864 218.422 170.057 186.613 170.057 147.516C170.057 144.755 172.295 142.516 175.057 142.516C177.819 142.516 180.057 144.755 180.057 147.516C180.057 181.1 207.379 208.422 240.962 208.422C243.724 208.422 245.962 210.661 245.962 213.422C245.962 216.183 243.724 218.422 240.962 218.422Z" fill="#FF7EB7"/>
<path d="M157.828 172.737C139.332 172.737 123.829 185.752 119.969 203.102C113.667 198.675 106 196.066 97.73 196.066C94.968 196.066 92.73 198.305 92.73 201.066C92.73 203.827 94.968 206.066 97.73 206.066C113.605 206.066 126.521 218.982 126.521 234.857C126.521 237.618 128.759 239.857 131.521 239.857C134.283 239.857 136.521 237.618 136.521 234.857C136.521 226.286 133.722 218.359 128.996 211.931C129.007 211.796 129.037 211.666 129.037 211.528C129.037 195.653 141.953 182.737 157.828 182.737C160.59 182.737 162.828 180.498 162.828 177.737C162.828 174.976 160.59 172.737 157.828 172.737Z" fill="#FF7EB7"/>
<path d="M234.413 349.623C231.777 348.812 228.975 350.295 228.166 352.936C223.981 366.576 209.478 374.268 195.842 370.082C193.201 369.271 190.404 370.755 189.595 373.395C188.786 376.035 190.269 378.832 192.908 379.642C196.401 380.713 199.934 381.223 203.41 381.223C207.493 381.223 211.494 380.514 215.262 379.191C216.876 384.189 216.933 389.551 215.36 394.677C213.333 401.284 208.854 406.706 202.749 409.945C200.31 411.239 199.381 414.265 200.675 416.705C201.572 418.398 203.305 419.363 205.096 419.363C205.886 419.363 206.689 419.175 207.435 418.779C215.901 414.289 222.11 406.771 224.92 397.611C227.268 389.957 226.999 381.925 224.231 374.551C230.452 370.131 235.321 363.712 237.727 355.87C238.536 353.229 237.053 350.433 234.413 349.623Z" fill="#FF7EB7"/>
<path d="M245.503 119.827C232.636 106.96 212.351 105.941 198.296 116.747C192.246 112.095 184.681 109.32 176.476 109.32C173.714 109.32 171.476 111.559 171.476 114.32C171.476 117.081 173.714 119.32 176.476 119.32C190.743 119.32 202.35 130.926 202.35 145.193C202.35 147.954 204.588 150.193 207.35 150.193C210.112 150.193 212.35 147.954 212.35 145.193C212.35 137.251 209.752 129.908 205.366 123.958C215.449 116.938 229.449 117.914 238.433 126.898C239.409 127.874 240.689 128.362 241.968 128.362C243.247 128.362 244.528 127.874 245.503 126.898C247.456 124.945 247.456 121.779 245.503 119.827Z" fill="#FF7EB7"/>
<path d="M238.962 265.686C221.306 265.686 205.738 274.761 196.653 288.485C189.3 278.122 177.844 271.716 165.604 270.498C176.033 258.083 179.046 240.277 171.846 224.589C170.694 222.078 167.725 220.979 165.216 222.13C162.706 223.282 161.606 226.25 162.758 228.76C170.406 245.425 163.071 265.205 146.406 272.853C141.925 274.91 137.221 275.883 132.586 275.883C119.984 275.882 107.905 268.685 102.314 256.502C101.162 253.991 98.192 252.891 95.684 254.043C93.174 255.195 92.074 258.164 93.226 260.673C100.499 276.521 116.208 285.882 132.601 285.882C137.126 285.882 141.703 285.168 146.17 283.681C146.627 283.613 147.082 283.504 147.523 283.303C163.977 275.752 183.463 282.815 191.313 299.037C189.333 304.455 188.251 310.301 188.251 316.395C188.251 326.477 191.208 336.221 196.802 344.575C197.766 346.015 199.349 346.793 200.961 346.793C201.917 346.793 202.884 346.519 203.738 345.947C206.032 344.41 206.647 341.305 205.11 339.01C200.623 332.308 198.251 324.488 198.251 316.395C198.251 293.947 216.514 275.685 238.961 275.685C241.723 275.685 243.961 273.446 243.961 270.685C243.961 267.924 241.724 265.686 238.962 265.686Z" fill="#FF7EB7"/>
<path d="M134.578 381.921C132.593 381.921 130.716 380.732 129.933 378.776C124.031 364.016 128.295 347.287 140.547 337.148C147.184 331.655 155.581 328.655 164.183 328.78C166.944 328.811 169.158 331.075 169.126 333.836C169.094 336.597 166.804 338.853 164.069 338.779C157.84 338.717 151.739 340.865 146.922 344.852C138.03 352.211 134.935 364.352 139.218 375.063C140.243 377.627 138.996 380.537 136.432 381.562C135.824 381.806 135.195 381.921 134.578 381.921Z" fill="#FF7EB7"/>
<path d="M291.083 199.387H237.259C233.686 199.387 230.385 201.293 228.599 204.387L201.686 251C199.9 254.094 199.9 257.906 201.686 261L228.598 307.613C230.384 310.707 233.686 312.613 237.258 312.613H291.082C294.655 312.613 297.956 310.707 299.742 307.613L326.655 261C328.441 257.906 328.441 254.094 326.655 251L299.743 204.387C297.957 201.293 294.655 199.387 291.083 199.387Z" fill="#00D627"/>
<path d="M253.515 235.111C252.767 233.191 250.917 231.926 248.856 231.926C246.795 231.926 244.945 233.191 244.197 235.111L229.338 273.258C228.336 275.831 229.609 278.73 232.183 279.732C234.755 280.734 237.654 279.461 238.657 276.888L240.394 272.428C240.665 272.473 240.939 272.511 241.223 272.511H256.491C256.775 272.511 257.049 272.473 257.32 272.428L259.057 276.888C259.828 278.865 261.716 280.075 263.717 280.075C264.321 280.075 264.935 279.965 265.53 279.733C268.103 278.731 269.377 275.832 268.375 273.259L253.515 235.111ZM244.255 262.512L248.855 250.702L253.455 262.512H244.255Z" fill="white"/>
<path d="M290.345 270.074H289.84V242.199H290.345C293.107 242.199 295.345 239.96 295.345 237.199C295.345 234.438 293.107 232.199 290.345 232.199H279.335C276.573 232.199 274.335 234.438 274.335 237.199C274.335 239.96 276.573 242.199 279.335 242.199H279.84V270.074H279.335C276.573 270.074 274.335 272.313 274.335 275.074C274.335 277.835 276.573 280.074 279.335 280.074H290.345C293.107 280.074 295.345 277.835 295.345 275.074C295.345 272.313 293.106 270.074 290.345 270.074Z" fill="white"/>
<path d="M390.433 366.437C401.404 366.437 410.298 357.543 410.298 346.572C410.298 335.601 401.404 326.707 390.433 326.707C379.462 326.707 370.568 335.601 370.568 346.572C370.568 357.543 379.462 366.437 390.433 366.437Z" fill="#3E89F0"/>
<path d="M369.906 193.039H344.38C341.618 193.039 339.38 190.8 339.38 188.039C339.38 185.278 341.618 183.039 344.38 183.039H369.906C372.668 183.039 374.906 185.278 374.906 188.039C374.906 190.8 372.668 193.039 369.906 193.039Z" fill="#7AEE90"/>
<path d="M369.906 211.482H344.38C341.618 211.482 339.38 209.243 339.38 206.482C339.38 203.721 341.618 201.482 344.38 201.482H369.906C372.668 201.482 374.906 203.721 374.906 206.482C374.906 209.243 372.668 211.482 369.906 211.482Z" fill="#7AEE90"/>
<path d="M369.906 229.924H344.38C341.618 229.924 339.38 227.685 339.38 224.924C339.38 222.163 341.618 219.924 344.38 219.924H369.906C372.668 219.924 374.906 222.163 374.906 224.924C374.906 227.685 372.668 229.924 369.906 229.924Z" fill="#7AEE90"/>
<path d="M93.454 76.051C85.183 76.051 78.454 69.322 78.454 61.051C78.454 52.78 85.183 46.051 93.454 46.051C101.725 46.051 108.454 52.78 108.454 61.051C108.454 69.322 101.726 76.051 93.454 76.051ZM93.454 56.051C90.697 56.051 88.454 58.294 88.454 61.051C88.454 63.808 90.697 66.051 93.454 66.051C96.211 66.051 98.454 63.808 98.454 61.051C98.454 58.294 96.211 56.051 93.454 56.051Z" fill="#2626BB"/>
<path d="M452.186 446.432C443.915 446.432 437.186 439.703 437.186 431.432C437.186 423.161 443.915 416.432 452.186 416.432C460.457 416.432 467.186 423.161 467.186 431.432C467.186 439.703 460.457 446.432 452.186 446.432ZM452.186 426.432C449.429 426.432 447.186 428.675 447.186 431.432C447.186 434.189 449.429 436.432 452.186 436.432C454.943 436.432 457.186 434.189 457.186 431.432C457.186 428.675 454.942 426.432 452.186 426.432Z" fill="#2626BB"/>
<path d="M272.365 463.83C269.603 463.83 267.365 461.591 267.365 458.83C267.365 455.797 264.897 453.33 261.865 453.33C259.103 453.33 256.865 451.091 256.865 448.33C256.865 445.569 259.103 443.33 261.865 443.33C264.897 443.33 267.365 440.863 267.365 437.83C267.365 435.069 269.603 432.83 272.365 432.83C275.127 432.83 277.365 435.069 277.365 437.83C277.365 440.863 279.833 443.33 282.865 443.33C285.627 443.33 287.865 445.569 287.865 448.33C287.865 451.091 285.627 453.33 282.865 453.33C279.833 453.33 277.365 455.797 277.365 458.83C277.365 461.591 275.127 463.83 272.365 463.83Z" fill="#00D627"/>
<path d="M462.186 127.609C459.424 127.609 457.186 125.37 457.186 122.609C457.186 119.576 454.718 117.109 451.686 117.109C448.924 117.109 446.686 114.87 446.686 112.109C446.686 109.348 448.924 107.109 451.686 107.109C454.718 107.109 457.186 104.642 457.186 101.609C457.186 98.8479 459.424 96.6089 462.186 96.6089C464.948 96.6089 467.186 98.8479 467.186 101.609C467.186 104.642 469.654 107.109 472.686 107.109C475.448 107.109 477.686 109.348 477.686 112.109C477.686 114.87 475.448 117.109 472.686 117.109C469.654 117.109 467.186 119.576 467.186 122.609C467.186 125.37 464.947 127.609 462.186 127.609Z" fill="#00D627"/>
<path d="M72.954 122.607C70.192 122.607 67.954 120.368 67.954 117.607C67.954 114.574 65.486 112.107 62.454 112.107C59.692 112.107 57.454 109.868 57.454 107.107C57.454 104.346 59.692 102.107 62.454 102.107C65.486 102.107 67.954 99.64 67.954 96.607C67.954 93.846 70.192 91.607 72.954 91.607C75.716 91.607 77.954 93.846 77.954 96.607C77.954 99.64 80.422 102.107 83.454 102.107C86.216 102.107 88.454 104.346 88.454 107.107C88.454 109.868 86.216 112.107 83.454 112.107C80.422 112.107 77.954 114.574 77.954 117.607C77.954 120.369 75.716 122.607 72.954 122.607Z" fill="#00D627"/>
<path d="M463.342 179.04C468.856 179.04 473.342 174.554 473.342 169.04V158.513C473.342 152.999 468.856 148.513 463.342 148.513H436.499C434.16 133.551 422.31 121.701 407.348 119.362V92.52C407.348 87.006 402.862 82.52 397.348 82.52H386.821C381.307 82.52 376.821 87.006 376.821 92.52V118.939H361.236V92.52C361.236 87.006 356.75 82.52 351.236 82.52H340.71C335.196 82.52 330.71 87.006 330.71 92.52V118.939H315.125V92.52C315.125 87.006 310.639 82.52 305.125 82.52H294.598C289.084 82.52 284.598 87.006 284.598 92.52V118.939H269.17V112.704C269.17 83.141 245.119 59.089 215.556 59.089C201.295 59.089 187.612 64.807 177.579 74.867C174.227 74.332 170.819 74.061 167.412 74.061C132.159 74.061 103.477 102.734 103.46 137.983C84.732 146.689 72.381 165.804 72.381 186.629C72.381 188.291 72.462 189.977 72.622 191.667C58.733 204.984 50.819 223.444 50.819 242.728C50.819 265.365 61.568 286.446 79.736 299.77C79.305 302.521 79.088 305.295 79.088 308.053C79.088 324.955 86.914 340.589 100.234 350.709C97.122 357.61 95.493 365.146 95.493 372.751C95.493 399.948 116.144 422.905 142.918 425.996C156.281 442.89 176.865 452.909 198.437 452.909C233.739 452.909 263.081 426.913 268.331 393.059H284.598V419.478C284.598 424.992 289.084 429.478 294.598 429.478H305.125C310.639 429.478 315.125 424.992 315.125 419.478V393.059H330.71V419.478C330.71 424.992 335.196 429.478 340.71 429.478H351.236C356.75 429.478 361.236 424.992 361.236 419.478V393.059H376.821V419.478C376.821 424.992 381.307 429.478 386.821 429.478H397.348C402.862 429.478 407.348 424.992 407.348 419.478V392.636C422.31 390.297 434.16 378.447 436.499 363.485H463.342C468.856 363.485 473.342 358.999 473.342 353.485V342.96C473.342 337.446 468.856 332.96 463.342 332.96H436.922V317.376H463.342C468.856 317.376 473.342 312.89 473.342 307.376V296.849C473.342 291.335 468.856 286.849 463.342 286.849H436.922V271.265H463.342C468.856 271.265 473.342 266.779 473.342 261.265V250.738C473.342 245.224 468.856 240.738 463.342 240.738H436.922V225.154H463.342C468.856 225.154 473.342 220.668 473.342 215.154V204.627C473.342 199.113 468.856 194.627 463.342 194.627H436.922V179.04H463.342ZM463.342 169.04H436.922V158.513H463.342V169.04ZM386.821 92.52H397.348V118.939H386.821V92.52ZM340.71 92.52H351.236V118.939H340.71V92.52ZM294.598 92.52H305.125V118.939H294.598V92.52ZM305.125 419.48H294.598V393.061H305.125V419.48ZM351.236 419.48H340.71V393.061H351.236V419.48ZM386.821 419.48V393.061H397.348V419.48H386.821ZM426.922 358.061C426.922 371.846 415.707 383.061 401.922 383.061H269.147C269.151 382.765 269.169 382.474 269.169 382.177V317.614H291.082C296.424 317.614 301.402 314.74 304.072 310.114L309.009 301.564C310.39 299.173 309.571 296.115 307.179 294.734C304.785 293.352 301.729 294.173 300.349 296.564L295.412 305.114C294.521 306.656 292.862 307.614 291.082 307.614H237.257C235.477 307.614 233.818 306.656 232.927 305.114L206.016 258.5C205.125 256.958 205.125 255.042 206.016 253.5L232.928 206.887C233.819 205.345 235.478 204.387 237.258 204.387H291.083C292.863 204.387 294.522 205.345 295.413 206.887L322.325 253.5C323.216 255.042 323.216 256.958 322.325 258.5L311.734 276.845C310.353 279.237 311.172 282.295 313.564 283.675C315.956 285.056 319.014 284.236 320.394 281.845L330.985 263.5C333.656 258.874 333.656 253.126 330.985 248.5L304.073 201.887C301.403 197.261 296.425 194.387 291.083 194.387H237.258C231.917 194.387 226.94 197.261 224.268 201.887L197.355 248.5C194.684 253.126 194.684 258.874 197.355 263.5L224.267 310.114C226.939 314.74 231.916 317.614 237.257 317.614H259.169V382.177C259.169 415.666 231.924 442.91 198.436 442.91C179.266 442.91 161.002 433.691 149.581 418.25C148.714 417.077 147.377 416.342 145.922 416.237C123.251 414.6 105.493 395.5 105.493 372.752C105.493 365.327 107.4 357.986 111.01 351.523C112.302 349.21 111.565 346.29 109.329 344.867C96.654 336.801 89.088 323.038 89.088 308.054C89.088 304.904 89.438 301.723 90.128 298.6C90.574 296.582 89.733 294.498 88.012 293.355C70.985 282.05 60.82 263.125 60.82 242.728C60.82 225.415 68.253 208.874 81.212 197.345C82.466 196.229 83.077 194.558 82.838 192.897C82.535 190.794 82.382 188.686 82.382 186.629C82.382 168.713 93.621 152.352 110.349 145.918C112.373 145.14 113.665 143.145 113.546 140.979C113.489 139.929 113.461 138.959 113.461 138.015C113.461 108.265 137.664 84.063 167.413 84.063C171.091 84.063 174.768 84.436 178.343 85.17C180.081 85.527 181.886 84.934 183.073 83.61C191.344 74.382 203.184 69.09 215.556 69.09C239.605 69.09 259.17 88.655 259.17 112.705V175.514C259.17 178.275 261.408 180.514 264.17 180.514C266.932 180.514 269.17 178.275 269.17 175.514V128.94H401.922C415.707 128.94 426.922 140.155 426.922 153.94V358.061ZM463.342 342.96V353.487H436.922V342.96H463.342ZM463.342 296.848V307.375H436.922V296.848H463.342ZM463.342 250.736V261.263H436.922V250.736H463.342ZM463.342 204.625V215.152H436.922V204.625H463.342Z" fill="#003DD0"/>
</g>
<defs>
<linearGradient id="paint0_linear_307_7561" x1="135.309" y1="409.567" x2="474.725" y2="70.152" gradientUnits="userSpaceOnUse">
<stop stop-color="#E8FBE9" stop-opacity="0"/>
<stop offset="1" stop-color="#4AE767"/>
</linearGradient>
<clipPath id="clip0_307_7561">
<rect width="512" height="512" fill="white"/>
</clipPath>
</defs>
</svg>
