<svg width="512" height="512" viewBox="0 0 512 512" fill="none" xmlns="http://www.w3.org/2000/svg">
<g clip-path="url(#clip0_322_303)">
<path d="M446.37 72.046C364.985 -19.568 222.986 -15.115 128.135 36.958C79.255 63.793 38.486 104.016 22.203 156.61C-17.582 285.12 129.026 289.484 166.049 373.546C195.923 441.378 202.212 494.604 264.897 509.176C321.495 522.333 387.355 487.869 401.856 439.809C411.902 406.515 390.385 387.104 385.056 367.786C369.949 313.021 439.858 288.993 470.973 256.65C519.225 206.492 492.594 124.08 446.37 72.046Z" fill="url(#paint0_linear_322_303)"/>
<path opacity="0.1" d="M220.428 184.431C222.214 187.525 225.516 189.431 229.088 189.431H282.912C286.485 189.431 289.786 187.525 291.572 184.431L318.484 137.818C320.27 134.724 320.27 130.912 318.484 127.818L291.572 81.205C289.786 78.111 286.484 76.205 282.912 76.205H229.088C225.515 76.205 222.214 78.111 220.428 81.205L193.516 127.818C191.73 130.912 191.73 134.724 193.516 137.818L220.428 184.431Z" fill="#003DD0"/>
<path opacity="0.1" d="M364.846 135.449H371.589C374.35 135.449 376.589 133.21 376.589 130.449C376.589 127.688 374.35 125.449 371.589 125.449H364.846C362.085 125.449 359.846 127.688 359.846 130.449C359.846 133.21 362.084 135.449 364.846 135.449Z" fill="#003DD0"/>
<path opacity="0.1" d="M390.853 135.449H397.596C400.357 135.449 402.596 133.21 402.596 130.449C402.596 127.688 400.357 125.449 397.596 125.449H390.853C388.092 125.449 385.853 127.688 385.853 130.449C385.853 133.21 388.091 135.449 390.853 135.449Z" fill="#003DD0"/>
<path opacity="0.1" d="M338.839 135.449H345.581C348.342 135.449 350.581 133.21 350.581 130.449C350.581 127.688 348.342 125.449 345.581 125.449H338.839C336.078 125.449 333.839 127.688 333.839 130.449C333.839 133.21 336.078 135.449 338.839 135.449Z" fill="#003DD0"/>
<path opacity="0.1" d="M416.859 135.449H423.601C426.362 135.449 428.601 133.21 428.601 130.449C428.601 127.688 426.362 125.449 423.601 125.449H416.859C414.098 125.449 411.859 127.688 411.859 130.449C411.859 133.21 414.098 135.449 416.859 135.449Z" fill="#003DD0"/>
<path opacity="0.1" d="M442.866 135.449H444.609V137.192C444.609 139.953 446.848 142.192 449.609 142.192C452.37 142.192 454.609 139.953 454.609 137.192V130.449C454.609 127.688 452.37 125.449 449.609 125.449H442.866C440.105 125.449 437.866 127.688 437.866 130.449C437.866 133.21 440.104 135.449 442.866 135.449Z" fill="#003DD0"/>
<path opacity="0.1" d="M454.608 156.456C454.608 153.695 452.369 151.456 449.608 151.456C446.847 151.456 444.608 153.695 444.608 156.456V163.198C444.608 165.959 446.847 168.198 449.608 168.198C452.369 168.198 454.608 165.959 454.608 163.198V156.456Z" fill="#003DD0"/>
<path opacity="0.1" d="M449.608 177.439C446.847 177.439 444.608 179.678 444.608 182.439V189.181C444.608 191.942 446.847 194.181 449.608 194.181C452.369 194.181 454.608 191.942 454.608 189.181V182.439C454.608 179.678 452.37 177.439 449.608 177.439Z" fill="#003DD0"/>
<path opacity="0.1" d="M140.412 135.449H147.155C149.916 135.449 152.155 133.21 152.155 130.449C152.155 127.688 149.916 125.449 147.155 125.449H140.412C137.651 125.449 135.412 127.688 135.412 130.449C135.412 133.21 137.65 135.449 140.412 135.449Z" fill="#003DD0"/>
<path opacity="0.1" d="M114.405 135.449H121.148C123.909 135.449 126.148 133.21 126.148 130.449C126.148 127.688 123.909 125.449 121.148 125.449H114.405C111.644 125.449 109.405 127.688 109.405 130.449C109.405 133.21 111.644 135.449 114.405 135.449Z" fill="#003DD0"/>
<path opacity="0.1" d="M166.418 135.449H173.16C175.921 135.449 178.16 133.21 178.16 130.449C178.16 127.688 175.921 125.449 173.16 125.449H166.418C163.657 125.449 161.418 127.688 161.418 130.449C161.418 133.21 163.657 135.449 166.418 135.449Z" fill="#003DD0"/>
<path opacity="0.1" d="M88.398 135.449H95.14C97.901 135.449 100.14 133.21 100.14 130.449C100.14 127.688 97.901 125.449 95.14 125.449H88.398C85.637 125.449 83.398 127.688 83.398 130.449C83.398 133.21 85.637 135.449 88.398 135.449Z" fill="#003DD0"/>
<path opacity="0.1" d="M62.392 142.192C65.153 142.192 67.392 139.953 67.392 137.192V135.449H69.135C71.896 135.449 74.135 133.21 74.135 130.449C74.135 127.688 71.896 125.449 69.135 125.449H62.392C59.631 125.449 57.392 127.688 57.392 130.449V137.192C57.392 139.953 59.63 142.192 62.392 142.192Z" fill="#003DD0"/>
<path opacity="0.1" d="M62.392 168.198C65.153 168.198 67.392 165.959 67.392 163.198V156.456C67.392 153.695 65.153 151.456 62.392 151.456C59.631 151.456 57.392 153.695 57.392 156.456V163.198C57.392 165.959 59.63 168.198 62.392 168.198Z" fill="#003DD0"/>
<path opacity="0.1" d="M62.392 194.181C65.153 194.181 67.392 191.942 67.392 189.181V182.439C67.392 179.678 65.153 177.439 62.392 177.439C59.631 177.439 57.392 179.678 57.392 182.439V189.181C57.392 191.942 59.63 194.181 62.392 194.181Z" fill="#003DD0"/>
<path opacity="0.1" d="M471.241 218.288H377.178C371.655 218.288 367.178 222.765 367.178 228.288V319.434H144.822V228.288C144.822 222.765 140.345 218.288 134.822 218.288H40.759C35.236 218.288 30.759 222.765 30.759 228.288V320.246C30.759 325.769 35.236 330.246 40.759 330.246H87.794V387.333C87.794 392.856 92.271 397.333 97.794 397.333H217.121L211.053 435.796H196.596C194.387 435.796 192.596 437.587 192.596 439.796V457.796C192.596 460.005 194.387 461.796 196.596 461.796H315.405C317.614 461.796 319.405 460.005 319.405 457.796V439.796C319.405 437.587 317.614 435.796 315.405 435.796H300.948L294.88 397.333H414.208C419.731 397.333 424.208 392.856 424.208 387.333V330.246H471.242C476.765 330.246 481.242 325.769 481.242 320.246V228.288C481.241 222.765 476.764 218.288 471.241 218.288Z" fill="#003DD0"/>
<path d="M218.266 362.592L210.529 421.661H301.472L293.735 362.592H218.266Z" fill="#4369FC"/>
<path d="M298.286 397.333L293.735 362.592H218.266L213.716 397.333H298.286Z" fill="#2D58DF"/>
<path d="M218.266 362.592L210.529 421.661H301.472L293.735 362.592H218.266Z" stroke="#003DD0" stroke-width="10" stroke-miterlimit="10" stroke-linecap="round" stroke-linejoin="round"/>
<path d="M315.405 417.661H196.596C194.387 417.661 192.596 419.452 192.596 421.661V433.796C192.596 436.005 194.387 437.796 196.596 437.796H315.405C317.614 437.796 319.405 436.005 319.405 433.796V421.661C319.405 419.452 317.614 417.661 315.405 417.661Z" fill="#7FB3FF"/>
<path d="M315.405 417.661H196.596C194.387 417.661 192.596 419.452 192.596 421.661V433.796C192.596 436.005 194.387 437.796 196.596 437.796H315.405C317.614 437.796 319.405 436.005 319.405 433.796V421.661C319.405 419.452 317.614 417.661 315.405 417.661Z" stroke="#003DD0" stroke-width="10" stroke-miterlimit="10" stroke-linecap="round" stroke-linejoin="round"/>
<path d="M424.21 157.67V330.25L256 349.01L87.79 330.25V157.67C87.79 152.15 92.27 147.67 97.79 147.67H414.21C419.73 147.67 424.21 152.15 424.21 157.67Z" fill="white"/>
<path d="M144.82 226.18V320.25C144.82 325.77 140.35 330.25 134.82 330.25H87.79V216.18H134.82C140.35 216.18 144.82 220.66 144.82 226.18Z" fill="#D1DDFF"/>
<path d="M367.18 226.18V320.25C367.18 325.77 371.65 330.25 377.18 330.25H424.21V216.18H377.18C371.65 216.18 367.18 220.66 367.18 226.18Z" fill="#D1DDFF"/>
<path d="M312.79 147.67L291.57 184.43C289.79 187.52 286.48 189.43 282.91 189.43H229.09C225.52 189.43 222.21 187.52 220.43 184.43L199.21 147.67H312.79Z" fill="#D1DDFF"/>
<path d="M87.793 330.246V361.333C87.793 366.856 92.27 371.333 97.793 371.333H414.207C419.73 371.333 424.207 366.856 424.207 361.333V330.246H87.793Z" fill="#7FB3FF"/>
<path d="M149.651 371.333H414.208C419.731 371.333 424.208 366.856 424.208 361.333V157.677C424.208 152.154 419.731 147.677 414.208 147.677H97.794C92.271 147.677 87.794 152.154 87.794 157.677V361.333C87.794 366.856 92.271 371.333 97.794 371.333H126.89" stroke="#003DD0" stroke-width="10" stroke-miterlimit="10" stroke-linecap="round" stroke-linejoin="round"/>
<path d="M256 356.545C260.163 356.545 263.537 353.171 263.537 349.008C263.537 344.845 260.163 341.471 256 341.471C251.837 341.471 248.463 344.845 248.463 349.008C248.463 353.171 251.837 356.545 256 356.545Z" fill="#9EAFFD"/>
<path d="M252.64 191.58V290.35C252.64 303.65 241.85 314.44 228.54 314.44C220.6 314.44 213.55 310.59 209.16 304.66C199.93 303.99 192.65 296.29 192.65 286.89C192.65 283.74 193.47 280.78 194.9 278.22C189.93 275.06 186.63 269.5 186.63 263.18C186.63 261.85 186.78 260.56 187.06 259.32C180.56 255 176.27 247.62 176.27 239.24C176.27 232.07 179.4 225.65 184.36 221.23C184.24 220.4 184.17 219.54 184.17 218.67C184.17 211.09 188.92 204.61 195.6 202.04C195.58 201.65 195.57 201.25 195.57 200.86C195.57 188.92 205.24 179.25 217.17 179.25C217.26 179.25 217.35 179.25 217.44 179.26L228.05 185.54L252.51 189.43C252.6 190.13 252.64 190.85 252.64 191.58Z" fill="#7AEE90"/>
<path d="M252.51 189.43H229.09C225.52 189.43 222.21 187.52 220.43 184.43L217.44 179.26C218.85 179.27 220.22 179.42 221.55 179.69C224.81 176.05 229.55 173.76 234.82 173.76C243.93 173.76 251.45 180.6 252.51 189.43Z" fill="#26DD45"/>
<path d="M324.94 259.32C325.22 260.56 325.37 261.85 325.37 263.18C325.37 269.5 322.07 275.06 317.1 278.22C318.53 280.78 319.35 283.74 319.35 286.89C319.35 296.29 312.07 303.99 302.84 304.66C298.45 310.59 291.4 314.44 283.46 314.44C270.15 314.44 259.36 303.65 259.36 290.35V191.58C259.36 190.85 259.4 190.13 259.49 189.43L282.07 185.82L294.56 179.26C294.65 179.25 294.74 179.25 294.83 179.25C306.76 179.25 316.43 188.92 316.43 200.86C316.43 201.25 316.42 201.65 316.4 202.04C323.08 204.61 327.82 211.09 327.82 218.67C327.82 219.54 327.76 220.4 327.64 221.23C332.6 225.65 335.73 232.07 335.73 239.24C335.73 247.62 331.44 255 324.94 259.32Z" fill="#9EAFFD"/>
<path d="M294.56 179.26L291.57 184.43C289.79 187.52 286.48 189.43 282.91 189.43H259.49C260.55 180.6 268.07 173.76 277.18 173.76C282.45 173.76 287.19 176.05 290.45 179.69C291.78 179.42 293.15 179.27 294.56 179.26Z" fill="#3E89F0"/>
<path d="M144.822 274.624H211.431" stroke="#003DD0" stroke-width="10" stroke-miterlimit="10" stroke-linecap="round" stroke-linejoin="round"/>
<path d="M222.558 285.75C228.703 285.75 233.684 280.769 233.684 274.624C233.684 268.479 228.703 263.498 222.558 263.498C216.413 263.498 211.432 268.479 211.432 274.624C211.432 280.769 216.413 285.75 222.558 285.75Z" fill="#00D627"/>
<path d="M222.558 285.75C228.703 285.75 233.684 280.769 233.684 274.624C233.684 268.479 228.703 263.498 222.558 263.498C216.413 263.498 211.432 268.479 211.432 274.624C211.432 280.769 216.413 285.75 222.558 285.75Z" stroke="#003DD0" stroke-width="10" stroke-miterlimit="10" stroke-linecap="round" stroke-linejoin="round"/>
<path d="M144.822 237.541H196.927" stroke="#003DD0" stroke-width="10" stroke-miterlimit="10" stroke-linecap="round" stroke-linejoin="round"/>
<path d="M208.053 248.667C214.198 248.667 219.179 243.686 219.179 237.541C219.179 231.396 214.198 226.415 208.053 226.415C201.908 226.415 196.927 231.396 196.927 237.541C196.927 243.686 201.908 248.667 208.053 248.667Z" fill="#00D627"/>
<path d="M208.053 248.667C214.198 248.667 219.179 243.686 219.179 237.541C219.179 231.396 214.198 226.415 208.053 226.415C201.908 226.415 196.927 231.396 196.927 237.541C196.927 243.686 201.908 248.667 208.053 248.667Z" stroke="#003DD0" stroke-width="10" stroke-miterlimit="10" stroke-linecap="round" stroke-linejoin="round"/>
<path d="M367.177 237.541H300.568" stroke="#003DD0" stroke-width="10" stroke-miterlimit="10" stroke-linecap="round" stroke-linejoin="round"/>
<path d="M289.442 248.667C295.587 248.667 300.568 243.686 300.568 237.541C300.568 231.396 295.587 226.415 289.442 226.415C283.297 226.415 278.316 231.396 278.316 237.541C278.316 243.686 283.297 248.667 289.442 248.667Z" fill="#4369FC"/>
<path d="M289.442 248.667C295.587 248.667 300.568 243.686 300.568 237.541C300.568 231.396 295.587 226.415 289.442 226.415C283.297 226.415 278.316 231.396 278.316 237.541C278.316 243.686 283.297 248.667 289.442 248.667Z" stroke="#003DD0" stroke-width="10" stroke-miterlimit="10" stroke-linecap="round" stroke-linejoin="round"/>
<path d="M367.177 274.624H331.072" stroke="#003DD0" stroke-width="10" stroke-miterlimit="10" stroke-linecap="round" stroke-linejoin="round"/>
<path d="M319.946 285.75C326.091 285.75 331.072 280.769 331.072 274.624C331.072 268.479 326.091 263.498 319.946 263.498C313.801 263.498 308.82 268.479 308.82 274.624C308.82 280.769 313.801 285.75 319.946 285.75Z" fill="#4369FC"/>
<path d="M319.946 285.75C326.091 285.75 331.072 280.769 331.072 274.624C331.072 268.479 326.091 263.498 319.946 263.498C313.801 263.498 308.82 268.479 308.82 274.624C308.82 280.769 313.801 285.75 319.946 285.75Z" stroke="#003DD0" stroke-width="10" stroke-miterlimit="10" stroke-linecap="round" stroke-linejoin="round"/>
<path d="M282.912 50.204H229.088C225.515 50.204 222.214 52.11 220.428 55.204L193.516 101.817C191.73 104.911 191.73 108.723 193.516 111.817L220.428 158.43C222.214 161.524 225.516 163.43 229.088 163.43H282.912C286.485 163.43 289.786 161.524 291.572 158.43L318.484 111.817C320.27 108.723 320.27 104.911 318.484 101.817L291.572 55.204C289.786 52.11 286.485 50.204 282.912 50.204Z" fill="#00D627"/>
<path d="M301.076 71.665L291.572 55.204C289.786 52.11 286.484 50.204 282.912 50.204H229.088C225.515 50.204 222.214 52.11 220.428 55.204L193.516 101.817C191.73 104.911 191.73 108.723 193.516 111.817L220.428 158.43C222.214 161.524 225.516 163.43 229.088 163.43H282.912C286.485 163.43 289.786 161.524 291.572 158.43L318.484 111.817C320.27 108.723 320.27 104.911 318.484 101.817L312.454 91.374" stroke="#003DD0" stroke-width="10" stroke-miterlimit="10" stroke-linecap="round" stroke-linejoin="round"/>
<path d="M255.545 125.891L240.685 87.744L225.825 125.891" stroke="white" stroke-width="10" stroke-miterlimit="10" stroke-linecap="round" stroke-linejoin="round"/>
<path d="M233.051 118.329H248.319" stroke="white" stroke-width="10" stroke-miterlimit="10" stroke-linecap="round" stroke-linejoin="round"/>
<path d="M271.164 88.017H282.175" stroke="white" stroke-width="10" stroke-miterlimit="10" stroke-linecap="round" stroke-linejoin="round"/>
<path d="M271.164 125.891H282.175" stroke="white" stroke-width="10" stroke-miterlimit="10" stroke-linecap="round" stroke-linejoin="round"/>
<path d="M276.669 88.017V125.891" stroke="white" stroke-width="10" stroke-miterlimit="10" stroke-linecap="round" stroke-linejoin="round"/>
<path d="M364.846 112.449H371.588" stroke="#003DD0" stroke-width="10" stroke-miterlimit="10" stroke-linecap="round" stroke-linejoin="round"/>
<path d="M390.853 112.449H397.595" stroke="#003DD0" stroke-width="10" stroke-miterlimit="10" stroke-linecap="round" stroke-linejoin="round"/>
<path d="M338.839 112.449H345.582" stroke="#003DD0" stroke-width="10" stroke-miterlimit="10" stroke-linecap="round" stroke-linejoin="round"/>
<path d="M416.859 112.449H423.602" stroke="#003DD0" stroke-width="10" stroke-miterlimit="10" stroke-linecap="round" stroke-linejoin="round"/>
<path d="M449.608 119.192V112.449H442.866" stroke="#003DD0" stroke-width="10" stroke-miterlimit="10" stroke-linecap="round" stroke-linejoin="round"/>
<path d="M449.608 145.198V138.456" stroke="#003DD0" stroke-width="10" stroke-miterlimit="10" stroke-linecap="round" stroke-linejoin="round"/>
<path d="M449.608 171.181V164.439" stroke="#003DD0" stroke-width="10" stroke-miterlimit="10" stroke-linecap="round" stroke-linejoin="round"/>
<path d="M147.154 112.449H140.412" stroke="#003DD0" stroke-width="10" stroke-miterlimit="10" stroke-linecap="round" stroke-linejoin="round"/>
<path d="M121.147 112.449H114.405" stroke="#003DD0" stroke-width="10" stroke-miterlimit="10" stroke-linecap="round" stroke-linejoin="round"/>
<path d="M173.161 112.449H166.418" stroke="#003DD0" stroke-width="10" stroke-miterlimit="10" stroke-linecap="round" stroke-linejoin="round"/>
<path d="M95.141 112.449H88.398" stroke="#003DD0" stroke-width="10" stroke-miterlimit="10" stroke-linecap="round" stroke-linejoin="round"/>
<path d="M62.392 119.192V112.449H69.134" stroke="#003DD0" stroke-width="10" stroke-miterlimit="10" stroke-linecap="round" stroke-linejoin="round"/>
<path d="M62.392 145.198V138.456" stroke="#003DD0" stroke-width="10" stroke-miterlimit="10" stroke-linecap="round" stroke-linejoin="round"/>
<path d="M62.392 171.181V164.439" stroke="#003DD0" stroke-width="10" stroke-miterlimit="10" stroke-linecap="round" stroke-linejoin="round"/>
<path d="M471.241 304.352H377.177C371.654 304.352 367.177 299.875 367.177 294.352V200.288C367.177 194.765 371.654 190.288 377.177 190.288H471.241C476.764 190.288 481.241 194.765 481.241 200.288V294.352C481.241 299.875 476.764 304.352 471.241 304.352Z" fill="#B6C4FF"/>
<path d="M481.24 221.921V200.289C481.24 194.766 476.763 190.289 471.24 190.289H377.176C371.653 190.289 367.176 194.766 367.176 200.289V221.921H481.24Z" fill="#3E89F0"/>
<path d="M471.24 304.352H377.176C371.653 304.352 367.176 299.875 367.176 294.352V200.288C367.176 194.765 371.653 190.288 377.176 190.288H471.24C476.763 190.288 481.24 194.765 481.24 200.288V294.352C481.24 299.875 476.763 304.352 471.24 304.352Z" stroke="#003DD0" stroke-width="10" stroke-miterlimit="10" stroke-linecap="round" stroke-linejoin="round"/>
<path d="M391.751 239.888H395.283" stroke="#4369FC" stroke-width="10" stroke-miterlimit="10" stroke-linecap="round" stroke-linejoin="round"/>
<path d="M414.153 239.888H456.668" stroke="#3E89F0" stroke-width="10" stroke-miterlimit="10" stroke-linecap="round" stroke-linejoin="round"/>
<path d="M391.751 257.868H395.283" stroke="#4369FC" stroke-width="10" stroke-miterlimit="10" stroke-linecap="round" stroke-linejoin="round"/>
<path d="M414.153 257.868H456.668" stroke="#3E89F0" stroke-width="10" stroke-miterlimit="10" stroke-linecap="round" stroke-linejoin="round"/>
<path d="M391.751 275.848H395.283" stroke="#4369FC" stroke-width="10" stroke-miterlimit="10" stroke-linecap="round" stroke-linejoin="round"/>
<path d="M414.153 275.848H456.668" stroke="#3E89F0" stroke-width="10" stroke-miterlimit="10" stroke-linecap="round" stroke-linejoin="round"/>
<path d="M134.822 304.352H40.759C35.236 304.352 30.759 299.875 30.759 294.352V200.288C30.759 194.765 35.236 190.288 40.759 190.288H134.823C140.346 190.288 144.823 194.765 144.823 200.288V294.352C144.822 299.875 140.345 304.352 134.822 304.352Z" fill="#B6F6BE"/>
<path d="M144.822 221.921V200.289C144.822 194.766 140.345 190.289 134.822 190.289H40.759C35.236 190.289 30.759 194.766 30.759 200.289V221.921H144.822Z" fill="#26DD45"/>
<path d="M134.822 304.352H40.759C35.236 304.352 30.759 299.875 30.759 294.352V200.288C30.759 194.765 35.236 190.288 40.759 190.288H134.823C140.346 190.288 144.823 194.765 144.823 200.288V294.352C144.822 299.875 140.345 304.352 134.822 304.352Z" stroke="#003DD0" stroke-width="10" stroke-miterlimit="10" stroke-linecap="round" stroke-linejoin="round"/>
<path d="M55.332 239.888H58.863" stroke="#00D627" stroke-width="10" stroke-miterlimit="10" stroke-linecap="round" stroke-linejoin="round"/>
<path d="M77.733 239.888H120.248" stroke="#00D627" stroke-width="10" stroke-miterlimit="10" stroke-linecap="round" stroke-linejoin="round"/>
<path d="M55.332 257.868H58.863" stroke="#00D627" stroke-width="10" stroke-miterlimit="10" stroke-linecap="round" stroke-linejoin="round"/>
<path d="M77.733 257.868H120.248" stroke="#00D627" stroke-width="10" stroke-miterlimit="10" stroke-linecap="round" stroke-linejoin="round"/>
<path d="M55.332 275.848H58.863" stroke="#00D627" stroke-width="10" stroke-miterlimit="10" stroke-linecap="round" stroke-linejoin="round"/>
<path d="M77.733 275.848H120.248" stroke="#00D627" stroke-width="10" stroke-miterlimit="10" stroke-linecap="round" stroke-linejoin="round"/>
<path d="M385.853 447.796C391.376 447.796 395.853 443.319 395.853 437.796C395.853 432.273 391.376 427.796 385.853 427.796C380.33 427.796 375.853 432.273 375.853 437.796C375.853 443.319 380.33 447.796 385.853 447.796Z" stroke="#003DD0" stroke-width="10" stroke-miterlimit="10" stroke-linecap="round" stroke-linejoin="round"/>
<path d="M352.211 76.204C357.734 76.204 362.211 71.7268 362.211 66.204C362.211 60.6811 357.734 56.204 352.211 56.204C346.688 56.204 342.211 60.6811 342.211 66.204C342.211 71.7268 346.688 76.204 352.211 76.204Z" stroke="#00D627" stroke-width="10" stroke-miterlimit="10" stroke-linecap="round" stroke-linejoin="round"/>
<path d="M437.866 407.161C437.866 412.96 433.165 417.661 427.366 417.661C433.165 417.661 437.866 422.362 437.866 428.161C437.866 422.362 442.567 417.661 448.366 417.661C442.567 417.661 437.866 412.96 437.866 407.161Z" stroke="#00D627" stroke-width="10" stroke-miterlimit="10" stroke-linecap="round" stroke-linejoin="round"/>
<path d="M46.598 346.045C46.598 351.844 41.897 356.545 36.098 356.545C41.897 356.545 46.598 361.246 46.598 367.045C46.598 361.246 51.299 356.545 57.098 356.545C51.298 356.546 46.598 351.844 46.598 346.045Z" stroke="#00D627" stroke-width="10" stroke-miterlimit="10" stroke-linecap="round" stroke-linejoin="round"/>
<path d="M183.973 27.218C183.973 33.017 179.272 37.718 173.473 37.718C179.272 37.718 183.973 42.419 183.973 48.218C183.973 42.419 188.674 37.718 194.473 37.718C188.674 37.718 183.973 33.017 183.973 27.218Z" stroke="#00AC1F" stroke-width="10" stroke-miterlimit="10" stroke-linecap="round" stroke-linejoin="round"/>
</g>
<defs>
<linearGradient id="paint0_linear_322_303" x1="118.874" y1="383.604" x2="438.654" y2="63.8238" gradientUnits="userSpaceOnUse">
<stop stop-color="#B6F6BE" stop-opacity="0"/>
<stop offset="1" stop-color="#00D627" stop-opacity="0.8"/>
</linearGradient>
<clipPath id="clip0_322_303">
<rect width="512" height="512" fill="white"/>
</clipPath>
</defs>
</svg>
