<svg width="512" height="512" viewBox="0 0 512 512" fill="none" xmlns="http://www.w3.org/2000/svg">
<g clip-path="url(#clip0_311_6439)">
<path d="M511.809 215.286C518.653 127.081 338.8 233.427 387.858 142.436C407.508 105.989 474.747 51.266 442.119 17.02C374.551 -53.9 -69.183 153.628 9.26102 261.96C60.183 332.283 207.625 150.889 256.286 213.409C309.065 281.221 138.826 347.294 125.794 438.276C120.089 478.102 144.934 510.496 185.724 509.404C338.415 505.315 500.45 361.675 511.809 215.286Z" fill="url(#paint0_linear_311_6439)"/>
<g opacity="0.1">
<path d="M486.127 129.051C486.127 95.388 458.838 68.099 425.175 68.099C392.437 68.099 365.736 93.911 364.293 126.292C350.499 122.454 335.964 120.395 320.947 120.395C260.512 120.395 207.847 153.626 180.202 202.807C179.493 202.422 178.693 202.183 177.83 202.183H92.38C89.618 202.183 87.38 204.422 87.38 207.183C87.38 209.944 89.618 212.183 92.38 212.183H175.322C165.241 233.248 159.591 256.839 159.591 281.75C159.591 294.221 161.008 306.361 163.686 318.02H89.582C86.82 318.02 84.582 320.259 84.582 323.02C84.582 325.781 86.82 328.02 89.582 328.02H164.921C165.393 328.02 165.841 327.934 166.274 327.811C168.901 336.646 172.268 345.161 176.296 353.291H70.012C67.25 353.291 65.012 355.53 65.012 358.291C65.012 361.052 67.25 363.291 70.012 363.291H181.71C199.292 393.253 226.253 417.045 258.58 430.605H193.623L173.284 410.266C168.403 405.384 160.487 405.384 155.606 410.266C150.724 415.148 150.724 423.062 155.606 427.944L158.267 430.605H72.88C65.977 430.605 60.38 436.202 60.38 443.105C60.38 450.008 65.977 455.605 72.88 455.605H158.269L155.608 458.266C150.726 463.148 150.726 471.062 155.608 475.944C158.048 478.385 161.248 479.605 164.447 479.605C167.646 479.605 170.845 478.385 173.286 475.944L193.625 455.605H278.269L275.608 458.266C270.726 463.148 270.726 471.062 275.608 475.944C278.048 478.385 281.248 479.605 284.447 479.605C287.646 479.605 290.845 478.385 293.286 475.944L317.286 451.944C319.727 449.503 320.947 446.304 320.947 443.105C410.061 443.105 482.302 370.864 482.302 281.75C482.302 245.345 470.241 211.759 449.903 184.76C471.24 175.275 486.127 153.908 486.127 129.051Z" fill="#2626BC"/>
<path d="M94.022 151.602H185.418C188.18 151.602 190.418 149.363 190.418 146.602C190.418 143.841 188.18 141.602 185.418 141.602H94.022C91.26 141.602 89.022 143.841 89.022 146.602C89.022 149.363 91.26 151.602 94.022 151.602Z" fill="#2626BC"/>
<path d="M157.076 167.799C157.076 165.038 154.838 162.799 152.076 162.799H55.968C53.206 162.799 50.968 165.038 50.968 167.799C50.968 170.56 53.206 172.799 55.968 172.799H152.075C154.837 172.799 157.076 170.56 157.076 167.799Z" fill="#2626BC"/>
<path d="M155.382 386.019C158.144 386.019 160.382 383.78 160.382 381.019C160.382 378.258 158.144 376.019 155.382 376.019H106.57C103.808 376.019 101.57 378.258 101.57 381.019C101.57 383.78 103.808 386.019 106.57 386.019H155.382Z" fill="#2626BC"/>
<path d="M44.468 353.291H30.872C28.11 353.291 25.872 355.53 25.872 358.291C25.872 361.052 28.11 363.291 30.872 363.291H44.469C47.231 363.291 49.469 361.052 49.469 358.291C49.469 355.53 47.23 353.291 44.468 353.291Z" fill="#2626BC"/>
</g>
<path d="M320.946 419.105C410.06 419.105 482.301 346.864 482.301 257.75C482.301 168.636 410.06 96.395 320.946 96.395C231.832 96.395 159.591 168.636 159.591 257.75C159.591 346.864 231.832 419.105 320.946 419.105Z" fill="#FF7EB7"/>
<path d="M369.663 103.888C366.179 111.561 364.223 120.075 364.223 129.051C364.223 162.714 391.512 190.003 425.175 190.003C438.705 190.003 451.2 185.588 461.312 178.129C441.398 143.097 408.751 116.253 369.663 103.888Z" fill="#FF5BA7"/>
<path d="M482.301 257.75C482.301 346.864 410.06 419.105 320.946 419.105C231.832 419.105 159.591 346.864 159.591 257.75H482.301Z" fill="#FF5BA7"/>
<path d="M219.757 353.291H190.917C193.447 356.729 196.103 360.069 198.892 363.291H219.757C222.519 363.291 224.757 361.052 224.757 358.291C224.757 355.53 222.519 353.291 219.757 353.291Z" fill="#FD2C8E"/>
<path d="M320.946 392.898C395.586 392.898 456.094 332.39 456.094 257.75C456.094 183.11 395.586 122.602 320.946 122.602C246.306 122.602 185.798 183.11 185.798 257.75C185.798 332.39 246.306 392.898 320.946 392.898Z" fill="#FFA7CE"/>
<path d="M364.239 129.685C364.581 163.054 391.725 190.003 425.175 190.003C429.293 190.003 433.313 189.589 437.202 188.809C420.857 161.307 395.039 140.094 364.239 129.685Z" fill="#FF7EB7"/>
<path d="M317.285 410.266L293.285 386.266C288.404 381.384 280.488 381.384 275.607 386.266C270.725 391.148 270.725 399.062 275.607 403.944L278.268 406.605H172.88C165.977 406.605 160.38 412.202 160.38 419.105C160.38 426.008 165.977 431.605 172.88 431.605H278.269L275.608 434.266C270.726 439.148 270.726 447.062 275.608 451.944C278.048 454.385 281.248 455.605 284.447 455.605C287.646 455.605 290.845 454.385 293.286 451.944L317.286 427.944C322.167 423.062 322.167 415.148 317.285 410.266Z" fill="#02FFB2"/>
<path d="M197.285 410.266L173.285 386.266C168.404 381.384 160.488 381.384 155.607 386.266C150.725 391.148 150.725 399.062 155.607 403.944L158.268 406.605H72.88C65.977 406.605 60.38 412.202 60.38 419.105C60.38 426.008 65.977 431.605 72.88 431.605H158.269L155.608 434.266C150.726 439.148 150.726 447.062 155.608 451.944C158.048 454.385 161.248 455.605 164.447 455.605C167.646 455.605 170.845 454.385 173.286 451.944L197.286 427.944C202.167 423.062 202.167 415.148 197.285 410.266Z" fill="#96FFD1"/>
<path d="M339.491 247.362H302.402C298.619 247.362 295.552 244.295 295.552 240.512V231.504C295.552 227.721 298.619 224.654 302.402 224.654H310.559V234.934C310.559 236.918 312.167 238.526 314.151 238.526H327.745C329.729 238.526 331.337 236.918 331.337 234.934V224.654H358.891C360.875 224.654 362.483 223.046 362.483 221.062V207.468C362.483 205.484 360.875 203.876 358.891 203.876H331.337V193.595C331.337 191.611 329.729 190.003 327.745 190.003H314.15C312.166 190.003 310.558 191.611 310.558 193.595V203.876H302.401C287.143 203.876 274.773 216.245 274.773 231.504V240.511C274.773 255.77 287.143 268.14 302.402 268.14H339.49C343.273 268.14 346.34 271.207 346.34 274.99V283.997C346.34 287.781 343.273 290.848 339.489 290.848H331.335V280.567C331.335 278.583 329.727 276.975 327.743 276.975H314.15C312.166 276.975 310.558 278.583 310.558 280.567V290.848H283.004C281.02 290.848 279.412 292.456 279.412 294.44V308.034C279.412 310.018 281.02 311.626 283.004 311.626H310.558V321.906C310.558 323.89 312.166 325.498 314.15 325.498H327.744C329.728 325.498 331.336 323.89 331.336 321.906V311.626H339.491C354.749 311.626 367.119 299.257 367.119 283.998V274.99C367.119 259.731 354.749 247.362 339.491 247.362Z" fill="#FF5BA7"/>
<path d="M203.368 262.75C200.606 262.75 198.368 260.511 198.368 257.75C198.368 190.16 253.356 135.171 320.946 135.171C323.708 135.171 325.946 137.41 325.946 140.171C325.946 142.932 323.708 145.171 320.946 145.171C258.87 145.171 208.368 195.673 208.368 257.75C208.368 260.511 206.13 262.75 203.368 262.75Z" fill="#FFC3DE"/>
<path d="M320.946 380.329C318.184 380.329 315.946 378.09 315.946 375.329C315.946 372.568 318.184 370.329 320.946 370.329C383.022 370.329 433.524 319.827 433.524 257.75C433.524 254.989 435.762 252.75 438.524 252.75C441.286 252.75 443.524 254.989 443.524 257.75C443.524 325.34 388.536 380.329 320.946 380.329Z" fill="#FFC3DE"/>
<path d="M409.116 262.75C406.354 262.75 404.116 260.511 404.116 257.75C404.116 211.89 366.806 174.581 320.947 174.581C318.185 174.581 315.947 172.342 315.947 169.581C315.947 166.82 318.185 164.581 320.947 164.581C372.32 164.581 414.116 206.376 414.116 257.75C414.116 260.511 411.878 262.75 409.116 262.75Z" fill="#FF7EB7"/>
<path d="M320.947 350.919C269.573 350.919 227.777 309.123 227.777 257.749C227.777 254.988 230.015 252.749 232.777 252.749C235.539 252.749 237.777 254.988 237.777 257.749C237.777 303.608 275.087 340.918 320.947 340.919C323.709 340.919 325.947 343.158 325.947 345.919C325.947 348.68 323.708 350.919 320.947 350.919Z" fill="#FF7EB7"/>
<path d="M441.87 242.501H435.18C432.418 242.501 430.18 240.262 430.18 237.501C430.18 234.74 432.418 232.501 435.18 232.501H441.87C444.632 232.501 446.87 234.74 446.87 237.501C446.87 240.262 444.632 242.501 441.87 242.501Z" fill="#FFC3DE"/>
<path d="M436.868 224.783H430.178C427.416 224.783 425.178 222.544 425.178 219.783C425.178 217.022 427.416 214.783 430.178 214.783H436.868C439.63 214.783 441.868 217.022 441.868 219.783C441.868 222.544 439.63 224.783 436.868 224.783Z" fill="#FFC3DE"/>
<path d="M431.866 207.065H425.176C422.414 207.065 420.176 204.826 420.176 202.065C420.176 199.304 422.414 197.065 425.176 197.065H431.866C434.628 197.065 436.866 199.304 436.866 202.065C436.866 204.826 434.628 207.065 431.866 207.065Z" fill="#FFC3DE"/>
<path d="M216.717 317.967H210.027C207.265 317.967 205.027 315.728 205.027 312.967C205.027 310.206 207.265 307.967 210.027 307.967H216.717C219.479 307.967 221.717 310.206 221.717 312.967C221.717 315.728 219.479 317.967 216.717 317.967Z" fill="#FFC3DE"/>
<path d="M211.715 300.25H205.025C202.263 300.25 200.025 298.011 200.025 295.25C200.025 292.489 202.263 290.25 205.025 290.25H211.715C214.477 290.25 216.715 292.489 216.715 295.25C216.715 298.011 214.477 300.25 211.715 300.25Z" fill="#FFC3DE"/>
<path d="M206.713 282.531H200.023C197.261 282.531 195.023 280.292 195.023 277.531C195.023 274.77 197.261 272.531 200.023 272.531H206.713C209.475 272.531 211.713 274.77 211.713 277.531C211.713 280.292 209.475 282.531 206.713 282.531Z" fill="#FFC3DE"/>
<path d="M486.128 105.053C486.128 138.713 458.838 166.003 425.178 166.003C391.518 166.003 364.228 138.713 364.228 105.053V105.043L405.918 59.043H445.248L486.128 105.053Z" fill="#B6C4FF"/>
<path d="M425.176 44.093L429.767 61.954L425.176 72.423C422.246 71.593 419.166 71.153 415.976 71.153C408.966 71.153 402.456 73.283 397.046 76.923L384.586 74.573L382.076 61.953C393.096 50.923 408.336 44.093 425.176 44.093Z" fill="#8298FD"/>
<path d="M486.128 105.053H452.758C451.178 105.053 449.898 103.823 449.768 102.253C449.288 96.313 447.268 90.803 444.098 86.123L451.028 68.093L468.278 61.953C479.309 72.983 486.128 88.223 486.128 105.053Z" fill="#FF7EB7"/>
<path d="M397.046 76.923C388.746 82.53 383.056 91.702 382.191 102.243C382.061 103.821 380.782 105.054 379.199 105.054H364.226C364.226 88.234 371.046 72.994 382.076 61.954L397.046 76.923Z" fill="#02FFB2"/>
<path d="M468.276 61.953L444.096 86.133C439.676 79.553 433.006 74.623 425.176 72.423V44.093C442.016 44.093 457.256 50.923 468.276 61.953Z" fill="#FFA7CE"/>
<path d="M463.009 181.021C460.54 182.259 459.543 185.263 460.78 187.732C471.742 209.593 477.3 233.151 477.3 257.751C477.3 342.545 409.45 411.787 325.191 414.042C324.386 411.365 322.932 408.843 320.821 406.732L296.822 382.732C293.516 379.426 289.122 377.606 284.447 377.606C279.772 377.606 275.378 379.426 272.073 382.731C266.979 387.825 265.687 395.303 268.199 401.606H259.641C228.959 388.522 204.056 366.497 187.451 339.292H219.758C222.52 339.292 224.758 337.053 224.758 334.292C224.758 331.531 222.52 329.292 219.758 329.292H181.844C170.719 307.631 164.591 283.227 164.591 257.751C164.591 171.534 234.734 101.391 320.951 101.391C333.915 101.391 346.791 102.996 359.251 106.135C359.834 142.001 389.173 171.004 425.176 171.004C461.542 171.004 491.128 141.418 491.128 105.051C491.128 68.684 461.542 39.099 425.176 39.099C391.884 39.099 364.291 63.9 359.861 95.993C347.175 92.951 334.105 91.39 320.951 91.39C258.023 91.39 203.146 126.513 174.887 178.182H92.38C89.618 178.182 87.38 180.421 87.38 183.182C87.38 185.943 89.618 188.182 92.38 188.182H169.854C160.064 209.361 154.59 232.926 154.59 257.749C154.59 270.134 155.959 282.279 158.565 294.019H89.583C86.821 294.019 84.583 296.258 84.583 299.019C84.583 301.78 86.821 304.019 89.583 304.019H161.108C163.618 312.729 166.822 321.178 170.677 329.29H70.012C67.25 329.29 65.012 331.529 65.012 334.29C65.012 337.051 67.25 339.29 70.012 339.29H175.854C190.208 364.857 211.27 386.493 237.318 401.604H195.695L176.821 382.73C173.515 379.424 169.121 377.604 164.446 377.604C159.771 377.604 155.377 379.424 152.072 382.729C146.978 387.823 145.686 395.301 148.198 401.604H72.88C63.231 401.604 55.38 409.455 55.38 419.104C55.38 428.753 63.231 436.604 72.88 436.604H148.198C145.686 442.907 146.978 450.385 152.071 455.478C155.376 458.784 159.771 460.604 164.446 460.604C169.121 460.604 173.516 458.784 176.82 455.479L200.82 431.479C206.188 426.111 207.313 418.102 204.236 411.604H278.268C280.29 411.604 282.114 410.386 282.887 408.518C283.661 406.649 283.234 404.499 281.803 403.069L279.142 400.408C276.218 397.484 276.218 392.726 279.143 389.801C280.559 388.384 282.442 387.605 284.446 387.605C286.45 387.605 288.333 388.385 289.75 389.802L313.75 413.802C316.674 416.726 316.674 421.484 313.75 424.408L289.749 448.408C288.333 449.825 286.45 450.604 284.446 450.604C282.442 450.604 280.559 449.824 279.142 448.407C276.218 445.483 276.218 440.725 279.142 437.801L281.803 435.14C283.234 433.71 283.661 431.559 282.887 429.691C282.114 427.823 280.29 426.605 278.268 426.605H222.994C220.232 426.605 217.994 428.844 217.994 431.605C217.994 434.366 220.232 436.605 222.994 436.605H268.187C267.373 438.645 266.946 440.842 266.946 443.105C266.946 447.779 268.766 452.174 272.071 455.479C275.376 458.785 279.771 460.605 284.446 460.605C289.121 460.605 293.516 458.785 296.82 455.48L320.82 431.48C322.964 429.336 324.432 426.77 325.229 424.046C414.985 421.768 487.3 348.045 487.3 257.75C487.3 231.58 481.385 206.515 469.72 183.249C468.482 180.78 465.479 179.783 463.009 181.021ZM425.175 49.099C456.028 49.099 481.127 74.199 481.127 105.051C481.127 135.904 456.027 161.004 425.175 161.004C394.323 161.004 369.223 135.904 369.223 105.051C369.223 74.199 394.322 49.099 425.175 49.099ZM193.75 424.408L169.749 448.408C168.333 449.825 166.45 450.604 164.446 450.604C162.442 450.604 160.559 449.824 159.142 448.407C157.726 446.99 156.946 445.107 156.946 443.104C156.946 441.101 157.726 439.217 159.142 437.801L161.803 435.14C163.234 433.71 163.661 431.559 162.887 429.691C162.114 427.823 160.29 426.605 158.268 426.605H72.88C68.744 426.605 65.38 423.241 65.38 419.105C65.38 414.969 68.744 411.605 72.88 411.605H158.269C160.291 411.605 162.115 410.387 162.888 408.519C163.662 406.65 163.235 404.5 161.804 403.07L159.143 400.409C157.727 398.992 156.947 397.109 156.947 395.106C156.947 393.103 157.727 391.219 159.144 389.802C160.56 388.385 162.443 387.606 164.447 387.606C166.451 387.606 168.334 388.386 169.751 389.803L193.751 413.803C196.674 416.726 196.674 421.484 193.75 424.408Z" fill="#2626BC"/>
<path d="M94.022 127.602H185.418C188.18 127.602 190.418 125.363 190.418 122.602C190.418 119.841 188.18 117.602 185.418 117.602H94.022C91.26 117.602 89.022 119.841 89.022 122.602C89.022 125.363 91.261 127.602 94.022 127.602Z" fill="#2626BC"/>
<path d="M152.076 148.799C154.838 148.799 157.076 146.56 157.076 143.799C157.076 141.038 154.838 138.799 152.076 138.799H55.9691C53.2071 138.799 50.9691 141.038 50.9691 143.799C50.9691 146.56 53.2071 148.799 55.9691 148.799H152.076Z" fill="#2626BC"/>
<path d="M155.383 362.019C158.145 362.019 160.383 359.78 160.383 357.019C160.383 354.258 158.145 352.019 155.383 352.019H106.57C103.808 352.019 101.57 354.258 101.57 357.019C101.57 359.78 103.808 362.019 106.57 362.019H155.383Z" fill="#2626BC"/>
<path d="M44.469 329.291H30.871C28.109 329.291 25.871 331.53 25.871 334.291C25.871 337.052 28.109 339.291 30.871 339.291H44.469C47.231 339.291 49.469 337.052 49.469 334.291C49.469 331.53 47.23 329.291 44.469 329.291Z" fill="#2626BC"/>
<path d="M425.175 110.051C423.896 110.051 422.615 109.563 421.639 108.586C419.687 106.633 419.687 103.468 421.64 101.515L452.121 71.037C454.072 69.085 457.239 69.084 459.192 71.037C461.144 72.99 461.144 76.155 459.191 78.108L428.71 108.586C427.734 109.563 426.454 110.051 425.175 110.051Z" fill="white"/>
<path d="M425.176 119.216C432.997 119.216 439.338 112.875 439.338 105.054C439.338 97.2325 432.997 90.892 425.176 90.892C417.355 90.892 411.014 97.2325 411.014 105.054C411.014 112.875 417.355 119.216 425.176 119.216Z" fill="#9EAFFD"/>
<path d="M425.176 111.016C428.469 111.016 431.138 108.347 431.138 105.054C431.138 101.761 428.469 99.092 425.176 99.092C421.883 99.092 419.214 101.761 419.214 105.054C419.214 108.347 421.883 111.016 425.176 111.016Z" fill="white"/>
<path d="M445.252 139.851H405.096C402.334 139.851 400.096 137.612 400.096 134.851C400.096 132.09 402.334 129.851 405.096 129.851H445.252C448.014 129.851 450.252 132.09 450.252 134.851C450.252 137.612 448.014 139.851 445.252 139.851Z" fill="#6582FD"/>
<path d="M397.046 110.111C394.284 110.111 392.046 107.872 392.046 105.111V104.996C392.046 102.235 394.284 99.996 397.046 99.996C399.808 99.996 402.046 102.235 402.046 104.996V105.111C402.046 107.873 399.808 110.111 397.046 110.111Z" fill="white"/>
<path d="M405.096 465.028C396.825 465.028 390.096 458.299 390.096 450.028C390.096 441.757 396.825 435.028 405.096 435.028C413.367 435.028 420.096 441.757 420.096 450.028C420.096 458.299 413.367 465.028 405.096 465.028ZM405.096 445.028C402.339 445.028 400.096 447.271 400.096 450.028C400.096 452.785 402.339 455.028 405.096 455.028C407.853 455.028 410.096 452.785 410.096 450.028C410.096 447.271 407.853 445.028 405.096 445.028Z" fill="#FF7EB7"/>
<path d="M80.012 257.96C71.741 257.96 65.012 251.231 65.012 242.96C65.012 234.689 71.741 227.96 80.012 227.96C88.283 227.96 95.012 234.689 95.012 242.96C95.012 251.231 88.283 257.96 80.012 257.96ZM80.012 237.96C77.255 237.96 75.012 240.203 75.012 242.96C75.012 245.717 77.255 247.96 80.012 247.96C82.769 247.96 85.012 245.717 85.012 242.96C85.012 240.203 82.769 237.96 80.012 237.96Z" fill="#8298FD"/>
<path d="M356.664 489.043C353.902 489.043 351.664 486.804 351.664 484.043C351.664 481.01 349.196 478.543 346.164 478.543C343.402 478.543 341.164 476.304 341.164 473.543C341.164 470.782 343.402 468.543 346.164 468.543C349.196 468.543 351.664 466.076 351.664 463.043C351.664 460.282 353.902 458.043 356.664 458.043C359.426 458.043 361.664 460.282 361.664 463.043C361.664 466.076 364.132 468.543 367.164 468.543C369.926 468.543 372.164 470.782 372.164 473.543C372.164 476.304 369.926 478.543 367.164 478.543C364.132 478.543 361.664 481.01 361.664 484.043C361.664 486.805 359.426 489.043 356.664 489.043Z" fill="#01EBA4"/>
<path d="M216.717 92.422C213.955 92.422 211.717 90.183 211.717 87.422C211.717 84.389 209.249 81.922 206.217 81.922C203.455 81.922 201.217 79.683 201.217 76.922C201.217 74.161 203.455 71.922 206.217 71.922C209.249 71.922 211.717 69.455 211.717 66.422C211.717 63.661 213.955 61.422 216.717 61.422C219.479 61.422 221.717 63.661 221.717 66.422C221.717 69.455 224.185 71.922 227.217 71.922C229.979 71.922 232.217 74.161 232.217 76.922C232.217 79.683 229.979 81.922 227.217 81.922C224.185 81.922 221.717 84.389 221.717 87.422C221.717 90.184 219.479 92.422 216.717 92.422Z" fill="#01EBA4"/>
<path d="M478.776 392.745C476.014 392.745 473.776 390.506 473.776 387.745C473.776 384.712 471.308 382.245 468.276 382.245C465.514 382.245 463.276 380.006 463.276 377.245C463.276 374.484 465.514 372.245 468.276 372.245C471.308 372.245 473.776 369.778 473.776 366.745C473.776 363.984 476.014 361.745 478.776 361.745C481.538 361.745 483.776 363.984 483.776 366.745C483.776 369.778 486.244 372.245 489.276 372.245C492.038 372.245 494.276 374.484 494.276 377.245C494.276 380.006 492.038 382.245 489.276 382.245C486.244 382.245 483.776 384.712 483.776 387.745C483.776 390.506 481.538 392.745 478.776 392.745Z" fill="#8298FD"/>
</g>
<defs>
<linearGradient id="paint0_linear_311_6439" x1="79.498" y1="430.734" x2="467.673" y2="42.56" gradientUnits="userSpaceOnUse">
<stop stop-color="white" stop-opacity="0"/>
<stop offset="1" stop-color="#96FFD1"/>
</linearGradient>
<clipPath id="clip0_311_6439">
<rect width="512" height="512" fill="white"/>
</clipPath>
</defs>
</svg>
