<svg width="512" height="512" viewBox="0 0 512 512" fill="none" xmlns="http://www.w3.org/2000/svg">
<g clip-path="url(#clip0_307_7654)">
<path d="M487.599 127.86C483.423 56.924 418.806 16.706 352.251 4.06803C98.951 -44.033 -113.979 349.236 135.364 405.69C232.314 427.641 267.566 458.723 314.371 502.108C333.568 519.903 363.187 512.434 375.674 489.739C393.101 458.066 378.046 420.551 382.069 386.687C393.219 292.831 493.438 227.03 487.599 127.86Z" fill="url(#paint0_linear_307_7654)"/>
<path opacity="0.1" d="M400.261 144.058H362.548V122.138C362.548 105.569 349.116 92.138 332.548 92.138H179.452C162.883 92.138 149.452 105.569 149.452 122.138V144.058H111.739C108.978 144.058 106.739 146.297 106.739 149.058V219.299C106.739 222.06 108.978 224.299 111.739 224.299H149.452V437.863C149.452 454.431 162.883 467.863 179.452 467.863H332.549C349.117 467.863 362.549 454.431 362.549 437.863V224.299H400.262C403.023 224.299 405.262 222.06 405.262 219.299V149.058C405.261 146.296 403.023 144.058 400.261 144.058Z" fill="#0000CA"/>
<path d="M332.548 443.863H179.452C162.883 443.863 149.452 430.432 149.452 413.863V98.137C149.452 81.568 162.883 68.137 179.452 68.137H332.549C349.118 68.137 362.549 81.568 362.549 98.137V413.862C362.548 430.431 349.117 443.863 332.548 443.863Z" fill="#6C6CFF"/>
<path d="M362.55 144.06V224.3H338.99L327.73 232.31C324.42 234.67 319.84 232.3 319.84 228.24V149.06C319.84 146.3 322.07 144.06 324.84 144.06H362.55Z" fill="#4D4DFF"/>
<path d="M192.16 149.06V228.24C192.16 232.3 187.58 234.67 184.27 232.31L173.01 224.3H149.45V144.06H187.16C189.93 144.06 192.16 146.3 192.16 149.06Z" fill="#4D4DFF"/>
<path d="M347.548 98.14V413.86C347.548 422.144 340.832 428.86 332.548 428.86H179.448C171.164 428.86 164.448 422.144 164.448 413.86V98.14C164.448 89.856 171.164 83.14 179.448 83.14H219.368C223.273 83.14 226.438 86.305 226.438 90.21C226.438 95.733 230.915 100.21 236.438 100.21H275.558C281.081 100.21 285.558 95.733 285.558 90.21C285.558 86.305 288.723 83.14 292.628 83.14H332.548C340.833 83.14 347.548 89.856 347.548 98.14Z" fill="#7AEE90"/>
<path d="M347.55 144.06V224.3H338.99L327.73 232.31C324.42 234.67 319.84 232.3 319.84 228.24V149.06C319.84 146.3 322.07 144.06 324.84 144.06H347.55Z" fill="#4AE767"/>
<path d="M192.16 149.06V228.24C192.16 232.3 187.58 234.67 184.27 232.31L173.01 224.3H164.45V144.06H187.16C189.93 144.06 192.16 146.3 192.16 149.06Z" fill="#4AE767"/>
<path d="M177.14 227.24V379.28C177.14 384.803 181.617 389.28 187.14 389.28H325.59C331.113 389.28 335.59 384.803 335.59 379.28V226.72L325.59 200.206H187.14L177.14 227.24Z" fill="white"/>
<path d="M335.59 210.21V226.72L327.73 232.31C324.42 234.67 319.84 232.3 319.84 228.24V200.21H325.59C331.11 200.21 335.59 204.68 335.59 210.21Z" fill="#D8D8FF"/>
<path d="M192.16 200.21V228.24C192.16 232.3 187.58 234.67 184.27 232.31L177.14 227.24V210.21C177.14 204.68 181.62 200.21 187.14 200.21H192.16Z" fill="#D8D8FF"/>
<path d="M295.378 410.443H216.622C213.86 410.443 211.622 408.205 211.622 405.443C211.622 402.681 213.86 400.443 216.622 400.443H295.378C298.14 400.443 300.378 402.681 300.378 405.443C300.378 408.205 298.14 410.443 295.378 410.443Z" fill="#FFF2ED"/>
<path d="M405.261 125.058V195.299C405.261 198.06 403.022 200.299 400.261 200.299H338.994L327.734 208.311C324.424 210.667 319.835 208.3 319.835 204.237V125.058C319.835 122.297 322.074 120.058 324.835 120.058H400.261C403.023 120.058 405.261 122.296 405.261 125.058Z" fill="#7FB3FF"/>
<path d="M358.214 176.84C356.935 176.84 355.655 176.352 354.679 175.376L343.722 164.42C341.769 162.467 341.769 159.301 343.721 157.349C345.674 155.396 348.839 155.397 350.792 157.348L358.214 164.769L376.592 146.392C378.543 144.439 381.711 144.439 383.662 146.392C385.615 148.344 385.615 151.51 383.662 153.462L361.749 175.375C360.773 176.352 359.493 176.84 358.214 176.84Z" fill="white"/>
<path d="M106.739 125.058V195.299C106.739 198.06 108.978 200.299 111.739 200.299H173.006L184.266 208.311C187.576 210.667 192.165 208.3 192.165 204.237V125.058C192.165 122.297 189.926 120.058 187.165 120.058H111.739C108.977 120.058 106.739 122.296 106.739 125.058Z" fill="#FF7EB7"/>
<path d="M362.549 223.088C359.787 223.088 357.549 225.326 357.549 228.088V413.862C357.549 427.647 346.334 438.862 332.549 438.862H236.43C233.668 438.862 231.43 441.1 231.43 443.862C231.43 446.624 233.668 448.862 236.43 448.862H332.549C351.848 448.862 367.549 433.161 367.549 413.862V228.088C367.549 225.326 365.311 223.088 362.549 223.088Z" fill="#0000CA"/>
<path d="M400.261 115.058H367.55V98.14C367.55 78.841 351.849 63.14 332.55 63.14H179.45C160.151 63.14 144.45 78.841 144.45 98.14V115.058H111.739C106.225 115.058 101.739 119.544 101.739 125.058V195.299C101.739 200.813 106.225 205.299 111.739 205.299H144.45V413.86C144.45 433.159 160.151 448.86 179.45 448.86H208.75C211.512 448.86 213.75 446.622 213.75 443.86C213.75 441.098 211.512 438.86 208.75 438.86H179.45C165.665 438.86 154.45 427.645 154.45 413.86V205.299H171.408L181.367 212.385C183.098 213.617 185.123 214.243 187.16 214.243C188.724 214.243 190.298 213.873 191.749 213.124C195.09 211.401 197.165 207.996 197.165 204.237V125.057C197.165 119.543 192.679 115.057 187.165 115.057H154.45V98.14C154.45 84.355 165.665 73.14 179.45 73.14H332.55C346.335 73.14 357.55 84.355 357.55 98.14V115.058H324.835C319.321 115.058 314.835 119.544 314.835 125.058V204.238C314.835 207.997 316.91 211.402 320.251 213.125C321.703 213.874 323.274 214.244 324.84 214.244C326.877 214.244 328.902 213.618 330.633 212.386L340.592 205.3H400.261C405.775 205.3 410.261 200.814 410.261 195.3V125.059C410.261 119.544 405.774 115.058 400.261 115.058ZM187.164 204.236L175.904 196.224C175.057 195.621 174.045 195.298 173.006 195.298H111.739V125.057H187.165L187.164 204.236ZM400.261 195.299H338.994C337.955 195.299 336.942 195.622 336.096 196.225L324.835 204.238V125.058L400.261 125.052V195.299Z" fill="#0000CA"/>
<path d="M156.522 160.884L164.987 152.419C166.94 150.467 166.94 147.301 164.987 145.349C163.036 143.396 159.868 143.396 157.917 145.349L149.452 153.814L140.987 145.349C139.036 143.396 135.868 143.396 133.917 145.349C131.964 147.301 131.964 150.467 133.917 152.419L142.382 160.884L133.917 169.349C131.964 171.301 131.964 174.467 133.917 176.419C134.893 177.396 136.173 177.884 137.452 177.884C138.731 177.884 140.012 177.396 140.987 176.419L149.452 167.954L157.917 176.419C158.893 177.396 160.173 177.884 161.452 177.884C162.731 177.884 164.012 177.396 164.987 176.419C166.94 174.467 166.94 171.301 164.987 169.349L156.522 160.884Z" fill="white"/>
<path d="M233.135 142.396C225.46 142.396 219.216 136.152 219.216 128.477C219.216 120.802 225.46 114.558 233.135 114.558C240.811 114.558 247.055 120.802 247.055 128.477C247.055 136.152 240.811 142.396 233.135 142.396ZM233.135 124.559C230.974 124.559 229.216 126.317 229.216 128.478C229.216 130.639 230.974 132.397 233.135 132.397C235.296 132.397 237.055 130.639 237.055 128.478C237.055 126.317 235.296 124.559 233.135 124.559Z" fill="#003DD0"/>
<path d="M278.865 185.296C271.189 185.296 264.945 179.052 264.945 171.377C264.945 163.702 271.189 157.458 278.865 157.458C286.54 157.458 292.784 163.702 292.784 171.377C292.784 179.052 286.54 185.296 278.865 185.296ZM278.865 167.458C276.704 167.458 274.945 169.216 274.945 171.377C274.945 173.538 276.704 175.296 278.865 175.296C281.026 175.296 282.784 173.538 282.784 171.377C282.784 169.216 281.026 167.458 278.865 167.458Z" fill="#003DD0"/>
<path d="M235.268 183.313C232.026 183.313 228.785 182.08 226.317 179.611C223.925 177.219 222.608 174.041 222.608 170.659C222.608 167.277 223.925 164.098 226.317 161.707L267.781 120.243C272.718 115.307 280.75 115.306 285.684 120.243C288.076 122.634 289.393 125.812 289.393 129.194C289.393 132.577 288.076 135.756 285.684 138.147L244.22 179.611C241.752 182.079 238.509 183.313 235.268 183.313ZM276.732 126.536C276.05 126.536 275.369 126.796 274.85 127.314L233.386 168.778C232.883 169.281 232.607 169.949 232.607 170.659C232.607 171.37 232.884 172.038 233.386 172.541C234.424 173.577 236.113 173.576 237.149 172.54L278.613 131.076C279.116 130.573 279.392 129.905 279.392 129.194C279.392 128.484 279.116 127.816 278.613 127.314C278.095 126.796 277.413 126.536 276.732 126.536Z" fill="#003DD0"/>
<path d="M249.465 226.354V237.959C249.465 239.352 248.336 240.48 246.944 240.48H238.793V267.592C238.793 268.985 237.664 270.113 236.272 270.113H208.53C207.137 270.113 206.009 268.984 206.009 267.592V240.48H197.858C196.465 240.48 195.337 239.351 195.337 237.959V226.354C195.337 224.961 196.466 223.833 197.858 223.833H212.348C213.245 223.833 214.082 224.306 214.523 225.087C216.073 227.835 219.019 229.689 222.397 229.689C225.777 229.689 228.723 227.834 230.277 225.085C230.718 224.305 231.555 223.833 232.451 223.833H246.944C248.336 223.833 249.465 224.961 249.465 226.354Z" fill="#BCD7FF"/>
<path d="M316.664 226.354V237.959C316.664 239.352 315.535 240.48 314.143 240.48H305.992V267.592C305.992 268.985 304.863 270.113 303.471 270.113H275.729C274.336 270.113 273.208 268.984 273.208 267.592V240.48H265.057C263.664 240.48 262.536 239.351 262.536 237.959V226.354C262.536 224.961 263.665 223.833 265.057 223.833H279.548C280.445 223.833 281.282 224.306 281.723 225.087C283.273 227.835 286.219 229.689 289.597 229.689C292.977 229.689 295.923 227.834 297.477 225.085C297.918 224.305 298.755 223.833 299.651 223.833H314.144C315.535 223.833 316.664 224.961 316.664 226.354Z" fill="#BCD7FF"/>
<path d="M249.465 286.761V298.366C249.465 299.759 248.336 300.887 246.944 300.887H238.793V327.999C238.793 329.392 237.664 330.52 236.272 330.52H208.53C207.137 330.52 206.009 329.391 206.009 327.999V300.887H197.858C196.465 300.887 195.337 299.758 195.337 298.366V286.761C195.337 285.368 196.466 284.24 197.858 284.24H212.348C213.245 284.24 214.082 284.713 214.523 285.494C216.073 288.242 219.019 290.096 222.397 290.096C225.777 290.096 228.723 288.241 230.277 285.492C230.718 284.712 231.555 284.24 232.451 284.24H246.944C248.336 284.239 249.465 285.368 249.465 286.761Z" fill="#BCD7FF"/>
<path d="M316.664 286.761V298.366C316.664 299.759 315.535 300.887 314.143 300.887H305.992V327.999C305.992 329.392 304.863 330.52 303.471 330.52H275.729C274.336 330.52 273.208 329.391 273.208 327.999V300.887H265.057C263.664 300.887 262.536 299.758 262.536 298.366V286.761C262.536 285.368 263.665 284.24 265.057 284.24H279.548C280.445 284.24 281.282 284.713 281.723 285.494C283.273 288.242 286.219 290.096 289.597 290.096C292.977 290.096 295.923 288.241 297.477 285.492C297.918 284.712 298.755 284.24 299.651 284.24H314.144C315.535 284.239 316.664 285.368 316.664 286.761Z" fill="#D8D8FF"/>
<path d="M265.505 372.283H300.498C302.134 372.283 303.461 370.956 303.461 369.32V358.313C303.461 356.677 302.135 355.35 300.498 355.35H265.505C263.869 355.35 262.542 356.677 262.542 358.313V369.32C262.542 370.956 263.868 372.283 265.505 372.283Z" fill="#00D627"/>
<path d="M211.502 372.283H246.495C248.131 372.283 249.458 370.956 249.458 369.32V358.313C249.458 356.677 248.131 355.35 246.495 355.35H211.502C209.866 355.35 208.539 356.677 208.539 358.313V369.32C208.539 370.956 209.866 372.283 211.502 372.283Z" fill="#3E89F0"/>
<path d="M225.29 248.832H219.511C216.749 248.832 214.511 246.594 214.511 243.832C214.511 241.07 216.749 238.832 219.511 238.832H225.29C228.052 238.832 230.29 241.07 230.29 243.832C230.29 246.594 228.052 248.832 225.29 248.832Z" fill="#3E89F0"/>
<path d="M292.489 248.832H286.71C283.948 248.832 281.71 246.594 281.71 243.832C281.71 241.07 283.948 238.832 286.71 238.832H292.489C295.251 238.832 297.489 241.07 297.489 243.832C297.489 246.594 295.251 248.832 292.489 248.832Z" fill="#3E89F0"/>
<path d="M225.29 309.239H219.511C216.749 309.239 214.511 307.001 214.511 304.239C214.511 301.477 216.749 299.239 219.511 299.239H225.29C228.052 299.239 230.29 301.477 230.29 304.239C230.29 307.001 228.052 309.239 225.29 309.239Z" fill="#3E89F0"/>
<path d="M292.489 309.239H286.71C283.948 309.239 281.71 307.001 281.71 304.239C281.71 301.477 283.948 299.239 286.71 299.239H292.489C295.251 299.239 297.489 301.477 297.489 304.239C297.489 307.001 295.251 309.239 292.489 309.239Z" fill="#FFB2B2"/>
<path d="M65.754 148.33C64.723 148.33 63.692 148.012 62.816 147.375C61.063 146.103 60.33 143.846 61 141.785L62.474 137.248L58.615 134.443C56.862 133.17 56.129 130.913 56.799 128.853C57.468 126.792 59.388 125.398 61.554 125.398H66.325L67.8 120.861C68.469 118.8 70.389 117.406 72.555 117.406C74.721 117.406 76.641 118.801 77.31 120.861L78.785 125.398H83.556C85.722 125.398 87.642 126.793 88.311 128.853C88.981 130.913 88.248 133.169 86.496 134.443L82.637 137.248L84.111 141.785C84.781 143.845 84.048 146.101 82.295 147.375C80.543 148.648 78.17 148.648 76.418 147.375L72.558 144.571L68.7 147.375C67.816 148.012 66.785 148.33 65.754 148.33Z" fill="#00AC1F"/>
<path d="M418.403 262.248C417.372 262.248 416.341 261.93 415.465 261.293L411.605 258.489L407.747 261.293C405.993 262.566 403.621 262.566 401.869 261.293C400.116 260.021 399.383 257.764 400.053 255.703L401.527 251.166L397.668 248.361C395.915 247.088 395.182 244.831 395.852 242.771C396.521 240.71 398.441 239.316 400.607 239.316H405.378L406.853 234.78C407.522 232.719 409.442 231.325 411.608 231.325C413.774 231.325 415.694 232.72 416.363 234.78L417.838 239.316H422.609C424.775 239.316 426.695 240.711 427.364 242.771C428.034 244.831 427.301 247.087 425.549 248.361L421.69 251.166L423.164 255.703C423.834 257.763 423.101 260.019 421.348 261.293C420.466 261.93 419.435 262.248 418.403 262.248Z" fill="#00AC1F"/>
<path d="M120.799 468.997C119.768 468.997 118.737 468.679 117.86 468.042L114.002 465.238L110.142 468.042C108.39 469.315 106.017 469.315 104.265 468.042C102.512 466.769 101.779 464.512 102.449 462.452L103.923 457.915L100.064 455.11C98.312 453.837 97.579 451.58 98.249 449.52C98.918 447.459 100.838 446.065 103.004 446.065H107.775L109.25 441.528C109.919 439.467 111.839 438.073 114.005 438.073C116.171 438.073 118.091 439.468 118.76 441.528L120.235 446.065H125.006C127.172 446.065 129.092 447.46 129.761 449.52C130.431 451.58 129.698 453.836 127.945 455.11L124.086 457.915L125.56 462.452C126.23 464.513 125.497 466.769 123.744 468.042C122.861 468.679 121.83 468.997 120.799 468.997Z" fill="#00AC1F"/>
<path d="M97.207 82.462C88.936 82.462 82.207 75.733 82.207 67.462C82.207 59.191 88.936 52.462 97.207 52.462C105.478 52.462 112.207 59.191 112.207 67.462C112.207 75.733 105.479 82.462 97.207 82.462ZM97.207 62.462C94.45 62.462 92.207 64.705 92.207 67.462C92.207 70.219 94.45 72.462 97.207 72.462C99.964 72.462 102.207 70.219 102.207 67.462C102.207 64.705 99.964 62.462 97.207 62.462Z" fill="#0000CA"/>
<path d="M444.604 329.703C436.333 329.703 429.604 322.974 429.604 314.703C429.604 306.432 436.333 299.703 444.604 299.703C452.875 299.703 459.604 306.432 459.604 314.703C459.604 322.974 452.876 329.703 444.604 329.703ZM444.604 309.703C441.847 309.703 439.604 311.946 439.604 314.703C439.604 317.46 441.847 319.703 444.604 319.703C447.361 319.703 449.604 317.46 449.604 314.703C449.604 311.946 447.361 309.703 444.604 309.703Z" fill="#0000CA"/>
</g>
<defs>
<linearGradient id="paint0_linear_307_7654" x1="113.491" y1="421.2" x2="467.444" y2="67.2481" gradientUnits="userSpaceOnUse">
<stop stop-color="#E8FBE9" stop-opacity="0"/>
<stop offset="0.9981" stop-color="#7AEE90"/>
</linearGradient>
<clipPath id="clip0_307_7654">
<rect width="512" height="512" fill="white"/>
</clipPath>
</defs>
</svg>
