<svg width="524" height="385" viewBox="0 0 524 385" fill="none" xmlns="http://www.w3.org/2000/svg">
<path d="M306.819 159.019L380.687 174.73C381.91 180.685 386.166 185.532 391.777 187.576L319.271 269.671L296.027 166.651C300.547 165.615 304.399 162.816 306.819 159.019Z" fill="#3E89F0"/>
<path d="M281.2 163.225L215.129 200.293C215.514 206.332 212.637 212.215 207.667 215.662L237.58 242.229L287.076 166.34C284.909 165.681 282.918 164.616 281.2 163.225Z" fill="#3E89F0"/>
<path d="M237.578 242.227L319.271 269.671L296.028 166.657C293.089 167.333 289.957 167.221 287.072 166.348L237.578 242.227Z" fill="#1E63E0"/>
<path d="M319.271 269.671L429.223 240.395L403.802 187.54C399.955 188.97 395.629 188.99 391.773 187.583L319.271 269.671Z" fill="#1E63E0"/>
<path d="M238.025 242.227L143.68 263.883L191.52 217.428C196.939 219.684 203.28 219.02 208.117 215.664L238.025 242.227Z" fill="#7FB3FF"/>
<path d="M19.8041 238.229L91.2934 196.227C93.7481 198.153 96.7348 199.433 99.9987 199.81L73.0086 275.339L19.8041 238.229Z" fill="#1E63E0"/>
<path d="M524 181.106L429.224 240.395L500.475 109.876L524 181.106Z" fill="#3E89F0"/>
<path d="M73.0085 275.341L143.231 263.884L108.996 198.475C106.182 199.707 103.046 200.165 99.9986 199.812L73.0085 275.341Z" fill="#3E89F0"/>
<path d="M500.475 109.876L414.897 168.289C416.278 176.426 411.62 184.632 403.801 187.538L429.223 240.395L500.475 109.876Z" fill="#7FB3FF"/>
<path d="M116.93 191.51L180.693 204.794C181.843 210.521 185.804 215.231 191.074 217.425L143.231 263.883L108.993 198.472C112.304 197.024 115.077 194.574 116.93 191.51Z" fill="#1E63E0"/>
<path d="M242.491 -3.05176e-05L337.988 8.35334L318.104 96.5269L242.491 -3.05176e-05Z" fill="#4AE767"/>
<path d="M309.364 147.262L382.488 162.816C383.604 160.799 385.104 159.025 386.898 157.599L318.104 96.5267L296.337 132.803C303.152 134.495 308.378 140.195 309.364 147.262Z" fill="#00D627"/>
<path d="M318.104 96.5268L397.634 86.6536L396.259 153.878C392.736 154.173 389.509 155.517 386.898 157.599L318.104 96.5268Z" fill="#2C9F41"/>
<path d="M318.104 96.5269L232.237 70.7091L242.491 -3.05176e-05L318.104 96.5269Z" fill="#26DD45"/>
<path d="M318.104 96.5269L397.634 86.6537L337.988 8.35334L318.104 96.5269Z" fill="#00D627"/>
<path d="M318.104 96.5268L232.237 70.7091L283.332 134.671C287.228 132.381 291.967 131.706 296.345 132.794L318.104 96.5268Z" fill="#00AC1F"/>
<path d="M408.239 157.352L496.916 96.8161L397.635 86.6505L396.259 153.887C400.528 153.525 404.819 154.76 408.239 157.352Z" fill="#008B1A"/>
<path d="M242.491 -0.000144958L135.714 24.5237L232.237 70.709L242.491 -0.000144958Z" fill="#00D627"/>
<path d="M274.851 151.737L209.43 188.44C206.804 186.066 203.451 184.482 199.746 184.061L232.237 70.7091L283.335 134.68C277.389 138.171 274.052 144.921 274.851 151.737Z" fill="#2DA041"/>
<path d="M397.634 86.6538L458.989 58.0738L496.914 96.8164L397.634 86.6538Z" fill="#00AC1F"/>
<path d="M232.237 70.7093L148.518 113.807L135.714 24.524L232.237 70.7093Z" fill="#00AC1F"/>
<path d="M397.634 86.6538L458.989 58.0738L337.988 8.35342L397.634 86.6538Z" fill="#26DD45"/>
<path d="M232.237 70.7092L148.516 113.807L190.438 185.558C193.331 184.214 196.581 183.702 199.746 184.061L232.237 70.7092Z" fill="#008B1A"/>
<path d="M182.564 192.869L119.203 179.666C118.161 173.367 113.735 168.209 107.854 166.123L148.516 113.807L190.441 185.563C187.112 187.111 184.349 189.681 182.564 192.869Z" fill="#007717"/>
<path d="M148.518 113.807L45.5866 96.068L135.714 24.524L148.518 113.807Z" fill="#00D627"/>
<path d="M148.518 113.807L45.5866 96.0679L94.3088 166.919C98.4955 164.844 103.463 164.551 107.86 166.115L148.518 113.807Z" fill="#008B1A"/>
<path d="M84.7943 184.901L16.2466 225.167L45.5866 96.0695L94.3133 166.927C87.6248 170.244 83.7912 177.561 84.7943 184.901Z" fill="#00AC1F"/>
<path d="M208.886 313.117L277.347 310.07L237.578 242.227L208.886 313.117Z" fill="#1E63E0"/>
<path d="M349.478 335.778L277.346 310.07L319.271 269.671L349.478 335.778Z" fill="#1E63E0"/>
<path d="M349.478 335.778L409.582 327.578L418.628 385L349.478 335.778Z" fill="#002790"/>
<path d="M319.271 269.671L237.578 242.227L277.347 310.069L319.271 269.671Z" fill="#003DD0"/>
<path d="M237.578 242.227L143.231 263.883L208.886 313.117L237.578 242.227Z" fill="#3E89F0"/>
<path d="M319.271 269.671L429.224 240.395L349.478 335.778L319.271 269.671Z" fill="#003DD0"/>
<path d="M349.478 335.778L409.582 327.578L429.224 240.395L349.478 335.778Z" fill="#0032B0"/>
<path d="M429.224 240.395L477.672 269.266L409.582 327.578L429.224 240.395Z" fill="#003DD0"/>
<path d="M524 181.106L429.224 240.395L477.672 269.266L524 181.106Z" fill="#1E63E0"/>
<path d="M0 165.421L16.2466 225.167L45.5866 96.068L0 165.421Z" fill="#00D627"/>
</svg>
