<svg width="512" height="512" viewBox="0 0 512 512" fill="none" xmlns="http://www.w3.org/2000/svg">
<g clip-path="url(#clip0_307_7734)">
<path d="M500.792 424.79C479.939 339.612 424.33 250.914 464.559 164.277C494.686 99.397 520.94 -16.812 417.119 2.04102C347.357 14.71 235.14 20.829 194.352 8.86002C131.543 -9.57098 125.13 53.728 95.822 91.39C82.975 107.899 56.565 104.414 37.875 113.807C-10.308 138.022 5.885 200.798 51.193 223.895C140.991 269.673 271.463 271.602 316.377 372.445C329.348 401.569 330.054 434.737 343.795 463.502C381.949 543.375 524.227 520.516 500.792 424.79Z" fill="url(#paint0_linear_307_7734)"/>
<path opacity="0.1" d="M388.28 215.548C406.745 198.904 421.663 182.427 432.193 166.942C449.113 142.061 453.563 121.126 445.06 106.398C434.246 87.668 404.064 82.1809 360.078 90.9469C338.269 95.2939 314.205 102.861 289.177 113.114C278.028 109.314 266.019 107.373 253.517 107.671C242.832 107.921 232.547 109.833 222.901 113.145C197.845 102.876 173.755 95.2979 151.924 90.9469C107.935 82.1789 77.756 87.667 66.942 106.398C58.459 121.09 62.87 141.969 79.696 166.776C86.739 177.159 95.764 187.993 106.508 199.027C105.675 201.975 105.219 205.081 105.219 208.295C105.219 215.397 107.398 221.988 111.121 227.442C105.732 232.772 100.693 238.095 96.051 243.383C66.465 277.093 56.127 305.974 66.941 324.704C74.499 337.794 91.238 344.342 115.043 344.342C138.571 344.342 169.001 337.944 204.278 325.143C205.077 324.853 205.739 324.366 206.271 323.774C208.606 330.982 210.271 338.429 211.242 346.003L212 351.871H209.303C203.78 351.871 199.303 356.348 199.303 361.871V369.254C199.303 374.777 203.78 379.254 209.303 379.254H212.891L214.571 394.335H210.474C207.713 394.335 205.474 396.573 205.474 399.335C205.474 402.097 207.713 404.335 210.474 404.335H215.685L216.932 415.529H213.474C210.713 415.529 208.474 417.767 208.474 420.529C208.474 423.291 210.713 425.529 213.474 425.529H218.504C221.335 434.624 229.193 441.347 238.686 442.717V463.15C238.686 465.911 240.925 468.15 243.686 468.15H268.317C271.078 468.15 273.317 465.911 273.317 463.15V442.717C282.81 441.347 290.668 434.624 293.499 425.529H297.171C299.932 425.529 302.171 423.291 302.171 420.529C302.171 417.767 299.932 415.529 297.171 415.529H295.072L296.319 404.335H300.171C302.932 404.335 305.171 402.097 305.171 399.335C305.171 396.573 302.932 394.335 300.171 394.335H297.433L299.113 379.254H302.701C308.224 379.254 312.701 374.777 312.701 369.254V361.871C312.701 356.348 308.224 351.871 302.701 351.871H299.999L300.762 345.932C301.713 338.522 303.391 331.286 305.702 324.278C305.999 324.466 306.317 324.63 306.66 324.755C324.491 331.275 341.42 336.217 356.968 339.503C361.892 352.219 374.232 361.241 388.687 361.241C402.257 361.241 413.967 353.292 419.424 341.798C431.53 338.789 440.246 333.045 445.062 324.704C455.876 305.974 445.538 277.093 415.952 243.383C407.856 234.162 398.57 224.836 388.28 215.548ZM362.032 100.754C400.916 93.0049 428.02 96.884 436.399 111.399C447.617 130.828 425.2 168.853 380.695 208.869C373.128 202.358 365.087 195.883 356.633 189.494C350.219 158.459 329.813 132.551 302.307 118.644C323.358 110.518 343.544 104.439 362.032 100.754ZM358.531 203.578C363.564 207.54 368.427 211.526 373.106 215.527C368.034 219.871 362.711 224.228 357.152 228.577C358.206 222.678 358.762 216.607 358.762 210.406C358.763 208.111 358.679 205.836 358.531 203.578ZM75.601 111.398C83.981 96.883 111.084 93.0049 149.968 100.753C168.489 104.445 188.712 110.539 209.802 118.685C185.218 131.181 166.276 153.296 157.918 179.882C152.554 176.347 146.134 174.283 139.229 174.283C127.513 174.283 117.182 180.208 111.065 189.223C80.311 156.765 66.25 127.595 75.601 111.398ZM200.866 315.743C136.803 338.99 87.632 340.545 75.6 319.705C67.221 305.191 77.413 279.777 103.566 249.98C107.988 244.942 112.781 239.869 117.908 234.786C123.741 239.487 131.154 242.306 139.229 242.306C144.005 242.306 148.548 241.317 152.672 239.541C152.779 239.623 152.885 239.705 152.992 239.788C154.394 240.861 156.177 241.069 157.721 240.514C162.368 255.692 170.434 269.375 181.031 280.66C190.588 290.847 198.027 302.702 203.246 315.511C202.468 315.404 201.657 315.456 200.866 315.743ZM436.399 319.705C433.639 324.485 428.916 328.075 422.535 330.51C422.638 329.43 422.696 328.337 422.696 327.23C422.696 308.446 407.469 293.219 388.685 293.219C369.901 293.219 354.674 308.446 354.674 327.23C354.674 327.757 354.69 328.281 354.714 328.803C340.971 325.656 325.99 321.177 310.093 315.364C309.777 315.249 309.457 315.17 309.137 315.12C314.642 302.117 322.418 290.082 332.048 279.497C342.005 268.552 349.627 255.444 354.135 240.964C355.601 241.382 357.235 241.144 358.54 240.148C366.355 234.183 373.76 228.187 380.726 222.199C391.059 231.475 400.365 240.786 408.435 249.981C434.586 279.777 444.779 305.191 436.399 319.705Z" fill="#2626BB"/>
<path d="M268.315 444.151H243.684C240.923 444.151 238.684 441.912 238.684 439.151V409.52H273.315V439.151C273.315 441.912 271.077 444.151 268.315 444.151Z" fill="#D1DDFF"/>
<path d="M294.474 396.874L299.11 355.254H212.89L217.526 396.874C218.929 409.471 229.578 418.999 242.253 418.999H269.748C282.422 418.999 293.071 409.471 294.474 396.874Z" fill="#8298FD"/>
<path d="M358.763 186.406C358.763 213.009 348.641 237.255 332.047 255.497C315.168 274.051 303.954 297.048 300.76 321.933L299.227 333.872H212.775L211.242 322.004C208.119 297.644 197.841 274.576 181.033 256.661C163.984 238.505 153.479 214.145 153.238 187.329C152.741 131.497 197.699 84.9779 253.517 83.6719C311.406 82.2939 358.763 128.814 358.763 186.406Z" fill="#7AEE90"/>
<path d="M256 263.05C299.495 263.05 334.755 227.79 334.755 184.295C334.755 140.8 299.495 105.54 256 105.54C212.505 105.54 177.245 140.8 177.245 184.295C177.245 227.79 212.505 263.05 256 263.05Z" fill="#B6F6BE"/>
<path d="M241.64 279.027V333.877H231.64V280.147L219.07 253.397C217.9 250.897 218.97 247.917 221.47 246.747C223.97 245.567 226.95 246.637 228.12 249.137L241.17 276.907C241.48 277.567 241.64 278.297 241.64 279.027Z" fill="#4AE767"/>
<path d="M292.93 253.397L280.36 280.147V333.877H270.36V279.027C270.36 278.297 270.52 277.567 270.83 276.907L283.88 249.137C285.05 246.637 288.03 245.567 290.53 246.747C293.03 247.917 294.1 250.897 292.93 253.397Z" fill="#4AE767"/>
<path d="M247.302 267.382C244.54 267.382 242.302 265.143 242.302 262.382V255.207C242.302 252.446 244.54 250.207 247.302 250.207C250.064 250.207 252.302 252.446 252.302 255.207V262.382C252.302 265.143 250.064 267.382 247.302 267.382Z" fill="#4AE767"/>
<path d="M264.698 267.382C261.936 267.382 259.698 265.143 259.698 262.382V255.207C259.698 252.446 261.936 250.207 264.698 250.207C267.46 250.207 269.698 252.446 269.698 255.207V262.382C269.698 265.143 267.46 267.382 264.698 267.382Z" fill="#4AE767"/>
<path d="M239.412 285.284C236.651 285.284 234.412 287.522 234.412 290.284C234.412 293.046 236.651 295.284 239.412 295.284H270.36V285.284H239.412Z" fill="#00D627"/>
<path d="M272.588 303.23H241.64V313.23H272.588C275.349 313.23 277.588 310.992 277.588 308.23C277.588 305.468 275.349 303.23 272.588 303.23Z" fill="#00D627"/>
<path d="M297.618 184.295C297.618 181.615 297.358 179.001 296.874 176.468L308.208 168.238C309.276 167.463 309.703 166.071 309.25 164.832C306.975 158.61 303.643 152.895 299.467 147.911C298.621 146.901 297.204 146.577 296 147.113L283.211 152.811C279.268 149.405 274.682 146.726 269.659 144.979L268.204 131.06C268.067 129.748 267.077 128.681 265.777 128.455C262.601 127.902 259.334 127.614 256 127.614C252.666 127.614 249.403 127.902 246.228 128.455C244.929 128.681 243.939 129.748 243.802 131.059L242.342 144.979C237.319 146.726 232.733 149.406 228.796 152.811L216.006 147.113C214.803 146.577 213.386 146.9 212.54 147.91C208.36 152.895 205.027 158.61 202.751 164.833C202.298 166.072 202.725 167.464 203.792 168.239L215.126 176.469C214.642 179.001 214.382 181.616 214.382 184.296C214.382 186.97 214.642 189.585 215.126 192.123L203.793 200.347C202.725 201.122 202.298 202.514 202.751 203.753C205.026 209.98 208.359 215.696 212.54 220.681C213.387 221.691 214.804 222.014 216.007 221.477L228.797 215.774C232.734 219.186 237.32 221.865 242.343 223.612L243.803 237.53C243.941 238.842 244.931 239.909 246.231 240.134C249.405 240.685 252.668 240.977 256.002 240.977C259.335 240.977 262.602 240.686 265.777 240.134C267.077 239.908 268.068 238.841 268.205 237.529L269.659 223.612C274.682 221.865 279.268 219.185 283.211 215.774L296 221.477C297.204 222.014 298.622 221.69 299.468 220.68C303.644 215.695 306.976 209.98 309.251 203.754C309.704 202.515 309.277 201.123 308.209 200.348L296.876 192.124C297.358 189.584 297.618 186.969 297.618 184.295ZM256 204.702C244.731 204.702 235.594 195.565 235.594 184.296C235.594 173.027 244.731 163.89 256 163.89C267.269 163.89 276.406 173.027 276.406 184.296C276.406 195.565 267.269 204.702 256 204.702Z" fill="#00AC1F"/>
<path d="M302.698 355.254H209.302C203.779 355.254 199.302 350.777 199.302 345.254V337.871C199.302 332.348 203.779 327.871 209.302 327.871H302.698C308.221 327.871 312.698 332.348 312.698 337.871V345.254C312.698 350.777 308.221 355.254 302.698 355.254Z" fill="#9EAFFD"/>
<path d="M388.684 337.241C407.468 337.241 422.695 322.014 422.695 303.23C422.695 284.446 407.468 269.219 388.684 269.219C369.9 269.219 354.673 284.446 354.673 303.23C354.673 322.014 369.9 337.241 388.684 337.241Z" fill="#00D627"/>
<path d="M398.78 292.024L383.439 307.365L378.741 302.667C376.895 300.82 373.896 300.521 371.882 302.184C369.572 304.091 369.451 307.518 371.518 309.586L379.904 317.972C380.842 318.91 382.113 319.436 383.439 319.436C384.765 319.436 386.037 318.909 386.974 317.972L405.851 299.095C407.803 297.143 407.804 293.977 405.851 292.024C403.899 290.071 400.733 290.071 398.78 292.024Z" fill="white"/>
<path d="M139.229 218.306C158.013 218.306 173.24 203.079 173.24 184.295C173.24 165.511 158.013 150.284 139.229 150.284C120.445 150.284 105.218 165.511 105.218 184.295C105.218 203.079 120.445 218.306 139.229 218.306Z" fill="#3E89F0"/>
<path d="M388.277 191.548C406.743 174.906 421.662 158.429 432.193 142.942C449.113 118.061 453.563 97.126 445.06 82.4C434.246 63.669 404.066 58.18 360.076 66.947C340.294 70.889 318.66 77.475 296.132 86.316C282.755 80.951 268.288 78.307 253.392 78.66C240.455 78.966 227.828 81.644 216.061 86.391C193.464 77.512 171.762 70.9 151.924 66.946C107.933 58.183 77.754 63.67 66.939 82.4C55.249 102.652 67.917 134.015 102.586 170.902C101.054 175.081 100.217 179.592 100.217 184.296C100.217 192.78 102.948 200.634 107.565 207.042C69.598 245.662 54.792 279.667 66.939 300.71C74.495 313.799 91.232 320.347 115.033 320.346C137.997 320.346 167.55 314.232 201.756 302.034C203.843 308.653 205.37 315.538 206.28 322.642L206.348 323.167C199.486 324.542 194.3 330.611 194.3 337.872V345.255C194.3 353.226 200.553 359.745 208.409 360.21L209.547 370.429C207.228 370.863 205.471 372.891 205.471 375.336C205.471 378.098 207.71 380.336 210.471 380.336H210.651L211.928 391.798C209.927 392.451 208.471 394.311 208.471 396.53C208.471 399.232 210.619 401.419 213.298 401.513C215.904 411.777 223.738 419.782 233.683 422.749V439.152C233.683 444.666 238.169 449.152 243.683 449.152H268.314C273.828 449.152 278.314 444.666 278.314 439.152V422.749C288.344 419.756 296.223 411.637 298.761 401.247C300.736 400.579 302.168 398.731 302.168 396.53C302.168 394.821 301.308 393.317 300.001 392.415L301.364 380.176C303.544 379.638 305.168 377.683 305.168 375.336C305.168 373.381 304.035 371.706 302.399 370.884L303.588 360.21C311.444 359.745 317.697 353.226 317.697 345.255V337.872C317.697 330.609 312.507 324.539 305.642 323.166L305.717 322.579C306.614 315.603 308.181 308.752 310.36 302.082C324.632 307.164 338.357 311.242 351.262 314.237C356.025 330.404 370.993 342.242 388.683 342.242C405.721 342.242 420.233 331.258 425.536 316.004C434.529 312.719 441.095 307.585 445.059 300.711C455.873 281.981 445.535 253.1 415.948 219.388C407.855 210.164 398.568 200.837 388.277 191.548ZM362.031 76.755C400.916 69.005 428.021 72.887 436.4 87.401C447.621 106.834 425.203 144.858 380.693 184.87C374.911 179.894 368.853 174.94 362.544 170.028C359.068 147.026 348.277 125.889 331.3 109.307C324.395 102.562 316.755 96.864 308.57 92.272C327.361 85.327 345.383 80.072 362.031 76.755ZM295.8 321.305L295.599 322.871H216.394L216.199 321.365C212.848 295.206 201.948 271.651 184.677 253.25C174.579 242.482 166.995 229.459 162.641 215.479C172.107 208.354 178.24 197.029 178.24 184.296C178.24 177.251 176.353 170.642 173.073 164.931C188.503 153.89 205.046 143.242 222.34 133.25C233.559 126.773 244.815 120.732 256 115.159C267.185 120.732 278.441 126.773 289.66 133.25C313.46 146.993 334.686 161.207 353.148 175.318C353.556 178.97 353.771 182.668 353.771 186.401C353.771 210.77 344.744 234.116 328.353 252.135C310.328 271.941 299.072 295.859 295.8 321.305ZM110.218 184.296C110.218 168.299 123.233 155.284 139.23 155.284C155.227 155.284 168.241 168.299 168.241 184.296C168.241 200.293 155.227 213.307 139.23 213.307C123.233 213.307 110.218 200.293 110.218 184.296ZM267.306 109.673C276.974 105.112 286.558 100.922 295.989 97.13C306.355 101.778 315.929 108.27 324.313 116.46C337.047 128.898 345.938 144.162 350.421 160.87C333.231 148.261 314.481 136.036 294.66 124.59C285.553 119.332 276.416 114.354 267.306 109.673ZM363.736 183.641C366.977 186.263 370.114 188.877 373.158 191.48C369.847 194.317 366.429 197.159 362.907 200C363.475 195.514 363.771 190.974 363.771 186.399C363.77 185.479 363.758 184.559 363.736 183.641ZM253.627 88.659C263.359 88.437 272.887 89.622 281.991 92.114C273.408 95.779 264.728 99.754 256 104.012C247.311 99.773 238.669 95.815 230.124 92.164C237.723 90.05 245.609 88.849 253.627 88.659ZM75.6 87.4C83.98 72.885 111.086 69.006 149.969 76.754C166.683 80.085 184.781 85.367 203.653 92.352C189.149 100.481 176.46 111.964 166.834 126.14C165.282 128.424 165.877 131.534 168.161 133.085C170.446 134.637 173.556 134.043 175.106 131.757C185.509 116.438 199.844 104.579 216.205 97.206C225.572 100.977 235.091 105.142 244.693 109.671C235.583 114.352 226.446 119.33 217.338 124.589C199.679 134.792 182.785 145.672 167.027 156.959C159.945 149.758 150.102 145.282 139.229 145.282C126.198 145.282 114.647 151.711 107.559 161.556C78.736 130.122 66.801 102.644 75.6 87.4ZM75.6 295.71C66.03 279.131 80.512 248.896 114.392 214.356C121.144 219.944 129.801 223.307 139.229 223.307C144.362 223.307 149.262 222.301 153.755 220.491C158.644 235.132 166.748 248.749 177.384 260.092C186.28 269.57 193.332 280.555 198.35 292.633C135.521 315.015 87.474 316.275 75.6 295.71ZM221.961 391.529L220.714 380.335H291.285L290.038 391.529H221.961ZM243.685 439.15V423.999H268.316V439.15H243.685ZM269.748 413.999H242.253C233.953 413.999 226.763 408.904 223.808 401.529H288.193C285.238 408.904 278.048 413.999 269.748 413.999ZM307.698 337.871V345.254C307.698 348.011 305.455 350.254 302.698 350.254H259.217C256.456 350.254 254.217 352.492 254.217 355.254C254.217 358.016 256.456 360.254 259.217 360.254H293.523L292.4 370.335H219.6L218.477 360.254H229.678C232.439 360.254 234.678 358.016 234.678 355.254C234.678 352.492 232.439 350.254 229.678 350.254H209.301C206.544 350.254 204.301 348.011 204.301 345.254V337.871C204.301 335.114 206.544 332.871 209.301 332.871H302.697C305.455 332.871 307.698 335.114 307.698 337.871ZM388.685 332.241C372.688 332.241 359.673 319.227 359.673 303.23C359.673 287.233 372.688 274.218 388.685 274.218C404.682 274.218 417.696 287.233 417.696 303.23C417.696 319.227 404.682 332.241 388.685 332.241ZM436.398 295.713C434.474 299.049 431.551 301.838 427.674 304.057C427.68 303.781 427.695 303.508 427.695 303.23C427.695 281.719 410.195 264.218 388.684 264.218C367.173 264.218 349.672 281.719 349.672 303.23C349.672 303.348 349.68 303.463 349.681 303.581C338.318 300.786 326.315 297.143 313.869 292.717C319.067 280.535 326.425 269.111 335.748 258.865C347.228 246.243 355.426 231.251 359.882 215.108C367.22 209.471 374.195 203.809 380.773 198.153C426.802 239.505 447.118 277.145 436.398 295.713Z" fill="#2626BB"/>
<path d="M149.325 173.089L133.984 188.43L129.286 183.732C127.44 181.885 124.441 181.586 122.427 183.249C120.117 185.156 119.996 188.583 122.063 190.651L130.449 199.037C131.387 199.975 132.658 200.501 133.984 200.501C135.31 200.501 136.582 199.974 137.519 199.037L156.396 180.16C158.348 178.208 158.349 175.042 156.396 173.089C154.444 171.137 151.278 171.136 149.325 173.089Z" fill="white"/>
<path d="M358.769 402.521C356.008 402.521 353.769 400.283 353.769 397.521C353.769 394.029 350.928 391.187 347.436 391.187C344.675 391.187 342.436 388.949 342.436 386.187C342.436 383.425 344.675 381.187 347.436 381.187C350.928 381.187 353.769 378.346 353.769 374.854C353.769 372.092 356.008 369.854 358.769 369.854C361.53 369.854 363.769 372.092 363.769 374.854C363.769 378.346 366.61 381.187 370.102 381.187C372.863 381.187 375.102 383.425 375.102 386.187C375.102 388.949 372.863 391.187 370.102 391.187C366.61 391.187 363.769 394.029 363.769 397.521C363.769 400.282 361.53 402.521 358.769 402.521Z" fill="#00D627"/>
<path d="M122.777 389.649C120.016 389.649 117.777 387.411 117.777 384.649C117.777 381.157 114.936 378.316 111.444 378.316C108.683 378.316 106.444 376.078 106.444 373.316C106.444 370.554 108.683 368.316 111.444 368.316C114.936 368.316 117.777 365.475 117.777 361.983C117.777 359.221 120.016 356.983 122.777 356.983C125.538 356.983 127.777 359.221 127.777 361.983C127.777 365.475 130.618 368.316 134.11 368.316C136.871 368.316 139.11 370.554 139.11 373.316C139.11 376.078 136.871 378.316 134.11 378.316C130.618 378.316 127.777 381.157 127.777 384.649C127.777 387.411 125.539 389.649 122.777 389.649Z" fill="#00D627"/>
<path d="M182.241 397.73C180.961 397.73 179.682 397.242 178.705 396.265L173.241 390.801L167.777 396.265C165.824 398.218 162.659 398.218 160.706 396.265C158.753 394.313 158.753 391.147 160.706 389.195L169.706 380.195C171.659 378.242 174.824 378.242 176.777 380.195L185.777 389.195C187.73 391.147 187.73 394.313 185.777 396.265C184.8 397.242 183.521 397.73 182.241 397.73Z" fill="#0000CA"/>
<path d="M318.136 64.638C316.856 64.638 315.577 64.15 314.6 63.173L309.136 57.709L303.672 63.173C301.719 65.126 298.554 65.126 296.601 63.173C294.648 61.221 294.648 58.055 296.601 56.103L305.601 47.103C307.554 45.15 310.719 45.15 312.672 47.103L321.672 56.103C323.625 58.055 323.625 61.221 321.672 63.173C320.695 64.149 319.416 64.638 318.136 64.638Z" fill="#003DD0"/>
<path d="M461.367 212.827C460.087 212.827 458.808 212.339 457.831 211.362L452.367 205.898L446.903 211.362C444.95 213.315 441.785 213.315 439.832 211.362C437.879 209.41 437.879 206.244 439.832 204.292L448.832 195.292C450.785 193.339 453.95 193.339 455.903 195.292L464.903 204.292C466.856 206.244 466.856 209.41 464.903 211.362C463.926 212.339 462.647 212.827 461.367 212.827Z" fill="#003DD0"/>
</g>
<defs>
<linearGradient id="paint0_linear_307_7734" x1="191.415" y1="369.692" x2="511.869" y2="49.237" gradientUnits="userSpaceOnUse">
<stop stop-color="#E8FBE9" stop-opacity="0"/>
<stop offset="1" stop-color="#26DD45"/>
</linearGradient>
<clipPath id="clip0_307_7734">
<rect width="512" height="512" fill="white"/>
</clipPath>
</defs>
</svg>
