<svg width="811" height="150" viewBox="0 0 811 150" fill="none" xmlns="http://www.w3.org/2000/svg">
<path d="M119.538 61.9556L148.317 68.0769C148.794 70.3969 150.452 72.2854 152.638 73.0818L124.389 105.067L115.333 64.9292C117.094 64.5254 118.595 63.435 119.538 61.9556Z" fill="#3E89F0"/>
<path d="M109.557 63.5942L83.8154 78.0364C83.9653 80.3889 82.8442 82.6812 80.9078 84.0242L92.5621 94.3748L111.846 64.808C111.002 64.5512 110.226 64.1361 109.557 63.5942Z" fill="#3E89F0"/>
<path d="M92.5615 94.3743L124.389 105.067L115.334 64.9315C114.189 65.1948 112.968 65.1511 111.844 64.8111L92.5615 94.3743Z" fill="#1E63E0"/>
<path d="M124.389 105.067L167.227 93.6606L157.323 73.0676C155.824 73.6249 154.139 73.6326 152.636 73.0842L124.389 105.067Z" fill="#1E63E0"/>
<path d="M92.7357 94.3741L55.9783 102.811L74.6171 84.7119C76.7282 85.5909 79.1988 85.3324 81.0833 84.0248L92.7357 94.3741Z" fill="#7FB3FF"/>
<path d="M7.7157 92.8162L35.5683 76.4518C36.5246 77.2022 37.6882 77.701 38.9599 77.848L28.4444 107.275L7.7157 92.8162Z" fill="#1E63E0"/>
<path d="M204.153 70.5608L167.228 93.6604L194.987 42.8087L204.153 70.5608Z" fill="#3E89F0"/>
<path d="M28.4445 107.276L55.8034 102.812L42.4655 77.3281C41.3692 77.808 40.1471 77.9863 38.9599 77.8487L28.4445 107.276Z" fill="#3E89F0"/>
<path d="M194.987 42.8087L161.646 65.5671C162.184 68.7373 160.369 71.9346 157.323 73.0668L167.227 93.6604L194.987 42.8087Z" fill="#7FB3FF"/>
<path d="M45.5565 74.6141L70.3988 79.7896C70.8469 82.0211 72.3901 83.8559 74.4433 84.7107L55.8034 102.811L42.4642 77.3267C43.7542 76.7623 44.8345 75.8078 45.5565 74.6141Z" fill="#1E63E0"/>
<path d="M94.4755 3.43323e-05L131.682 3.25459L123.935 37.6079L94.4755 3.43323e-05Z" fill="#4AE767"/>
<path d="M120.53 57.3749L149.019 63.4348C149.454 62.6491 150.038 61.9578 150.737 61.4023L123.935 37.6078L115.454 51.7413C118.109 52.4007 120.145 54.6216 120.53 57.3749Z" fill="#00D627"/>
<path d="M123.935 37.6079L154.92 33.7612L154.384 59.9525C153.012 60.0676 151.754 60.5912 150.737 61.4023L123.935 37.6079Z" fill="#2C9F41"/>
<path d="M123.935 37.6079L90.4805 27.549L94.4754 3.43323e-05L123.935 37.6079Z" fill="#26DD45"/>
<path d="M123.935 37.6079L154.92 33.7612L131.681 3.25459L123.935 37.6079Z" fill="#00D627"/>
<path d="M123.935 37.6079L90.4805 27.549L110.387 52.4692C111.905 51.5772 113.752 51.3139 115.457 51.7378L123.935 37.6079Z" fill="#00AC1F"/>
<path d="M159.052 61.3062L193.601 37.7207L154.92 33.7601L154.384 59.956C156.047 59.815 157.719 60.2961 159.052 61.3062Z" fill="#008B1A"/>
<path d="M94.4754 6.10352e-05L52.8746 9.55479L90.4804 27.5491L94.4754 6.10352e-05Z" fill="#00D627"/>
<path d="M107.083 59.1183L81.595 73.4182C80.5719 72.4931 79.2654 71.8762 77.822 71.7121L90.4805 27.5491L110.389 52.4728C108.072 53.8329 106.772 56.4629 107.083 59.1183Z" fill="#2DA041"/>
<path d="M154.92 33.7613L178.824 22.6262L193.6 37.7207L154.92 33.7613Z" fill="#00AC1F"/>
<path d="M90.4804 27.5489L57.8632 44.3401L52.8746 9.55465L90.4804 27.5489Z" fill="#00AC1F"/>
<path d="M154.92 33.7612L178.824 22.6262L131.682 3.25459L154.92 33.7612Z" fill="#26DD45"/>
<path d="M90.4804 27.5491L57.8625 44.3403L74.1954 72.2954C75.3224 71.7718 76.5887 71.5722 77.822 71.7121L90.4804 27.5491Z" fill="#008B1A"/>
<path d="M71.128 75.1438L46.4422 69.9995C46.036 67.5455 44.3116 65.5359 42.0204 64.723L57.8626 44.3402L74.1967 72.2972C72.8997 72.9005 71.8234 73.9017 71.128 75.1438Z" fill="#007717"/>
<path d="M57.8632 44.3401L17.7607 37.4289L52.8746 9.55465L57.8632 44.3401Z" fill="#00D627"/>
<path d="M57.8632 44.3401L17.7607 37.4289L36.7431 65.0334C38.3743 64.2247 40.3095 64.1107 42.0227 64.72L57.8632 44.3401Z" fill="#008B1A"/>
<path d="M33.0362 72.0391L6.32971 87.7275L17.7607 37.4296L36.7448 65.0365C34.139 66.3288 32.6454 69.1795 33.0362 72.0391Z" fill="#00AC1F"/>
<path d="M81.3831 121.993L108.055 120.806L92.5615 94.3742L81.3831 121.993Z" fill="#1E63E0"/>
<path d="M136.158 130.823L108.056 120.806L124.39 105.066L136.158 130.823Z" fill="#1E63E0"/>
<path d="M136.158 130.823L159.575 127.628L163.099 150L136.158 130.823Z" fill="#002790"/>
<path d="M124.389 105.067L92.5615 94.3743L108.055 120.806L124.389 105.067Z" fill="#003DD0"/>
<path d="M92.5615 94.3742L55.8035 102.811L81.3831 121.993L92.5615 94.3742Z" fill="#3E89F0"/>
<path d="M124.389 105.067L167.228 93.6606L136.158 130.823L124.389 105.067Z" fill="#003DD0"/>
<path d="M136.158 130.823L159.575 127.628L167.228 93.6606L136.158 130.823Z" fill="#0032B0"/>
<path d="M167.228 93.6605L186.103 104.909L159.575 127.628L167.228 93.6605Z" fill="#003DD0"/>
<path d="M204.153 70.5609L167.228 93.6605L186.103 104.909L204.153 70.5609Z" fill="#1E63E0"/>
<path d="M0 64.4497L6.32976 87.7275L17.7607 37.429L0 64.4497Z" fill="#00D627"/>
<path d="M267.353 113.1C261.553 113.1 256.419 111.867 251.953 109.4C247.553 106.933 244.086 103.533 241.553 99.2C239.086 94.8 237.853 89.8 237.853 84.2V41.4H253.653V85.1C253.653 87.9 254.253 90.3333 255.453 92.4C256.653 94.4667 258.286 96.0667 260.353 97.2C262.486 98.2667 264.819 98.8 267.353 98.8C270.019 98.8 272.353 98.2667 274.353 97.2C276.353 96.0667 277.919 94.5 279.053 92.5C280.253 90.4333 280.853 88 280.853 85.2V41.4H296.653V84.3C296.653 89.9 295.419 94.8667 292.953 99.2C290.486 103.533 287.053 106.933 282.653 109.4C278.253 111.867 273.153 113.1 267.353 113.1ZM353.21 112L333.51 80.5H331.61L304.41 41.4H323.11L342.51 71H344.41L371.61 112H353.21ZM303.11 112L329.21 74.2L341.31 81L321.01 112H303.11ZM345.01 78.7L332.91 71.9L352.51 41.4H370.41L345.01 78.7ZM410.776 113.1C405.643 113.1 400.809 112.167 396.276 110.3C391.809 108.433 387.909 105.867 384.576 102.6C381.243 99.2667 378.609 95.4 376.676 91C374.809 86.5333 373.876 81.7333 373.876 76.6C373.876 71.4667 374.843 66.7 376.776 62.3C378.709 57.9 381.376 54.0667 384.776 50.8C388.243 47.4667 392.276 44.9 396.876 43.1C401.476 41.2333 406.409 40.3 411.676 40.3C417.743 40.3 423.243 41.4 428.176 43.6C433.176 45.8 437.309 48.8333 440.576 52.7L429.876 63.4C427.609 60.4667 424.943 58.2667 421.876 56.8C418.809 55.3333 415.343 54.6 411.476 54.6C407.343 54.6 403.643 55.5333 400.376 57.4C397.109 59.2 394.543 61.7667 392.676 65.1C390.876 68.3667 389.976 72.2 389.976 76.6C389.976 81 390.876 84.8667 392.676 88.2C394.476 91.5333 396.943 94.1333 400.076 96C403.209 97.8667 406.809 98.8 410.876 98.8C415.009 98.8 418.509 98.0333 421.376 96.5C424.309 94.9 426.543 92.6333 428.076 89.7C429.676 86.7 430.476 83.0667 430.476 78.8L440.876 85.8L409.376 85.3V72H446.476V74.3C446.476 82.7667 444.943 89.9 441.876 95.7C438.876 101.433 434.676 105.767 429.276 108.7C423.943 111.633 417.776 113.1 410.776 113.1ZM479.592 113.1C474.325 113.1 469.625 112.033 465.492 109.9C461.425 107.7 458.225 104.667 455.892 100.8C453.558 96.9333 452.392 92.5667 452.392 87.7C452.392 82.8333 453.525 78.5 455.792 74.7C458.125 70.8333 461.258 67.8 465.192 65.6C469.125 63.4 473.558 62.3 478.492 62.3C483.292 62.3 487.525 63.3333 491.192 65.4C494.858 67.4667 497.725 70.3333 499.792 74C501.925 77.6667 502.992 81.8667 502.992 86.6C502.992 87.4667 502.925 88.4 502.792 89.4C502.725 90.3333 502.558 91.4333 502.292 92.7L460.392 92.8V82.3L495.792 82.2L489.192 86.6C489.125 83.8 488.692 81.5 487.892 79.7C487.092 77.8333 485.892 76.4333 484.292 75.5C482.758 74.5 480.858 74 478.592 74C476.192 74 474.092 74.5667 472.292 75.7C470.558 76.7667 469.192 78.3 468.192 80.3C467.258 82.3 466.792 84.7333 466.792 87.6C466.792 90.4667 467.292 92.9333 468.292 95C469.358 97 470.825 98.5667 472.692 99.7C474.625 100.767 476.892 101.3 479.492 101.3C481.892 101.3 484.058 100.9 485.992 100.1C487.925 99.2333 489.625 97.9667 491.092 96.3L499.492 104.7C497.092 107.5 494.192 109.6 490.792 111C487.392 112.4 483.658 113.1 479.592 113.1ZM543.477 112V84.3C543.477 81.7667 542.677 79.7333 541.077 78.2C539.544 76.6 537.577 75.8 535.177 75.8C533.51 75.8 532.044 76.1667 530.777 76.9C529.51 77.5667 528.51 78.5667 527.777 79.9C527.044 81.1667 526.677 82.6333 526.677 84.3L520.777 81.4C520.777 77.6 521.61 74.2667 523.277 71.4C524.944 68.5333 527.244 66.3333 530.177 64.8C533.177 63.2 536.544 62.4 540.277 62.4C543.877 62.4 547.044 63.2667 549.777 65C552.577 66.6667 554.777 68.9 556.377 71.7C557.977 74.5 558.777 77.5667 558.777 80.9V112H543.477ZM511.377 112V63.4H526.677V112H511.377ZM569.603 112V63.4H584.903V112H569.603ZM577.303 56.7C574.903 56.7 572.903 55.9 571.303 54.3C569.77 52.6333 569.003 50.6333 569.003 48.3C569.003 45.9 569.77 43.9 571.303 42.3C572.903 40.7 574.903 39.9 577.303 39.9C579.703 39.9 581.67 40.7 583.203 42.3C584.737 43.9 585.503 45.9 585.503 48.3C585.503 50.6333 584.737 52.6333 583.203 54.3C581.67 55.9 579.703 56.7 577.303 56.7ZM618.278 113.1C613.811 113.1 609.844 112.2 606.378 110.4C602.978 108.533 600.311 106 598.378 102.8C596.444 99.5333 595.478 95.8 595.478 91.6V63.4H610.778V91.4C610.778 93.0667 611.044 94.5 611.578 95.7C612.178 96.9 613.044 97.8333 614.178 98.5C615.311 99.1667 616.678 99.5 618.278 99.5C620.544 99.5 622.344 98.8 623.678 97.4C625.011 95.9333 625.678 93.9333 625.678 91.4V63.4H640.978V91.5C640.978 95.7667 640.011 99.5333 638.078 102.8C636.144 106 633.478 108.533 630.078 110.4C626.678 112.2 622.744 113.1 618.278 113.1ZM669.284 113.2C666.417 113.2 663.584 112.833 660.784 112.1C658.051 111.367 655.484 110.333 653.084 109C650.751 107.6 648.751 106 647.084 104.2L655.784 95.4C657.384 97.1333 659.284 98.5 661.484 99.5C663.684 100.433 666.084 100.9 668.684 100.9C670.484 100.9 671.851 100.633 672.784 100.1C673.784 99.5667 674.284 98.8333 674.284 97.9C674.284 96.7 673.684 95.8 672.484 95.2C671.351 94.5333 669.884 93.9667 668.084 93.5C666.284 92.9667 664.384 92.4 662.384 91.8C660.384 91.2 658.484 90.3667 656.684 89.3C654.884 88.2333 653.417 86.7667 652.284 84.9C651.151 82.9667 650.584 80.5333 650.584 77.6C650.584 74.4667 651.384 71.7667 652.984 69.5C654.584 67.1667 656.851 65.3333 659.784 64C662.717 62.6667 666.151 62 670.084 62C674.217 62 678.017 62.7333 681.484 64.2C685.017 65.6 687.884 67.7 690.084 70.5L681.384 79.3C679.851 77.5 678.117 76.2333 676.184 75.5C674.317 74.7667 672.484 74.4 670.684 74.4C668.951 74.4 667.651 74.6667 666.784 75.2C665.917 75.6667 665.484 76.3667 665.484 77.3C665.484 78.3 666.051 79.1 667.184 79.7C668.317 80.3 669.784 80.8333 671.584 81.3C673.384 81.7667 675.284 82.3333 677.284 83C679.284 83.6667 681.184 84.5667 682.984 85.7C684.784 86.8333 686.251 88.3667 687.384 90.3C688.517 92.1667 689.084 94.6333 689.084 97.7C689.084 102.433 687.284 106.2 683.684 109C680.151 111.8 675.351 113.2 669.284 113.2ZM707.985 113.1C705.385 113.1 703.218 112.2 701.485 110.4C699.751 108.6 698.885 106.433 698.885 103.9C698.885 101.233 699.751 99.0333 701.485 97.3C703.218 95.5 705.385 94.6 707.985 94.6C710.651 94.6 712.818 95.5 714.485 97.3C716.218 99.0333 717.085 101.233 717.085 103.9C717.085 106.433 716.218 108.6 714.485 110.4C712.818 112.2 710.651 113.1 707.985 113.1ZM748.396 113C743.929 113 739.929 111.9 736.396 109.7C732.929 107.5 730.162 104.5 728.096 100.7C726.096 96.9 725.096 92.5667 725.096 87.7C725.096 82.8333 726.096 78.5 728.096 74.7C730.162 70.9 732.929 67.9 736.396 65.7C739.929 63.5 743.929 62.4 748.396 62.4C751.662 62.4 754.596 63.0333 757.196 64.3C759.862 65.5667 762.029 67.3333 763.696 69.6C765.362 71.8 766.296 74.3333 766.496 77.2V98.2C766.296 101.067 765.362 103.633 763.696 105.9C762.096 108.1 759.962 109.833 757.296 111.1C754.629 112.367 751.662 113 748.396 113ZM751.496 99.2C754.762 99.2 757.396 98.1333 759.396 96C761.396 93.8 762.396 91.0333 762.396 87.7C762.396 85.4333 761.929 83.4333 760.996 81.7C760.129 79.9667 758.862 78.6333 757.196 77.7C755.596 76.7 753.729 76.2 751.596 76.2C749.462 76.2 747.562 76.7 745.896 77.7C744.296 78.6333 742.996 79.9667 741.996 81.7C741.062 83.4333 740.596 85.4333 740.596 87.7C740.596 89.9 741.062 91.8667 741.996 93.6C742.929 95.3333 744.229 96.7 745.896 97.7C747.562 98.7 749.429 99.2 751.496 99.2ZM761.796 112V98.9L764.096 87.1L761.796 75.3V63.4H776.796V112H761.796ZM788.568 112V63.4H803.868V112H788.568ZM796.268 56.7C793.868 56.7 791.868 55.9 790.268 54.3C788.735 52.6333 787.968 50.6333 787.968 48.3C787.968 45.9 788.735 43.9 790.268 42.3C791.868 40.7 793.868 39.9 796.268 39.9C798.668 39.9 800.635 40.7 802.168 42.3C803.702 43.9 804.468 45.9 804.468 48.3C804.468 50.6333 803.702 52.6333 802.168 54.3C800.635 55.9 798.668 56.7 796.268 56.7Z" fill="#0052CC"/>
</svg>
