<svg width="512" height="512" viewBox="0 0 512 512" fill="none" xmlns="http://www.w3.org/2000/svg">
<g clip-path="url(#clip0_307_7827)">
<path d="M166.591 367.515C248.111 412.176 215.124 508.963 299.471 511.891C452.347 517.197 430.972 328.549 421.698 190.77C419.209 153.799 456.663 120.085 479.915 94.402C510.639 60.465 493.894 -5.82699 433.442 0.413006C365.817 7.39301 315.288 65.438 250.915 87.317C197.328 105.53 135.779 96.309 85.661 122.606C52.283 140.119 25.493 172.72 19.736 209.971C-4.07201 364.01 136.946 351.273 166.591 367.515Z" fill="url(#paint0_linear_307_7827)"/>
<path opacity="0.1" d="M462.591 286.939H405.237V211.032C405.237 189.734 387.969 172.467 366.672 172.467H238.042V62.388C238.042 56.868 233.562 52.388 228.042 52.388H161.762C156.242 52.388 151.762 56.868 151.762 62.388V172.466H115.236V109.797C115.236 101.81 108.761 95.335 100.774 95.335H77.974C56.675 95.335 39.409 112.601 39.409 133.9V371.916C39.409 393.214 56.677 410.481 77.974 410.481H289.41V473.15C289.41 481.137 295.885 487.612 303.872 487.612H366.671C387.97 487.612 405.236 470.346 405.236 449.047V373.218H462.59C468.11 373.218 472.59 368.738 472.59 363.218V296.938C472.591 291.419 468.111 286.939 462.591 286.939Z" fill="#2626BB"/>
<path d="M303.873 463.613H366.672C387.971 463.613 405.237 446.347 405.237 425.048L400.237 381.48L289.411 386.48V449.151C289.411 457.138 295.885 463.613 303.873 463.613Z" fill="#7FB3FF"/>
<path d="M405.233 211.034V425.044C405.233 429.234 404.563 433.264 403.333 437.044C398.283 421.624 383.783 410.484 366.673 410.484H289.413V240.054C289.413 232.074 295.883 225.594 303.873 225.594H366.673C383.783 225.594 398.283 214.454 403.333 199.034C404.563 202.814 405.233 206.844 405.233 211.034Z" fill="#003DD0"/>
<path d="M405.23 187.03V425.05C405.23 403.75 387.97 386.48 366.67 386.48H169.28L164.28 376.143V158.394L169.28 148.47H366.67C387.97 148.47 405.23 165.74 405.23 187.03Z" fill="#3E89F0"/>
<path d="M405.234 286.939V373.219H161.764C156.244 373.219 151.764 368.739 151.764 363.219V148.469H238.044V286.939H405.234Z" fill="#7FB3FF"/>
<path d="M169.284 148.469V386.479H77.9739C56.6739 386.479 39.4139 369.219 39.4139 347.919L45.4139 294.89L115.974 148.469H169.284Z" fill="#B6F6BE"/>
<path d="M169.284 148.469V373.219H161.764C156.244 373.219 151.764 368.739 151.764 363.219V148.469H169.284Z" fill="#7AEE90"/>
<path d="M115.233 148.464V318.894C115.233 326.874 108.763 333.354 100.773 333.354H77.973C60.863 333.354 46.363 344.494 41.313 359.914C40.083 356.134 39.413 352.104 39.413 347.914V109.904C39.413 131.194 56.673 148.464 77.973 148.464H115.233Z" fill="#7AEE90"/>
<path d="M100.773 71.335H77.974C56.675 71.335 39.409 88.601 39.409 109.9V347.916C39.409 326.618 56.677 309.351 77.974 309.351H100.773C108.76 309.351 115.235 302.876 115.235 294.889V85.797C115.235 77.81 108.76 71.335 100.773 71.335Z" fill="#7FB3FF"/>
<path d="M472.591 272.939V339.219C472.591 344.739 468.111 349.219 462.591 349.219H161.761C156.241 349.219 151.761 344.739 151.761 339.219V38.389C151.761 32.869 156.241 28.389 161.761 28.389H228.041C233.561 28.389 238.041 32.869 238.041 38.389V262.939H462.591C468.111 262.939 472.591 267.419 472.591 272.939Z" fill="#00D627"/>
<path d="M245.11 262.94L159.17 348.88C155.73 347.96 153.01 345.24 152.1 341.8L238.04 255.86V262.94H245.11Z" fill="#00AC1F"/>
<path d="M472.591 272.939V291.509H209.521V28.389H228.041C233.561 28.389 238.041 32.869 238.041 38.389V262.939H462.591C468.111 262.939 472.591 267.419 472.591 272.939Z" fill="#7AEE90"/>
<path d="M245.11 262.94L216.54 291.51H209.52V284.38L238.04 255.86V262.94H245.11Z" fill="#00D627"/>
<path d="M462.59 257.938H410.24V187.03C410.24 163.011 390.694 143.47 366.67 143.47H243.04V126.727C243.04 123.966 240.802 121.727 238.04 121.727C235.278 121.727 233.04 123.966 233.04 126.727V262.938C233.04 265.699 235.278 267.938 238.04 267.938H462.59C465.347 267.938 467.59 270.181 467.59 272.938V339.217C467.59 341.974 465.347 344.217 462.59 344.217H161.762C159.005 344.217 156.762 341.974 156.762 339.217V38.388C156.762 35.631 159.004 33.388 161.761 33.388L228.04 33.387C229.376 33.387 230.631 33.907 231.575 34.851C232.519 35.795 233.04 37.051 233.04 38.387V96.59C233.04 99.351 235.278 101.59 238.04 101.59C240.802 101.59 243.04 99.351 243.04 96.59V38.387C243.04 34.38 241.479 30.614 238.646 27.78C235.813 24.946 232.045 23.386 228.04 23.387L161.761 23.388C153.49 23.388 146.762 30.117 146.762 38.388V143.47H120.235V85.797C120.235 75.066 111.505 66.335 100.773 66.335H77.975C53.953 66.335 34.41 85.878 34.41 109.9C34.41 109.9 34.411 347.924 34.411 347.928C34.416 371.943 53.955 391.479 77.97 391.479H210.13C212.892 391.479 215.13 389.24 215.13 386.479C215.13 383.718 212.892 381.479 210.13 381.479H77.97C59.465 381.479 44.41 366.424 44.41 347.919C44.41 347.916 44.409 347.914 44.409 347.911C44.412 329.405 59.468 314.351 77.974 314.351H100.772C111.503 314.351 120.234 305.62 120.234 294.889V153.47H146.761V339.217C146.761 347.488 153.49 354.217 161.761 354.217H400.24V397.305C392.242 387.645 380.162 381.48 366.67 381.48H240.26C237.498 381.48 235.26 383.719 235.26 386.48C235.26 389.241 237.498 391.48 240.26 391.48H284.41V449.151C284.41 459.882 293.141 468.613 303.873 468.613H366.671C390.675 468.613 410.205 449.099 410.235 425.103C410.235 425.085 410.24 354.218 410.24 354.218H462.59C470.861 354.218 477.59 347.489 477.59 339.218V272.939C477.59 264.667 470.861 257.938 462.59 257.938ZM243.04 153.47H366.67C385.181 153.47 400.24 168.525 400.24 187.03V257.939H243.04V153.47ZM110.234 294.889C110.234 300.107 105.99 304.351 100.772 304.351H77.975C64.485 304.351 52.407 310.514 44.41 320.173V109.901C44.41 91.393 59.468 76.336 77.975 76.336H100.773C105.991 76.336 110.235 80.581 110.235 85.798L110.234 294.889ZM366.671 458.613H303.873C298.655 458.613 294.41 454.368 294.41 449.151V391.48H366.67C385.17 391.48 400.222 406.522 400.239 425.017C400.239 425.027 400.236 425.037 400.236 425.048C400.236 443.555 385.179 458.613 366.671 458.613Z" fill="#2626BB"/>
<path d="M209.372 62.387H190.761C188 62.387 185.761 60.148 185.761 57.387C185.761 54.626 188 52.387 190.761 52.387H209.372C212.133 52.387 214.372 54.626 214.372 57.387C214.372 60.148 212.133 62.387 209.372 62.387Z" fill="white"/>
<path d="M209.372 86.919H204.761C202 86.919 199.761 84.68 199.761 81.919C199.761 79.158 202 76.919 204.761 76.919H209.372C212.133 76.919 214.372 79.158 214.372 81.919C214.372 84.68 212.133 86.919 209.372 86.919Z" fill="white"/>
<path d="M209.372 111.45H204.761C202 111.45 199.761 109.211 199.761 106.45C199.761 103.689 202 101.45 204.761 101.45H209.372C212.133 101.45 214.372 103.689 214.372 106.45C214.372 109.211 212.133 111.45 209.372 111.45Z" fill="white"/>
<path d="M209.372 135.982H204.761C202 135.982 199.761 133.743 199.761 130.982C199.761 128.221 202 125.982 204.761 125.982H209.372C212.133 125.982 214.372 128.221 214.372 130.982C214.372 133.743 212.133 135.982 209.372 135.982Z" fill="white"/>
<path d="M209.372 160.514H190.761C188 160.514 185.761 158.275 185.761 155.514C185.761 152.753 188 150.514 190.761 150.514H209.372C212.133 150.514 214.372 152.753 214.372 155.514C214.372 158.275 212.133 160.514 209.372 160.514Z" fill="white"/>
<path d="M209.372 185.045H204.761C202 185.045 199.761 182.806 199.761 180.045C199.761 177.284 202 175.045 204.761 175.045H209.372C212.133 175.045 214.372 177.284 214.372 180.045C214.372 182.806 212.133 185.045 209.372 185.045Z" fill="white"/>
<path d="M209.372 209.577H204.761C202 209.577 199.761 207.338 199.761 204.577C199.761 201.816 202 199.577 204.761 199.577H209.372C212.133 199.577 214.372 201.816 214.372 204.577C214.372 207.338 212.133 209.577 209.372 209.577Z" fill="white"/>
<path d="M209.372 234.108H204.761C202 234.108 199.761 231.869 199.761 229.108C199.761 226.347 202 224.108 204.761 224.108H209.372C212.133 224.108 214.372 226.347 214.372 229.108C214.372 231.869 212.133 234.108 209.372 234.108Z" fill="white"/>
<path d="M209.372 258.64H190.761C188 258.64 185.761 256.401 185.761 253.64C185.761 250.879 188 248.64 190.761 248.64H209.372C212.133 248.64 214.372 250.879 214.372 253.64C214.372 256.401 212.133 258.64 209.372 258.64Z" fill="white"/>
<path d="M252.339 291.608V310.219C252.339 312.98 250.1 315.219 247.339 315.219C244.578 315.219 242.339 312.98 242.339 310.219V291.608C242.339 288.847 244.578 286.608 247.339 286.608C250.1 286.608 252.339 288.847 252.339 291.608Z" fill="white"/>
<path d="M276.871 291.608V296.219C276.871 298.98 274.632 301.219 271.871 301.219C269.11 301.219 266.871 298.98 266.871 296.219V291.608C266.871 288.847 269.11 286.608 271.871 286.608C274.632 286.608 276.871 288.847 276.871 291.608Z" fill="white"/>
<path d="M301.402 291.608V296.219C301.402 298.98 299.163 301.219 296.402 301.219C293.641 301.219 291.402 298.98 291.402 296.219V291.608C291.402 288.847 293.641 286.608 296.402 286.608C299.163 286.608 301.402 288.847 301.402 291.608Z" fill="white"/>
<path d="M325.934 291.608V296.219C325.934 298.98 323.695 301.219 320.934 301.219C318.173 301.219 315.934 298.98 315.934 296.219V291.608C315.934 288.847 318.173 286.608 320.934 286.608C323.695 286.608 325.934 288.847 325.934 291.608Z" fill="white"/>
<path d="M350.465 291.608V310.219C350.465 312.98 348.226 315.219 345.465 315.219C342.704 315.219 340.465 312.98 340.465 310.219V291.608C340.465 288.847 342.704 286.608 345.465 286.608C348.226 286.608 350.465 288.847 350.465 291.608Z" fill="white"/>
<path d="M374.997 291.608V296.219C374.997 298.98 372.758 301.219 369.997 301.219C367.236 301.219 364.997 298.98 364.997 296.219V291.608C364.997 288.847 367.236 286.608 369.997 286.608C372.758 286.608 374.997 288.847 374.997 291.608Z" fill="white"/>
<path d="M399.528 291.608V296.219C399.528 298.98 397.289 301.219 394.528 301.219C391.767 301.219 389.528 298.98 389.528 296.219V291.608C389.528 288.847 391.767 286.608 394.528 286.608C397.289 286.608 399.528 288.847 399.528 291.608Z" fill="white"/>
<path d="M424.06 291.608V296.219C424.06 298.98 421.821 301.219 419.06 301.219C416.299 301.219 414.06 298.98 414.06 296.219V291.608C414.06 288.847 416.299 286.608 419.06 286.608C421.821 286.608 424.06 288.847 424.06 291.608Z" fill="white"/>
<path d="M448.591 291.608V310.219C448.591 312.98 446.352 315.219 443.591 315.219C440.83 315.219 438.591 312.98 438.591 310.219V291.608C438.591 288.847 440.83 286.608 443.591 286.608C446.352 286.608 448.591 288.847 448.591 291.608Z" fill="white"/>
<path d="M324.455 235.272C327.216 235.272 329.455 233.033 329.455 230.272C329.455 227.511 327.216 225.272 324.455 225.272H280.871C278.11 225.272 275.871 227.511 275.871 230.272C275.871 233.033 278.11 235.272 280.871 235.272H324.455Z" fill="white"/>
<path d="M343.338 235.272C346.099 235.272 348.338 233.033 348.338 230.272C348.338 227.511 346.099 225.272 343.338 225.272C340.577 225.272 338.338 227.511 338.338 230.272C338.338 233.033 340.577 235.272 343.338 235.272Z" fill="white"/>
<path d="M324.455 205.705H294.871C292.11 205.705 289.871 207.944 289.871 210.705C289.871 213.466 292.11 215.705 294.871 215.705H324.455C327.216 215.705 329.455 213.466 329.455 210.705C329.455 207.944 327.216 205.705 324.455 205.705Z" fill="white"/>
<path d="M343.338 215.705C346.099 215.705 348.338 213.466 348.338 210.705C348.338 207.944 346.099 205.705 343.338 205.705C340.577 205.705 338.338 207.944 338.338 210.705C338.338 213.466 340.577 215.705 343.338 215.705Z" fill="white"/>
<path d="M267.711 187.146C264.949 187.146 262.711 184.907 262.711 182.146V177.045C262.711 174.284 264.949 172.045 267.711 172.045C270.473 172.045 272.711 174.284 272.711 177.045V182.146C272.711 184.907 270.473 187.146 267.711 187.146Z" fill="#003DD0"/>
<path d="M292.838 187.146C290.076 187.146 287.838 184.907 287.838 182.146V177.045C287.838 174.284 290.076 172.045 292.838 172.045C295.6 172.045 297.838 174.284 297.838 177.045V182.146C297.838 184.907 295.6 187.146 292.838 187.146Z" fill="#003DD0"/>
<path d="M317.966 187.146C315.204 187.146 312.966 184.907 312.966 182.146V177.045C312.966 174.284 315.204 172.045 317.966 172.045C320.728 172.045 322.966 174.284 322.966 177.045V182.146C322.966 184.907 320.728 187.146 317.966 187.146Z" fill="#003DD0"/>
<path d="M343.093 187.146C340.331 187.146 338.093 184.907 338.093 182.146V177.045C338.093 174.284 340.331 172.045 343.093 172.045C345.855 172.045 348.093 174.284 348.093 177.045V182.146C348.093 184.907 345.854 187.146 343.093 187.146Z" fill="#003DD0"/>
<path d="M159.965 459.582C157.203 459.582 154.965 457.343 154.965 454.582C154.965 451.549 152.497 449.082 149.465 449.082C146.703 449.082 144.465 446.843 144.465 444.082C144.465 441.321 146.703 439.082 149.465 439.082C152.497 439.082 154.965 436.615 154.965 433.582C154.965 430.821 157.203 428.582 159.965 428.582C162.727 428.582 164.965 430.821 164.965 433.582C164.965 436.615 167.433 439.082 170.465 439.082C173.227 439.082 175.465 441.321 175.465 444.082C175.465 446.843 173.227 449.082 170.465 449.082C167.433 449.082 164.965 451.549 164.965 454.582C164.965 457.343 162.727 459.582 159.965 459.582Z" fill="#00D627"/>
<path d="M453.702 170.612C452.857 170.612 452.002 170.398 451.217 169.947L451.118 169.89C448.723 168.515 447.897 165.459 449.272 163.064C450.647 160.669 453.704 159.842 456.098 161.218L456.197 161.275C458.592 162.65 459.418 165.706 458.043 168.101C457.118 169.71 455.435 170.612 453.702 170.612Z" fill="#00D627"/>
<path d="M478.604 184.989C477.759 184.989 476.904 184.775 476.119 184.324L476.02 184.267C473.625 182.892 472.799 179.836 474.174 177.441C475.55 175.046 478.604 174.219 481 175.595L481.099 175.652C483.494 177.027 484.32 180.083 482.945 182.478C482.02 184.087 480.336 184.989 478.604 184.989Z" fill="#00D627"/>
<path d="M478.515 170.612C476.783 170.612 475.099 169.711 474.174 168.101C472.799 165.706 473.625 162.65 476.02 161.275L476.119 161.218C478.516 159.842 481.57 160.669 482.945 163.064C484.32 165.459 483.494 168.515 481.099 169.89L481 169.947C480.215 170.397 479.358 170.612 478.515 170.612Z" fill="#00D627"/>
<path d="M453.613 184.989C451.881 184.989 450.197 184.088 449.272 182.478C447.897 180.083 448.723 177.027 451.118 175.652L451.217 175.595C453.614 174.22 456.668 175.047 458.043 177.441C459.418 179.835 458.592 182.892 456.197 184.267L456.098 184.324C455.313 184.774 454.457 184.989 453.613 184.989Z" fill="#00D627"/>
<path d="M478.515 170.612C476.783 170.612 475.099 169.711 474.174 168.101C472.799 165.706 473.625 162.65 476.02 161.275L476.119 161.218C478.516 159.842 481.57 160.669 482.945 163.064C484.32 165.459 483.494 168.515 481.099 169.89L481 169.947C480.215 170.397 479.358 170.612 478.515 170.612Z" fill="#003DD0"/>
<path d="M453.613 184.989C451.881 184.989 450.197 184.088 449.272 182.478C447.897 180.083 448.723 177.027 451.118 175.652L451.217 175.595C453.614 174.22 456.668 175.047 458.043 177.441C459.418 179.835 458.592 182.892 456.197 184.267L456.098 184.324C455.313 184.774 454.457 184.989 453.613 184.989Z" fill="#003DD0"/>
<path d="M466.108 163.451C463.346 163.451 461.108 161.212 461.108 158.451V158.337C461.108 155.576 463.346 153.337 466.108 153.337C468.87 153.337 471.108 155.576 471.108 158.337V158.451C471.108 161.212 468.87 163.451 466.108 163.451Z" fill="#00D627"/>
<path d="M466.108 192.205C463.346 192.205 461.108 189.966 461.108 187.205V187.091C461.108 184.33 463.346 182.091 466.108 182.091C468.87 182.091 471.108 184.33 471.108 187.091V187.205C471.108 189.966 468.87 192.205 466.108 192.205Z" fill="#00D627"/>
<path d="M448.301 237.146C445.539 237.146 443.301 234.907 443.301 232.146C443.301 229.113 440.833 226.646 437.801 226.646C435.039 226.646 432.801 224.407 432.801 221.646C432.801 218.885 435.039 216.646 437.801 216.646C440.833 216.646 443.301 214.179 443.301 211.146C443.301 208.385 445.539 206.146 448.301 206.146C451.063 206.146 453.301 208.385 453.301 211.146C453.301 214.179 455.769 216.646 458.801 216.646C461.563 216.646 463.801 218.885 463.801 221.646C463.801 224.407 461.563 226.646 458.801 226.646C455.769 226.646 453.301 229.113 453.301 232.146C453.301 234.907 451.062 237.146 448.301 237.146Z" fill="#00D627"/>
<path d="M97.748 424.707C96.897 424.707 96.036 424.49 95.247 424.033L95.148 423.976C92.758 422.592 91.943 419.533 93.328 417.143C94.712 414.753 97.77 413.938 100.16 415.322L100.259 415.379C102.649 416.763 103.464 419.822 102.079 422.212C101.152 423.812 99.474 424.707 97.748 424.707Z" fill="#003DD0"/>
<path d="M122.649 439.083C121.804 439.083 120.949 438.869 120.164 438.418L120.065 438.361C117.67 436.986 116.844 433.93 118.219 431.535C119.595 429.14 122.65 428.314 125.045 429.689L125.144 429.746C127.539 431.121 128.365 434.177 126.99 436.572C126.065 438.182 124.382 439.083 122.649 439.083Z" fill="#003DD0"/>
<path d="M122.561 424.707C120.835 424.707 119.157 423.812 118.23 422.212C116.845 419.823 117.661 416.764 120.05 415.379L120.149 415.322C122.54 413.939 125.597 414.753 126.981 417.143C128.366 419.532 127.55 422.591 125.161 423.976L125.062 424.033C124.272 424.489 123.411 424.707 122.561 424.707Z" fill="#003DD0"/>
<path d="M97.659 439.083C95.927 439.083 94.243 438.182 93.318 436.572C91.943 434.177 92.769 431.121 95.164 429.746L95.263 429.689C97.66 428.314 100.714 429.141 102.089 431.535C103.464 433.929 102.638 436.986 100.243 438.361L100.144 438.418C99.359 438.869 98.503 439.083 97.659 439.083Z" fill="#003DD0"/>
<path d="M122.561 424.707C120.835 424.707 119.157 423.812 118.23 422.212C116.845 419.823 117.661 416.764 120.05 415.379L120.149 415.322C122.54 413.939 125.597 414.753 126.981 417.143C128.366 419.532 127.55 422.591 125.161 423.976L125.062 424.033C124.272 424.489 123.411 424.707 122.561 424.707Z" fill="#003DD0"/>
<path d="M97.659 439.083C95.927 439.083 94.243 438.182 93.318 436.572C91.943 434.177 92.769 431.121 95.164 429.746L95.263 429.689C97.66 428.314 100.714 429.141 102.089 431.535C103.464 433.929 102.638 436.986 100.243 438.361L100.144 438.418C99.359 438.869 98.503 439.083 97.659 439.083Z" fill="#003DD0"/>
<path d="M110.154 417.545C107.392 417.545 105.154 415.306 105.154 412.545V412.431C105.154 409.67 107.392 407.431 110.154 407.431C112.916 407.431 115.154 409.67 115.154 412.431V412.545C115.154 415.307 112.916 417.545 110.154 417.545Z" fill="#003DD0"/>
<path d="M110.154 446.299C107.392 446.299 105.154 444.06 105.154 441.299V441.185C105.154 438.424 107.392 436.185 110.154 436.185C112.916 436.185 115.154 438.424 115.154 441.185V441.299C115.154 444.061 112.916 446.299 110.154 446.299Z" fill="#003DD0"/>
<path d="M276.243 100.026C275.398 100.026 274.543 99.812 273.758 99.361L273.659 99.304C271.264 97.929 270.438 94.873 271.813 92.478C273.189 90.083 276.244 89.257 278.639 90.632L278.738 90.689C281.133 92.064 281.959 95.12 280.584 97.515C279.659 99.125 277.976 100.026 276.243 100.026Z" fill="#003DD0"/>
<path d="M301.145 114.403C300.294 114.403 299.433 114.186 298.644 113.729L298.545 113.672C296.155 112.288 295.34 109.229 296.725 106.839C298.109 104.449 301.166 103.634 303.557 105.018L303.656 105.075C306.046 106.459 306.861 109.518 305.476 111.908C304.549 113.508 302.87 114.403 301.145 114.403Z" fill="#003DD0"/>
<path d="M301.056 100.026C299.324 100.026 297.64 99.125 296.715 97.515C295.34 95.12 296.166 92.064 298.561 90.689L298.66 90.632C301.057 89.257 304.111 90.084 305.486 92.478C306.861 94.872 306.035 97.929 303.64 99.304L303.541 99.361C302.756 99.812 301.899 100.026 301.056 100.026Z" fill="#003DD0"/>
<path d="M276.154 114.403C274.428 114.403 272.75 113.508 271.823 111.908C270.438 109.519 271.254 106.46 273.643 105.075L273.742 105.018C276.133 103.634 279.191 104.45 280.574 106.839C281.959 109.228 281.143 112.287 278.754 113.672L278.655 113.729C277.866 114.186 277.005 114.403 276.154 114.403Z" fill="#003DD0"/>
<path d="M301.056 100.026C299.324 100.026 297.64 99.125 296.715 97.515C295.34 95.12 296.166 92.064 298.561 90.689L298.66 90.632C301.057 89.257 304.111 90.084 305.486 92.478C306.861 94.872 306.035 97.929 303.64 99.304L303.541 99.361C302.756 99.812 301.899 100.026 301.056 100.026Z" fill="#003DD0"/>
<path d="M276.154 114.403C274.428 114.403 272.75 113.508 271.823 111.908C270.438 109.519 271.254 106.46 273.643 105.075L273.742 105.018C276.133 103.634 279.191 104.45 280.574 106.839C281.959 109.228 281.143 112.287 278.754 113.672L278.655 113.729C277.866 114.186 277.005 114.403 276.154 114.403Z" fill="#003DD0"/>
<path d="M288.649 92.865C285.887 92.865 283.649 90.626 283.649 87.865V87.751C283.649 84.99 285.887 82.751 288.649 82.751C291.411 82.751 293.649 84.99 293.649 87.751V87.865C293.649 90.626 291.411 92.865 288.649 92.865Z" fill="#003DD0"/>
<path d="M288.649 121.619C285.887 121.619 283.649 119.38 283.649 116.619V116.505C283.649 113.744 285.887 111.505 288.649 111.505C291.411 111.505 293.649 113.744 293.649 116.505V116.619C293.649 119.38 291.411 121.619 288.649 121.619Z" fill="#003DD0"/>
</g>
<defs>
<linearGradient id="paint0_linear_307_7827" x1="129.159" y1="404.562" x2="499.222" y2="34.499" gradientUnits="userSpaceOnUse">
<stop stop-color="#B6F6BE" stop-opacity="0"/>
<stop offset="1" stop-color="#00D627" stop-opacity="0.85"/>
</linearGradient>
<clipPath id="clip0_307_7827">
<rect width="512" height="512" fill="white"/>
</clipPath>
</defs>
</svg>
