<svg width="512" height="512" viewBox="0 0 512 512" fill="none" xmlns="http://www.w3.org/2000/svg">
<path d="M393.451 56.054C114.451 -79.876 -134.527 258.929 82.438 435.724C165.899 503.732 252.139 512.226 315.05 414.389C345.54 366.972 429.003 393.887 470.069 355.261C572.485 258.929 463.806 90.331 393.451 56.054Z" fill="url(#paint0_linear_307_7980)"/>
<path opacity="0.1" d="M414.207 244.394V120.672C414.207 115.149 409.73 110.672 404.207 110.672H107.793C102.27 110.672 97.793 115.149 97.793 120.672V464.328C97.793 469.851 102.27 474.328 107.793 474.328H404.207C409.73 474.328 414.207 469.851 414.207 464.328V374.16C415.787 374.16 417.368 373.481 418.459 372.122L425.545 363.302C453.258 357.999 474.206 333.646 474.206 304.386C474.207 271.249 447.343 244.395 414.207 244.394Z" fill="#003DD0"/>
<path d="M414.21 374.16V438.33C414.21 443.85 409.73 448.33 404.21 448.33H107.79C102.27 448.33 97.79 443.85 97.79 438.33V94.67C97.79 89.15 102.27 84.67 107.79 84.67H404.21C409.73 84.67 414.21 89.15 414.21 94.67V344.56C403.2 352.06 414.21 374.16 414.21 374.16Z" fill="#E5F0FF"/>
<path d="M411.365 244.451C380.914 245.856 356.08 270.37 354.311 300.802C352.519 331.638 374.031 357.783 402.868 363.301L409.954 372.121C411.046 373.48 412.626 374.159 414.206 374.159V244.394C413.264 244.394 412.318 244.407 411.365 244.451Z" fill="#BCD7FF"/>
<path d="M388.1 358.4V448.33H123.9V176.87C123.9 174.11 126.14 171.87 128.9 171.87H383.1C385.86 171.87 388.1 174.11 388.1 176.87V332.49C375.67 340.43 388.1 358.4 388.1 358.4Z" fill="white"/>
<path d="M388.1 250.39V358.4C367.04 348.21 352.84 326.09 354.31 300.8C355.6 278.65 369.1 259.64 388.1 250.39Z" fill="#E5F0FF"/>
<path d="M368.03 342.68V448.33H209.19V313.36C227.41 277.04 209.19 248.76 209.19 248.76V234.66C209.19 231.9 211.43 229.66 214.19 229.66H363.03C365.79 229.66 368.03 231.9 368.03 234.66V320.95C358.88 327.34 368.03 342.68 368.03 342.68Z" fill="#B6F6BE"/>
<path d="M368.032 266.157C360.111 275.692 355.073 287.696 354.31 300.801C353.383 316.757 358.697 331.447 368.032 342.679V266.157Z" fill="#7AEE90"/>
<path d="M368.17 248.76V301.11C358.12 304.02 354.89 313.36 354.89 313.36H209.19V248.76H368.17Z" fill="#7AEE90"/>
<path d="M354.888 313.358H368.032V266.156C360.111 275.691 355.073 287.695 354.31 300.8C354.061 305.094 354.277 309.291 354.888 313.358Z" fill="#4AE767"/>
<path d="M414.21 94.67V155.39H387.83C351.59 142.29 304.81 155.39 304.81 155.39H293.51C254.94 141.81 210.49 155.39 210.49 155.39H199.19C154.91 143.26 116.17 155.39 116.17 155.39H97.79V94.67C97.79 89.15 102.27 84.67 107.79 84.67H404.21C409.73 84.67 414.21 89.15 414.21 94.67Z" fill="#3E89F0"/>
<path d="M128.626 117.109C125.865 117.109 123.626 114.87 123.626 112.109C123.626 109.348 125.865 107.109 128.626 107.109C131.387 107.109 133.626 109.348 133.626 112.109C133.626 114.87 131.387 117.109 128.626 117.109Z" fill="#003DD0"/>
<path d="M144.285 117.109C147.046 117.109 149.285 114.87 149.285 112.109C149.285 109.348 147.046 107.109 144.285 107.109C141.524 107.109 139.285 109.348 139.285 112.109C139.285 114.87 141.524 117.109 144.285 117.109Z" fill="#003DD0"/>
<path d="M159.944 117.109C162.705 117.109 164.944 114.87 164.944 112.109C164.944 109.348 162.705 107.109 159.944 107.109C157.183 107.109 154.944 109.348 154.944 112.109C154.944 114.87 157.183 117.109 159.944 117.109Z" fill="#003DD0"/>
<path d="M378.803 117.109H189.95C187.188 117.109 184.95 114.87 184.95 112.109C184.95 109.348 187.188 107.109 189.95 107.109H378.803C381.565 107.109 383.803 109.348 383.803 112.109C383.803 114.87 381.564 117.109 378.803 117.109Z" fill="#E5F0FF"/>
<path d="M199.192 155.395H116.17V145.094C116.17 139.571 120.647 135.094 126.17 135.094H180.771C184.188 135.094 187.369 136.839 189.205 139.721L199.192 155.395Z" fill="#4369FC"/>
<path d="M293.512 155.395H210.491V145.094C210.491 139.571 214.968 135.094 220.491 135.094H275.092C278.509 135.094 281.69 136.839 283.526 139.721L293.512 155.395Z" fill="#7FB3FF"/>
<path d="M387.832 155.395H304.811V145.094C304.811 139.571 309.288 135.094 314.811 135.094H369.412C372.829 135.094 376.01 136.839 377.846 139.721L387.832 155.395Z" fill="#7FB3FF"/>
<path d="M352.382 216.174H224.842C216.199 216.174 209.192 209.167 209.192 200.524C209.192 191.881 216.199 184.874 224.842 184.874H352.382C361.025 184.874 368.032 191.881 368.032 200.524C368.032 209.168 361.026 216.174 352.382 216.174Z" fill="#B6F6BE"/>
<path d="M185.504 205.524H150.014C147.252 205.524 145.014 203.285 145.014 200.524C145.014 197.763 147.252 195.524 150.014 195.524H185.504C188.266 195.524 190.504 197.763 190.504 200.524C190.504 203.285 188.266 205.524 185.504 205.524Z" fill="#7AEE90"/>
<path d="M185.022 281.17H149.531C146.769 281.17 144.531 278.931 144.531 276.17C144.531 273.409 146.769 271.17 149.531 271.17H185.022C187.784 271.17 190.022 273.409 190.022 276.17C190.022 278.931 187.784 281.17 185.022 281.17Z" fill="#7FB3FF"/>
<path d="M185.022 300.511H149.531C146.769 300.511 144.531 298.272 144.531 295.511C144.531 292.75 146.769 290.511 149.531 290.511H185.022C187.784 290.511 190.022 292.75 190.022 295.511C190.022 298.272 187.784 300.511 185.022 300.511Z" fill="#7FB3FF"/>
<path d="M185.022 319.851H149.531C146.769 319.851 144.531 317.612 144.531 314.851C144.531 312.09 146.769 309.851 149.531 309.851H185.022C187.784 309.851 190.022 312.09 190.022 314.851C190.022 317.612 187.784 319.851 185.022 319.851Z" fill="#7FB3FF"/>
<path d="M185.022 339.192H149.531C146.769 339.192 144.531 336.953 144.531 334.192C144.531 331.431 146.769 329.192 149.531 329.192H185.022C187.784 329.192 190.022 331.431 190.022 334.192C190.022 336.953 187.784 339.192 185.022 339.192Z" fill="#7FB3FF"/>
<path d="M185.022 384.64H149.531C146.769 384.64 144.531 382.401 144.531 379.64C144.531 376.879 146.769 374.64 149.531 374.64H185.022C187.784 374.64 190.022 376.879 190.022 379.64C190.022 382.401 187.784 384.64 185.022 384.64Z" fill="#7FB3FF"/>
<path d="M185.022 403.98H149.531C146.769 403.98 144.531 401.741 144.531 398.98C144.531 396.219 146.769 393.98 149.531 393.98H185.022C187.784 393.98 190.022 396.219 190.022 398.98C190.022 401.741 187.784 403.98 185.022 403.98Z" fill="#7FB3FF"/>
<path d="M185.026 253.16H149.528C146.767 253.16 144.528 250.921 144.528 248.16V234.662C144.528 231.901 146.767 229.662 149.528 229.662H185.026C187.787 229.662 190.026 231.901 190.026 234.662V248.16C190.026 250.921 187.787 253.16 185.026 253.16Z" fill="#7AEE90"/>
<path d="M248.741 275.598H231.404C228.642 275.598 226.404 273.359 226.404 270.598C226.404 267.837 228.642 265.598 231.404 265.598H248.741C251.503 265.598 253.741 267.837 253.741 270.598C253.741 273.359 251.503 275.598 248.741 275.598Z" fill="#7AEE90"/>
<path d="M248.741 296.788H231.404C228.642 296.788 226.404 294.549 226.404 291.788C226.404 289.027 228.642 286.788 231.404 286.788H248.741C251.503 286.788 253.741 289.027 253.741 291.788C253.741 294.549 251.503 296.788 248.741 296.788Z" fill="#7AEE90"/>
<path d="M248.741 339.169H231.404C228.642 339.169 226.404 336.93 226.404 334.169C226.404 331.408 228.642 329.169 231.404 329.169H248.741C251.503 329.169 253.741 331.408 253.741 334.169C253.741 336.93 251.503 339.169 248.741 339.169Z" fill="#00D627"/>
<path d="M248.741 360.36H231.404C228.642 360.36 226.404 358.121 226.404 355.36C226.404 352.599 228.642 350.36 231.404 350.36H248.741C251.503 350.36 253.741 352.599 253.741 355.36C253.741 358.121 251.503 360.36 248.741 360.36Z" fill="#7FB3FF"/>
<path d="M248.741 381.551H231.404C228.642 381.551 226.404 379.312 226.404 376.551C226.404 373.79 228.642 371.551 231.404 371.551H248.741C251.503 371.551 253.741 373.79 253.741 376.551C253.741 379.312 251.503 381.551 248.741 381.551Z" fill="#7FB3FF"/>
<path d="M248.741 402.741H231.404C228.642 402.741 226.404 400.502 226.404 397.741C226.404 394.98 228.642 392.741 231.404 392.741H248.741C251.503 392.741 253.741 394.98 253.741 397.741C253.741 400.502 251.503 402.741 248.741 402.741Z" fill="#00D627"/>
<path d="M332.153 275.598H277.943C275.181 275.598 272.943 273.359 272.943 270.598C272.943 267.837 275.181 265.598 277.943 265.598H332.153C334.915 265.598 337.153 267.837 337.153 270.598C337.153 273.359 334.915 275.598 332.153 275.598Z" fill="#7AEE90"/>
<path d="M332.153 296.788H277.943C275.181 296.788 272.943 294.549 272.943 291.788C272.943 289.027 275.181 286.788 277.943 286.788H332.153C334.915 286.788 337.153 289.027 337.153 291.788C337.153 294.549 334.915 296.788 332.153 296.788Z" fill="#7AEE90"/>
<path d="M344.321 339.169H277.943C275.181 339.169 272.943 336.93 272.943 334.169C272.943 331.408 275.181 329.169 277.943 329.169H344.321C347.083 329.169 349.321 331.408 349.321 334.169C349.321 336.93 347.083 339.169 344.321 339.169Z" fill="#00D627"/>
<path d="M344.321 360.36H277.943C275.181 360.36 272.943 358.121 272.943 355.36C272.943 352.599 275.181 350.36 277.943 350.36H344.321C347.083 350.36 349.321 352.599 349.321 355.36C349.321 358.121 347.083 360.36 344.321 360.36Z" fill="#7FB3FF"/>
<path d="M327.577 381.551H277.943C275.181 381.551 272.943 379.312 272.943 376.551C272.943 373.79 275.181 371.551 277.943 371.551H327.577C330.339 371.551 332.577 373.79 332.577 376.551C332.577 379.312 330.339 381.551 327.577 381.551Z" fill="#7FB3FF"/>
<path d="M344.321 402.741H277.943C275.181 402.741 272.943 400.502 272.943 397.741C272.943 394.98 275.181 392.741 277.943 392.741H344.321C347.083 392.741 349.321 394.98 349.321 397.741C349.321 400.502 347.083 402.741 344.321 402.741Z" fill="#00D627"/>
<path d="M280.086 423.076L286.332 430.381C287.53 431.781 289.695 431.781 290.892 430.381L297.138 423.076C298.803 421.129 297.419 418.126 294.858 418.126H282.365C279.804 418.127 278.421 421.13 280.086 423.076Z" fill="#00D627"/>
<path d="M277.943 205.524H231.404C228.642 205.524 226.404 203.285 226.404 200.524C226.404 197.763 228.642 195.524 231.404 195.524H277.943C280.705 195.524 282.943 197.763 282.943 200.524C282.943 203.285 280.705 205.524 277.943 205.524Z" fill="#00D627"/>
<path d="M344.321 205.524H336.246C333.484 205.524 331.246 203.285 331.246 200.524C331.246 197.763 333.484 195.524 336.246 195.524H344.321C347.083 195.524 349.321 197.763 349.321 200.524C349.321 203.285 347.083 205.524 344.321 205.524Z" fill="#00D627"/>
<path d="M474.207 278.386C474.207 244.306 445.794 216.863 411.365 218.452C380.914 219.857 356.08 244.371 354.312 274.803C352.52 305.639 374.032 331.784 402.869 337.302L409.955 346.122C412.138 348.84 416.276 348.84 418.459 346.122L425.545 337.302C453.259 331.999 474.207 307.645 474.207 278.386Z" fill="#26DD45"/>
<path d="M453.931 275.668C453.931 252.784 434.581 234.419 411.349 236.045C391.452 237.437 375.492 253.778 374.531 273.7C373.762 289.635 382.388 303.632 395.348 310.636L393.988 316.181C393.524 318.071 394.955 319.896 396.902 319.896H431.513C433.459 319.896 434.89 318.072 434.427 316.181L433.067 310.636C445.49 303.921 453.931 290.781 453.931 275.668Z" fill="#1E63E0"/>
<path d="M396.893 294.415C403.797 294.415 409.393 288.819 409.393 281.915C409.393 275.011 403.797 269.415 396.893 269.415C389.989 269.415 384.393 275.011 384.393 281.915C384.393 288.819 389.989 294.415 396.893 294.415Z" fill="#26DD45"/>
<path d="M431.521 294.415C438.425 294.415 444.021 288.819 444.021 281.915C444.021 275.011 438.425 269.415 431.521 269.415C424.617 269.415 419.021 275.011 419.021 281.915C419.021 288.819 424.617 294.415 431.521 294.415Z" fill="#26DD45"/>
<path d="M412.588 292.394L408.647 298.07C407.739 299.377 408.675 301.165 410.266 301.165H418.148C419.739 301.165 420.674 299.377 419.767 298.07L415.826 292.394C415.042 291.265 413.372 291.265 412.588 292.394Z" fill="#26DD45"/>
<path d="M404.646 314.357C403.099 314.357 401.846 313.103 401.846 311.557V309.131C401.846 307.584 403.1 306.331 404.646 306.331C406.193 306.331 407.446 307.585 407.446 309.131V311.557C407.446 313.103 406.193 314.357 404.646 314.357Z" fill="#26DD45"/>
<path d="M414.207 314.357C412.66 314.357 411.407 313.103 411.407 311.557V309.131C411.407 307.584 412.661 306.331 414.207 306.331C415.754 306.331 417.007 307.585 417.007 309.131V311.557C417.007 313.103 415.754 314.357 414.207 314.357Z" fill="#26DD45"/>
<path d="M423.768 314.357C422.221 314.357 420.968 313.103 420.968 311.557V309.131C420.968 307.584 422.222 306.331 423.768 306.331C425.315 306.331 426.568 307.585 426.568 309.131V311.557C426.568 313.103 425.314 314.357 423.768 314.357Z" fill="#26DD45"/>
<path d="M450.055 446.432C441.784 446.432 435.055 439.703 435.055 431.432C435.055 423.161 441.784 416.432 450.055 416.432C458.326 416.432 465.055 423.161 465.055 431.432C465.055 439.703 458.326 446.432 450.055 446.432ZM450.055 426.432C447.298 426.432 445.055 428.675 445.055 431.432C445.055 434.189 447.298 436.432 450.055 436.432C452.812 436.432 455.055 434.189 455.055 431.432C455.055 428.675 452.812 426.432 450.055 426.432Z" fill="#0000CA"/>
<path d="M49.078 235.152C40.807 235.152 34.078 228.423 34.078 220.152C34.078 211.881 40.807 205.152 49.078 205.152C57.349 205.152 64.078 211.881 64.078 220.152C64.078 228.423 57.35 235.152 49.078 235.152ZM49.078 215.152C46.321 215.152 44.078 217.395 44.078 220.152C44.078 222.909 46.321 225.152 49.078 225.152C51.835 225.152 54.078 222.909 54.078 220.152C54.078 217.395 51.835 215.152 49.078 215.152Z" fill="#0000CA"/>
<path d="M470.555 389.66C467.793 389.66 465.555 387.421 465.555 384.66C465.555 381.627 463.087 379.16 460.055 379.16C457.293 379.16 455.055 376.921 455.055 374.16C455.055 371.399 457.293 369.16 460.055 369.16C463.087 369.16 465.555 366.693 465.555 363.66C465.555 360.899 467.793 358.66 470.555 358.66C473.317 358.66 475.555 360.899 475.555 363.66C475.555 366.693 478.023 369.16 481.055 369.16C483.817 369.16 486.055 371.399 486.055 374.16C486.055 376.921 483.817 379.16 481.055 379.16C478.023 379.16 475.555 381.627 475.555 384.66C475.555 387.421 473.316 389.66 470.555 389.66Z" fill="#00D627"/>
<path d="M59.079 176.332C56.317 176.332 54.079 174.093 54.079 171.332C54.079 168.299 51.611 165.832 48.578 165.832C45.816 165.832 43.578 163.593 43.578 160.832C43.578 158.071 45.816 155.832 48.578 155.832C51.611 155.832 54.079 153.365 54.079 150.332C54.079 147.571 56.317 145.332 59.079 145.332C61.841 145.332 64.079 147.571 64.079 150.332C64.079 153.365 66.546 155.832 69.578 155.832C72.34 155.832 74.578 158.071 74.578 160.832C74.578 163.593 72.34 165.832 69.578 165.832C66.546 165.832 64.079 168.299 64.079 171.332C64.079 174.093 61.841 176.332 59.079 176.332Z" fill="#00D627"/>
<path d="M336.246 66.051C333.484 66.051 331.246 63.812 331.246 61.051C331.246 58.018 328.778 55.551 325.746 55.551C322.984 55.551 320.746 53.312 320.746 50.551C320.746 47.79 322.984 45.551 325.746 45.551C328.778 45.551 331.246 43.084 331.246 40.051C331.246 37.29 333.484 35.051 336.246 35.051C339.008 35.051 341.246 37.29 341.246 40.051C341.246 43.084 343.714 45.551 346.746 45.551C349.508 45.551 351.746 47.79 351.746 50.551C351.746 53.312 349.508 55.551 346.746 55.551C343.714 55.551 341.246 58.018 341.246 61.051C341.246 63.812 339.008 66.051 336.246 66.051Z" fill="#00D627"/>
<path d="M414.207 365.688C411.445 365.688 409.207 367.927 409.207 370.688V438.328C409.207 441.085 406.964 443.328 404.207 443.328H107.793C105.036 443.328 102.793 441.085 102.793 438.328V94.672C102.793 91.915 105.036 89.672 107.793 89.672H404.207C406.964 89.672 409.207 91.915 409.207 94.672V194.777C409.207 197.538 411.445 199.777 414.207 199.777C416.969 199.777 419.207 197.538 419.207 194.777V94.672C419.207 86.401 412.478 79.672 404.207 79.672H107.793C99.522 79.672 92.793 86.401 92.793 94.672V438.328C92.793 446.599 99.522 453.328 107.793 453.328H404.207C412.478 453.328 419.207 446.599 419.207 438.328V370.688C419.207 367.927 416.969 365.688 414.207 365.688Z" fill="#003DD0"/>
<path d="M459.091 231.371C446.126 218.99 429.099 212.63 411.135 213.457C395.169 214.194 380.053 220.845 368.57 232.185C357.084 243.527 350.248 258.56 349.321 274.513C347.467 306.381 369.186 334.99 400.097 341.835L406.058 349.254C408.052 351.736 411.023 353.16 414.207 353.16C417.391 353.16 420.362 351.736 422.356 349.254L428.317 341.835C457.918 335.287 479.207 308.899 479.207 278.386C479.207 260.455 472.063 243.758 459.091 231.371ZM424.606 332.39C423.44 332.613 422.391 333.244 421.648 334.169L414.561 342.989C414.527 343.031 414.424 343.159 414.207 343.159C413.99 343.159 413.887 343.031 413.853 342.989L406.766 334.169C406.023 333.244 404.974 332.613 403.808 332.39C376.837 327.23 357.704 302.597 359.303 275.092C360.912 247.41 383.882 224.724 411.596 223.446C412.477 223.405 413.355 223.385 414.23 223.385C428.459 223.385 441.851 228.734 452.185 238.602C463.163 249.084 469.207 263.213 469.207 278.385C469.207 304.733 450.449 327.445 424.606 332.39Z" fill="#003DD0"/>
<defs>
<linearGradient id="paint0_linear_307_7980" x1="73.154" y1="428.403" x2="424.428" y2="77.129" gradientUnits="userSpaceOnUse">
<stop stop-color="#B6F6BE" stop-opacity="0"/>
<stop offset="1" stop-color="#00D627" stop-opacity="0.85"/>
</linearGradient>
</defs>
</svg>
