<svg width="512" height="512" viewBox="0 0 512 512" fill="none" xmlns="http://www.w3.org/2000/svg">
<g clip-path="url(#clip0_307_8081)">
<path d="M508.462 225.968C496.602 176.555 430.502 159.146 390.779 161.204C337.77 163.95 313.753 147.233 325.369 93.1881C332.006 62.3061 338.688 41.2961 290.854 25.0081C249.543 10.9431 116.293 -4.32387 88.5431 43.2421C75.0011 66.4551 124.846 87.6281 101.323 118.992C84.7291 141.118 35.5551 124.758 8.98314 158.909C-9.87386 183.144 2.00813 222.849 51.2411 243.913C93.1881 261.859 154.893 272.207 166.192 323.95C171.856 349.886 142.951 386.229 157.448 424.404C168.651 453.906 202.387 466.927 246.936 423.6C334.838 338.109 316.248 460.172 329.586 485.154C344.866 513.775 397.734 502.062 421.493 478.115C486.454 412.639 525.595 297.353 508.462 225.968Z" fill="url(#paint0_linear_307_8081)"/>
<g opacity="0.1">
<path d="M57.9592 119.399V146.82C57.9592 150.134 60.6452 152.82 63.9592 152.82H123.838C125.781 152.82 127.604 151.879 128.73 150.294L138.468 136.583C139.946 134.502 139.946 131.715 138.468 129.634L128.73 115.923C127.605 114.339 125.782 113.397 123.838 113.397H63.9592C60.6452 113.399 57.9592 116.085 57.9592 119.399Z" fill="#003DD0"/>
<path d="M202.481 138.109H214.078C216.839 138.109 219.078 135.87 219.078 133.109C219.078 130.348 216.839 128.109 214.078 128.109H202.481C199.72 128.109 197.481 130.348 197.481 133.109C197.481 135.87 199.72 138.109 202.481 138.109Z" fill="#003DD0"/>
<path d="M240.154 138.109H251.751C254.512 138.109 256.751 135.87 256.751 133.109C256.751 130.348 254.512 128.109 251.751 128.109H240.154C237.393 128.109 235.154 130.348 235.154 133.109C235.154 135.87 237.392 138.109 240.154 138.109Z" fill="#003DD0"/>
<path d="M277.826 138.109H289.423C292.184 138.109 294.423 135.87 294.423 133.109C294.423 130.348 292.184 128.109 289.423 128.109H277.826C275.065 128.109 272.826 130.348 272.826 133.109C272.826 135.87 275.065 138.109 277.826 138.109Z" fill="#003DD0"/>
<path d="M315.498 138.109H327.095C329.856 138.109 332.095 135.87 332.095 133.109C332.095 130.348 329.856 128.109 327.095 128.109H315.498C312.737 128.109 310.498 130.348 310.498 133.109C310.498 135.87 312.737 138.109 315.498 138.109Z" fill="#003DD0"/>
<path d="M353.171 138.109H364.768C367.529 138.109 369.768 135.87 369.768 133.109C369.768 130.348 367.529 128.109 364.768 128.109H353.171C350.41 128.109 348.171 130.348 348.171 133.109C348.171 135.87 350.409 138.109 353.171 138.109Z" fill="#003DD0"/>
<path d="M164.809 138.109H176.406C179.167 138.109 181.406 135.87 181.406 133.109C181.406 130.348 179.167 128.109 176.406 128.109H164.809C162.048 128.109 159.809 130.348 159.809 133.109C159.809 135.87 162.048 138.109 164.809 138.109Z" fill="#003DD0"/>
<path d="M59.3522 74.5341H77.9352C80.6962 74.5341 82.9352 72.2951 82.9352 69.5341C82.9352 66.7731 80.6962 64.5341 77.9352 64.5341H59.3522C56.5912 64.5341 54.3522 66.7731 54.3522 69.5341C54.3522 72.2951 56.5912 74.5341 59.3522 74.5341Z" fill="#003DD0"/>
<path d="M59.3522 94.9161H117.935C120.696 94.9161 122.935 92.6771 122.935 89.9161C122.935 87.1551 120.696 84.9161 117.935 84.9161H59.3522C56.5912 84.9161 54.3522 87.1551 54.3522 89.9161C54.3522 92.6771 56.5912 94.9161 59.3522 94.9161Z" fill="#003DD0"/>
<path d="M470.802 60.0731H422.412C414.128 60.0731 407.412 66.7891 407.412 75.0731C407.412 83.3571 414.128 90.0731 422.412 90.0731H434.589L343.464 181.198H220.625C216.647 181.198 212.832 182.779 210.019 185.592L185.039 210.572C168.663 191.765 144.546 179.876 117.65 179.876C68.3182 179.876 28.3271 219.867 28.3271 269.199C28.3271 300.734 44.6702 328.451 69.3472 344.346C68.6942 345.667 68.3172 347.149 68.3172 348.723V474.708C68.3172 480.177 72.7502 484.61 78.2192 484.61H138.368C143.837 484.61 148.27 480.177 148.27 474.708V353.134C157.051 349.93 165.187 345.384 172.433 339.749V474.708C172.433 480.177 176.866 484.61 182.335 484.61H242.484C247.953 484.61 252.386 480.177 252.386 474.708V240.722C252.386 235.253 247.953 230.82 242.484 230.82H207.217L226.839 211.199H349.677C353.655 211.199 357.47 209.619 360.283 206.805L380.664 186.424V474.708C380.664 480.177 385.097 484.61 390.566 484.61H450.715C456.184 484.61 460.617 480.177 460.617 474.708V172.722C460.617 167.253 456.184 162.82 450.715 162.82H404.268L455.802 111.286V123.463C455.802 131.747 462.518 138.463 470.802 138.463C479.086 138.463 485.802 131.747 485.802 123.463V75.0731C485.802 66.7891 479.086 60.0731 470.802 60.0731Z" fill="#003DD0"/>
<path d="M346.599 270.82H286.45C280.981 270.82 276.548 275.253 276.548 280.722V474.708C276.548 480.177 280.981 484.61 286.45 484.61H346.599C352.068 484.61 356.501 480.177 356.501 474.708V280.722C356.502 275.254 352.068 270.82 346.599 270.82Z" fill="#003DD0"/>
</g>
<path d="M242.155 462.532H182.006C176.537 462.532 172.104 458.099 172.104 452.63V218.644C172.104 213.175 176.537 208.742 182.006 208.742H242.155C247.624 208.742 252.057 213.175 252.057 218.644V452.63C252.057 458.099 247.624 462.532 242.155 462.532Z" fill="#3E89F0"/>
<path d="M206.648 274.637C206.648 303.327 193.128 328.847 172.108 345.187V222.167C172.108 216.947 176.148 212.667 181.278 212.297C196.978 228.387 206.648 250.387 206.648 274.637Z" fill="#002790"/>
<path d="M202.108 238.737H222.058V432.527H202.108V238.737Z" fill="#BCD7FF"/>
<path d="M206.648 271.117C206.648 280.967 205.058 290.447 202.108 299.307V242.947C205.058 251.807 206.648 261.277 206.648 271.117Z" fill="#002790"/>
<path d="M346.27 462.532H286.121C280.652 462.532 276.219 458.099 276.219 452.63V258.644C276.219 253.175 280.652 248.742 286.121 248.742H346.27C351.739 248.742 356.172 253.175 356.172 258.644V452.63C356.173 458.099 351.739 462.532 346.27 462.532Z" fill="#3E89F0"/>
<path d="M326.172 278.742V432.532H306.219V278.742H326.172Z" fill="#BCD7FF"/>
<path d="M460.29 150.64V452.63C460.29 458.1 455.85 462.53 450.39 462.53H390.24C384.77 462.53 380.34 458.1 380.34 452.63V150.64C380.34 145.18 384.77 140.74 390.24 140.74H450.39C455.85 140.74 460.29 145.18 460.29 150.64Z" fill="#3E89F0"/>
<path d="M427.94 140.74L380.34 188.34V150.64C380.34 145.18 384.77 140.74 390.24 140.74H427.94Z" fill="#002790"/>
<path d="M430.288 170.742V432.532H410.335V170.742H430.288Z" fill="#BCD7FF"/>
<path d="M470.473 37.995H422.083C413.799 37.995 407.083 44.711 407.083 52.995C407.083 61.279 413.799 67.995 422.083 67.995H434.26L343.135 159.12H220.296C216.318 159.12 212.503 160.701 209.69 163.514L136.251 236.952L110.569 211.27C107.756 208.457 103.941 206.876 99.963 206.876C95.984 206.876 92.17 208.457 89.357 211.27L40.816 259.811C34.959 265.669 34.959 275.166 40.816 281.024C43.745 283.953 47.584 285.418 51.422 285.418C55.26 285.418 59.1 283.954 62.028 281.024L99.962 243.09L125.644 268.772C131.501 274.63 140.999 274.63 146.857 268.772L226.509 189.12H349.347C353.325 189.12 357.14 187.54 359.953 184.726L455.472 89.207V101.384C455.472 109.668 462.188 116.384 470.472 116.384C478.756 116.384 485.472 109.668 485.472 101.384V52.994C485.473 44.711 478.757 37.995 470.473 37.995Z" fill="#BCD7FF"/>
<path d="M117.321 336.444C166.653 336.444 206.644 296.453 206.644 247.121C206.644 197.789 166.653 157.798 117.321 157.798C67.9893 157.798 27.998 197.789 27.998 247.121C27.998 296.453 67.9893 336.444 117.321 336.444Z" fill="#26DD45"/>
<path d="M206.644 247.121C206.644 247.064 206.644 247.007 206.644 246.951C206.636 242.648 203.091 239.187 198.788 239.187H196.7C188.105 239.187 185.753 227.364 193.694 224.075L195.623 223.276C199.598 221.629 201.549 217.075 199.91 213.097C199.888 213.044 199.867 212.992 199.845 212.939C199.823 212.887 199.801 212.834 199.78 212.782C198.126 208.81 193.526 206.969 189.551 208.615L187.622 209.414C179.681 212.703 172.984 202.68 179.062 196.603L180.531 195.134C183.599 192.066 183.601 187.091 180.536 184.02C180.499 183.983 180.461 183.945 180.424 183.908C177.354 180.843 172.378 180.845 169.31 183.913L167.841 185.382C161.763 191.46 151.74 184.763 155.03 176.822L155.825 174.903C157.485 170.895 155.583 166.297 151.577 164.633C151.528 164.613 151.479 164.592 151.43 164.572C147.421 162.915 142.824 164.822 141.164 168.83L140.369 170.749C137.08 178.69 125.257 176.338 125.257 167.743V165.655C125.257 161.352 121.796 157.807 117.493 157.799C117.436 157.799 117.379 157.799 117.323 157.799C117.266 157.799 117.209 157.799 117.153 157.799C112.85 157.807 109.389 161.352 109.389 165.655V167.743C109.389 176.338 97.566 178.69 94.277 170.749L93.478 168.82C91.831 164.845 87.277 162.894 83.299 164.533C83.246 164.555 83.194 164.576 83.141 164.598C83.089 164.62 83.036 164.642 82.984 164.663C79.012 166.317 77.171 170.917 78.817 174.892L79.616 176.821C82.905 184.762 72.882 191.459 66.805 185.381L65.336 183.912C62.268 180.844 57.293 180.842 54.222 183.907C54.185 183.944 54.147 183.982 54.11 184.019C51.045 187.089 51.047 192.065 54.115 195.133L55.584 196.602C61.662 202.68 54.965 212.703 47.024 209.413L45.105 208.618C41.097 206.958 36.499 208.86 34.835 212.866C34.815 212.915 34.794 212.964 34.774 213.013C33.117 217.022 35.024 221.619 39.032 223.279L40.951 224.074C48.892 227.363 46.54 239.186 37.945 239.186H35.857C31.554 239.186 28.009 242.647 28.001 246.95V247.12V247.29C28.01 251.593 31.554 255.054 35.857 255.054H37.945C46.54 255.054 48.892 266.877 40.951 270.166L39.022 270.965C35.047 272.612 33.096 277.166 34.735 281.145C34.757 281.197 34.778 281.25 34.8 281.302C34.822 281.354 34.844 281.407 34.865 281.459C36.519 285.431 41.119 287.272 45.094 285.626L47.023 284.827C54.964 281.538 61.661 291.561 55.583 297.638L54.114 299.107C51.046 302.175 51.044 307.15 54.109 310.221L54.221 310.333C57.291 313.398 62.267 313.396 65.335 310.328L66.804 308.859C72.882 302.781 82.905 309.478 79.615 317.419L78.82 319.338C77.16 323.346 79.062 327.944 83.068 329.608C83.117 329.628 83.166 329.649 83.215 329.669C87.224 331.326 91.821 329.419 93.481 325.411L94.276 323.492C97.565 315.551 109.388 317.903 109.388 326.498V328.586C109.388 332.889 112.849 336.434 117.152 336.442H117.322H117.492C121.795 336.434 125.256 332.889 125.256 328.586V326.5C125.256 317.905 137.079 315.553 140.368 323.494L141.167 325.423C142.814 329.398 147.368 331.349 151.347 329.71C151.399 329.688 151.452 329.667 151.504 329.645C151.556 329.623 151.609 329.601 151.661 329.58C155.633 327.926 157.474 323.326 155.828 319.351L155.029 317.422C151.74 309.481 161.763 302.784 167.84 308.862L169.309 310.331C172.377 313.399 177.352 313.401 180.423 310.336C180.46 310.299 180.498 310.261 180.535 310.224C183.6 307.154 183.598 302.178 180.53 299.11L179.061 297.641C172.983 291.563 179.68 281.54 187.621 284.83L189.54 285.625C193.548 287.285 198.146 285.383 199.81 281.377C199.83 281.328 199.851 281.279 199.871 281.23C201.528 277.221 199.621 272.624 195.613 270.964L193.694 270.169C185.753 266.88 188.105 255.057 196.7 255.057H198.788C203.091 255.057 206.636 251.596 206.644 247.293C206.644 247.235 206.644 247.178 206.644 247.121Z" fill="#4AE767"/>
<path d="M117.321 314.122C154.325 314.122 184.322 284.125 184.322 247.121C184.322 210.117 154.325 180.12 117.321 180.12C80.3174 180.12 50.32 210.117 50.32 247.121C50.32 284.125 80.3174 314.122 117.321 314.122Z" fill="#B6F6BE"/>
<path d="M129.761 241.102H105.125C102.612 241.102 100.575 239.065 100.575 236.552V230.569C100.575 228.056 102.612 226.019 105.125 226.019H110.543V232.847C110.543 234.165 111.611 235.233 112.929 235.233H121.959C123.276 235.233 124.345 234.165 124.345 232.847V226.019H142.647C143.965 226.019 145.033 224.951 145.033 223.633V214.603C145.033 213.286 143.965 212.218 142.647 212.218H124.345V205.389C124.345 204.071 123.276 203.003 121.959 203.003H112.928C111.611 203.003 110.542 204.071 110.542 205.389V212.218H105.124C94.9895 212.218 86.7729 220.433 86.7729 230.569V236.552C86.7729 246.687 94.9895 254.904 105.125 254.904H129.76C132.273 254.904 134.31 256.941 134.31 259.454V265.436C134.31 267.95 132.273 269.987 129.759 269.987H124.343V263.158C124.343 261.84 123.275 260.772 121.957 260.772H112.928C111.611 260.772 110.542 261.84 110.542 263.158V269.987H92.2402C90.9224 269.987 89.8543 271.055 89.8543 272.373V281.403C89.8543 282.72 90.9224 283.788 92.2402 283.788H110.542V290.617C110.542 291.935 111.611 293.003 112.928 293.003H121.958C123.276 293.003 124.344 291.935 124.344 290.617V283.788H129.761C139.896 283.788 148.112 275.573 148.112 265.437V259.454C148.112 249.318 139.896 241.102 129.761 241.102Z" fill="#00AC1F"/>
<path d="M174.993 251.495C173.222 251.495 171.788 250.06 171.788 248.29C171.788 218.9 147.877 194.99 118.487 194.99C116.717 194.99 115.283 193.555 115.283 191.785C115.283 190.016 116.717 188.581 118.487 188.581C151.411 188.581 178.197 215.366 178.197 248.29C178.197 250.06 176.763 251.495 174.993 251.495Z" fill="#00D627"/>
<path d="M118.487 308C85.563 308 58.777 281.214 58.777 248.29C58.777 246.52 60.2113 245.085 61.9813 245.085C63.7514 245.085 65.1857 246.52 65.1857 248.29C65.1857 277.68 89.0967 301.591 118.487 301.591C120.257 301.591 121.692 303.026 121.692 304.796C121.692 306.565 120.257 308 118.487 308Z" fill="#00D627"/>
<path d="M138.039 462.532H77.89C72.421 462.532 67.988 458.099 67.988 452.63V326.644C67.988 321.175 72.421 316.742 77.89 316.742H138.039C143.508 316.742 147.941 321.175 147.941 326.644V452.63C147.941 458.099 143.508 462.532 138.039 462.532Z" fill="#3E89F0"/>
<path d="M117.941 346.742V432.532H97.988V346.742H117.941Z" fill="#BCD7FF"/>
<path d="M123.508 91.321H63.63C60.316 91.321 57.63 94.007 57.63 97.321V124.742C57.63 128.056 60.316 130.742 63.63 130.742H123.509C125.452 130.742 127.275 129.801 128.401 128.216L138.139 114.505C139.617 112.424 139.617 109.637 138.139 107.556L128.401 93.845C127.275 92.262 125.452 91.321 123.508 91.321Z" fill="#4AE767"/>
<path d="M346.27 243.742H286.122C277.905 243.742 271.22 250.427 271.22 258.644V452.63C271.22 460.847 277.905 467.532 286.122 467.532H346.27C354.487 467.532 361.172 460.847 361.172 452.63V258.644C361.173 250.427 354.488 243.742 346.27 243.742ZM351.173 452.63C351.173 455.333 348.974 457.532 346.271 457.532H286.123C283.42 457.532 281.221 455.333 281.221 452.63V258.644C281.221 255.941 283.42 253.742 286.123 253.742H346.271C348.974 253.742 351.173 255.941 351.173 258.644V452.63Z" fill="#003DD0"/>
<path d="M470.47 33H422.08C411.052 33 402.08 41.972 402.08 53C402.08 64.028 411.052 73 422.08 73H422.189L401.614 93.574C399.661 95.527 399.661 98.693 401.614 100.645C403.567 102.597 406.732 102.597 408.685 100.645L437.795 71.535C439.225 70.105 439.652 67.954 438.879 66.086C438.105 64.218 436.282 63 434.259 63H422.079C416.565 63 412.079 58.514 412.079 53C412.079 47.486 416.565 43 422.079 43H470.469C475.983 43 480.469 47.486 480.469 53V101.39C480.469 106.904 475.983 111.39 470.469 111.39C464.955 111.39 460.469 106.904 460.469 101.39V89.21C460.469 87.188 459.251 85.364 457.383 84.591C455.514 83.817 453.364 84.244 451.934 85.674L356.414 181.194C354.527 183.081 352.018 184.12 349.35 184.12H226.51C225.184 184.12 223.912 184.647 222.974 185.584L202.314 206.243C199.316 200.035 195.657 194.203 191.43 188.839L213.225 167.044C215.084 165.185 217.663 164.119 220.3 164.119H343.13C344.456 164.119 345.728 163.592 346.666 162.655L388.106 121.215C390.059 119.262 390.059 116.096 388.106 114.144C386.153 112.192 382.988 112.192 381.035 114.144L341.059 154.12H220.3C215.03 154.12 209.875 156.254 206.154 159.974L184.817 181.311C167.676 163.734 143.752 152.8 117.32 152.8C65.312 152.8 23 195.112 23 247.12C23 278.079 37.955 306.668 63.184 324.35C63.067 325.1 62.989 325.862 62.989 326.644V452.63C62.989 460.847 69.674 467.532 77.891 467.532H138.039C146.256 467.532 152.941 460.847 152.941 452.63V334.473C188.193 320.082 211.64 285.42 211.64 247.119C211.64 236.313 209.808 225.929 206.448 216.253L209.055 213.646C209.364 213.706 209.681 213.742 210.006 213.742H242.154C244.857 213.742 247.056 215.941 247.056 218.644V452.63C247.056 455.333 244.857 457.532 242.154 457.532H182.006C179.303 457.532 177.104 455.333 177.104 452.63V348.42C177.104 345.659 174.865 343.42 172.104 343.42C169.343 343.42 167.104 345.659 167.104 348.42V452.63C167.104 460.847 173.789 467.532 182.006 467.532H242.154C250.371 467.532 257.056 460.847 257.056 452.63V218.644C257.056 210.427 250.371 203.742 242.154 203.742H218.958L228.58 194.12H349.35C354.69 194.12 359.71 192.041 363.486 188.266L375.34 176.412V452.63C375.34 460.846 382.024 467.53 390.24 467.53H450.39C458.606 467.53 465.29 460.846 465.29 452.63V150.64C465.29 142.424 458.606 135.74 450.39 135.74H416.012L450.47 101.282V101.391C450.47 112.419 459.442 121.391 470.47 121.391C481.498 121.391 490.47 112.419 490.47 101.391V53C490.47 41.972 481.498 33 470.47 33ZM142.941 452.63C142.941 455.333 140.742 457.532 138.039 457.532H77.89C75.187 457.532 72.988 455.333 72.988 452.63V326.644C72.988 323.941 75.187 321.742 77.89 321.742H138.038C140.741 321.742 142.94 323.941 142.94 326.644V452.63H142.941ZM152.646 323.696C151.274 316.887 145.247 311.742 138.039 311.742H77.89C74.1 311.742 70.647 313.176 68.014 315.515C46.011 299.66 33 274.42 33 247.12C33 200.626 70.826 162.8 117.32 162.8C163.814 162.8 201.64 200.626 201.64 247.12C201.64 280.083 182.213 310.029 152.646 323.696ZM450.39 145.74C453.092 145.74 455.29 147.938 455.29 150.64V452.63C455.29 455.332 453.092 457.53 450.39 457.53H390.24C387.538 457.53 385.34 455.332 385.34 452.63V166.411L406.011 145.74H450.39Z" fill="#003DD0"/>
<path d="M63.63 135.742H123.508C127.064 135.742 130.417 134.011 132.476 131.112L142.215 117.401C144.921 113.591 144.921 108.472 142.215 104.662L132.476 90.951C130.417 88.052 127.064 86.321 123.508 86.321H63.63C57.565 86.321 52.63 91.256 52.63 97.321V124.742C52.63 130.808 57.564 135.742 63.63 135.742ZM62.63 97.321C62.63 96.77 63.079 96.321 63.63 96.321H123.508C123.832 96.321 124.136 96.478 124.324 96.742L134.062 110.452C134.308 110.799 134.308 111.264 134.062 111.61L124.324 125.32C124.136 125.584 123.831 125.741 123.508 125.741H63.63C63.079 125.741 62.63 125.292 62.63 124.741V97.321Z" fill="#003DD0"/>
<path d="M202.152 116.031H213.749C216.51 116.031 218.749 113.792 218.749 111.031C218.749 108.27 216.51 106.031 213.749 106.031H202.152C199.391 106.031 197.152 108.27 197.152 111.031C197.152 113.792 199.391 116.031 202.152 116.031Z" fill="#003DD0"/>
<path d="M239.825 116.031H251.422C254.183 116.031 256.422 113.792 256.422 111.031C256.422 108.27 254.183 106.031 251.422 106.031H239.825C237.064 106.031 234.825 108.27 234.825 111.031C234.825 113.792 237.063 116.031 239.825 116.031Z" fill="#003DD0"/>
<path d="M277.497 116.031H289.094C291.855 116.031 294.094 113.792 294.094 111.031C294.094 108.27 291.855 106.031 289.094 106.031H277.497C274.736 106.031 272.497 108.27 272.497 111.031C272.497 113.792 274.736 116.031 277.497 116.031Z" fill="#003DD0"/>
<path d="M315.169 116.031H326.766C329.527 116.031 331.766 113.792 331.766 111.031C331.766 108.27 329.527 106.031 326.766 106.031H315.169C312.408 106.031 310.169 108.27 310.169 111.031C310.169 113.792 312.408 116.031 315.169 116.031Z" fill="#003DD0"/>
<path d="M352.842 116.031H364.439C367.2 116.031 369.439 113.792 369.439 111.031C369.439 108.27 367.2 106.031 364.439 106.031H352.842C350.081 106.031 347.842 108.27 347.842 111.031C347.842 113.792 350.08 116.031 352.842 116.031Z" fill="#003DD0"/>
<path d="M164.48 116.031H176.077C178.838 116.031 181.077 113.792 181.077 111.031C181.077 108.27 178.838 106.031 176.077 106.031H164.48C161.719 106.031 159.48 108.27 159.48 111.031C159.48 113.792 161.719 116.031 164.48 116.031Z" fill="#003DD0"/>
<path d="M59.023 52.456H77.606C80.367 52.456 82.606 50.217 82.606 47.456C82.606 44.695 80.367 42.456 77.606 42.456H59.023C56.262 42.456 54.023 44.695 54.023 47.456C54.023 50.217 56.262 52.456 59.023 52.456Z" fill="#003DD0"/>
<path d="M59.023 72.838H117.606C120.367 72.838 122.606 70.599 122.606 67.838C122.606 65.077 120.367 62.838 117.606 62.838H59.023C56.262 62.838 54.023 65.077 54.023 67.838C54.023 70.599 56.262 72.838 59.023 72.838Z" fill="#003DD0"/>
<path d="M302.266 85.1271C299.505 85.1271 297.266 82.8891 297.266 80.1271C297.266 76.6351 294.425 73.7942 290.933 73.7942C288.172 73.7942 285.933 71.5562 285.933 68.7942C285.933 66.0322 288.172 63.7942 290.933 63.7942C294.425 63.7942 297.266 60.9532 297.266 57.4612C297.266 54.6992 299.505 52.4612 302.266 52.4612C305.027 52.4612 307.266 54.6992 307.266 57.4612C307.266 60.9532 310.107 63.7942 313.599 63.7942C316.36 63.7942 318.599 66.0322 318.599 68.7942C318.599 71.5562 316.36 73.7942 313.599 73.7942C310.107 73.7942 307.266 76.6351 307.266 80.1271C307.266 82.8891 305.028 85.1271 302.266 85.1271Z" fill="#00D627"/>
<path d="M472.266 501.127C469.505 501.127 467.266 498.889 467.266 496.127C467.266 492.635 464.425 489.794 460.933 489.794C458.172 489.794 455.933 487.556 455.933 484.794C455.933 482.032 458.172 479.794 460.933 479.794C464.425 479.794 467.266 476.953 467.266 473.461C467.266 470.699 469.505 468.461 472.266 468.461C475.027 468.461 477.266 470.699 477.266 473.461C477.266 476.953 480.107 479.794 483.599 479.794C486.36 479.794 488.599 482.032 488.599 484.794C488.599 487.556 486.36 489.794 483.599 489.794C480.107 489.794 477.266 492.635 477.266 496.127C477.266 498.889 475.028 501.127 472.266 501.127Z" fill="#00D627"/>
<path d="M306.266 236.127C303.505 236.127 301.266 233.889 301.266 231.127C301.266 227.635 298.425 224.794 294.933 224.794C292.172 224.794 289.933 222.556 289.933 219.794C289.933 217.032 292.172 214.794 294.933 214.794C298.425 214.794 301.266 211.953 301.266 208.461C301.266 205.699 303.505 203.461 306.266 203.461C309.027 203.461 311.266 205.699 311.266 208.461C311.266 211.953 314.107 214.794 317.599 214.794C320.36 214.794 322.599 217.032 322.599 219.794C322.599 222.556 320.36 224.794 317.599 224.794C314.107 224.794 311.266 227.635 311.266 231.127C311.266 233.889 309.028 236.127 306.266 236.127Z" fill="#00D627"/>
<path d="M344.095 53.0111C343.244 53.0111 342.383 52.7941 341.594 52.3371L341.495 52.2801C339.105 50.8961 338.29 47.8371 339.674 45.4471C341.058 43.0571 344.116 42.2421 346.507 43.6261L346.606 43.6831C348.996 45.0671 349.811 48.1261 348.427 50.5161C347.5 52.1161 345.821 53.0111 344.095 53.0111Z" fill="#003DD0"/>
<path d="M368.997 67.3871C368.153 67.3871 367.297 67.1731 366.512 66.7221L366.413 66.6651C364.018 65.2901 363.192 62.2341 364.567 59.8391C365.942 57.4451 368.999 56.6181 371.393 57.9931L371.492 58.0501C373.887 59.4251 374.713 62.4811 373.338 64.8761C372.413 66.4861 370.729 67.3871 368.997 67.3871Z" fill="#003DD0"/>
<path d="M344.095 53.0111C343.244 53.0111 342.383 52.7941 341.594 52.3371L341.495 52.2801C339.105 50.8961 338.29 47.8371 339.674 45.4471C341.058 43.0571 344.116 42.2421 346.507 43.6261L346.606 43.6831C348.996 45.0671 349.811 48.1261 348.427 50.5161C347.5 52.1161 345.821 53.0111 344.095 53.0111Z" fill="#003DD0"/>
<path d="M368.997 67.3871C368.153 67.3871 367.297 67.1731 366.512 66.7221L366.413 66.6651C364.018 65.2901 363.192 62.2341 364.567 59.8391C365.942 57.4451 368.999 56.6181 371.393 57.9931L371.492 58.0501C373.887 59.4251 374.713 62.4811 373.338 64.8761C372.413 66.4861 370.729 67.3871 368.997 67.3871Z" fill="#003DD0"/>
<path d="M368.908 53.0111C367.182 53.0111 365.504 52.1161 364.576 50.5161C363.192 48.1271 364.007 45.0681 366.397 43.6831L366.496 43.6261C368.887 42.2421 371.944 43.0581 373.329 45.4471C374.713 47.8361 373.898 50.8951 371.508 52.2801L371.409 52.3371C370.62 52.7931 369.758 53.0111 368.908 53.0111Z" fill="#003DD0"/>
<path d="M344.007 67.3871C342.275 67.3871 340.59 66.4861 339.666 64.8761C338.291 62.4811 339.117 59.4251 341.512 58.0501L341.611 57.9931C344.006 56.6181 347.062 57.4441 348.437 59.8391C349.812 62.2341 348.986 65.2901 346.591 66.6651L346.492 66.7221C345.707 67.1731 344.851 67.3871 344.007 67.3871Z" fill="#003DD0"/>
<path d="M368.908 53.0111C367.182 53.0111 365.504 52.1161 364.576 50.5161C363.192 48.1271 364.007 45.0681 366.397 43.6831L366.496 43.6261C368.887 42.2421 371.944 43.0581 373.329 45.4471C374.713 47.8361 373.898 50.8951 371.508 52.2801L371.409 52.3371C370.62 52.7931 369.758 53.0111 368.908 53.0111Z" fill="#003DD0"/>
<path d="M344.007 67.3871C342.275 67.3871 340.59 66.4861 339.666 64.8761C338.291 62.4811 339.117 59.4251 341.512 58.0501L341.611 57.9931C344.006 56.6181 347.062 57.4441 348.437 59.8391C349.812 62.2341 348.986 65.2901 346.591 66.6651L346.492 66.7221C345.707 67.1731 344.851 67.3871 344.007 67.3871Z" fill="#003DD0"/>
<path d="M356.502 45.8501C353.741 45.8501 351.502 43.6111 351.502 40.8501V40.7361C351.502 37.9751 353.741 35.7361 356.502 35.7361C359.263 35.7361 361.502 37.9751 361.502 40.7361V40.8501C361.502 43.6111 359.263 45.8501 356.502 45.8501Z" fill="#003DD0"/>
<path d="M356.502 74.6031C353.741 74.6031 351.502 72.3641 351.502 69.6031V69.4891C351.502 66.7281 353.741 64.4891 356.502 64.4891C359.263 64.4891 361.502 66.7281 361.502 69.4891V69.6031C361.502 72.3641 359.263 74.6031 356.502 74.6031Z" fill="#003DD0"/>
<path d="M13.0952 168.011C12.2442 168.011 11.3832 167.794 10.5942 167.337L10.4952 167.28C8.10518 165.896 7.29017 162.837 8.67417 160.447C10.0582 158.057 13.1162 157.242 15.5072 158.626L15.6062 158.683C17.9962 160.067 18.8112 163.126 17.4272 165.516C16.5002 167.116 14.8212 168.011 13.0952 168.011Z" fill="#003DD0"/>
<path d="M37.9971 182.387C37.1531 182.387 36.2972 182.173 35.5122 181.722L35.4132 181.665C33.0182 180.29 32.1921 177.234 33.5671 174.839C34.9421 172.445 37.9991 171.618 40.3931 172.993L40.4921 173.05C42.8871 174.425 43.7131 177.481 42.3381 179.876C41.4131 181.486 39.7291 182.387 37.9971 182.387Z" fill="#003DD0"/>
<path d="M13.0952 168.011C12.2442 168.011 11.3832 167.794 10.5942 167.337L10.4952 167.28C8.10518 165.896 7.29017 162.837 8.67417 160.447C10.0582 158.057 13.1162 157.242 15.5072 158.626L15.6062 158.683C17.9962 160.067 18.8112 163.126 17.4272 165.516C16.5002 167.116 14.8212 168.011 13.0952 168.011Z" fill="#003DD0"/>
<path d="M37.9971 182.387C37.1531 182.387 36.2972 182.173 35.5122 181.722L35.4132 181.665C33.0182 180.29 32.1921 177.234 33.5671 174.839C34.9421 172.445 37.9991 171.618 40.3931 172.993L40.4921 173.05C42.8871 174.425 43.7131 177.481 42.3381 179.876C41.4131 181.486 39.7291 182.387 37.9971 182.387Z" fill="#003DD0"/>
<path d="M37.9082 168.011C36.1822 168.011 34.5042 167.116 33.5762 165.516C32.1922 163.127 33.0071 160.068 35.3971 158.683L35.4961 158.626C37.8871 157.242 40.9441 158.058 42.3291 160.447C43.7131 162.836 42.8982 165.895 40.5082 167.28L40.4092 167.337C39.6202 167.793 38.7582 168.011 37.9082 168.011Z" fill="#003DD0"/>
<path d="M13.0071 182.387C11.2751 182.387 9.59014 181.486 8.66614 179.876C7.29114 177.481 8.11715 174.425 10.5122 173.05L10.6112 172.993C13.0062 171.618 16.0621 172.444 17.4371 174.839C18.8121 177.234 17.9861 180.29 15.5911 181.665L15.4921 181.722C14.7071 182.173 13.8511 182.387 13.0071 182.387Z" fill="#003DD0"/>
<path d="M37.9082 168.011C36.1822 168.011 34.5042 167.116 33.5762 165.516C32.1922 163.127 33.0071 160.068 35.3971 158.683L35.4961 158.626C37.8871 157.242 40.9441 158.058 42.3291 160.447C43.7131 162.836 42.8982 165.895 40.5082 167.28L40.4092 167.337C39.6202 167.793 38.7582 168.011 37.9082 168.011Z" fill="#003DD0"/>
<path d="M13.0071 182.387C11.2751 182.387 9.59014 181.486 8.66614 179.876C7.29114 177.481 8.11715 174.425 10.5122 173.05L10.6112 172.993C13.0062 171.618 16.0621 172.444 17.4371 174.839C18.8121 177.234 17.9861 180.29 15.5911 181.665L15.4921 181.722C14.7071 182.173 13.8511 182.387 13.0071 182.387Z" fill="#003DD0"/>
<path d="M25.5022 160.85C22.7412 160.85 20.5022 158.611 20.5022 155.85V155.736C20.5022 152.975 22.7412 150.736 25.5022 150.736C28.2632 150.736 30.5022 152.975 30.5022 155.736V155.85C30.5022 158.611 28.2632 160.85 25.5022 160.85Z" fill="#003DD0"/>
<path d="M25.5022 189.603C22.7412 189.603 20.5022 187.364 20.5022 184.603V184.489C20.5022 181.728 22.7412 179.489 25.5022 179.489C28.2632 179.489 30.5022 181.728 30.5022 184.489V184.603C30.5022 187.364 28.2632 189.603 25.5022 189.603Z" fill="#003DD0"/>
<path d="M478.095 241.011C477.244 241.011 476.383 240.794 475.594 240.337L475.495 240.28C473.105 238.896 472.29 235.837 473.674 233.447C475.058 231.057 478.116 230.242 480.507 231.626L480.606 231.683C482.996 233.067 483.811 236.126 482.427 238.516C481.5 240.116 479.821 241.011 478.095 241.011Z" fill="#003DD0"/>
<path d="M502.997 255.387C502.153 255.387 501.297 255.173 500.512 254.722L500.413 254.665C498.018 253.29 497.192 250.234 498.567 247.839C499.942 245.445 502.999 244.618 505.393 245.993L505.492 246.05C507.887 247.425 508.713 250.481 507.338 252.876C506.413 254.486 504.729 255.387 502.997 255.387Z" fill="#003DD0"/>
<path d="M478.095 241.011C477.244 241.011 476.383 240.794 475.594 240.337L475.495 240.28C473.105 238.896 472.29 235.837 473.674 233.447C475.058 231.057 478.116 230.242 480.507 231.626L480.606 231.683C482.996 233.067 483.811 236.126 482.427 238.516C481.5 240.116 479.821 241.011 478.095 241.011Z" fill="#003DD0"/>
<path d="M502.997 255.387C502.153 255.387 501.297 255.173 500.512 254.722L500.413 254.665C498.018 253.29 497.192 250.234 498.567 247.839C499.942 245.445 502.999 244.618 505.393 245.993L505.492 246.05C507.887 247.425 508.713 250.481 507.338 252.876C506.413 254.486 504.729 255.387 502.997 255.387Z" fill="#003DD0"/>
<path d="M502.908 241.011C501.182 241.011 499.504 240.116 498.576 238.516C497.192 236.127 498.007 233.068 500.397 231.683L500.496 231.626C502.887 230.242 505.944 231.058 507.329 233.447C508.713 235.836 507.898 238.895 505.508 240.28L505.409 240.337C504.62 240.793 503.758 241.011 502.908 241.011Z" fill="#003DD0"/>
<path d="M478.007 255.387C476.275 255.387 474.59 254.486 473.666 252.876C472.291 250.481 473.117 247.425 475.512 246.05L475.611 245.993C478.006 244.618 481.062 245.444 482.437 247.839C483.812 250.234 482.986 253.29 480.591 254.665L480.492 254.722C479.707 255.173 478.851 255.387 478.007 255.387Z" fill="#003DD0"/>
<path d="M502.908 241.011C501.182 241.011 499.504 240.116 498.576 238.516C497.192 236.127 498.007 233.068 500.397 231.683L500.496 231.626C502.887 230.242 505.944 231.058 507.329 233.447C508.713 235.836 507.898 238.895 505.508 240.28L505.409 240.337C504.62 240.793 503.758 241.011 502.908 241.011Z" fill="#003DD0"/>
<path d="M478.007 255.387C476.275 255.387 474.59 254.486 473.666 252.876C472.291 250.481 473.117 247.425 475.512 246.05L475.611 245.993C478.006 244.618 481.062 245.444 482.437 247.839C483.812 250.234 482.986 253.29 480.591 254.665L480.492 254.722C479.707 255.173 478.851 255.387 478.007 255.387Z" fill="#003DD0"/>
<path d="M490.502 233.85C487.741 233.85 485.502 231.611 485.502 228.85V228.736C485.502 225.975 487.741 223.736 490.502 223.736C493.263 223.736 495.502 225.975 495.502 228.736V228.85C495.502 231.611 493.263 233.85 490.502 233.85Z" fill="#003DD0"/>
<path d="M490.502 262.603C487.741 262.603 485.502 260.364 485.502 257.603V257.489C485.502 254.728 487.741 252.489 490.502 252.489C493.263 252.489 495.502 254.728 495.502 257.489V257.603C495.502 260.364 493.263 262.603 490.502 262.603Z" fill="#003DD0"/>
<path d="M35.2662 389.127C32.5052 389.127 30.2662 386.889 30.2662 384.127C30.2662 380.635 27.4252 377.794 23.9332 377.794C21.1722 377.794 18.9332 375.556 18.9332 372.794C18.9332 370.032 21.1722 367.794 23.9332 367.794C27.4252 367.794 30.2662 364.953 30.2662 361.461C30.2662 358.699 32.5052 356.461 35.2662 356.461C38.0272 356.461 40.2662 358.699 40.2662 361.461C40.2662 364.953 43.1072 367.794 46.5992 367.794C49.3602 367.794 51.5992 370.032 51.5992 372.794C51.5992 375.556 49.3602 377.794 46.5992 377.794C43.1072 377.794 40.2662 380.635 40.2662 384.127C40.2662 386.889 38.0282 389.127 35.2662 389.127Z" fill="#00D627"/>
</g>
<defs>
<linearGradient id="paint0_linear_307_8081" x1="120.862" y1="393.931" x2="405.369" y2="109.425" gradientUnits="userSpaceOnUse">
<stop stop-color="#B6F6BE" stop-opacity="0"/>
<stop offset="1" stop-color="#00D627" stop-opacity="0.85"/>
</linearGradient>
<clipPath id="clip0_307_8081">
<rect width="512" height="512" fill="white"/>
</clipPath>
</defs>
</svg>
