<svg width="512" height="512" viewBox="0 0 512 512" fill="none" xmlns="http://www.w3.org/2000/svg">
<g clip-path="url(#clip0_307_8175)">
<path d="M191.836 24.722C138.691 66.58 159.399 157.077 106.757 203.271C81.361 225.556 45.438 234.826 24.497 260.716C-55.302 359.378 78.225 466.528 162.529 492.826C318.477 541.472 305.119 470.481 339.287 418.077C373.911 364.974 463.791 372.231 498.07 311.018C515.033 280.727 516.178 244.177 503.281 211.942C472.572 135.185 302.67 -62.572 191.836 24.722Z" fill="url(#paint0_linear_307_8175)"/>
<g opacity="0.1">
<path d="M440.122 404.933C440.621 403.025 441.242 401.017 441.942 398.936C467.627 373.208 493.813 340.956 489.132 319.427C474.945 257.699 447.481 229.688 423.567 225.591C414.724 224.075 405.007 223.908 395.173 224.751C392.352 156.14 334.281 101.784 264.266 105.014C245.857 105.863 228.511 110.646 213.045 118.544C210.349 109.014 205.263 100.018 197.761 92.516C173.672 68.427 134.196 69.103 110.97 94.544C90.3849 117.093 89.8929 151.013 109.87 174.102C120.632 186.54 135.159 193.394 150.08 194.694C147.584 203.294 145.973 212.285 145.366 221.571C144.996 227.223 145.011 232.8 145.37 238.281C115.978 236.105 79.6169 243.643 64.8809 288.625C60.7519 301.23 59.6059 312.634 60.6349 322.926C60.6189 322.927 60.6029 322.926 60.5869 322.927C51.9189 323.495 45.3539 330.983 45.9219 339.65C45.9689 340.361 46.0779 341.052 46.2149 341.732C41.8879 347.424 37.8169 354.587 34.7499 362.46C28.5549 362.375 23.6899 364.613 22.5139 378.821C21.4829 391.278 24.7629 395.124 29.7139 396.513C29.7209 396.569 29.7249 396.626 29.7329 396.683C33.5839 426.396 60.7129 446.087 71.6939 452.914L71.6769 453.171C71.4129 457.075 73.7839 460.677 77.4749 461.977L95.2169 468.229L94.8119 471.955C94.5259 474.59 96.3449 476.998 98.9599 477.431C104.311 478.317 109.669 479.169 115.032 479.99V479.98C124.482 481.43 133.942 482.79 143.412 484.1C152.92 485.416 162.434 486.68 171.95 487.935C175.728 488.433 178.658 484.693 177.257 481.149C171.117 465.62 164.35 445.631 161.089 426.303C174.287 432.026 186.683 434.414 191.553 426.622C208.475 399.543 218.063 388.879 218.063 388.879L229.939 383.958C233.849 382.338 235.966 378.083 234.899 373.987L228.075 347.771C234.039 349.903 240.209 351.601 246.551 352.814L263.231 373.576C266.805 378.025 273.578 378.025 277.152 373.576L293.832 352.814C299.677 351.696 305.374 350.164 310.899 348.264C311.37 351.097 311.162 354.008 310.312 356.755L302.684 381.627C301.598 385.168 303.286 388.959 306.642 390.517L316.323 395.029C317.522 395.585 318.546 396.449 319.292 397.536C321.57 400.84 327.3 409.609 338.195 428.831C342.464 436.369 354.242 434.626 366.911 429.769L358.806 472.477C358.166 475.851 361.04 478.852 364.439 478.357L437.593 467.705C440.419 467.293 442.323 464.607 441.78 461.803C439.351 449.264 435.381 423.102 440.122 404.933ZM98.3069 439.748L83.9949 434.705C78.8309 432.885 73.3789 436.225 72.5159 441.495C61.5559 433.9 43.5679 418.47 39.9359 397.222C44.7309 396.461 48.3219 392.974 49.3099 381.04C50.1469 370.925 48.1429 366.487 44.7079 364.431C46.9009 359.233 49.4789 354.638 51.9149 350.979C54.8569 353.29 58.6169 354.579 62.6439 354.314C65.4369 354.131 68.0059 353.222 70.1939 351.794C77.4669 364.134 87.9019 374.049 98.6339 381.837C93.4839 387.333 90.5289 394.861 91.0609 402.97C91.5589 410.56 95.0199 417.246 100.237 421.988L98.3069 439.748Z" fill="#003DD0"/>
</g>
<path d="M395.29 203.977C395.29 132.921 336.05 75.702 264.265 79.014C200.551 81.954 149.526 131.925 145.366 195.57C141.137 260.268 186.133 315.255 246.55 326.815L263.23 347.577C266.804 352.026 273.577 352.026 277.152 347.577L293.832 326.815C351.613 315.76 395.29 264.982 395.29 203.977Z" fill="#B6F6BE"/>
<path d="M145.477 194.122C160.369 196.585 176.011 193.419 188.976 184.619L200.224 185.845C203.69 186.223 206.615 183.297 206.237 179.832L205.011 168.584C219.436 147.333 218.729 118.888 202.883 98.349C170.682 118.814 148.587 153.629 145.477 194.122Z" fill="#7AEE90"/>
<path d="M313.544 269.14H226.836C224.074 269.14 221.836 266.902 221.836 264.14C221.836 261.378 224.074 259.14 226.836 259.14H313.544C316.306 259.14 318.544 261.378 318.544 264.14C318.544 266.902 316.306 269.14 313.544 269.14Z" fill="#3E89F0"/>
<path d="M313.544 288.885H226.836C224.074 288.885 221.836 286.647 221.836 283.885C221.836 281.123 224.074 278.885 226.836 278.885H313.544C316.306 278.885 318.544 281.123 318.544 283.885C318.544 286.647 316.306 288.885 313.544 288.885Z" fill="#3E89F0"/>
<path d="M312.635 249.394H262.968C260.206 249.394 257.968 247.156 257.968 244.394C257.968 241.632 260.206 239.394 262.968 239.394H312.635C315.397 239.394 317.635 241.632 317.635 244.394C317.635 247.156 315.396 249.394 312.635 249.394Z" fill="#3E89F0"/>
<path d="M61.615 328.348C70.3013 328.348 77.343 321.306 77.343 312.62C77.343 303.934 70.3013 296.892 61.615 296.892C52.9286 296.892 45.887 303.934 45.887 312.62C45.887 321.306 52.9286 328.348 61.615 328.348Z" fill="#3E89F0"/>
<path d="M98.8799 443.52L77.4699 435.975C73.7799 434.675 71.4099 431.073 71.6749 427.17L72.4109 416.33C72.8009 410.582 78.5629 406.79 83.9969 408.705L102.792 415.329C104.369 415.885 105.382 417.424 105.269 419.092L103.832 440.263C103.664 442.718 101.201 444.338 98.8799 443.52Z" fill="#3E89F0"/>
<path d="M180.48 463.06C168.12 461.43 155.76 459.81 143.41 458.1C129.24 445.39 115.03 453.98 115.03 453.98V453.99C108.11 452.93 101.2 451.82 94.2999 450.65L100.92 389.69L159.35 385.86C161.1 412.6 172.2 443.35 180.48 463.06Z" fill="#00AC1F"/>
<path d="M159.349 385.857L100.92 389.689L97.698 419.372C103.28 425.941 111.79 429.878 121.052 429.271C130.165 428.673 137.978 423.807 142.682 416.754C150.76 421.515 159.824 426.219 168.048 429.013C163.75 414.97 160.267 399.865 159.349 385.857Z" fill="#26DD45"/>
<path d="M143.41 458.1C133.94 456.79 124.48 455.43 115.03 453.98C116.45 445.28 117.3 436.97 117.75 429.26C117.98 428.55 122.36 416.06 141.14 418.83V418.81C142.26 432.89 142.96 446.52 143.41 458.1Z" fill="#4AE767"/>
<path d="M137.925 387.262L116.773 388.649C117.797 397.814 118.754 412.098 117.744 429.292C118.834 429.347 119.937 429.344 121.052 429.271C129.238 428.734 136.366 424.747 141.143 418.831C140.315 408.343 139.264 397.604 137.925 387.262Z" fill="#00AC1F"/>
<path d="M129.88 446.79C132.641 446.79 134.88 444.551 134.88 441.79C134.88 439.029 132.641 436.79 129.88 436.79C127.119 436.79 124.88 439.029 124.88 441.79C124.88 444.551 127.119 446.79 129.88 446.79Z" fill="#008B1A"/>
<path d="M187.896 221.957C187.896 221.957 91.39 181.704 64.881 262.624C38.782 342.29 131.603 374.134 142.455 378.882L187.896 221.957Z" fill="#26DD45"/>
<path d="M97.653 338.034C100.414 338.034 102.653 335.795 102.653 333.034C102.653 330.273 100.414 328.034 97.653 328.034C94.8915 328.034 92.653 330.273 92.653 333.034C92.653 335.795 94.8915 338.034 97.653 338.034Z" fill="#008B1A"/>
<path d="M142.899 234.031C145.66 234.031 147.899 231.792 147.899 229.031C147.899 226.27 145.66 224.031 142.899 224.031C140.138 224.031 137.899 226.27 137.899 229.031C137.899 231.792 140.138 234.031 142.899 234.031Z" fill="#008B1A"/>
<path d="M119.206 403.332C134.784 403.332 147.413 390.703 147.413 375.125C147.413 359.547 134.784 346.918 119.206 346.918C103.628 346.918 90.999 359.547 90.999 375.125C90.999 390.703 103.628 403.332 119.206 403.332Z" fill="#9EAFFD"/>
<path d="M147.35 373.277L119.208 375.123L117.362 346.981C132.904 345.961 146.331 357.736 147.35 373.277Z" fill="#3E89F0"/>
<path d="M91.062 376.973L119.204 375.127L121.05 403.269C105.509 404.289 92.082 392.514 91.062 376.973Z" fill="#3E89F0"/>
<path d="M119.206 388.461C126.571 388.461 132.542 382.49 132.542 375.125C132.542 367.76 126.571 361.789 119.206 361.789C111.841 361.789 105.87 367.76 105.87 375.125C105.87 382.49 111.841 388.461 119.206 388.461Z" fill="#D1DDFF"/>
<path d="M131.165 365.732C125.388 370.957 125.993 380.205 132.523 384.452C151.055 396.504 182.975 414.344 191.55 400.621C208.472 373.542 218.06 362.878 218.06 362.878L229.936 357.957C233.846 356.337 235.963 352.082 234.896 347.987L228.051 321.691C227.255 318.634 227.231 315.428 227.939 312.35C240.594 257.298 218.721 232.904 203.044 222.832C194.341 217.241 183.33 216.705 174.293 221.737C159.845 229.782 140.225 249.749 140.858 298.799C140.858 298.8 167.547 332.823 131.165 365.732Z" fill="#B6F6BE"/>
<path d="M182.07 249.023C184.831 249.023 187.07 246.784 187.07 244.023C187.07 241.262 184.831 239.023 182.07 239.023C179.309 239.023 177.07 241.262 177.07 244.023C177.07 246.784 179.309 249.023 182.07 249.023Z" fill="#003DD0"/>
<path d="M195.129 264.139C197.89 264.139 200.129 261.9 200.129 259.139C200.129 256.378 197.89 254.139 195.129 254.139C192.367 254.139 190.129 256.378 190.129 259.139C190.129 261.9 192.367 264.139 195.129 264.139Z" fill="#003DD0"/>
<path d="M201.347 282.54C204.108 282.54 206.347 280.301 206.347 277.54C206.347 274.779 204.108 272.54 201.347 272.54C198.586 272.54 196.347 274.779 196.347 277.54C196.347 280.301 198.586 282.54 201.347 282.54Z" fill="#003DD0"/>
<path d="M141.864 333.44C166.072 333.44 185.697 313.815 185.697 289.607C185.697 265.399 166.072 245.774 141.864 245.774C117.656 245.774 98.031 265.399 98.031 289.607C98.031 313.815 117.656 333.44 141.864 333.44Z" fill="#008B1A"/>
<path d="M185.599 286.735L141.866 289.603L138.998 245.87C163.149 244.287 184.015 262.585 185.599 286.735Z" fill="#7AEE90"/>
<path d="M98.1281 292.479L141.861 289.611L144.729 333.344C120.578 334.928 99.7121 316.63 98.1281 292.479Z" fill="#7AEE90"/>
<path d="M141.864 313.895C155.278 313.895 166.152 303.021 166.152 289.607C166.152 276.193 155.278 265.319 141.864 265.319C128.45 265.319 117.576 276.193 117.576 289.607C117.576 303.021 128.45 313.895 141.864 313.895Z" fill="#D1DDFF"/>
<path d="M141.864 300.756C148.021 300.756 153.013 295.764 153.013 289.607C153.013 283.45 148.021 278.458 141.864 278.458C135.707 278.458 130.715 283.45 130.715 289.607C130.715 295.764 135.707 300.756 141.864 300.756Z" fill="#00AC1F"/>
<path d="M167.151 363.658L159.259 359.962C156.935 358.874 155.933 356.108 157.022 353.784C158.11 351.46 160.876 350.458 163.2 351.547L171.092 355.243C173.416 356.331 174.418 359.097 173.329 361.421C172.241 363.744 169.474 364.746 167.151 363.658Z" fill="#00AC1F"/>
<path d="M160.765 377.293L152.873 373.597C150.549 372.509 149.547 369.743 150.636 367.419C151.724 365.095 154.49 364.093 156.814 365.182L164.706 368.878C167.03 369.966 168.032 372.732 166.943 375.056C165.855 377.38 163.089 378.381 160.765 377.293Z" fill="#00AC1F"/>
<path d="M49.4785 355.209C50.2757 345.632 44.9205 337.369 37.5173 336.753C30.1141 336.137 23.4664 343.4 22.6691 352.977C21.8719 362.553 27.2271 370.816 34.6303 371.433C42.0335 372.049 48.6812 364.785 49.4785 355.209Z" fill="#00AC1F"/>
<path d="M440.122 378.933C446.386 354.955 470.485 316.735 463.665 278.097C449.035 195.198 347.827 229.378 347.827 229.378C347.827 229.378 296.283 243.847 310.843 321.909C311.394 324.853 311.197 327.894 310.311 330.757L302.683 355.629C301.597 359.17 303.285 362.961 306.64 364.519L316.321 369.031C317.52 369.587 318.544 370.451 319.29 371.538C321.568 374.842 327.298 383.611 338.193 402.833C342.462 410.371 354.24 408.628 366.909 403.77L357.496 453.368L442.838 440.942C440.967 432.466 434.569 400.216 440.122 378.933Z" fill="#E5F0FF"/>
<path d="M301.443 306.14C305.765 305.439 314.895 304.108 330.011 302.585C331.616 302.423 332.939 301.241 333.271 299.662L336.39 284.845C336.684 283.448 338.589 283.234 339.186 284.531L345.704 298.689C346.354 300.101 347.813 300.958 349.362 300.832C356.209 300.277 363.826 299.714 372.265 299.169C417.924 296.22 403.995 374.254 398.076 403.999C397.394 407.444 401.424 409.829 404.106 407.555C427.332 387.826 496.5 327.328 489.129 293.427C474.942 231.699 447.478 203.688 423.564 199.591C392.315 194.235 350.143 205.688 330.518 219.246C319.69 226.731 282.01 257.517 297.346 303.668C297.918 305.384 299.658 306.43 301.443 306.14Z" fill="#3E89F0"/>
<path d="M446.725 342.303C445.644 342.303 444.556 341.954 443.641 341.236C441.468 339.531 441.09 336.388 442.795 334.216C461.778 310.031 463.203 301.332 463.188 299.242C463.167 296.415 461.718 290.514 459.212 283.053C458.333 280.435 459.743 277.6 462.36 276.721C464.977 275.846 467.812 277.251 468.692 279.869C471.644 288.664 473.157 295.157 473.187 299.168C473.209 302.236 473.279 311.575 450.66 340.39C449.674 341.646 448.206 342.303 446.725 342.303Z" fill="#BCD7FF"/>
<path d="M312.635 291.131C309.873 291.131 307.635 288.893 307.635 286.131C307.635 268.107 311.661 259.011 316.148 250.54C317.441 248.1 320.469 247.172 322.907 248.461C325.347 249.754 326.278 252.779 324.986 255.22C321.541 261.726 317.635 269.099 317.635 286.131C317.635 288.893 315.396 291.131 312.635 291.131Z" fill="#BCD7FF"/>
<path d="M381.033 307.383C381.033 307.383 388.349 287.344 405.908 296.384C425.198 306.315 409.789 351.529 390.115 355.841" fill="#E5F0FF"/>
<path d="M331.952 335.919C329.537 335.919 327.412 334.165 327.02 331.704C326.355 327.533 327.355 323.352 329.834 319.933C332.313 316.513 335.977 314.264 340.148 313.6C344.313 312.932 348.498 313.933 351.919 316.413C355.338 318.892 357.587 322.556 358.252 326.726C358.687 329.453 356.829 332.016 354.102 332.451C351.373 332.889 348.812 331.027 348.377 328.301C347.872 325.135 344.876 322.977 341.722 323.475C340.188 323.719 338.841 324.546 337.93 325.803C337.018 327.06 336.651 328.597 336.895 330.131C337.33 332.858 335.471 335.42 332.744 335.855C332.479 335.898 332.213 335.919 331.952 335.919Z" fill="#4369FC"/>
<path d="M237.745 145.148C243.268 145.148 247.745 140.671 247.745 135.148C247.745 129.625 243.268 125.148 237.745 125.148C232.222 125.148 227.745 129.625 227.745 135.148C227.745 140.671 232.222 145.148 237.745 145.148Z" fill="#4AE767"/>
<path d="M270.19 145.148C275.713 145.148 280.19 140.671 280.19 135.148C280.19 129.625 275.713 125.148 270.19 125.148C264.667 125.148 260.19 129.625 260.19 135.148C260.19 140.671 264.667 145.148 270.19 145.148Z" fill="#4AE767"/>
<path d="M302.635 145.148C308.158 145.148 312.635 140.671 312.635 135.148C312.635 129.625 308.158 125.148 302.635 125.148C297.112 125.148 292.635 129.625 292.635 135.148C292.635 140.671 297.112 145.148 302.635 145.148Z" fill="#4AE767"/>
<path d="M313.544 193.68H226.836C224.074 193.68 221.836 191.442 221.836 188.68C221.836 185.918 224.074 183.68 226.836 183.68H313.544C316.306 183.68 318.544 185.918 318.544 188.68C318.544 191.442 316.306 193.68 313.544 193.68Z" fill="#3E89F0"/>
<path d="M313.544 213.425H226.836C224.074 213.425 221.836 211.187 221.836 208.425C221.836 205.663 224.074 203.425 226.836 203.425H313.544C316.306 203.425 318.544 205.663 318.544 208.425C318.544 211.187 316.306 213.425 313.544 213.425Z" fill="#3E89F0"/>
<path d="M270.19 173.934H226.836C224.074 173.934 221.836 171.696 221.836 168.934C221.836 166.172 224.074 163.934 226.836 163.934H270.19C272.952 163.934 275.19 166.172 275.19 168.934C275.19 171.696 272.952 173.934 270.19 173.934Z" fill="#3E89F0"/>
<path d="M197.76 66.515C173.662 42.417 134.166 43.102 110.944 68.571C90.4049 91.097 90.1789 125.99 110.447 148.76C130.984 171.832 164.683 175.108 188.975 158.618L200.223 159.844C203.689 160.222 206.614 157.296 206.237 153.83L205.011 142.582C220.857 119.238 218.449 87.204 197.76 66.515Z" fill="#00AC1F"/>
<path d="M148.295 88.526C145.533 88.526 143.295 90.764 143.295 93.526V103.937H133.067V93.526C133.067 90.764 130.829 88.526 128.067 88.526C125.305 88.526 123.067 90.764 123.067 93.526V124.348C123.067 127.11 125.305 129.348 128.067 129.348C130.829 129.348 133.067 127.11 133.067 124.348V113.937H143.295V124.348C143.295 127.11 145.533 129.348 148.295 129.348C151.057 129.348 153.295 127.11 153.295 124.348V93.526C153.295 90.765 151.057 88.526 148.295 88.526Z" fill="white"/>
<path d="M164.94 129.349C162.178 129.349 159.94 127.111 159.94 124.349V93.526C159.94 90.764 162.178 88.526 164.94 88.526C167.702 88.526 169.94 90.764 169.94 93.526V124.348C169.94 127.11 167.702 129.349 164.94 129.349Z" fill="white"/>
<path d="M182.649 113.148C179.887 113.148 177.649 110.91 177.649 108.148V93.526C177.649 90.764 179.887 88.526 182.649 88.526C185.411 88.526 187.649 90.764 187.649 93.526V108.148C187.649 110.91 185.411 113.148 182.649 113.148Z" fill="white"/>
<path d="M182.649 129.349C179.887 129.349 177.649 127.111 177.649 124.349V122.818C177.649 120.056 179.887 117.818 182.649 117.818C185.411 117.818 187.649 120.056 187.649 122.818V124.349C187.649 127.11 185.411 129.349 182.649 129.349Z" fill="white"/>
<path d="M60.2729 186.438C57.5109 186.438 55.2729 184.2 55.2729 181.438C55.2729 178.405 52.8049 175.938 49.7729 175.938C47.0109 175.938 44.7729 173.7 44.7729 170.938C44.7729 168.176 47.0109 165.938 49.7729 165.938C52.8049 165.938 55.2729 163.47 55.2729 160.437C55.2729 157.675 57.5109 155.437 60.2729 155.437C63.035 155.437 65.273 157.675 65.273 160.437C65.273 163.47 67.741 165.938 70.773 165.938C73.535 165.938 75.773 168.176 75.773 170.938C75.773 173.7 73.535 175.938 70.773 175.938C67.741 175.938 65.273 178.405 65.273 181.438C65.273 184.2 63.035 186.438 60.2729 186.438Z" fill="#00AC1F"/>
<path d="M434.208 171.64C425.937 171.64 419.208 164.911 419.208 156.64C419.208 148.369 425.937 141.64 434.208 141.64C442.479 141.64 449.208 148.369 449.208 156.64C449.208 164.911 442.479 171.64 434.208 171.64ZM434.208 151.64C431.451 151.64 429.208 153.883 429.208 156.64C429.208 159.397 431.451 161.64 434.208 161.64C436.965 161.64 439.208 159.397 439.208 156.64C439.208 153.883 436.965 151.64 434.208 151.64Z" fill="#003DD0"/>
<path d="M223.506 51.718C215.235 51.718 208.506 44.989 208.506 36.718C208.506 28.447 215.235 21.718 223.506 21.718C231.777 21.718 238.506 28.447 238.506 36.718C238.506 44.989 231.777 51.718 223.506 51.718ZM223.506 31.718C220.749 31.718 218.506 33.961 218.506 36.718C218.506 39.475 220.749 41.718 223.506 41.718C226.263 41.718 228.506 39.475 228.506 36.718C228.506 33.961 226.263 31.718 223.506 31.718Z" fill="#003DD0"/>
<path d="M237.745 456.494C229.474 456.494 222.745 449.765 222.745 441.494C222.745 433.223 229.474 426.494 237.745 426.494C246.016 426.494 252.745 433.223 252.745 441.494C252.745 449.765 246.017 456.494 237.745 456.494ZM237.745 436.494C234.988 436.494 232.745 438.737 232.745 441.494C232.745 444.251 234.988 446.494 237.745 446.494C240.502 446.494 242.745 444.251 242.745 441.494C242.745 438.737 240.502 436.494 237.745 436.494Z" fill="#003DD0"/>
<path d="M416.688 109.026C413.926 109.026 411.688 106.788 411.688 104.026C411.688 100.994 409.22 98.526 406.188 98.526C403.426 98.526 401.188 96.288 401.188 93.526C401.188 90.764 403.426 88.526 406.188 88.526C409.22 88.526 411.688 86.058 411.688 83.026C411.688 80.264 413.926 78.026 416.688 78.026C419.45 78.026 421.688 80.264 421.688 83.026C421.688 86.058 424.156 88.526 427.188 88.526C429.95 88.526 432.188 90.764 432.188 93.526C432.188 96.288 429.95 98.526 427.188 98.526C424.156 98.526 421.688 100.994 421.688 104.026C421.688 106.788 419.449 109.026 416.688 109.026Z" fill="#00AC1F"/>
<path d="M446.331 375.603C451.976 369.923 457.16 364.418 461.841 359.116C487.05 330.566 497.574 308.731 494.003 292.308C481.161 236.432 455.146 199.929 424.41 194.663C392.253 189.145 348.429 200.796 327.676 215.133C322.523 218.695 309.497 228.67 299.863 244.338C288.016 263.601 285.574 284.093 292.602 305.245C293.954 309.31 298.011 311.762 302.245 311.075C302.785 310.987 303.421 310.887 304.142 310.777C304.444 313.545 304.815 316.241 305.235 318.84C301.181 320.074 297.045 321.111 292.891 321.905C291.726 322.129 290.677 322.759 289.934 323.684L273.253 344.446C272.227 345.723 270.894 345.914 270.191 345.914C269.487 345.914 268.154 345.724 267.128 344.446L250.447 323.684C249.704 322.759 248.655 322.128 247.489 321.905C242.431 320.937 237.409 319.612 232.506 317.994C232.384 316.494 232.47 314.965 232.813 313.471C238.641 288.117 237.945 266.367 230.743 248.825C224.225 232.95 213.554 223.64 205.748 218.626C198.099 213.712 189.014 212.177 180.535 214.075C173.416 211.852 162.573 209.029 150.158 207.704C150.039 203.787 150.099 199.829 150.356 195.897C150.844 188.435 152.023 181.034 153.857 173.844C154.393 173.857 154.929 173.886 155.465 173.886C167.48 173.886 179.562 170.579 190.222 163.784L199.683 164.816C202.841 165.161 205.954 164.069 208.206 161.817C210.458 159.565 211.554 156.458 211.209 153.29L210.177 143.829C219.598 129.057 222.356 111.564 218.853 95.263C233.164 88.535 248.505 84.748 264.497 84.01C322.418 81.33 374.016 120.272 387.15 176.589C387.688 178.897 389.744 180.454 392.015 180.454C392.391 180.454 392.773 180.411 393.155 180.322C395.844 179.695 397.515 177.007 396.888 174.317C382.659 113.305 326.764 71.135 264.035 74.019C247.23 74.795 231.086 78.686 215.975 85.578C212.793 77.299 207.888 69.571 201.296 62.98C188.618 50.3 171.775 43.524 153.828 43.959C135.906 44.372 119.364 51.916 107.25 65.202C96.48 77.013 90.494 92.404 90.393 108.543C90.292 124.685 96.087 140.148 106.713 152.085C116.705 163.311 129.881 170.309 143.812 172.821C142.032 180.151 140.871 187.668 140.376 195.244C140.12 199.16 140.038 203.102 140.126 207.009C133.785 206.818 127.211 207.105 120.646 208.118C90.899 212.708 69.972 231.017 60.127 261.067C56.527 272.055 54.961 282.685 55.377 292.875C46.49 295.685 40.294 304.27 40.93 313.976C41.091 316.434 41.696 318.753 42.63 320.89C40.503 324.228 38.536 327.845 36.824 331.546C27.631 330.976 19.097 333.435 17.527 352.408C16.102 369.64 22.578 374.381 30.648 375.815C35.872 399 54.678 415.333 66.894 423.77L66.686 426.832C66.271 432.953 70.022 438.652 75.808 440.69L89.819 445.628L89.332 450.11C89.034 452.856 91.018 455.323 93.763 455.621C93.947 455.641 94.129 455.65 94.309 455.65C96.829 455.65 98.996 453.752 99.274 451.19L104.309 404.808C108.887 407.116 113.944 408.332 119.159 408.332C119.896 408.332 120.638 408.308 121.38 408.259C130.127 407.686 138.176 403.727 143.949 397.268C148.443 399.811 152.679 402.001 156.639 403.816C160.797 426.387 169.337 449.445 175.87 464.994C176.674 466.907 178.528 468.058 180.481 468.058C181.127 468.058 181.784 467.932 182.416 467.666C184.962 466.597 186.159 463.666 185.089 461.12C179.347 447.453 172.008 427.845 167.706 408.157C172.742 409.753 177.198 410.571 181.036 410.571C182.776 410.571 184.393 410.406 185.884 410.076C190.177 409.126 193.604 406.772 195.792 403.269C209.671 381.06 218.6 369.987 221.077 367.04L231.85 362.575C238.031 360.016 241.421 353.203 239.737 346.726L235.194 329.276C238.038 330.068 240.907 330.768 243.79 331.363L259.332 350.708C261.989 354.016 265.947 355.912 270.19 355.912C274.432 355.912 278.39 354.016 281.047 350.708L296.589 331.363C299.6 330.741 302.597 329.997 305.561 329.161C305.549 329.203 305.543 329.246 305.53 329.288L297.902 354.159C296.093 360.053 298.944 366.455 304.527 369.048L314.217 373.566C314.601 373.744 314.929 374.019 315.172 374.375C317.101 377.171 322.78 385.782 333.841 405.295C338.111 412.832 347.031 414.797 360.412 411.175L352.583 452.435C352.068 455.149 353.85 457.765 356.562 458.28C356.877 458.34 357.191 458.369 357.5 458.369C359.854 458.369 361.951 456.698 362.406 454.301L371.303 407.416L385.434 401.875C388.005 400.866 389.272 397.965 388.264 395.395C387.255 392.823 384.353 391.559 381.784 392.565L365.111 399.103C352.95 403.765 344.725 404.225 342.54 400.367C331.687 381.221 325.892 372.308 323.411 368.711C322.16 366.886 320.433 365.428 318.431 364.499L308.743 359.983C307.661 359.481 307.109 358.239 307.461 357.094L315.085 332.235C316.217 328.58 316.448 324.69 315.755 320.992C315.001 316.948 314.44 313.097 314.035 309.411C318.421 308.858 323.882 308.228 330.507 307.56C334.299 307.18 337.375 304.42 338.161 300.693L339.09 296.283L341.159 300.777C342.68 304.086 346.142 306.12 349.763 305.816C357.17 305.216 364.848 304.659 372.585 304.159C374.113 304.062 375.563 304.075 376.947 304.183C376.614 304.922 376.41 305.454 376.332 305.669C375.385 308.263 376.72 311.134 379.313 312.08C381.907 313.029 384.777 311.694 385.724 309.099C386.411 307.22 389.411 301.448 394.039 299.639C396.816 298.553 399.949 298.944 403.613 300.83C410.581 304.418 410.006 314.974 409.434 319.346C407.49 334.231 397.959 349.003 389.038 350.958C386.341 351.549 384.633 354.215 385.225 356.912C385.737 359.249 387.806 360.843 390.104 360.843C390.458 360.843 390.819 360.805 391.179 360.726C393.997 360.109 396.793 358.823 399.484 356.959C398.787 369.973 396.689 385.332 393.167 403.03C392.438 406.719 394.06 410.334 397.299 412.238C398.691 413.056 400.213 413.46 401.724 413.46C403.725 413.46 405.706 412.753 407.34 411.368C416.758 403.367 425.474 395.598 433.464 388.094C431.279 409.034 436.166 433.943 437.949 442.022C438.545 444.718 441.215 446.419 443.91 445.827C446.606 445.231 448.309 442.562 447.715 439.866C446.312 433.512 439.586 400.773 444.954 380.199C445.34 378.742 445.812 377.197 446.331 375.603ZM114.182 145.437C95.746 124.725 95.947 92.441 114.638 71.941C124.894 60.693 138.894 54.306 154.058 53.957C154.497 53.947 154.934 53.941 155.371 53.941C170.053 53.941 183.807 59.632 194.225 70.05C212.855 88.681 215.652 118.004 200.874 139.775C200.207 140.757 199.911 141.945 200.04 143.126L201.267 154.373C201.273 154.427 201.29 154.59 201.136 154.745C200.98 154.899 200.817 154.881 200.766 154.875L189.518 153.648C188.338 153.52 187.15 153.815 186.167 154.482C163.448 169.905 132.501 166.017 114.182 145.437ZM69.632 264.181C78.349 237.573 96.026 222.035 122.172 218.001C138.244 215.521 154.56 217.821 166.649 220.651C159.282 225.835 153.118 232.715 148.264 241.193C145.139 240.782 141.931 240.664 138.668 240.88C132.598 241.278 126.728 242.783 121.221 245.355C118.719 246.523 117.638 249.498 118.806 252.001C119.974 254.504 122.948 255.586 125.452 254.416C129.83 252.373 134.497 251.176 139.323 250.859C160.674 249.456 179.212 265.7 180.614 287.067C181.293 297.418 177.9 307.413 171.061 315.212C164.222 323.011 154.755 327.68 144.405 328.358C123.063 329.773 104.516 313.517 103.115 292.15C102.53 283.245 104.927 274.672 110.046 267.361C111.63 265.099 111.08 261.981 108.817 260.398C106.557 258.815 103.438 259.363 101.854 261.627C95.507 270.691 92.412 281.765 93.136 292.805C94.827 318.593 116.347 338.446 141.83 338.444C142.456 338.444 143.09 338.406 143.721 338.382C142.698 341.864 141.179 345.273 139.162 348.596C132.855 343.848 125.03 341.465 117.034 341.992C109.913 342.459 103.464 345.157 98.308 349.349C68.357 326.169 58.706 297.532 69.632 264.181ZM56.513 303.197C57.759 310.113 59.975 316.798 63.154 323.221C62.876 323.261 62.601 323.306 62.317 323.325C59.454 323.516 56.696 322.575 54.542 320.686C52.388 318.796 51.098 316.181 50.91 313.322C50.628 309.015 52.948 305.135 56.513 303.197ZM27.495 353.233C28.337 343.056 30.394 341.424 34.228 341.424C35.046 341.424 35.947 341.498 36.932 341.58C42.536 342.044 45.349 342.277 44.327 354.626C43.306 366.976 40.493 366.743 34.889 366.278C29.285 365.815 26.473 365.582 27.495 353.233ZM53.969 399.051C47.593 391.662 43.26 383.954 41.033 376.086C47.681 374.942 53.077 370.153 54.294 355.451C55.365 342.509 51.977 336.615 46.806 333.873C47.585 332.295 48.415 330.754 49.281 329.249C52.747 331.824 57.018 333.348 61.6 333.348C62.054 333.348 62.512 333.333 62.97 333.303C64.803 333.183 66.613 332.808 68.345 332.215C74.163 340.983 81.906 349.196 91.558 356.766C87.659 362.623 85.575 369.751 86.07 377.297C86.58 385.072 89.725 392.264 95.002 397.861L94.017 406.933L85.655 403.987C81.579 402.549 77.17 403.09 73.56 405.466C71.012 407.143 69.166 409.556 68.187 412.341C63.7 408.896 58.621 404.441 53.969 399.051ZM79.131 431.259C77.566 430.707 76.55 429.165 76.662 427.509L77.398 416.667C77.477 415.501 78.084 414.463 79.06 413.819C80.038 413.176 81.231 413.03 82.332 413.42L92.909 417.147L90.926 435.416L79.131 431.259ZM120.725 398.281C114.539 398.691 108.568 396.659 103.907 392.573C99.246 388.486 96.456 382.829 96.051 376.643C95.213 363.874 104.92 352.805 117.689 351.967C123.289 351.603 128.774 353.276 133.19 356.611C131.557 358.447 129.77 360.253 127.812 362.023C123.86 365.598 121.834 370.68 122.255 375.965C122.669 381.173 125.419 385.794 129.799 388.642C131.609 389.819 133.372 390.931 135.113 392.014C131.22 395.687 126.168 397.924 120.725 398.281ZM228.022 353.339L216.146 358.26C215.457 358.545 214.84 358.982 214.341 359.536C213.938 359.984 204.268 370.837 187.31 397.973C186.534 399.215 185.427 399.937 183.721 400.315C179.767 401.189 167.12 400.989 135.248 380.261C133.491 379.117 132.388 377.264 132.221 375.174C132.049 373.007 132.886 370.917 134.519 369.441C145.413 359.587 152.085 348.619 154.388 336.817C163.706 334.366 172.085 329.209 178.578 321.803C187.178 311.996 191.444 299.427 190.591 286.411C189.283 266.478 176.121 250.094 158.445 243.683C163.283 236.083 169.411 230.179 176.725 226.106C184.046 222.027 193.097 222.384 200.341 227.04C232.24 247.533 228.271 288.584 223.065 311.231C222.216 314.926 222.233 318.778 223.089 322.411C223.136 322.764 223.22 323.105 223.339 323.437L230.058 349.246C230.493 350.919 229.618 352.678 228.022 353.339ZM403.692 401.337C407.867 379.536 409.855 361.231 409.684 346.222C409.837 345.993 409.994 345.771 410.145 345.537C414.887 338.221 418.244 329.146 419.355 320.64C421.14 306.971 417.073 296.509 408.196 291.939C401.917 288.707 395.931 288.161 390.403 290.325C387.521 291.451 385.149 293.183 383.216 295.081C380.573 294.428 377.757 294.088 374.757 294.088C373.836 294.088 372.898 294.119 371.944 294.181C364.469 294.663 357.048 295.2 349.868 295.777L343.728 282.443C342.557 279.897 339.9 278.398 337.116 278.711C334.332 279.024 332.074 281.077 331.498 283.817L328.574 297.707C314.934 299.097 306.238 300.326 301.748 301.03C288.016 257.417 325.626 228.708 333.361 223.362C352.098 210.418 393.408 199.498 422.721 204.52C454.072 209.892 475.064 254.548 484.244 294.492C488.654 314.766 459.33 353.621 403.692 401.337Z" fill="#003DD0"/>
</g>
<defs>
<linearGradient id="paint0_linear_307_8175" x1="70.489" y1="444.308" x2="419.692" y2="95.104" gradientUnits="userSpaceOnUse">
<stop offset="0.274038" stop-color="#00AC1F" stop-opacity="0"/>
<stop offset="1" stop-color="#00AC1F" stop-opacity="0.8"/>
</linearGradient>
<clipPath id="clip0_307_8175">
<rect width="512" height="512" fill="white"/>
</clipPath>
</defs>
</svg>
