<svg width="512" height="512" viewBox="0 0 512 512" fill="none" xmlns="http://www.w3.org/2000/svg">
<path d="M506.654 127.571C499.388 71.399 468.832 0 339.268 0C249.791 0 248.582 42.86 153.277 21.61C83.824 6.125 14.766 57.209 5.16597 128.571C-5.19003 205.555 50.497 240.846 68.575 305.437C88.076 375.109 102.082 512 188.852 512C284.53 512 289.47 437.965 351.443 356.729C411.072 278.563 522.069 246.745 506.654 127.571Z" fill="url(#paint0_linear_307_8286)"/>
<path opacity="0.1" d="M471.733 229.97H449.46V209.56C465.659 200.702 476.648 183.507 476.648 163.742C476.648 134.919 453.283 111.554 424.46 111.554C395.637 111.554 372.272 134.919 372.272 163.742C372.272 169.476 373.21 174.988 374.919 180.149H176.36C170.83 180.149 166.36 184.629 166.36 190.149V229.969H40.267C37.506 229.969 35.267 232.208 35.267 234.969V294.819C35.267 297.58 37.506 299.819 40.267 299.819H140.148C128.297 310.31 120.818 325.628 120.818 342.699C120.818 353.436 123.779 363.478 128.92 372.066L77.413 423.573C75.46 425.526 75.46 428.691 77.413 430.644L90.137 443.368C92.09 445.321 95.255 445.321 97.208 443.368L148.715 391.862C157.303 397.003 167.345 399.964 178.082 399.964C207.357 399.964 231.485 377.991 234.912 349.64H439.46C444.98 349.64 449.46 345.16 449.46 339.64V299.82H471.733C474.494 299.82 476.733 297.581 476.733 294.82V234.97C476.733 232.209 474.494 229.97 471.733 229.97Z" fill="#0000CB"/>
<path d="M471.733 205.97H107.824V275.82H471.732C474.493 275.82 476.732 273.581 476.732 270.82V210.97C476.733 208.209 474.494 205.97 471.733 205.97Z" fill="#BCD7FF"/>
<path d="M107.824 275.819H40.2709C37.5099 275.819 35.2709 273.58 35.2709 270.819V210.967C35.2709 208.206 37.5099 205.967 40.2709 205.967H107.824C110.585 205.967 112.824 208.206 112.824 210.967V270.819C112.824 273.581 110.585 275.819 107.824 275.819Z" fill="#00AC1F"/>
<path d="M95.029 252.901L87.071 244.943C90.391 238.606 89.392 230.579 84.073 225.26C77.523 218.711 66.867 218.711 60.317 225.26C53.768 231.809 53.768 242.467 60.317 249.016C63.592 252.29 67.893 253.928 72.195 253.928C74.88 253.928 77.564 253.29 80 252.014L87.958 259.972C88.935 260.948 90.214 261.436 91.494 261.436C92.774 261.436 94.053 260.948 95.03 259.972C96.982 258.02 96.982 254.854 95.029 252.901ZM67.389 241.946C64.739 239.296 64.739 234.983 67.389 232.333C68.714 231.008 70.455 230.345 72.196 230.345C73.937 230.345 75.677 231.008 77.003 232.333C79.653 234.983 79.653 239.296 77.003 241.946C74.353 244.596 70.039 244.596 67.389 241.946Z" fill="white"/>
<path d="M141.268 261.165H129.872C128.215 261.165 126.872 259.822 126.872 258.165V223.621C126.872 221.964 128.215 220.621 129.872 220.621H141.268C142.925 220.621 144.268 221.964 144.268 223.621V258.165C144.268 259.822 142.925 261.165 141.268 261.165Z" fill="#00AC1F"/>
<path d="M449.46 166.15V315.64C449.46 321.16 444.98 325.64 439.46 325.64H176.36C170.83 325.64 166.36 321.16 166.36 315.64V166.15C166.36 160.63 170.83 156.15 176.36 156.15H439.46C444.98 156.15 449.46 160.63 449.46 166.15Z" fill="#00D627"/>
<path d="M449.46 166.15V209.56C442.03 213.62 433.52 215.93 424.46 215.93C395.64 215.93 372.27 192.57 372.27 163.74C372.27 161.16 372.46 158.63 372.82 156.15H439.46C444.98 156.15 449.46 160.63 449.46 166.15Z" fill="#BCD7FF"/>
<path d="M191.36 181.15H424.46V300.64H191.36V181.15Z" fill="#7AEE90"/>
<path d="M424.46 181.15V215.93C401.74 215.93 382.41 201.42 375.25 181.15H424.46Z" fill="#4AE767"/>
<path d="M250.864 266.6C248.794 266.6 246.93 265.321 246.191 263.377L237.748 241.167L229.305 263.377C228.549 265.366 226.617 266.662 224.49 266.598C222.363 266.538 220.507 265.138 219.865 263.11L206.748 221.698C205.914 219.066 207.373 216.256 210.005 215.422C212.634 214.589 215.447 216.046 216.281 218.679L225.061 246.399L233.074 225.319C233.812 223.379 235.672 222.096 237.748 222.096C239.824 222.096 241.684 223.379 242.422 225.319L250.435 246.399L259.215 218.679C260.049 216.046 262.86 214.588 265.491 215.422C268.123 216.256 269.582 219.066 268.748 221.698L255.631 263.11C254.988 265.138 253.132 266.538 251.006 266.598C250.958 266.599 250.911 266.6 250.864 266.6Z" fill="#003DD0"/>
<path d="M321.023 266.6C318.953 266.6 317.089 265.321 316.35 263.377L307.907 241.167L299.464 263.377C298.708 265.366 296.771 266.662 294.649 266.598C292.522 266.538 290.666 265.138 290.024 263.11L276.907 221.698C276.073 219.066 277.532 216.256 280.164 215.422C282.792 214.589 285.606 216.046 286.44 218.679L295.22 246.399L303.233 225.319C303.971 223.379 305.831 222.096 307.907 222.096C309.983 222.096 311.843 223.379 312.581 225.319L320.594 246.399L329.374 218.679C330.207 216.046 333.018 214.588 335.65 215.422C338.282 216.256 339.741 219.066 338.907 221.698L325.79 263.11C325.147 265.138 323.291 266.538 321.165 266.598C321.118 266.599 321.071 266.6 321.023 266.6Z" fill="#003DD0"/>
<path d="M364.951 266.6C364.904 266.6 364.856 266.6 364.809 266.598C362.682 266.538 360.826 265.138 360.184 263.11L347.067 221.698C346.233 219.066 347.692 216.256 350.324 215.422C352.953 214.589 355.766 216.046 356.6 218.679L365.38 246.399L373.394 225.319C374.132 223.379 375.992 222.096 378.068 222.096C380.144 222.096 382.004 223.379 382.742 225.319L390.755 246.399L399.535 218.679C400.369 216.046 403.179 214.588 405.811 215.422C408.443 216.256 409.902 219.066 409.068 221.698L395.951 263.11C395.308 265.138 393.452 266.538 391.326 266.598C389.209 266.656 387.267 265.366 386.511 263.377L378.068 241.167L369.625 263.377C368.885 265.321 367.021 266.6 364.951 266.6Z" fill="#003DD0"/>
<path d="M424.46 191.931C453.283 191.931 476.648 168.566 476.648 139.743C476.648 110.92 453.283 87.555 424.46 87.555C395.637 87.555 372.272 110.92 372.272 139.743C372.272 168.566 395.637 191.931 424.46 191.931Z" fill="#26DD45"/>
<path d="M424.46 105.306C405.472 105.306 390.023 120.754 390.023 139.743C390.023 158.732 405.471 174.18 424.46 174.18C443.449 174.18 458.897 158.732 458.897 139.743C458.897 120.754 443.449 105.306 424.46 105.306ZM448.381 134.743H441.093C440.738 129.373 439.811 124.155 438.329 119.639C443.395 123.144 447.079 128.51 448.381 134.743ZM424.492 164.179C424.487 164.179 424.482 164.179 424.478 164.179C424.101 164.094 422.258 162.758 420.494 158.013C419.118 154.313 418.209 149.718 417.844 144.742H431.077C430.711 149.718 429.802 154.313 428.426 158.013C426.663 162.755 424.822 164.092 424.492 164.179ZM417.843 134.743C418.209 129.767 419.118 125.173 420.494 121.472C422.256 116.731 424.097 115.394 424.428 115.307H424.442C424.819 115.392 426.662 116.727 428.426 121.472C429.802 125.173 430.711 129.767 431.077 134.743H417.843ZM410.591 119.639C409.109 124.155 408.182 129.373 407.827 134.743H400.539C401.841 128.51 405.525 123.144 410.591 119.639ZM400.539 144.743H407.827C408.182 150.114 409.109 155.331 410.591 159.848C405.525 156.342 401.841 150.976 400.539 144.743ZM438.329 159.847C439.811 155.331 440.739 150.113 441.093 144.742H448.381C447.079 150.976 443.395 156.342 438.329 159.847Z" fill="white"/>
<path d="M94.9189 382.069L142.114 334.873L161.909 354.668L114.714 401.863L108.568 401.718L95.9249 389.075L94.9189 382.069Z" fill="#26DD45"/>
<path d="M94.919 382.069L77.414 399.574C75.461 401.527 75.461 404.693 77.414 406.645L90.138 419.368C92.091 421.321 95.256 421.321 97.209 419.368L114.714 401.863L94.919 382.069Z" fill="#003DD0"/>
<path d="M178.082 375.964C209.708 375.964 235.346 350.326 235.346 318.7C235.346 287.074 209.708 261.436 178.082 261.436C146.456 261.436 120.818 287.074 120.818 318.7C120.818 350.326 146.456 375.964 178.082 375.964Z" fill="#3E89F0"/>
<path d="M219.735 325.419C223.469 302.381 207.821 280.677 184.783 276.943C161.745 273.208 140.042 288.857 136.307 311.895C132.573 334.933 148.221 356.637 171.259 360.372C194.297 364.106 216 348.457 219.735 325.419Z" fill="#E5F0FF"/>
<path d="M160.246 323.7C163.007 323.7 165.246 321.461 165.246 318.7C165.246 315.939 163.007 313.7 160.246 313.7C157.485 313.7 155.246 315.939 155.246 318.7C155.246 321.461 157.485 323.7 160.246 323.7Z" fill="#00AC1F"/>
<path d="M178.082 323.7C180.843 323.7 183.082 321.461 183.082 318.7C183.082 315.939 180.843 313.7 178.082 313.7C175.321 313.7 173.082 315.939 173.082 318.7C173.082 321.461 175.321 323.7 178.082 323.7Z" fill="#00AC1F"/>
<path d="M195.918 323.7C198.679 323.7 200.918 321.461 200.918 318.7C200.918 315.939 198.679 313.7 195.918 313.7C193.157 313.7 190.918 315.939 190.918 318.7C190.918 321.461 193.157 323.7 195.918 323.7Z" fill="#00AC1F"/>
<path d="M471.73 200.97H454.46V188.404C470.761 178.317 481.648 160.281 481.648 139.743C481.648 108.21 455.994 82.555 424.46 82.555C392.926 82.555 367.272 108.209 367.272 139.743C367.272 143.648 367.668 147.463 368.417 151.15H176.36C168.089 151.15 161.36 157.879 161.36 166.15V200.97H40.27C34.756 200.97 30.27 205.456 30.27 210.97V270.821C30.27 276.335 34.756 280.821 40.27 280.821H128.715C120.637 291.324 115.818 304.457 115.818 318.701C115.818 328.959 118.327 338.636 122.74 347.177L73.878 396.038C69.979 399.937 69.979 406.282 73.878 410.181L86.602 422.905C88.552 424.854 91.112 425.829 93.673 425.829C96.234 425.829 98.795 424.854 100.744 422.905L131.131 392.518C133.084 390.565 133.084 387.399 131.131 385.447C129.178 383.495 126.013 383.495 124.06 385.447L93.673 415.834L80.95 403.109L128.173 355.886C139.536 371.097 157.678 380.964 178.082 380.964C208.331 380.964 233.598 359.279 239.185 330.64H439.46C447.731 330.64 454.46 323.911 454.46 315.64V280.82H471.73C477.244 280.82 481.73 276.334 481.73 270.82V210.97C481.73 205.456 477.244 200.97 471.73 200.97ZM424.46 92.555C450.48 92.555 471.648 113.723 471.648 139.743C471.648 165.763 450.48 186.931 424.46 186.931C398.44 186.931 377.272 165.763 377.272 139.743C377.272 113.724 398.44 92.555 424.46 92.555ZM178.082 370.964C149.264 370.964 125.818 347.519 125.818 318.7C125.818 289.882 149.263 266.437 178.082 266.437C206.901 266.437 230.346 289.882 230.346 318.7C230.346 347.519 206.9 370.964 178.082 370.964ZM444.46 315.64C444.46 318.397 442.217 320.64 439.46 320.64H240.297C240.317 319.994 240.346 319.351 240.346 318.7C240.346 284.368 212.415 256.437 178.082 256.437C162.981 256.437 149.121 261.845 138.329 270.82H40.27V210.97H161.36V232.55C161.36 235.311 163.599 237.55 166.36 237.55C169.121 237.55 171.36 235.311 171.36 232.55V166.15C171.36 163.393 173.603 161.15 176.36 161.15H371.445C379.938 182.106 400.494 196.931 424.46 196.931C431.494 196.931 438.231 195.647 444.46 193.314V315.64ZM471.73 270.82H454.46V210.97H471.73V270.82Z" fill="#0000CB"/>
<path d="M268.983 397.569C266.222 397.569 263.983 395.33 263.983 392.569C263.983 389.536 261.516 387.069 258.483 387.069C255.722 387.069 253.483 384.83 253.483 382.069C253.483 379.308 255.722 377.069 258.483 377.069C261.516 377.069 263.983 374.602 263.983 371.569C263.983 368.808 266.222 366.569 268.983 366.569C271.744 366.569 273.983 368.808 273.983 371.569C273.983 374.602 276.45 377.069 279.483 377.069C282.244 377.069 284.483 379.308 284.483 382.069C284.483 384.83 282.244 387.069 279.483 387.069C276.45 387.069 273.983 389.536 273.983 392.569C273.983 395.33 271.744 397.569 268.983 397.569Z" fill="#00D627"/>
<path d="M106.494 179.139C103.733 179.139 101.494 176.9 101.494 174.139C101.494 171.106 99.027 168.639 95.994 168.639C93.233 168.639 90.994 166.4 90.994 163.639C90.994 160.878 93.233 158.639 95.994 158.639C99.027 158.639 101.494 156.172 101.494 153.139C101.494 150.378 103.733 148.139 106.494 148.139C109.255 148.139 111.494 150.378 111.494 153.139C111.494 156.172 113.961 158.639 116.994 158.639C119.755 158.639 121.994 160.878 121.994 163.639C121.994 166.4 119.755 168.639 116.994 168.639C113.961 168.639 111.494 171.106 111.494 174.139C111.494 176.9 109.255 179.139 106.494 179.139Z" fill="#00D627"/>
<path d="M302.746 63.617C299.985 63.617 297.746 61.378 297.746 58.617C297.746 55.584 295.279 53.117 292.246 53.117C289.485 53.117 287.246 50.878 287.246 48.117C287.246 45.356 289.485 43.117 292.246 43.117C295.279 43.117 297.746 40.65 297.746 37.617C297.746 34.856 299.985 32.617 302.746 32.617C305.507 32.617 307.746 34.856 307.746 37.617C307.746 40.65 310.213 43.117 313.246 43.117C316.007 43.117 318.246 45.356 318.246 48.117C318.246 50.878 316.007 53.117 313.246 53.117C310.213 53.117 307.746 55.584 307.746 58.617C307.746 61.378 305.507 63.617 302.746 63.617Z" fill="#26DD45"/>
<path d="M238.408 83.509C237.128 83.509 235.849 83.021 234.872 82.045L224.372 71.545C222.419 69.592 222.419 66.426 224.372 64.474L234.872 53.974C236.825 52.022 239.99 52.022 241.943 53.974L252.443 64.474C254.396 66.427 254.396 69.593 252.443 71.545L241.943 82.045C240.967 83.021 239.688 83.509 238.408 83.509ZM234.979 68.009L238.408 71.438L241.837 68.009L238.408 64.58L234.979 68.009Z" fill="#003DD0"/>
<path d="M352.264 420.422C350.984 420.422 349.705 419.934 348.728 418.958L338.228 408.458C336.275 406.505 336.275 403.339 338.228 401.387L348.728 390.887C350.681 388.935 353.846 388.935 355.799 390.887L366.299 401.387C368.252 403.34 368.252 406.506 366.299 408.458L355.799 418.958C354.823 419.934 353.543 420.422 352.264 420.422ZM348.835 404.922L352.264 408.351L355.693 404.922L352.264 401.493L348.835 404.922Z" fill="#003DD0"/>
<defs>
<linearGradient id="paint0_linear_307_8286" x1="35.19" y1="388.519" x2="424.906" y2="-1.19698" gradientUnits="userSpaceOnUse">
<stop offset="0.0144231" stop-color="#7AFF81" stop-opacity="0"/>
<stop offset="0.293269" stop-color="#E8FBE9" stop-opacity="0.1"/>
<stop offset="0.447115" stop-color="#4AE767" stop-opacity="0.2"/>
<stop offset="0.903846" stop-color="#00D627" stop-opacity="0.8"/>
</linearGradient>
</defs>
</svg>
